<?xml version="1.0" encoding="UTF-8" standalone="no"?>
<!DOCTYPE svg PUBLIC "-//W3C//DTD SVG 1.1//EN"
 "http://www.w3.org/Graphics/SVG/1.1/DTD/svg11.dtd">
<!-- Generated by graphviz version 7.1.0 (0)
 -->
<!-- Title: snakemake_dag Pages: 1 -->
<svg width="400pt" height="620pt"
 viewBox="0.00 0.00 400.00 620.00" xmlns="http://www.w3.org/2000/svg" xmlns:xlink="http://www.w3.org/1999/xlink">
<g id="graph0" class="graph" transform="scale(1 1) rotate(0) translate(4 616)">
<title>snakemake_dag</title>
<polygon fill="white" stroke="none" points="-4,4 -4,-616 396,-616 396,4 -4,4"/>
<!-- 0 -->
<g id="node1" class="node">
<title>0</title>
<path fill="none" stroke="#b6d856" stroke-width="2" d="M229.5,-36C229.5,-36 199.5,-36 199.5,-36 193.5,-36 187.5,-30 187.5,-24 187.5,-24 187.5,-12 187.5,-12 187.5,-6 193.5,0 199.5,0 199.5,0 229.5,0 229.5,0 235.5,0 241.5,-6 241.5,-12 241.5,-12 241.5,-24 241.5,-24 241.5,-30 235.5,-36 229.5,-36"/>
<text text-anchor="middle" x="214.5" y="-15.5" font-family="sans" font-size="10.00">all</text>
</g>
<!-- 1 -->
<g id="node2" class="node">
<title>1</title>
<path fill="none" stroke="#567bd8" stroke-width="2" d="M250.5,-108C250.5,-108 178.5,-108 178.5,-108 172.5,-108 166.5,-102 166.5,-96 166.5,-96 166.5,-84 166.5,-84 166.5,-78 172.5,-72 178.5,-72 178.5,-72 250.5,-72 250.5,-72 256.5,-72 262.5,-78 262.5,-84 262.5,-84 262.5,-96 262.5,-96 262.5,-102 256.5,-108 250.5,-108"/>
<text text-anchor="middle" x="214.5" y="-87.5" font-family="sans" font-size="10.00">bracken_quantify</text>
</g>
<!-- 1&#45;&gt;0 -->
<g id="edge1" class="edge">
<title>1&#45;&gt;0</title>
<path fill="none" stroke="grey" stroke-width="2" d="M214.5,-71.34C214.5,-64.75 214.5,-57.08 214.5,-49.67"/>
<polygon fill="grey" stroke="grey" stroke-width="2" points="218,-49.93 214.5,-39.93 211,-49.93 218,-49.93"/>
</g>
<!-- 2 -->
<g id="node3" class="node">
<title>2</title>
<path fill="none" stroke="#56d8d8" stroke-width="2" d="M180,-252C180,-252 99,-252 99,-252 93,-252 87,-246 87,-240 87,-240 87,-228 87,-228 87,-222 93,-216 99,-216 99,-216 180,-216 180,-216 186,-216 192,-222 192,-228 192,-228 192,-240 192,-240 192,-246 186,-252 180,-252"/>
<text text-anchor="middle" x="139.5" y="-231.5" font-family="sans" font-size="10.00">krakenuniq_classify</text>
</g>
<!-- 2&#45;&gt;1 -->
<g id="edge3" class="edge">
<title>2&#45;&gt;1</title>
<path fill="none" stroke="grey" stroke-width="2" d="M149,-215.02C161.62,-191.12 184.08,-148.59 199.13,-120.1"/>
<polygon fill="grey" stroke="grey" stroke-width="2" points="202.09,-121.99 203.66,-111.52 195.9,-118.72 202.09,-121.99"/>
</g>
<!-- 3 -->
<g id="node4" class="node">
<title>3</title>
<path fill="none" stroke="#56d87b" stroke-width="2" d="M195,-324C195,-324 82,-324 82,-324 76,-324 70,-318 70,-312 70,-312 70,-300 70,-300 70,-294 76,-288 82,-288 82,-288 195,-288 195,-288 201,-288 207,-294 207,-300 207,-300 207,-312 207,-312 207,-318 201,-324 195,-324"/>
<text text-anchor="middle" x="138.5" y="-303.5" font-family="sans" font-size="10.00">bowtie2_filtered_fastq_pe</text>
</g>
<!-- 3&#45;&gt;2 -->
<g id="edge5" class="edge">
<title>3&#45;&gt;2</title>
<path fill="none" stroke="grey" stroke-width="2" d="M138.75,-287.34C138.85,-280.75 138.96,-273.08 139.06,-265.67"/>
<polygon fill="grey" stroke="grey" stroke-width="2" points="142.56,-265.98 139.2,-255.93 135.56,-265.88 142.56,-265.98"/>
</g>
<!-- 11 -->
<g id="node12" class="node">
<title>11</title>
<path fill="none" stroke="#d85656" stroke-width="2" d="M358.5,-252C358.5,-252 222.5,-252 222.5,-252 216.5,-252 210.5,-246 210.5,-240 210.5,-240 210.5,-228 210.5,-228 210.5,-222 216.5,-216 222.5,-216 222.5,-216 358.5,-216 358.5,-216 364.5,-216 370.5,-222 370.5,-228 370.5,-228 370.5,-240 370.5,-240 370.5,-246 364.5,-252 358.5,-252"/>
<text text-anchor="middle" x="290.5" y="-231.5" font-family="sans" font-size="10.00">bbmap_read_length_histogram</text>
</g>
<!-- 3&#45;&gt;11 -->
<g id="edge15" class="edge">
<title>3&#45;&gt;11</title>
<path fill="none" stroke="grey" stroke-width="2" d="M177.25,-287.15C196.29,-278.38 219.48,-267.71 239.9,-258.3"/>
<polygon fill="grey" stroke="grey" stroke-width="2" points="241.19,-261.56 248.81,-254.2 238.26,-255.2 241.19,-261.56"/>
</g>
<!-- 4 -->
<g id="node5" class="node">
<title>4</title>
<path fill="none" stroke="#d8b456" stroke-width="2" d="M260,-396C260,-396 171,-396 171,-396 165,-396 159,-390 159,-384 159,-384 159,-372 159,-372 159,-366 165,-360 171,-360 171,-360 260,-360 260,-360 266,-360 272,-366 272,-372 272,-372 272,-384 272,-384 272,-390 266,-396 260,-396"/>
<text text-anchor="middle" x="215.5" y="-375.5" font-family="sans" font-size="10.00">bowtie2_sorted_sam</text>
</g>
<!-- 4&#45;&gt;3 -->
<g id="edge6" class="edge">
<title>4&#45;&gt;3</title>
<path fill="none" stroke="grey" stroke-width="2" d="M196.07,-359.34C187.47,-351.52 177.18,-342.16 167.69,-333.53"/>
<polygon fill="grey" stroke="grey" stroke-width="2" points="170.19,-331.07 160.43,-326.94 165.48,-336.25 170.19,-331.07"/>
</g>
<!-- 12 -->
<g id="node13" class="node">
<title>12</title>
<path fill="none" stroke="#d87556" stroke-width="2" d="M348,-324C348,-324 237,-324 237,-324 231,-324 225,-318 225,-312 225,-312 225,-300 225,-300 225,-294 231,-288 237,-288 237,-288 348,-288 348,-288 354,-288 360,-294 360,-300 360,-300 360,-312 360,-312 360,-318 354,-324 348,-324"/>
<text text-anchor="middle" x="292.5" y="-303.5" font-family="sans" font-size="10.00">bowtie2_filtered_fastq_se</text>
</g>
<!-- 4&#45;&gt;12 -->
<g id="edge16" class="edge">
<title>4&#45;&gt;12</title>
<path fill="none" stroke="grey" stroke-width="2" d="M234.93,-359.34C243.53,-351.52 253.82,-342.16 263.31,-333.53"/>
<polygon fill="grey" stroke="grey" stroke-width="2" points="265.52,-336.25 270.57,-326.94 260.81,-331.07 265.52,-336.25"/>
</g>
<!-- 5 -->
<g id="node6" class="node">
<title>5</title>
<path fill="none" stroke="#59d856" stroke-width="2" d="M243.5,-468C243.5,-468 187.5,-468 187.5,-468 181.5,-468 175.5,-462 175.5,-456 175.5,-456 175.5,-444 175.5,-444 175.5,-438 181.5,-432 187.5,-432 187.5,-432 243.5,-432 243.5,-432 249.5,-432 255.5,-438 255.5,-444 255.5,-444 255.5,-456 255.5,-456 255.5,-462 249.5,-468 243.5,-468"/>
<text text-anchor="middle" x="215.5" y="-447.5" font-family="sans" font-size="10.00">bowtie2_align</text>
</g>
<!-- 5&#45;&gt;4 -->
<g id="edge7" class="edge">
<title>5&#45;&gt;4</title>
<path fill="none" stroke="grey" stroke-width="2" d="M215.5,-431.34C215.5,-424.75 215.5,-417.08 215.5,-409.67"/>
<polygon fill="grey" stroke="grey" stroke-width="2" points="219,-409.93 215.5,-399.93 212,-409.93 219,-409.93"/>
</g>
<!-- 6 -->
<g id="node7" class="node">
<title>6</title>
<path fill="none" stroke="#78d856" stroke-width="2" d="M269.5,-540C269.5,-540 161.5,-540 161.5,-540 155.5,-540 149.5,-534 149.5,-528 149.5,-528 149.5,-516 149.5,-516 149.5,-510 155.5,-504 161.5,-504 161.5,-504 269.5,-504 269.5,-504 275.5,-504 281.5,-510 281.5,-516 281.5,-516 281.5,-528 281.5,-528 281.5,-534 275.5,-540 269.5,-540"/>
<text text-anchor="middle" x="215.5" y="-519.5" font-family="sans" font-size="10.00">gdc_unmapped_fastq_pe</text>
</g>
<!-- 6&#45;&gt;5 -->
<g id="edge8" class="edge">
<title>6&#45;&gt;5</title>
<path fill="none" stroke="grey" stroke-width="2" d="M215.5,-503.34C215.5,-496.75 215.5,-489.08 215.5,-481.67"/>
<polygon fill="grey" stroke="grey" stroke-width="2" points="219,-481.93 215.5,-471.93 212,-481.93 219,-481.93"/>
</g>
<!-- 7 -->
<g id="node8" class="node">
<title>7</title>
<path fill="none" stroke="#97d856" stroke-width="2" d="M185,-612C185,-612 96,-612 96,-612 90,-612 84,-606 84,-600 84,-600 84,-588 84,-588 84,-582 90,-576 96,-576 96,-576 185,-576 185,-576 191,-576 197,-582 197,-588 197,-588 197,-600 197,-600 197,-606 191,-612 185,-612"/>
<text text-anchor="middle" x="140.5" y="-591.5" font-family="sans" font-size="10.00">gdc_unmapped_bam</text>
</g>
<!-- 7&#45;&gt;6 -->
<g id="edge11" class="edge">
<title>7&#45;&gt;6</title>
<path fill="none" stroke="grey" stroke-width="2" d="M159.43,-575.34C167.8,-567.52 177.83,-558.16 187.07,-549.53"/>
<polygon fill="grey" stroke="grey" stroke-width="2" points="189.18,-552.35 194.11,-542.97 184.41,-547.23 189.18,-552.35"/>
</g>
<!-- 13 -->
<g id="node14" class="node">
<title>13</title>
<path fill="none" stroke="#d6d856" stroke-width="2" d="M119,-540C119,-540 12,-540 12,-540 6,-540 0,-534 0,-528 0,-528 0,-516 0,-516 0,-510 6,-504 12,-504 12,-504 119,-504 119,-504 125,-504 131,-510 131,-516 131,-516 131,-528 131,-528 131,-534 125,-540 119,-540"/>
<text text-anchor="middle" x="65.5" y="-519.5" font-family="sans" font-size="10.00">gdc_unmapped_fastq_se</text>
</g>
<!-- 7&#45;&gt;13 -->
<g id="edge17" class="edge">
<title>7&#45;&gt;13</title>
<path fill="none" stroke="grey" stroke-width="2" d="M121.57,-575.34C113.2,-567.52 103.17,-558.16 93.93,-549.53"/>
<polygon fill="grey" stroke="grey" stroke-width="2" points="96.59,-547.23 86.89,-542.97 91.82,-552.35 96.59,-547.23"/>
</g>
<!-- 8 -->
<g id="node9" class="node">
<title>8</title>
<path fill="none" stroke="#d89556" stroke-width="2" d="M371,-540C371,-540 312,-540 312,-540 306,-540 300,-534 300,-528 300,-528 300,-516 300,-516 300,-510 306,-504 312,-504 312,-504 371,-504 371,-504 377,-504 383,-510 383,-516 383,-516 383,-528 383,-528 383,-534 377,-540 371,-540"/>
<text text-anchor="middle" x="341.5" y="-519.5" font-family="sans" font-size="10.00">bowtie2_index</text>
</g>
<!-- 8&#45;&gt;5 -->
<g id="edge9" class="edge">
<title>8&#45;&gt;5</title>
<path fill="none" stroke="grey" stroke-width="2" d="M309.38,-503.15C293.98,-494.6 275.3,-484.22 258.68,-474.99"/>
<polygon fill="grey" stroke="grey" stroke-width="2" points="260.65,-472.08 250.21,-470.28 257.25,-478.2 260.65,-472.08"/>
</g>
<!-- 9 -->
<g id="node10" class="node">
<title>9</title>
<path fill="none" stroke="#56d8b9" stroke-width="2" d="M380,-612C380,-612 303,-612 303,-612 297,-612 291,-606 291,-600 291,-600 291,-588 291,-588 291,-582 297,-576 303,-576 303,-576 380,-576 380,-576 386,-576 392,-582 392,-588 392,-588 392,-600 392,-600 392,-606 386,-612 380,-612"/>
<text text-anchor="middle" x="341.5" y="-591.5" font-family="sans" font-size="10.00">ref_genome_fasta</text>
</g>
<!-- 9&#45;&gt;8 -->
<g id="edge12" class="edge">
<title>9&#45;&gt;8</title>
<path fill="none" stroke="grey" stroke-width="2" d="M341.5,-575.34C341.5,-568.75 341.5,-561.08 341.5,-553.67"/>
<polygon fill="grey" stroke="grey" stroke-width="2" points="345,-553.93 341.5,-543.93 338,-553.93 345,-553.93"/>
</g>
<!-- 10 -->
<g id="node11" class="node">
<title>10</title>
<path fill="none" stroke="#56d89a" stroke-width="2" d="M331,-180C331,-180 222,-180 222,-180 216,-180 210,-174 210,-168 210,-168 210,-156 210,-156 210,-150 216,-144 222,-144 222,-144 331,-144 331,-144 337,-144 343,-150 343,-156 343,-156 343,-168 343,-168 343,-174 337,-180 331,-180"/>
<text text-anchor="middle" x="276.5" y="-159.5" font-family="sans" font-size="10.00">bbmap_max_read_length</text>
</g>
<!-- 10&#45;&gt;1 -->
<g id="edge2" class="edge">
<title>10&#45;&gt;1</title>
<path fill="none" stroke="grey" stroke-width="2" d="M260.85,-143.34C254.22,-135.85 246.34,-126.95 238.97,-118.63"/>
<polygon fill="grey" stroke="grey" stroke-width="2" points="241.61,-116.33 232.36,-111.17 236.37,-120.97 241.61,-116.33"/>
</g>
<!-- 11&#45;&gt;10 -->
<g id="edge13" class="edge">
<title>11&#45;&gt;10</title>
<path fill="none" stroke="grey" stroke-width="2" d="M286.97,-215.34C285.65,-208.75 284.12,-201.08 282.63,-193.67"/>
<polygon fill="grey" stroke="grey" stroke-width="2" points="286.07,-192.99 280.67,-183.87 279.2,-194.36 286.07,-192.99"/>
</g>
<!-- 12&#45;&gt;2 -->
<g id="edge4" class="edge">
<title>12&#45;&gt;2</title>
<path fill="none" stroke="grey" stroke-width="2" d="M253.5,-287.15C234.33,-278.38 210.99,-267.71 190.43,-258.3"/>
<polygon fill="grey" stroke="grey" stroke-width="2" points="192,-255.17 181.45,-254.19 189.09,-261.54 192,-255.17"/>
</g>
<!-- 12&#45;&gt;11 -->
<g id="edge14" class="edge">
<title>12&#45;&gt;11</title>
<path fill="none" stroke="grey" stroke-width="2" d="M292,-287.34C291.81,-280.75 291.59,-273.08 291.38,-265.67"/>
<polygon fill="grey" stroke="grey" stroke-width="2" points="294.88,-265.82 291.1,-255.93 287.89,-266.02 294.88,-265.82"/>
</g>
<!-- 13&#45;&gt;5 -->
<g id="edge10" class="edge">
<title>13&#45;&gt;5</title>
<path fill="none" stroke="grey" stroke-width="2" d="M103.74,-503.15C122.44,-494.43 145.2,-483.81 165.29,-474.43"/>
<polygon fill="grey" stroke="grey" stroke-width="2" points="166.75,-477.61 174.33,-470.21 163.78,-471.27 166.75,-477.61"/>
</g>
</g>
</svg>
