<?xml version="1.0" encoding="UTF-8" standalone="no"?>
<!DOCTYPE svg PUBLIC "-//W3C//DTD SVG 1.1//EN"
 "http://www.w3.org/Graphics/SVG/1.1/DTD/svg11.dtd">
<!-- Generated by graphviz version 7.1.0 (0)
 -->
<!-- Title: snakemake_dag Pages: 1 -->
<svg width="606pt" height="620pt"
 viewBox="0.00 0.00 605.50 620.00" xmlns="http://www.w3.org/2000/svg" xmlns:xlink="http://www.w3.org/1999/xlink">
<g id="graph0" class="graph" transform="scale(1 1) rotate(0) translate(4 616)">
<title>snakemake_dag</title>
<polygon fill="white" stroke="none" points="-4,4 -4,-616 601.5,-616 601.5,4 -4,4"/>
<!-- 0 -->
<g id="node1" class="node">
<title>0</title>
<path fill="none" stroke="#569ad8" stroke-width="2" d="M294,-36C294,-36 264,-36 264,-36 258,-36 252,-30 252,-24 252,-24 252,-12 252,-12 252,-6 258,0 264,0 264,0 294,0 294,0 300,0 306,-6 306,-12 306,-12 306,-24 306,-24 306,-30 300,-36 294,-36"/>
<text text-anchor="middle" x="279" y="-15.5" font-family="sans" font-size="10.00">all</text>
</g>
<!-- 1 -->
<g id="node2" class="node">
<title>1</title>
<path fill="none" stroke="#d86e56" stroke-width="2" d="M258.5,-108C258.5,-108 169.5,-108 169.5,-108 163.5,-108 157.5,-102 157.5,-96 157.5,-96 157.5,-84 157.5,-84 157.5,-78 163.5,-72 169.5,-72 169.5,-72 258.5,-72 258.5,-72 264.5,-72 270.5,-78 270.5,-84 270.5,-84 270.5,-96 270.5,-96 270.5,-102 264.5,-108 258.5,-108"/>
<text text-anchor="middle" x="214" y="-87.5" font-family="sans" font-size="10.00">bracken_quantify_pe</text>
</g>
<!-- 1&#45;&gt;0 -->
<g id="edge2" class="edge">
<title>1&#45;&gt;0</title>
<path fill="none" stroke="grey" stroke-width="2" d="M230.4,-71.34C237.43,-63.77 245.8,-54.75 253.6,-46.35"/>
<polygon fill="grey" stroke="grey" stroke-width="2" points="256.08,-48.83 260.32,-39.12 250.95,-44.07 256.08,-48.83"/>
</g>
<!-- 2 -->
<g id="node3" class="node">
<title>2</title>
<path fill="none" stroke="#d89c56" stroke-width="2" d="M110,-180C110,-180 12,-180 12,-180 6,-180 0,-174 0,-168 0,-168 0,-156 0,-156 0,-150 6,-144 12,-144 12,-144 110,-144 110,-144 116,-144 122,-150 122,-156 122,-156 122,-168 122,-168 122,-174 116,-180 110,-180"/>
<text text-anchor="middle" x="61" y="-159.5" font-family="sans" font-size="10.00">krakenuniq_classify_pe</text>
</g>
<!-- 2&#45;&gt;1 -->
<g id="edge4" class="edge">
<title>2&#45;&gt;1</title>
<path fill="none" stroke="grey" stroke-width="2" d="M100,-143.15C119.17,-134.38 142.51,-123.71 163.07,-114.3"/>
<polygon fill="grey" stroke="grey" stroke-width="2" points="164.41,-117.54 172.05,-110.19 161.5,-111.17 164.41,-117.54"/>
</g>
<!-- 3 -->
<g id="node4" class="node">
<title>3</title>
<path fill="none" stroke="#88d856" stroke-width="2" d="M207.5,-324C207.5,-324 94.5,-324 94.5,-324 88.5,-324 82.5,-318 82.5,-312 82.5,-312 82.5,-300 82.5,-300 82.5,-294 88.5,-288 94.5,-288 94.5,-288 207.5,-288 207.5,-288 213.5,-288 219.5,-294 219.5,-300 219.5,-300 219.5,-312 219.5,-312 219.5,-318 213.5,-324 207.5,-324"/>
<text text-anchor="middle" x="151" y="-303.5" font-family="sans" font-size="10.00">bowtie2_filtered_fastq_pe</text>
</g>
<!-- 3&#45;&gt;2 -->
<g id="edge5" class="edge">
<title>3&#45;&gt;2</title>
<path fill="none" stroke="grey" stroke-width="2" d="M118.24,-287.18C104.79,-278.29 90.24,-266.36 81,-252 69.8,-234.6 64.82,-211.77 62.63,-193.59"/>
<polygon fill="grey" stroke="grey" stroke-width="2" points="66.13,-193.41 61.73,-183.77 59.16,-194.05 66.13,-193.41"/>
</g>
<!-- 11 -->
<g id="node12" class="node">
<title>11</title>
<path fill="none" stroke="#b6d856" stroke-width="2" d="M254,-252C254,-252 102,-252 102,-252 96,-252 90,-246 90,-240 90,-240 90,-228 90,-228 90,-222 96,-216 102,-216 102,-216 254,-216 254,-216 260,-216 266,-222 266,-228 266,-228 266,-240 266,-240 266,-246 260,-252 254,-252"/>
<text text-anchor="middle" x="178" y="-231.5" font-family="sans" font-size="10.00">bbmap_read_length_histogram_pe</text>
</g>
<!-- 3&#45;&gt;11 -->
<g id="edge13" class="edge">
<title>3&#45;&gt;11</title>
<path fill="none" stroke="grey" stroke-width="2" d="M157.81,-287.34C160.45,-280.51 163.54,-272.5 166.49,-264.83"/>
<polygon fill="grey" stroke="grey" stroke-width="2" points="169.67,-266.32 170.01,-255.73 163.14,-263.8 169.67,-266.32"/>
</g>
<!-- 4 -->
<g id="node5" class="node">
<title>4</title>
<path fill="none" stroke="#d8b456" stroke-width="2" d="M203.5,-396C203.5,-396 98.5,-396 98.5,-396 92.5,-396 86.5,-390 86.5,-384 86.5,-384 86.5,-372 86.5,-372 86.5,-366 92.5,-360 98.5,-360 98.5,-360 203.5,-360 203.5,-360 209.5,-360 215.5,-366 215.5,-372 215.5,-372 215.5,-384 215.5,-384 215.5,-390 209.5,-396 203.5,-396"/>
<text text-anchor="middle" x="151" y="-375.5" font-family="sans" font-size="10.00">bowtie2_sorted_sam_pe</text>
</g>
<!-- 4&#45;&gt;3 -->
<g id="edge6" class="edge">
<title>4&#45;&gt;3</title>
<path fill="none" stroke="grey" stroke-width="2" d="M151,-359.34C151,-352.75 151,-345.08 151,-337.67"/>
<polygon fill="grey" stroke="grey" stroke-width="2" points="154.5,-337.93 151,-327.93 147.5,-337.93 154.5,-337.93"/>
</g>
<!-- 5 -->
<g id="node6" class="node">
<title>5</title>
<path fill="none" stroke="#d88556" stroke-width="2" d="M187.5,-468C187.5,-468 114.5,-468 114.5,-468 108.5,-468 102.5,-462 102.5,-456 102.5,-456 102.5,-444 102.5,-444 102.5,-438 108.5,-432 114.5,-432 114.5,-432 187.5,-432 187.5,-432 193.5,-432 199.5,-438 199.5,-444 199.5,-444 199.5,-456 199.5,-456 199.5,-462 193.5,-468 187.5,-468"/>
<text text-anchor="middle" x="151" y="-447.5" font-family="sans" font-size="10.00">bowtie2_align_pe</text>
</g>
<!-- 5&#45;&gt;4 -->
<g id="edge7" class="edge">
<title>5&#45;&gt;4</title>
<path fill="none" stroke="grey" stroke-width="2" d="M151,-431.34C151,-424.75 151,-417.08 151,-409.67"/>
<polygon fill="grey" stroke="grey" stroke-width="2" points="154.5,-409.93 151,-399.93 147.5,-409.93 154.5,-409.93"/>
</g>
<!-- 6 -->
<g id="node7" class="node">
<title>6</title>
<path fill="none" stroke="#56c9d8" stroke-width="2" d="M276,-540C276,-540 168,-540 168,-540 162,-540 156,-534 156,-528 156,-528 156,-516 156,-516 156,-510 162,-504 168,-504 168,-504 276,-504 276,-504 282,-504 288,-510 288,-516 288,-516 288,-528 288,-528 288,-534 282,-540 276,-540"/>
<text text-anchor="middle" x="222" y="-519.5" font-family="sans" font-size="10.00">gdc_unmapped_fastq_pe</text>
</g>
<!-- 6&#45;&gt;5 -->
<g id="edge8" class="edge">
<title>6&#45;&gt;5</title>
<path fill="none" stroke="grey" stroke-width="2" d="M204.08,-503.34C196.24,-495.6 186.86,-486.36 178.19,-477.81"/>
<polygon fill="grey" stroke="grey" stroke-width="2" points="180.89,-475.56 171.31,-471.03 175.98,-480.54 180.89,-475.56"/>
</g>
<!-- 7 -->
<g id="node8" class="node">
<title>7</title>
<path fill="none" stroke="#d8cb56" stroke-width="2" d="M341.5,-612C341.5,-612 252.5,-612 252.5,-612 246.5,-612 240.5,-606 240.5,-600 240.5,-600 240.5,-588 240.5,-588 240.5,-582 246.5,-576 252.5,-576 252.5,-576 341.5,-576 341.5,-576 347.5,-576 353.5,-582 353.5,-588 353.5,-588 353.5,-600 353.5,-600 353.5,-606 347.5,-612 341.5,-612"/>
<text text-anchor="middle" x="297" y="-591.5" font-family="sans" font-size="10.00">gdc_unmapped_bam</text>
</g>
<!-- 7&#45;&gt;6 -->
<g id="edge10" class="edge">
<title>7&#45;&gt;6</title>
<path fill="none" stroke="grey" stroke-width="2" d="M278.07,-575.34C269.7,-567.52 259.67,-558.16 250.43,-549.53"/>
<polygon fill="grey" stroke="grey" stroke-width="2" points="253.09,-547.23 243.39,-542.97 248.32,-552.35 253.09,-547.23"/>
</g>
<!-- 17 -->
<g id="node18" class="node">
<title>17</title>
<path fill="none" stroke="#56d89a" stroke-width="2" d="M425.5,-540C425.5,-540 318.5,-540 318.5,-540 312.5,-540 306.5,-534 306.5,-528 306.5,-528 306.5,-516 306.5,-516 306.5,-510 312.5,-504 318.5,-504 318.5,-504 425.5,-504 425.5,-504 431.5,-504 437.5,-510 437.5,-516 437.5,-516 437.5,-528 437.5,-528 437.5,-534 431.5,-540 425.5,-540"/>
<text text-anchor="middle" x="372" y="-519.5" font-family="sans" font-size="10.00">gdc_unmapped_fastq_se</text>
</g>
<!-- 7&#45;&gt;17 -->
<g id="edge21" class="edge">
<title>7&#45;&gt;17</title>
<path fill="none" stroke="grey" stroke-width="2" d="M315.93,-575.34C324.3,-567.52 334.33,-558.16 343.57,-549.53"/>
<polygon fill="grey" stroke="grey" stroke-width="2" points="345.68,-552.35 350.61,-542.97 340.91,-547.23 345.68,-552.35"/>
</g>
<!-- 8 -->
<g id="node9" class="node">
<title>8</title>
<path fill="none" stroke="#566bd8" stroke-width="2" d="M125.5,-540C125.5,-540 66.5,-540 66.5,-540 60.5,-540 54.5,-534 54.5,-528 54.5,-528 54.5,-516 54.5,-516 54.5,-510 60.5,-504 66.5,-504 66.5,-504 125.5,-504 125.5,-504 131.5,-504 137.5,-510 137.5,-516 137.5,-516 137.5,-528 137.5,-528 137.5,-534 131.5,-540 125.5,-540"/>
<text text-anchor="middle" x="96" y="-519.5" font-family="sans" font-size="10.00">bowtie2_index</text>
</g>
<!-- 8&#45;&gt;5 -->
<g id="edge9" class="edge">
<title>8&#45;&gt;5</title>
<path fill="none" stroke="grey" stroke-width="2" d="M109.88,-503.34C115.7,-495.93 122.6,-487.14 129.08,-478.9"/>
<polygon fill="grey" stroke="grey" stroke-width="2" points="131.64,-481.31 135.06,-471.28 126.13,-476.98 131.64,-481.31"/>
</g>
<!-- 16 -->
<g id="node17" class="node">
<title>16</title>
<path fill="none" stroke="#56b1d8" stroke-width="2" d="M393.5,-468C393.5,-468 322.5,-468 322.5,-468 316.5,-468 310.5,-462 310.5,-456 310.5,-456 310.5,-444 310.5,-444 310.5,-438 316.5,-432 322.5,-432 322.5,-432 393.5,-432 393.5,-432 399.5,-432 405.5,-438 405.5,-444 405.5,-444 405.5,-456 405.5,-456 405.5,-462 399.5,-468 393.5,-468"/>
<text text-anchor="middle" x="358" y="-447.5" font-family="sans" font-size="10.00">bowtie2_align_se</text>
</g>
<!-- 8&#45;&gt;16 -->
<g id="edge19" class="edge">
<title>8&#45;&gt;16</title>
<path fill="none" stroke="grey" stroke-width="2" d="M138.22,-506.65C141.19,-505.73 144.13,-504.84 147,-504 197.11,-489.38 254.61,-475.1 296.92,-465.05"/>
<polygon fill="grey" stroke="grey" stroke-width="2" points="297.66,-468.47 306.59,-462.77 296.05,-461.66 297.66,-468.47"/>
</g>
<!-- 9 -->
<g id="node10" class="node">
<title>9</title>
<path fill="none" stroke="#56d8b1" stroke-width="2" d="M134.5,-612C134.5,-612 57.5,-612 57.5,-612 51.5,-612 45.5,-606 45.5,-600 45.5,-600 45.5,-588 45.5,-588 45.5,-582 51.5,-576 57.5,-576 57.5,-576 134.5,-576 134.5,-576 140.5,-576 146.5,-582 146.5,-588 146.5,-588 146.5,-600 146.5,-600 146.5,-606 140.5,-612 134.5,-612"/>
<text text-anchor="middle" x="96" y="-591.5" font-family="sans" font-size="10.00">ref_genome_fasta</text>
</g>
<!-- 9&#45;&gt;8 -->
<g id="edge11" class="edge">
<title>9&#45;&gt;8</title>
<path fill="none" stroke="grey" stroke-width="2" d="M96,-575.34C96,-568.75 96,-561.08 96,-553.67"/>
<polygon fill="grey" stroke="grey" stroke-width="2" points="99.5,-553.93 96,-543.93 92.5,-553.93 99.5,-553.93"/>
</g>
<!-- 10 -->
<g id="node11" class="node">
<title>10</title>
<path fill="none" stroke="#5682d8" stroke-width="2" d="M277.5,-180C277.5,-180 152.5,-180 152.5,-180 146.5,-180 140.5,-174 140.5,-168 140.5,-168 140.5,-156 140.5,-156 140.5,-150 146.5,-144 152.5,-144 152.5,-144 277.5,-144 277.5,-144 283.5,-144 289.5,-150 289.5,-156 289.5,-156 289.5,-168 289.5,-168 289.5,-174 283.5,-180 277.5,-180"/>
<text text-anchor="middle" x="215" y="-159.5" font-family="sans" font-size="10.00">bbmap_max_read_length_pe</text>
</g>
<!-- 10&#45;&gt;1 -->
<g id="edge3" class="edge">
<title>10&#45;&gt;1</title>
<path fill="none" stroke="grey" stroke-width="2" d="M214.75,-143.34C214.65,-136.75 214.54,-129.08 214.44,-121.67"/>
<polygon fill="grey" stroke="grey" stroke-width="2" points="217.94,-121.88 214.3,-111.93 210.94,-121.98 217.94,-121.88"/>
</g>
<!-- 11&#45;&gt;10 -->
<g id="edge12" class="edge">
<title>11&#45;&gt;10</title>
<path fill="none" stroke="grey" stroke-width="2" d="M187.34,-215.34C191.03,-208.34 195.38,-200.12 199.52,-192.28"/>
<polygon fill="grey" stroke="grey" stroke-width="2" points="202.54,-194.05 204.12,-183.58 196.36,-190.78 202.54,-194.05"/>
</g>
<!-- 12 -->
<g id="node13" class="node">
<title>12</title>
<path fill="none" stroke="#d85656" stroke-width="2" d="M387.5,-108C387.5,-108 300.5,-108 300.5,-108 294.5,-108 288.5,-102 288.5,-96 288.5,-96 288.5,-84 288.5,-84 288.5,-78 294.5,-72 300.5,-72 300.5,-72 387.5,-72 387.5,-72 393.5,-72 399.5,-78 399.5,-84 399.5,-84 399.5,-96 399.5,-96 399.5,-102 393.5,-108 387.5,-108"/>
<text text-anchor="middle" x="344" y="-87.5" font-family="sans" font-size="10.00">bracken_quantify_se</text>
</g>
<!-- 12&#45;&gt;0 -->
<g id="edge1" class="edge">
<title>12&#45;&gt;0</title>
<path fill="none" stroke="grey" stroke-width="2" d="M327.6,-71.34C320.57,-63.77 312.2,-54.75 304.4,-46.35"/>
<polygon fill="grey" stroke="grey" stroke-width="2" points="307.05,-44.07 297.68,-39.12 301.92,-48.83 307.05,-44.07"/>
</g>
<!-- 13 -->
<g id="node14" class="node">
<title>13</title>
<path fill="none" stroke="#56d8c9" stroke-width="2" d="M392,-252C392,-252 296,-252 296,-252 290,-252 284,-246 284,-240 284,-240 284,-228 284,-228 284,-222 290,-216 296,-216 296,-216 392,-216 392,-216 398,-216 404,-222 404,-228 404,-228 404,-240 404,-240 404,-246 398,-252 392,-252"/>
<text text-anchor="middle" x="344" y="-231.5" font-family="sans" font-size="10.00">krakenuniq_classify_se</text>
</g>
<!-- 13&#45;&gt;12 -->
<g id="edge14" class="edge">
<title>13&#45;&gt;12</title>
<path fill="none" stroke="grey" stroke-width="2" d="M344,-215.02C344,-191.54 344,-150.11 344,-121.64"/>
<polygon fill="grey" stroke="grey" stroke-width="2" points="347.5,-121.87 344,-111.87 340.5,-121.87 347.5,-121.87"/>
</g>
<!-- 14 -->
<g id="node15" class="node">
<title>14</title>
<path fill="none" stroke="#59d856" stroke-width="2" d="M413.5,-324C413.5,-324 302.5,-324 302.5,-324 296.5,-324 290.5,-318 290.5,-312 290.5,-312 290.5,-300 290.5,-300 290.5,-294 296.5,-288 302.5,-288 302.5,-288 413.5,-288 413.5,-288 419.5,-288 425.5,-294 425.5,-300 425.5,-300 425.5,-312 425.5,-312 425.5,-318 419.5,-324 413.5,-324"/>
<text text-anchor="middle" x="358" y="-303.5" font-family="sans" font-size="10.00">bowtie2_filtered_fastq_se</text>
</g>
<!-- 14&#45;&gt;13 -->
<g id="edge16" class="edge">
<title>14&#45;&gt;13</title>
<path fill="none" stroke="grey" stroke-width="2" d="M354.47,-287.34C353.15,-280.75 351.62,-273.08 350.13,-265.67"/>
<polygon fill="grey" stroke="grey" stroke-width="2" points="353.57,-264.99 348.17,-255.87 346.7,-266.36 353.57,-264.99"/>
</g>
<!-- 19 -->
<g id="node20" class="node">
<title>19</title>
<path fill="none" stroke="#ced856" stroke-width="2" d="M585.5,-252C585.5,-252 434.5,-252 434.5,-252 428.5,-252 422.5,-246 422.5,-240 422.5,-240 422.5,-228 422.5,-228 422.5,-222 428.5,-216 434.5,-216 434.5,-216 585.5,-216 585.5,-216 591.5,-216 597.5,-222 597.5,-228 597.5,-228 597.5,-240 597.5,-240 597.5,-246 591.5,-252 585.5,-252"/>
<text text-anchor="middle" x="510" y="-231.5" font-family="sans" font-size="10.00">bbmap_read_length_histogram_se</text>
</g>
<!-- 14&#45;&gt;19 -->
<g id="edge23" class="edge">
<title>14&#45;&gt;19</title>
<path fill="none" stroke="grey" stroke-width="2" d="M396.75,-287.15C415.79,-278.38 438.98,-267.71 459.4,-258.3"/>
<polygon fill="grey" stroke="grey" stroke-width="2" points="460.69,-261.56 468.31,-254.2 457.76,-255.2 460.69,-261.56"/>
</g>
<!-- 15 -->
<g id="node16" class="node">
<title>15</title>
<path fill="none" stroke="#70d856" stroke-width="2" d="M410,-396C410,-396 306,-396 306,-396 300,-396 294,-390 294,-384 294,-384 294,-372 294,-372 294,-366 300,-360 306,-360 306,-360 410,-360 410,-360 416,-360 422,-366 422,-372 422,-372 422,-384 422,-384 422,-390 416,-396 410,-396"/>
<text text-anchor="middle" x="358" y="-375.5" font-family="sans" font-size="10.00">bowtie2_sorted_sam_se</text>
</g>
<!-- 15&#45;&gt;14 -->
<g id="edge17" class="edge">
<title>15&#45;&gt;14</title>
<path fill="none" stroke="grey" stroke-width="2" d="M358,-359.34C358,-352.75 358,-345.08 358,-337.67"/>
<polygon fill="grey" stroke="grey" stroke-width="2" points="361.5,-337.93 358,-327.93 354.5,-337.93 361.5,-337.93"/>
</g>
<!-- 16&#45;&gt;15 -->
<g id="edge18" class="edge">
<title>16&#45;&gt;15</title>
<path fill="none" stroke="grey" stroke-width="2" d="M358,-431.34C358,-424.75 358,-417.08 358,-409.67"/>
<polygon fill="grey" stroke="grey" stroke-width="2" points="361.5,-409.93 358,-399.93 354.5,-409.93 361.5,-409.93"/>
</g>
<!-- 17&#45;&gt;16 -->
<g id="edge20" class="edge">
<title>17&#45;&gt;16</title>
<path fill="none" stroke="grey" stroke-width="2" d="M368.47,-503.34C367.15,-496.75 365.62,-489.08 364.13,-481.67"/>
<polygon fill="grey" stroke="grey" stroke-width="2" points="367.57,-480.99 362.17,-471.87 360.7,-482.36 367.57,-480.99"/>
</g>
<!-- 18 -->
<g id="node19" class="node">
<title>18</title>
<path fill="none" stroke="#56d882" stroke-width="2" d="M540,-180C540,-180 416,-180 416,-180 410,-180 404,-174 404,-168 404,-168 404,-156 404,-156 404,-150 410,-144 416,-144 416,-144 540,-144 540,-144 546,-144 552,-150 552,-156 552,-156 552,-168 552,-168 552,-174 546,-180 540,-180"/>
<text text-anchor="middle" x="478" y="-159.5" font-family="sans" font-size="10.00">bbmap_max_read_length_se</text>
</g>
<!-- 18&#45;&gt;12 -->
<g id="edge15" class="edge">
<title>18&#45;&gt;12</title>
<path fill="none" stroke="grey" stroke-width="2" d="M443.84,-143.15C427.3,-134.52 407.22,-124.02 389.41,-114.72"/>
<polygon fill="grey" stroke="grey" stroke-width="2" points="391.27,-111.74 380.78,-110.21 388.02,-117.95 391.27,-111.74"/>
</g>
<!-- 19&#45;&gt;18 -->
<g id="edge22" class="edge">
<title>19&#45;&gt;18</title>
<path fill="none" stroke="grey" stroke-width="2" d="M501.93,-215.34C498.77,-208.43 495.06,-200.31 491.51,-192.56"/>
<polygon fill="grey" stroke="grey" stroke-width="2" points="494.78,-191.29 487.44,-183.65 488.42,-194.2 494.78,-191.29"/>
</g>
</g>
</svg>
