<?xml version="1.0" encoding="UTF-8" standalone="no"?>
<!DOCTYPE svg PUBLIC "-//W3C//DTD SVG 1.1//EN"
 "http://www.w3.org/Graphics/SVG/1.1/DTD/svg11.dtd">
<!-- Generated by graphviz version 7.1.0 (0)
 -->
<!-- Title: snakemake_dag Pages: 1 -->
<svg width="416pt" height="692pt"
 viewBox="0.00 0.00 415.50 692.00" xmlns="http://www.w3.org/2000/svg" xmlns:xlink="http://www.w3.org/1999/xlink">
<g id="graph0" class="graph" transform="scale(1 1) rotate(0) translate(4 688)">
<title>snakemake_dag</title>
<polygon fill="white" stroke="none" points="-4,4 -4,-688 411.5,-688 411.5,4 -4,4"/>
<!-- 0 -->
<g id="node1" class="node">
<title>0</title>
<path fill="none" stroke="#56d0d8" stroke-width="2" d="M230.5,-36C230.5,-36 200.5,-36 200.5,-36 194.5,-36 188.5,-30 188.5,-24 188.5,-24 188.5,-12 188.5,-12 188.5,-6 194.5,0 200.5,0 200.5,0 230.5,0 230.5,0 236.5,0 242.5,-6 242.5,-12 242.5,-12 242.5,-24 242.5,-24 242.5,-30 236.5,-36 230.5,-36"/>
<text text-anchor="middle" x="215.5" y="-15.5" font-family="sans" font-size="10.00">all</text>
</g>
<!-- 1 -->
<g id="node2" class="node">
<title>1</title>
<path fill="none" stroke="#56d8a2" stroke-width="2" d="M263,-108C263,-108 168,-108 168,-108 162,-108 156,-102 156,-96 156,-96 156,-84 156,-84 156,-78 162,-72 168,-72 168,-72 263,-72 263,-72 269,-72 275,-78 275,-84 275,-84 275,-96 275,-96 275,-102 269,-108 263,-108"/>
<text text-anchor="middle" x="215.5" y="-87.5" font-family="sans" font-size="10.00">bracken_count_matrix</text>
</g>
<!-- 1&#45;&gt;0 -->
<g id="edge1" class="edge">
<title>1&#45;&gt;0</title>
<path fill="none" stroke="grey" stroke-width="2" d="M215.5,-71.34C215.5,-64.75 215.5,-57.08 215.5,-49.67"/>
<polygon fill="grey" stroke="grey" stroke-width="2" points="219,-49.93 215.5,-39.93 212,-49.93 219,-49.93"/>
</g>
<!-- 2 -->
<g id="node3" class="node">
<title>2</title>
<path fill="none" stroke="#56d8c1" stroke-width="2" d="M258.5,-252C258.5,-252 172.5,-252 172.5,-252 166.5,-252 160.5,-246 160.5,-240 160.5,-240 160.5,-228 160.5,-228 160.5,-222 166.5,-216 172.5,-216 172.5,-216 258.5,-216 258.5,-216 264.5,-216 270.5,-222 270.5,-228 270.5,-228 270.5,-240 270.5,-240 270.5,-246 264.5,-252 258.5,-252"/>
<text text-anchor="middle" x="215.5" y="-231.5" font-family="sans" font-size="10.00">bracken_read_quant</text>
</g>
<!-- 2&#45;&gt;1 -->
<g id="edge2" class="edge">
<title>2&#45;&gt;1</title>
<path fill="none" stroke="grey" stroke-width="2" d="M202.03,-215.43C195.34,-205.59 187.96,-192.76 184.5,-180 180.32,-164.56 180.32,-159.44 184.5,-144 186.8,-135.53 190.82,-127.02 195.23,-119.38"/>
<polygon fill="grey" stroke="grey" stroke-width="2" points="198.06,-121.46 200.42,-111.13 192.13,-117.73 198.06,-121.46"/>
</g>
<!-- 14 -->
<g id="node15" class="node">
<title>14</title>
<path fill="none" stroke="#68d856" stroke-width="2" d="M325.5,-180C325.5,-180 205.5,-180 205.5,-180 199.5,-180 193.5,-174 193.5,-168 193.5,-168 193.5,-156 193.5,-156 193.5,-150 199.5,-144 205.5,-144 205.5,-144 325.5,-144 325.5,-144 331.5,-144 337.5,-150 337.5,-156 337.5,-156 337.5,-168 337.5,-168 337.5,-174 331.5,-180 325.5,-180"/>
<text text-anchor="middle" x="265.5" y="-159.5" font-family="sans" font-size="10.00">bracken_merged_rg_counts</text>
</g>
<!-- 2&#45;&gt;14 -->
<g id="edge19" class="edge">
<title>2&#45;&gt;14</title>
<path fill="none" stroke="grey" stroke-width="2" d="M228.12,-215.34C233.29,-208.1 239.41,-199.53 245.18,-191.45"/>
<polygon fill="grey" stroke="grey" stroke-width="2" points="247.99,-193.54 250.95,-183.37 242.29,-189.47 247.99,-193.54"/>
</g>
<!-- 3 -->
<g id="node4" class="node">
<title>3</title>
<path fill="none" stroke="#bed856" stroke-width="2" d="M186,-396C186,-396 85,-396 85,-396 79,-396 73,-390 73,-384 73,-384 73,-372 73,-372 73,-366 79,-360 85,-360 85,-360 186,-360 186,-360 192,-360 198,-366 198,-372 198,-372 198,-384 198,-384 198,-390 192,-396 186,-396"/>
<text text-anchor="middle" x="135.5" y="-375.5" font-family="sans" font-size="10.00">krakenuniq_read_classif</text>
</g>
<!-- 3&#45;&gt;2 -->
<g id="edge5" class="edge">
<title>3&#45;&gt;2</title>
<path fill="none" stroke="grey" stroke-width="2" d="M145.63,-359.02C159.1,-335.12 183.05,-292.59 199.11,-264.1"/>
<polygon fill="grey" stroke="grey" stroke-width="2" points="202.11,-265.91 203.96,-255.48 196.01,-262.47 202.11,-265.91"/>
</g>
<!-- 4 -->
<g id="node5" class="node">
<title>4</title>
<path fill="none" stroke="#88d856" stroke-width="2" d="M195,-468C195,-468 82,-468 82,-468 76,-468 70,-462 70,-456 70,-456 70,-444 70,-444 70,-438 76,-432 82,-432 82,-432 195,-432 195,-432 201,-432 207,-438 207,-444 207,-444 207,-456 207,-456 207,-462 201,-468 195,-468"/>
<text text-anchor="middle" x="138.5" y="-447.5" font-family="sans" font-size="10.00">bowtie2_filtered_fastq_pe</text>
</g>
<!-- 4&#45;&gt;3 -->
<g id="edge7" class="edge">
<title>4&#45;&gt;3</title>
<path fill="none" stroke="grey" stroke-width="2" d="M137.74,-431.34C137.46,-424.75 137.13,-417.08 136.81,-409.67"/>
<polygon fill="grey" stroke="grey" stroke-width="2" points="140.32,-409.77 136.4,-399.93 133.33,-410.07 140.32,-409.77"/>
</g>
<!-- 11 -->
<g id="node12" class="node">
<title>11</title>
<path fill="none" stroke="#5673d8" stroke-width="2" d="M364.5,-396C364.5,-396 228.5,-396 228.5,-396 222.5,-396 216.5,-390 216.5,-384 216.5,-384 216.5,-372 216.5,-372 216.5,-366 222.5,-360 228.5,-360 228.5,-360 364.5,-360 364.5,-360 370.5,-360 376.5,-366 376.5,-372 376.5,-372 376.5,-384 376.5,-384 376.5,-390 370.5,-396 364.5,-396"/>
<text text-anchor="middle" x="296.5" y="-375.5" font-family="sans" font-size="10.00">bbmap_read_length_histogram</text>
</g>
<!-- 4&#45;&gt;11 -->
<g id="edge16" class="edge">
<title>4&#45;&gt;11</title>
<path fill="none" stroke="grey" stroke-width="2" d="M178.78,-431.15C198.67,-422.34 222.9,-411.61 244.2,-402.17"/>
<polygon fill="grey" stroke="grey" stroke-width="2" points="245.53,-405.41 253.25,-398.16 242.69,-399.01 245.53,-405.41"/>
</g>
<!-- 5 -->
<g id="node6" class="node">
<title>5</title>
<path fill="none" stroke="#d85656" stroke-width="2" d="M256.5,-540C256.5,-540 174.5,-540 174.5,-540 168.5,-540 162.5,-534 162.5,-528 162.5,-528 162.5,-516 162.5,-516 162.5,-510 168.5,-504 174.5,-504 174.5,-504 256.5,-504 256.5,-504 262.5,-504 268.5,-510 268.5,-516 268.5,-516 268.5,-528 268.5,-528 268.5,-534 262.5,-540 256.5,-540"/>
<text text-anchor="middle" x="215.5" y="-519.5" font-family="sans" font-size="10.00">bowtie2_filter_host</text>
</g>
<!-- 5&#45;&gt;4 -->
<g id="edge8" class="edge">
<title>5&#45;&gt;4</title>
<path fill="none" stroke="grey" stroke-width="2" d="M196.07,-503.34C187.47,-495.52 177.18,-486.16 167.69,-477.53"/>
<polygon fill="grey" stroke="grey" stroke-width="2" points="170.19,-475.07 160.43,-470.94 165.48,-480.25 170.19,-475.07"/>
</g>
<!-- 12 -->
<g id="node13" class="node">
<title>12</title>
<path fill="none" stroke="#56d863" stroke-width="2" d="M348,-468C348,-468 237,-468 237,-468 231,-468 225,-462 225,-456 225,-456 225,-444 225,-444 225,-438 231,-432 237,-432 237,-432 348,-432 348,-432 354,-432 360,-438 360,-444 360,-444 360,-456 360,-456 360,-462 354,-468 348,-468"/>
<text text-anchor="middle" x="292.5" y="-447.5" font-family="sans" font-size="10.00">bowtie2_filtered_fastq_se</text>
</g>
<!-- 5&#45;&gt;12 -->
<g id="edge17" class="edge">
<title>5&#45;&gt;12</title>
<path fill="none" stroke="grey" stroke-width="2" d="M234.93,-503.34C243.53,-495.52 253.82,-486.16 263.31,-477.53"/>
<polygon fill="grey" stroke="grey" stroke-width="2" points="265.52,-480.25 270.57,-470.94 260.81,-475.07 265.52,-480.25"/>
</g>
<!-- 6 -->
<g id="node7" class="node">
<title>6</title>
<path fill="none" stroke="#56b1d8" stroke-width="2" d="M269.5,-612C269.5,-612 161.5,-612 161.5,-612 155.5,-612 149.5,-606 149.5,-600 149.5,-600 149.5,-588 149.5,-588 149.5,-582 155.5,-576 161.5,-576 161.5,-576 269.5,-576 269.5,-576 275.5,-576 281.5,-582 281.5,-588 281.5,-588 281.5,-600 281.5,-600 281.5,-606 275.5,-612 269.5,-612"/>
<text text-anchor="middle" x="215.5" y="-591.5" font-family="sans" font-size="10.00">gdc_unmapped_fastq_pe</text>
</g>
<!-- 6&#45;&gt;5 -->
<g id="edge11" class="edge">
<title>6&#45;&gt;5</title>
<path fill="none" stroke="grey" stroke-width="2" d="M215.5,-575.34C215.5,-568.75 215.5,-561.08 215.5,-553.67"/>
<polygon fill="grey" stroke="grey" stroke-width="2" points="219,-553.93 215.5,-543.93 212,-553.93 219,-553.93"/>
</g>
<!-- 7 -->
<g id="node8" class="node">
<title>7</title>
<path fill="none" stroke="#d8b456" stroke-width="2" d="M185,-684C185,-684 96,-684 96,-684 90,-684 84,-678 84,-672 84,-672 84,-660 84,-660 84,-654 90,-648 96,-648 96,-648 185,-648 185,-648 191,-648 197,-654 197,-660 197,-660 197,-672 197,-672 197,-678 191,-684 185,-684"/>
<text text-anchor="middle" x="140.5" y="-663.5" font-family="sans" font-size="10.00">gdc_unmapped_bam</text>
</g>
<!-- 7&#45;&gt;6 -->
<g id="edge12" class="edge">
<title>7&#45;&gt;6</title>
<path fill="none" stroke="grey" stroke-width="2" d="M159.43,-647.34C167.8,-639.52 177.83,-630.16 187.07,-621.53"/>
<polygon fill="grey" stroke="grey" stroke-width="2" points="189.18,-624.35 194.11,-614.97 184.41,-619.23 189.18,-624.35"/>
</g>
<!-- 13 -->
<g id="node14" class="node">
<title>13</title>
<path fill="none" stroke="#56d882" stroke-width="2" d="M119,-612C119,-612 12,-612 12,-612 6,-612 0,-606 0,-600 0,-600 0,-588 0,-588 0,-582 6,-576 12,-576 12,-576 119,-576 119,-576 125,-576 131,-582 131,-588 131,-588 131,-600 131,-600 131,-606 125,-612 119,-612"/>
<text text-anchor="middle" x="65.5" y="-591.5" font-family="sans" font-size="10.00">gdc_unmapped_fastq_se</text>
</g>
<!-- 7&#45;&gt;13 -->
<g id="edge18" class="edge">
<title>7&#45;&gt;13</title>
<path fill="none" stroke="grey" stroke-width="2" d="M121.57,-647.34C113.2,-639.52 103.17,-630.16 93.93,-621.53"/>
<polygon fill="grey" stroke="grey" stroke-width="2" points="96.59,-619.23 86.89,-614.97 91.82,-624.35 96.59,-619.23"/>
</g>
<!-- 8 -->
<g id="node9" class="node">
<title>8</title>
<path fill="none" stroke="#d8d356" stroke-width="2" d="M395.5,-612C395.5,-612 311.5,-612 311.5,-612 305.5,-612 299.5,-606 299.5,-600 299.5,-600 299.5,-588 299.5,-588 299.5,-582 305.5,-576 311.5,-576 311.5,-576 395.5,-576 395.5,-576 401.5,-576 407.5,-582 407.5,-588 407.5,-588 407.5,-600 407.5,-600 407.5,-606 401.5,-612 395.5,-612"/>
<text text-anchor="middle" x="353.5" y="-591.5" font-family="sans" font-size="10.00">bowtie2_host_index</text>
</g>
<!-- 8&#45;&gt;5 -->
<g id="edge10" class="edge">
<title>8&#45;&gt;5</title>
<path fill="none" stroke="grey" stroke-width="2" d="M318.32,-575.15C301.21,-566.47 280.41,-555.92 262,-546.59"/>
<polygon fill="grey" stroke="grey" stroke-width="2" points="263.82,-543.58 253.32,-542.18 260.65,-549.83 263.82,-543.58"/>
</g>
<!-- 9 -->
<g id="node10" class="node">
<title>9</title>
<path fill="none" stroke="#d87556" stroke-width="2" d="M395,-684C395,-684 312,-684 312,-684 306,-684 300,-678 300,-672 300,-672 300,-660 300,-660 300,-654 306,-648 312,-648 312,-648 395,-648 395,-648 401,-648 407,-654 407,-660 407,-660 407,-672 407,-672 407,-678 401,-684 395,-684"/>
<text text-anchor="middle" x="353.5" y="-663.5" font-family="sans" font-size="10.00">host_genome_fasta</text>
</g>
<!-- 9&#45;&gt;8 -->
<g id="edge13" class="edge">
<title>9&#45;&gt;8</title>
<path fill="none" stroke="grey" stroke-width="2" d="M353.5,-647.34C353.5,-640.75 353.5,-633.08 353.5,-625.67"/>
<polygon fill="grey" stroke="grey" stroke-width="2" points="357,-625.93 353.5,-615.93 350,-625.93 357,-625.93"/>
</g>
<!-- 10 -->
<g id="node11" class="node">
<title>10</title>
<path fill="none" stroke="#5692d8" stroke-width="2" d="M334,-324C334,-324 225,-324 225,-324 219,-324 213,-318 213,-312 213,-312 213,-300 213,-300 213,-294 219,-288 225,-288 225,-288 334,-288 334,-288 340,-288 346,-294 346,-300 346,-300 346,-312 346,-312 346,-318 340,-324 334,-324"/>
<text text-anchor="middle" x="279.5" y="-303.5" font-family="sans" font-size="10.00">bbmap_max_read_length</text>
</g>
<!-- 10&#45;&gt;2 -->
<g id="edge4" class="edge">
<title>10&#45;&gt;2</title>
<path fill="none" stroke="grey" stroke-width="2" d="M263.35,-287.34C256.43,-279.77 248.19,-270.75 240.51,-262.35"/>
<polygon fill="grey" stroke="grey" stroke-width="2" points="243.24,-260.15 233.91,-255.14 238.07,-264.88 243.24,-260.15"/>
</g>
<!-- 11&#45;&gt;10 -->
<g id="edge14" class="edge">
<title>11&#45;&gt;10</title>
<path fill="none" stroke="grey" stroke-width="2" d="M292.21,-359.34C290.59,-352.67 288.7,-344.89 286.88,-337.39"/>
<polygon fill="grey" stroke="grey" stroke-width="2" points="290.32,-336.73 284.56,-327.84 283.52,-338.39 290.32,-336.73"/>
</g>
<!-- 12&#45;&gt;3 -->
<g id="edge6" class="edge">
<title>12&#45;&gt;3</title>
<path fill="none" stroke="grey" stroke-width="2" d="M252.48,-431.15C232.71,-422.34 208.63,-411.61 187.46,-402.17"/>
<polygon fill="grey" stroke="grey" stroke-width="2" points="189.05,-399.04 178.49,-398.17 186.2,-405.44 189.05,-399.04"/>
</g>
<!-- 12&#45;&gt;11 -->
<g id="edge15" class="edge">
<title>12&#45;&gt;11</title>
<path fill="none" stroke="grey" stroke-width="2" d="M293.51,-431.34C293.89,-424.75 294.32,-417.08 294.75,-409.67"/>
<polygon fill="grey" stroke="grey" stroke-width="2" points="298.23,-410.11 295.3,-399.92 291.24,-409.71 298.23,-410.11"/>
</g>
<!-- 13&#45;&gt;5 -->
<g id="edge9" class="edge">
<title>13&#45;&gt;5</title>
<path fill="none" stroke="grey" stroke-width="2" d="M103.74,-575.15C122.44,-566.43 145.2,-555.81 165.29,-546.43"/>
<polygon fill="grey" stroke="grey" stroke-width="2" points="166.75,-549.61 174.33,-542.21 163.78,-543.27 166.75,-549.61"/>
</g>
<!-- 14&#45;&gt;1 -->
<g id="edge3" class="edge">
<title>14&#45;&gt;1</title>
<path fill="none" stroke="grey" stroke-width="2" d="M252.88,-143.34C247.71,-136.1 241.59,-127.53 235.82,-119.45"/>
<polygon fill="grey" stroke="grey" stroke-width="2" points="238.71,-117.47 230.05,-111.37 233.01,-121.54 238.71,-117.47"/>
</g>
</g>
</svg>
