<?xml version="1.0" encoding="UTF-8" standalone="no"?>
<!DOCTYPE svg PUBLIC "-//W3C//DTD SVG 1.1//EN"
 "http://www.w3.org/Graphics/SVG/1.1/DTD/svg11.dtd">
<!-- Generated by graphviz version 7.1.0 (0)
 -->
<!-- Title: snakemake_dag Pages: 1 -->
<svg width="1289pt" height="764pt"
 viewBox="0.00 0.00 1289.00 764.00" xmlns="http://www.w3.org/2000/svg" xmlns:xlink="http://www.w3.org/1999/xlink">
<g id="graph0" class="graph" transform="scale(1 1) rotate(0) translate(4 760)">
<title>snakemake_dag</title>
<polygon fill="white" stroke="none" points="-4,4 -4,-760 1285,-760 1285,4 -4,4"/>
<!-- 0 -->
<g id="node1" class="node">
<title>0</title>
<path fill="none" stroke="#56d8b9" stroke-width="2" d="M650,-36C650,-36 620,-36 620,-36 614,-36 608,-30 608,-24 608,-24 608,-12 608,-12 608,-6 614,0 620,0 620,0 650,0 650,0 656,0 662,-6 662,-12 662,-12 662,-24 662,-24 662,-30 656,-36 650,-36"/>
<text text-anchor="middle" x="635" y="-15.5" font-family="sans" font-size="10.00">all</text>
</g>
<!-- 1 -->
<g id="node2" class="node">
<title>1</title>
<path fill="none" stroke="#56d85b" stroke-width="2" d="M682.5,-108C682.5,-108 587.5,-108 587.5,-108 581.5,-108 575.5,-102 575.5,-96 575.5,-96 575.5,-84 575.5,-84 575.5,-78 581.5,-72 587.5,-72 587.5,-72 682.5,-72 682.5,-72 688.5,-72 694.5,-78 694.5,-84 694.5,-84 694.5,-96 694.5,-96 694.5,-102 688.5,-108 682.5,-108"/>
<text text-anchor="middle" x="635" y="-87.5" font-family="sans" font-size="10.00">bracken_count_matrix</text>
</g>
<!-- 1&#45;&gt;0 -->
<g id="edge1" class="edge">
<title>1&#45;&gt;0</title>
<path fill="none" stroke="grey" stroke-width="2" d="M635,-71.34C635,-64.75 635,-57.08 635,-49.67"/>
<polygon fill="grey" stroke="grey" stroke-width="2" points="638.5,-49.93 635,-39.93 631.5,-49.93 638.5,-49.93"/>
</g>
<!-- 2 -->
<g id="node3" class="node">
<title>2</title>
<path fill="none" stroke="#56d882" stroke-width="2" d="M773,-180C773,-180 687,-180 687,-180 681,-180 675,-174 675,-168 675,-168 675,-156 675,-156 675,-150 681,-144 687,-144 687,-144 773,-144 773,-144 779,-144 785,-150 785,-156 785,-156 785,-168 785,-168 785,-174 779,-180 773,-180"/>
<text text-anchor="middle" x="730" y="-159.5" font-family="sans" font-size="10.00">bracken_read_quant</text>
</g>
<!-- 2&#45;&gt;1 -->
<g id="edge2" class="edge">
<title>2&#45;&gt;1</title>
<path fill="none" stroke="grey" stroke-width="2" d="M706.03,-143.34C694.97,-135.19 681.65,-125.37 669.54,-116.45"/>
<polygon fill="grey" stroke="grey" stroke-width="2" points="671.86,-113.81 661.73,-110.7 667.71,-119.45 671.86,-113.81"/>
</g>
<!-- 3 -->
<g id="node4" class="node">
<title>3</title>
<path fill="none" stroke="#56d8a2" stroke-width="2" d="M698.5,-252C698.5,-252 583.5,-252 583.5,-252 577.5,-252 571.5,-246 571.5,-240 571.5,-240 571.5,-228 571.5,-228 571.5,-222 577.5,-216 583.5,-216 583.5,-216 698.5,-216 698.5,-216 704.5,-216 710.5,-222 710.5,-228 710.5,-228 710.5,-240 710.5,-240 710.5,-246 704.5,-252 698.5,-252"/>
<text text-anchor="middle" x="641" y="-231.5" font-family="sans" font-size="10.00">kraken2_combined_report</text>
</g>
<!-- 3&#45;&gt;2 -->
<g id="edge4" class="edge">
<title>3&#45;&gt;2</title>
<path fill="none" stroke="grey" stroke-width="2" d="M663.46,-215.34C673.71,-207.27 686.05,-197.57 697.3,-188.72"/>
<polygon fill="grey" stroke="grey" stroke-width="2" points="699.16,-191.71 704.86,-182.77 694.84,-186.2 699.16,-191.71"/>
</g>
<!-- 4 -->
<g id="node5" class="node">
<title>4</title>
<path fill="none" stroke="#d6d856" stroke-width="2" d="M705.5,-396C705.5,-396 578.5,-396 578.5,-396 572.5,-396 566.5,-390 566.5,-384 566.5,-384 566.5,-372 566.5,-372 566.5,-366 572.5,-360 578.5,-360 578.5,-360 705.5,-360 705.5,-360 711.5,-360 717.5,-366 717.5,-372 717.5,-372 717.5,-384 717.5,-384 717.5,-390 711.5,-396 705.5,-396"/>
<text text-anchor="middle" x="642" y="-375.5" font-family="sans" font-size="10.00">kraken2_nucl_read_classif_pe</text>
</g>
<!-- 4&#45;&gt;3 -->
<g id="edge8" class="edge">
<title>4&#45;&gt;3</title>
<path fill="none" stroke="grey" stroke-width="2" d="M641.87,-359.02C641.71,-335.54 641.42,-294.11 641.22,-265.64"/>
<polygon fill="grey" stroke="grey" stroke-width="2" points="644.72,-265.84 641.15,-255.87 637.72,-265.89 644.72,-265.84"/>
</g>
<!-- 18 -->
<g id="node19" class="node">
<title>18</title>
<path fill="none" stroke="#d86e56" stroke-width="2" d="M809,-324C809,-324 681,-324 681,-324 675,-324 669,-318 669,-312 669,-312 669,-300 669,-300 669,-294 675,-288 681,-288 681,-288 809,-288 809,-288 815,-288 821,-294 821,-300 821,-300 821,-312 821,-312 821,-318 815,-324 809,-324"/>
<text text-anchor="middle" x="745" y="-303.5" font-family="sans" font-size="10.00">kraken2_prot_read_classif_pe</text>
</g>
<!-- 4&#45;&gt;18 -->
<g id="edge27" class="edge">
<title>4&#45;&gt;18</title>
<path fill="none" stroke="grey" stroke-width="2" d="M668.26,-359.15C680.36,-350.93 694.94,-341.02 708.13,-332.06"/>
<polygon fill="grey" stroke="grey" stroke-width="2" points="709.98,-335.03 716.29,-326.51 706.05,-329.24 709.98,-335.03"/>
</g>
<!-- 5 -->
<g id="node6" class="node">
<title>5</title>
<path fill="none" stroke="#d87d56" stroke-width="2" d="M611.5,-468C611.5,-468 516.5,-468 516.5,-468 510.5,-468 504.5,-462 504.5,-456 504.5,-456 504.5,-444 504.5,-444 504.5,-438 510.5,-432 516.5,-432 516.5,-432 611.5,-432 611.5,-432 617.5,-432 623.5,-438 623.5,-444 623.5,-444 623.5,-456 623.5,-456 623.5,-462 617.5,-468 611.5,-468"/>
<text text-anchor="middle" x="564" y="-447.5" font-family="sans" font-size="10.00">host_filtered_fastq_pe</text>
</g>
<!-- 5&#45;&gt;4 -->
<g id="edge11" class="edge">
<title>5&#45;&gt;4</title>
<path fill="none" stroke="grey" stroke-width="2" d="M583.68,-431.34C592.39,-423.52 602.82,-414.16 612.43,-405.53"/>
<polygon fill="grey" stroke="grey" stroke-width="2" points="614.69,-408.21 619.8,-398.92 610.02,-403 614.69,-408.21"/>
</g>
<!-- 6 -->
<g id="node7" class="node">
<title>6</title>
<path fill="none" stroke="#d85656" stroke-width="2" d="M451.5,-540C451.5,-540 328.5,-540 328.5,-540 322.5,-540 316.5,-534 316.5,-528 316.5,-528 316.5,-516 316.5,-516 316.5,-510 322.5,-504 328.5,-504 328.5,-504 451.5,-504 451.5,-504 457.5,-504 463.5,-510 463.5,-516 463.5,-516 463.5,-528 463.5,-528 463.5,-534 457.5,-540 451.5,-540"/>
<text text-anchor="middle" x="390" y="-519.5" font-family="sans" font-size="10.00">gdc_sg_unmapped_fastq_pe</text>
</g>
<!-- 6&#45;&gt;5 -->
<g id="edge14" class="edge">
<title>6&#45;&gt;5</title>
<path fill="none" stroke="grey" stroke-width="2" d="M434.36,-503.15C456.56,-494.22 483.7,-483.31 507.39,-473.77"/>
<polygon fill="grey" stroke="grey" stroke-width="2" points="508.64,-477.04 516.61,-470.06 506.03,-470.55 508.64,-477.04"/>
</g>
<!-- 7 -->
<g id="node8" class="node">
<title>7</title>
<path fill="none" stroke="#d86656" stroke-width="2" d="M269.5,-612C269.5,-612 180.5,-612 180.5,-612 174.5,-612 168.5,-606 168.5,-600 168.5,-600 168.5,-588 168.5,-588 168.5,-582 174.5,-576 180.5,-576 180.5,-576 269.5,-576 269.5,-576 275.5,-576 281.5,-582 281.5,-588 281.5,-588 281.5,-600 281.5,-600 281.5,-606 275.5,-612 269.5,-612"/>
<text text-anchor="middle" x="225" y="-591.5" font-family="sans" font-size="10.00">gdc_unmapped_bam</text>
</g>
<!-- 7&#45;&gt;6 -->
<g id="edge15" class="edge">
<title>7&#45;&gt;6</title>
<path fill="none" stroke="grey" stroke-width="2" d="M267.06,-575.15C288.03,-566.26 313.61,-555.41 336.01,-545.91"/>
<polygon fill="grey" stroke="grey" stroke-width="2" points="337.1,-549.24 344.94,-542.12 334.37,-542.8 337.1,-549.24"/>
</g>
<!-- 25 -->
<g id="node26" class="node">
<title>25</title>
<path fill="none" stroke="#56d8c9" stroke-width="2" d="M286,-540C286,-540 164,-540 164,-540 158,-540 152,-534 152,-528 152,-528 152,-516 152,-516 152,-510 158,-504 164,-504 164,-504 286,-504 286,-504 292,-504 298,-510 298,-516 298,-516 298,-528 298,-528 298,-534 292,-540 286,-540"/>
<text text-anchor="middle" x="225" y="-519.5" font-family="sans" font-size="10.00">gdc_sg_unmapped_fastq_se</text>
</g>
<!-- 7&#45;&gt;25 -->
<g id="edge37" class="edge">
<title>7&#45;&gt;25</title>
<path fill="none" stroke="grey" stroke-width="2" d="M225,-575.34C225,-568.75 225,-561.08 225,-553.67"/>
<polygon fill="grey" stroke="grey" stroke-width="2" points="228.5,-553.93 225,-543.93 221.5,-553.93 228.5,-553.93"/>
</g>
<!-- 28 -->
<g id="node29" class="node">
<title>28</title>
<path fill="none" stroke="#d8cb56" stroke-width="2" d="M122,-540C122,-540 12,-540 12,-540 6,-540 0,-534 0,-528 0,-528 0,-516 0,-516 0,-510 6,-504 12,-504 12,-504 122,-504 122,-504 128,-504 134,-510 134,-516 134,-516 134,-528 134,-528 134,-534 128,-540 122,-540"/>
<text text-anchor="middle" x="67" y="-519.5" font-family="sans" font-size="10.00">gdc_rg_unmapped_fastqs</text>
</g>
<!-- 7&#45;&gt;28 -->
<g id="edge41" class="edge">
<title>7&#45;&gt;28</title>
<path fill="none" stroke="grey" stroke-width="2" d="M184.72,-575.15C164.83,-566.34 140.6,-555.61 119.3,-546.17"/>
<polygon fill="grey" stroke="grey" stroke-width="2" points="120.81,-543.01 110.25,-542.16 117.97,-549.41 120.81,-543.01"/>
</g>
<!-- 8 -->
<g id="node9" class="node">
<title>8</title>
<path fill="none" stroke="#d8b456" stroke-width="2" d="M580,-540C580,-540 494,-540 494,-540 488,-540 482,-534 482,-528 482,-528 482,-516 482,-516 482,-510 488,-504 494,-504 494,-504 580,-504 580,-504 586,-504 592,-510 592,-516 592,-516 592,-528 592,-528 592,-534 586,-540 580,-540"/>
<text text-anchor="middle" x="537" y="-519.5" font-family="sans" font-size="10.00">host_genome_index</text>
</g>
<!-- 8&#45;&gt;5 -->
<g id="edge13" class="edge">
<title>8&#45;&gt;5</title>
<path fill="none" stroke="grey" stroke-width="2" d="M543.81,-503.34C546.45,-496.51 549.54,-488.5 552.49,-480.83"/>
<polygon fill="grey" stroke="grey" stroke-width="2" points="555.67,-482.32 556.01,-471.73 549.14,-479.8 555.67,-482.32"/>
</g>
<!-- 24 -->
<g id="node25" class="node">
<title>24</title>
<path fill="none" stroke="#56d892" stroke-width="2" d="M474,-468C474,-468 380,-468 380,-468 374,-468 368,-462 368,-456 368,-456 368,-444 368,-444 368,-438 374,-432 380,-432 380,-432 474,-432 474,-432 480,-432 486,-438 486,-444 486,-444 486,-456 486,-456 486,-462 480,-468 474,-468"/>
<text text-anchor="middle" x="427" y="-447.5" font-family="sans" font-size="10.00">host_filtered_fastq_se</text>
</g>
<!-- 8&#45;&gt;24 -->
<g id="edge35" class="edge">
<title>8&#45;&gt;24</title>
<path fill="none" stroke="grey" stroke-width="2" d="M508.96,-503.15C495.9,-494.84 480.15,-484.82 465.96,-475.79"/>
<polygon fill="grey" stroke="grey" stroke-width="2" points="467.86,-472.85 457.54,-470.44 464.1,-478.76 467.86,-472.85"/>
</g>
<!-- 9 -->
<g id="node10" class="node">
<title>9</title>
<path fill="none" stroke="#5663d8" stroke-width="2" d="M577.5,-612C577.5,-612 494.5,-612 494.5,-612 488.5,-612 482.5,-606 482.5,-600 482.5,-600 482.5,-588 482.5,-588 482.5,-582 488.5,-576 494.5,-576 494.5,-576 577.5,-576 577.5,-576 583.5,-576 589.5,-582 589.5,-588 589.5,-588 589.5,-600 589.5,-600 589.5,-606 583.5,-612 577.5,-612"/>
<text text-anchor="middle" x="536" y="-591.5" font-family="sans" font-size="10.00">host_genome_fasta</text>
</g>
<!-- 9&#45;&gt;8 -->
<g id="edge16" class="edge">
<title>9&#45;&gt;8</title>
<path fill="none" stroke="grey" stroke-width="2" d="M536.25,-575.34C536.35,-568.75 536.46,-561.08 536.56,-553.67"/>
<polygon fill="grey" stroke="grey" stroke-width="2" points="540.06,-553.98 536.7,-543.93 533.06,-553.88 540.06,-553.98"/>
</g>
<!-- 10 -->
<g id="node11" class="node">
<title>10</title>
<path fill="none" stroke="#56a9d8" stroke-width="2" d="M866.5,-468C866.5,-468 819.5,-468 819.5,-468 813.5,-468 807.5,-462 807.5,-456 807.5,-456 807.5,-444 807.5,-444 807.5,-438 813.5,-432 819.5,-432 819.5,-432 866.5,-432 866.5,-432 872.5,-432 878.5,-438 878.5,-444 878.5,-444 878.5,-456 878.5,-456 878.5,-462 872.5,-468 866.5,-468"/>
<text text-anchor="middle" x="843" y="-447.5" font-family="sans" font-size="10.00">kraken2_db</text>
</g>
<!-- 10&#45;&gt;2 -->
<g id="edge5" class="edge">
<title>10&#45;&gt;2</title>
<path fill="none" stroke="grey" stroke-width="2" d="M879.49,-433.84C895.26,-425.24 912.11,-412.78 921,-396 945.53,-349.68 950.26,-281.54 892,-216 868.4,-189.45 831.3,-176.14 798.56,-169.5"/>
<polygon fill="grey" stroke="grey" stroke-width="2" points="799.23,-166.07 788.77,-167.73 797.99,-172.95 799.23,-166.07"/>
</g>
<!-- 10&#45;&gt;4 -->
<g id="edge12" class="edge">
<title>10&#45;&gt;4</title>
<path fill="none" stroke="grey" stroke-width="2" d="M806.6,-436.32C778.49,-426.53 738.89,-412.74 705.58,-401.14"/>
<polygon fill="grey" stroke="grey" stroke-width="2" points="707.08,-397.96 696.49,-397.98 704.78,-404.57 707.08,-397.96"/>
</g>
<!-- 10&#45;&gt;18 -->
<g id="edge28" class="edge">
<title>10&#45;&gt;18</title>
<path fill="none" stroke="grey" stroke-width="2" d="M806.66,-431.56C792,-422.81 776.17,-410.87 766,-396 754.29,-378.87 749.06,-356.04 746.75,-337.79"/>
<polygon fill="grey" stroke="grey" stroke-width="2" points="750.24,-337.52 745.79,-327.91 743.27,-338.2 750.24,-337.52"/>
</g>
<!-- 22 -->
<g id="node23" class="node">
<title>22</title>
<path fill="none" stroke="#88d856" stroke-width="2" d="M899.5,-396C899.5,-396 786.5,-396 786.5,-396 780.5,-396 774.5,-390 774.5,-384 774.5,-384 774.5,-372 774.5,-372 774.5,-366 780.5,-360 786.5,-360 786.5,-360 899.5,-360 899.5,-360 905.5,-360 911.5,-366 911.5,-372 911.5,-372 911.5,-384 911.5,-384 911.5,-390 905.5,-396 899.5,-396"/>
<text text-anchor="middle" x="843" y="-375.5" font-family="sans" font-size="10.00">bracken_db_kraken_classif</text>
</g>
<!-- 10&#45;&gt;22 -->
<g id="edge32" class="edge">
<title>10&#45;&gt;22</title>
<path fill="none" stroke="grey" stroke-width="2" d="M843,-431.34C843,-424.75 843,-417.08 843,-409.67"/>
<polygon fill="grey" stroke="grey" stroke-width="2" points="846.5,-409.93 843,-399.93 839.5,-409.93 846.5,-409.93"/>
</g>
<!-- 23 -->
<g id="node24" class="node">
<title>23</title>
<path fill="none" stroke="#56d0d8" stroke-width="2" d="M497.5,-396C497.5,-396 372.5,-396 372.5,-396 366.5,-396 360.5,-390 360.5,-384 360.5,-384 360.5,-372 360.5,-372 360.5,-366 366.5,-360 372.5,-360 372.5,-360 497.5,-360 497.5,-360 503.5,-360 509.5,-366 509.5,-372 509.5,-372 509.5,-384 509.5,-384 509.5,-390 503.5,-396 497.5,-396"/>
<text text-anchor="middle" x="435" y="-375.5" font-family="sans" font-size="10.00">kraken2_nucl_read_classif_se</text>
</g>
<!-- 10&#45;&gt;23 -->
<g id="edge34" class="edge">
<title>10&#45;&gt;23</title>
<path fill="none" stroke="grey" stroke-width="2" d="M806.59,-443.24C747.31,-433.8 626.24,-414.26 524,-396 523.58,-395.92 523.16,-395.85 522.73,-395.77"/>
<polygon fill="grey" stroke="grey" stroke-width="2" points="523.68,-392.39 513.22,-394.04 522.43,-399.28 523.68,-392.39"/>
</g>
<!-- 26 -->
<g id="node27" class="node">
<title>26</title>
<path fill="none" stroke="#61d856" stroke-width="2" d="M601,-324C601,-324 475,-324 475,-324 469,-324 463,-318 463,-312 463,-312 463,-300 463,-300 463,-294 469,-288 475,-288 475,-288 601,-288 601,-288 607,-288 613,-294 613,-300 613,-300 613,-312 613,-312 613,-318 607,-324 601,-324"/>
<text text-anchor="middle" x="538" y="-303.5" font-family="sans" font-size="10.00">kraken2_prot_read_classif_se</text>
</g>
<!-- 10&#45;&gt;26 -->
<g id="edge38" class="edge">
<title>10&#45;&gt;26</title>
<path fill="none" stroke="grey" stroke-width="2" d="M806.71,-447.18C737.87,-442.95 592.06,-430.12 557,-396 541.62,-381.03 537.21,-356.89 536.46,-337.52"/>
<polygon fill="grey" stroke="grey" stroke-width="2" points="539.96,-337.78 536.45,-327.78 532.96,-337.79 539.96,-337.78"/>
</g>
<!-- 11 -->
<g id="node12" class="node">
<title>11</title>
<path fill="none" stroke="#b6d856" stroke-width="2" d="M1120,-612C1120,-612 1022,-612 1022,-612 1016,-612 1010,-606 1010,-600 1010,-600 1010,-588 1010,-588 1010,-582 1016,-576 1022,-576 1022,-576 1120,-576 1120,-576 1126,-576 1132,-582 1132,-588 1132,-588 1132,-600 1132,-600 1132,-606 1126,-612 1120,-612"/>
<text text-anchor="middle" x="1071" y="-591.5" font-family="sans" font-size="10.00">kraken2_db_taxonomy</text>
</g>
<!-- 11&#45;&gt;10 -->
<g id="edge19" class="edge">
<title>11&#45;&gt;10</title>
<path fill="none" stroke="grey" stroke-width="2" d="M1044.7,-575.16C1030.53,-565.23 1012.94,-552.41 998,-540 980.1,-525.13 979.31,-516.98 960,-504 938.86,-489.79 913.3,-477.71 891.46,-468.69"/>
<polygon fill="grey" stroke="grey" stroke-width="2" points="892.83,-465.46 882.24,-464.99 890.22,-471.96 892.83,-465.46"/>
</g>
<!-- 12 -->
<g id="node13" class="node">
<title>12</title>
<path fill="none" stroke="#d88d56" stroke-width="2" d="M1123,-540C1123,-540 1019,-540 1019,-540 1013,-540 1007,-534 1007,-528 1007,-528 1007,-516 1007,-516 1007,-510 1013,-504 1019,-504 1019,-504 1123,-504 1123,-504 1129,-504 1135,-510 1135,-516 1135,-516 1135,-528 1135,-528 1135,-534 1129,-540 1123,-540"/>
<text text-anchor="middle" x="1071" y="-519.5" font-family="sans" font-size="10.00">kraken2_nucl_db_library</text>
</g>
<!-- 11&#45;&gt;12 -->
<g id="edge22" class="edge">
<title>11&#45;&gt;12</title>
<path fill="none" stroke="grey" stroke-width="2" d="M1071,-575.34C1071,-568.75 1071,-561.08 1071,-553.67"/>
<polygon fill="grey" stroke="grey" stroke-width="2" points="1074.5,-553.93 1071,-543.93 1067.5,-553.93 1074.5,-553.93"/>
</g>
<!-- 19 -->
<g id="node20" class="node">
<title>19</title>
<path fill="none" stroke="#5673d8" stroke-width="2" d="M1269,-540C1269,-540 1165,-540 1165,-540 1159,-540 1153,-534 1153,-528 1153,-528 1153,-516 1153,-516 1153,-510 1159,-504 1165,-504 1165,-504 1269,-504 1269,-504 1275,-504 1281,-510 1281,-516 1281,-516 1281,-528 1281,-528 1281,-534 1275,-540 1269,-540"/>
<text text-anchor="middle" x="1217" y="-519.5" font-family="sans" font-size="10.00">kraken2_prot_db_library</text>
</g>
<!-- 11&#45;&gt;19 -->
<g id="edge29" class="edge">
<title>11&#45;&gt;19</title>
<path fill="none" stroke="grey" stroke-width="2" d="M1108.22,-575.15C1126.34,-566.47 1148.37,-555.91 1167.85,-546.56"/>
<polygon fill="grey" stroke="grey" stroke-width="2" points="1169.36,-549.72 1176.87,-542.24 1166.33,-543.41 1169.36,-549.72"/>
</g>
<!-- 12&#45;&gt;10 -->
<g id="edge20" class="edge">
<title>12&#45;&gt;10</title>
<path fill="none" stroke="grey" stroke-width="2" d="M1012.58,-503.06C975.1,-491.56 926.99,-476.79 891.6,-465.92"/>
<polygon fill="grey" stroke="grey" stroke-width="2" points="892.66,-462.59 882.07,-463 890.61,-469.28 892.66,-462.59"/>
</g>
<!-- 13 -->
<g id="node14" class="node">
<title>13</title>
<path fill="none" stroke="#d8c356" stroke-width="2" d="M759.5,-540C759.5,-540 622.5,-540 622.5,-540 616.5,-540 610.5,-534 610.5,-528 610.5,-528 610.5,-516 610.5,-516 610.5,-510 616.5,-504 622.5,-504 622.5,-504 759.5,-504 759.5,-504 765.5,-504 771.5,-510 771.5,-516 771.5,-516 771.5,-528 771.5,-528 771.5,-534 765.5,-540 759.5,-540"/>
<text text-anchor="middle" x="691" y="-519.5" font-family="sans" font-size="10.00">kraken2_eupathdb_nucl_library</text>
</g>
<!-- 13&#45;&gt;10 -->
<g id="edge17" class="edge">
<title>13&#45;&gt;10</title>
<path fill="none" stroke="grey" stroke-width="2" d="M729.75,-503.15C749.62,-494 774,-482.77 795.05,-473.08"/>
<polygon fill="grey" stroke="grey" stroke-width="2" points="796.3,-476.36 803.92,-469 793.38,-470 796.3,-476.36"/>
</g>
<!-- 14 -->
<g id="node15" class="node">
<title>14</title>
<path fill="none" stroke="#68d856" stroke-width="2" d="M762.5,-612C762.5,-612 619.5,-612 619.5,-612 613.5,-612 607.5,-606 607.5,-600 607.5,-600 607.5,-588 607.5,-588 607.5,-582 613.5,-576 619.5,-576 619.5,-576 762.5,-576 762.5,-576 768.5,-576 774.5,-582 774.5,-588 774.5,-588 774.5,-600 774.5,-600 774.5,-606 768.5,-612 762.5,-612"/>
<text text-anchor="middle" x="691" y="-591.5" font-family="sans" font-size="10.00">eupathdb_nucl_seqid2taxid_map</text>
</g>
<!-- 14&#45;&gt;13 -->
<g id="edge24" class="edge">
<title>14&#45;&gt;13</title>
<path fill="none" stroke="grey" stroke-width="2" d="M691,-575.34C691,-568.75 691,-561.08 691,-553.67"/>
<polygon fill="grey" stroke="grey" stroke-width="2" points="694.5,-553.93 691,-543.93 687.5,-553.93 694.5,-553.93"/>
</g>
<!-- 15 -->
<g id="node16" class="node">
<title>15</title>
<path fill="none" stroke="#56d86b" stroke-width="2" d="M917,-612C917,-612 811,-612 811,-612 805,-612 799,-606 799,-600 799,-600 799,-588 799,-588 799,-582 805,-576 811,-576 811,-576 917,-576 917,-576 923,-576 929,-582 929,-588 929,-588 929,-600 929,-600 929,-606 923,-612 917,-612"/>
<text text-anchor="middle" x="864" y="-591.5" font-family="sans" font-size="10.00">eupathdb_merged_fasta</text>
</g>
<!-- 15&#45;&gt;13 -->
<g id="edge23" class="edge">
<title>15&#45;&gt;13</title>
<path fill="none" stroke="grey" stroke-width="2" d="M819.9,-575.15C797.82,-566.22 770.84,-555.31 747.29,-545.77"/>
<polygon fill="grey" stroke="grey" stroke-width="2" points="748.71,-542.58 738.13,-542.07 746.09,-549.06 748.71,-542.58"/>
</g>
<!-- 20 -->
<g id="node21" class="node">
<title>20</title>
<path fill="none" stroke="#56d8d8" stroke-width="2" d="M938.5,-540C938.5,-540 801.5,-540 801.5,-540 795.5,-540 789.5,-534 789.5,-528 789.5,-528 789.5,-516 789.5,-516 789.5,-510 795.5,-504 801.5,-504 801.5,-504 938.5,-504 938.5,-504 944.5,-504 950.5,-510 950.5,-516 950.5,-516 950.5,-528 950.5,-528 950.5,-534 944.5,-540 938.5,-540"/>
<text text-anchor="middle" x="870" y="-519.5" font-family="sans" font-size="10.00">kraken2_eupathdb_prot_library</text>
</g>
<!-- 15&#45;&gt;20 -->
<g id="edge30" class="edge">
<title>15&#45;&gt;20</title>
<path fill="none" stroke="grey" stroke-width="2" d="M865.51,-575.34C866.08,-568.75 866.74,-561.08 867.37,-553.67"/>
<polygon fill="grey" stroke="grey" stroke-width="2" points="870.84,-554.18 868.21,-543.92 863.87,-553.58 870.84,-554.18"/>
</g>
<!-- 16 -->
<g id="node17" class="node">
<title>16</title>
<path fill="none" stroke="#9fd856" stroke-width="2" d="M898.5,-684C898.5,-684 829.5,-684 829.5,-684 823.5,-684 817.5,-678 817.5,-672 817.5,-672 817.5,-660 817.5,-660 817.5,-654 823.5,-648 829.5,-648 829.5,-648 898.5,-648 898.5,-648 904.5,-648 910.5,-654 910.5,-660 910.5,-660 910.5,-672 910.5,-672 910.5,-678 904.5,-684 898.5,-684"/>
<text text-anchor="middle" x="864" y="-663.5" font-family="sans" font-size="10.00">eupathdb_fastas</text>
</g>
<!-- 16&#45;&gt;15 -->
<g id="edge25" class="edge">
<title>16&#45;&gt;15</title>
<path fill="none" stroke="grey" stroke-width="2" d="M864,-647.34C864,-640.75 864,-633.08 864,-625.67"/>
<polygon fill="grey" stroke="grey" stroke-width="2" points="867.5,-625.93 864,-615.93 860.5,-625.93 867.5,-625.93"/>
</g>
<!-- 17 -->
<g id="node18" class="node">
<title>17</title>
<path fill="none" stroke="#56b1d8" stroke-width="2" d="M915,-756C915,-756 813,-756 813,-756 807,-756 801,-750 801,-744 801,-744 801,-732 801,-732 801,-726 807,-720 813,-720 813,-720 915,-720 915,-720 921,-720 927,-726 927,-732 927,-732 927,-744 927,-744 927,-750 921,-756 915,-756"/>
<text text-anchor="middle" x="864" y="-735.5" font-family="sans" font-size="10.00">eupathdb_fasta_archive</text>
</g>
<!-- 17&#45;&gt;16 -->
<g id="edge26" class="edge">
<title>17&#45;&gt;16</title>
<path fill="none" stroke="grey" stroke-width="2" d="M864,-719.34C864,-712.75 864,-705.08 864,-697.67"/>
<polygon fill="grey" stroke="grey" stroke-width="2" points="867.5,-697.93 864,-687.93 860.5,-697.93 867.5,-697.93"/>
</g>
<!-- 18&#45;&gt;3 -->
<g id="edge10" class="edge">
<title>18&#45;&gt;3</title>
<path fill="none" stroke="grey" stroke-width="2" d="M718.49,-287.15C706.26,-278.93 691.54,-269.02 678.23,-260.06"/>
<polygon fill="grey" stroke="grey" stroke-width="2" points="680.23,-257.18 669.98,-254.5 676.32,-262.99 680.23,-257.18"/>
</g>
<!-- 19&#45;&gt;10 -->
<g id="edge21" class="edge">
<title>19&#45;&gt;10</title>
<path fill="none" stroke="grey" stroke-width="2" d="M1152.16,-505.71C1149.41,-505.12 1146.68,-504.55 1144,-504 1055.55,-485.93 951.72,-468.47 892.02,-458.79"/>
<polygon fill="grey" stroke="grey" stroke-width="2" points="892.68,-455.35 882.25,-457.21 891.56,-462.26 892.68,-455.35"/>
</g>
<!-- 20&#45;&gt;10 -->
<g id="edge18" class="edge">
<title>20&#45;&gt;10</title>
<path fill="none" stroke="grey" stroke-width="2" d="M863.19,-503.34C860.55,-496.51 857.46,-488.5 854.51,-480.83"/>
<polygon fill="grey" stroke="grey" stroke-width="2" points="857.86,-479.8 850.99,-471.73 851.33,-482.32 857.86,-479.8"/>
</g>
<!-- 21 -->
<g id="node22" class="node">
<title>21</title>
<path fill="none" stroke="#8fd856" stroke-width="2" d="M870.5,-252C870.5,-252 769.5,-252 769.5,-252 763.5,-252 757.5,-246 757.5,-240 757.5,-240 757.5,-228 757.5,-228 757.5,-222 763.5,-216 769.5,-216 769.5,-216 870.5,-216 870.5,-216 876.5,-216 882.5,-222 882.5,-228 882.5,-228 882.5,-240 882.5,-240 882.5,-246 876.5,-252 870.5,-252"/>
<text text-anchor="middle" x="820" y="-231.5" font-family="sans" font-size="10.00">bracken_db_kmer_distr</text>
</g>
<!-- 21&#45;&gt;2 -->
<g id="edge6" class="edge">
<title>21&#45;&gt;2</title>
<path fill="none" stroke="grey" stroke-width="2" d="M797.29,-215.34C786.92,-207.27 774.45,-197.57 763.07,-188.72"/>
<polygon fill="grey" stroke="grey" stroke-width="2" points="765.45,-186.14 755.41,-182.76 761.15,-191.66 765.45,-186.14"/>
</g>
<!-- 22&#45;&gt;21 -->
<g id="edge31" class="edge">
<title>22&#45;&gt;21</title>
<path fill="none" stroke="grey" stroke-width="2" d="M840.63,-359.24C838.17,-341.25 834.12,-312.64 830,-288 828.76,-280.61 827.32,-272.67 825.93,-265.23"/>
<polygon fill="grey" stroke="grey" stroke-width="2" points="829.4,-264.77 824.09,-255.61 822.53,-266.09 829.4,-264.77"/>
</g>
<!-- 23&#45;&gt;3 -->
<g id="edge9" class="edge">
<title>23&#45;&gt;3</title>
<path fill="none" stroke="grey" stroke-width="2" d="M433.75,-359.19C433.38,-339.27 435.97,-307.26 454,-288 480.61,-259.57 521.23,-246.01 557.82,-239.68"/>
<polygon fill="grey" stroke="grey" stroke-width="2" points="558.21,-243.16 567.57,-238.19 557.15,-236.24 558.21,-243.16"/>
</g>
<!-- 23&#45;&gt;26 -->
<g id="edge39" class="edge">
<title>23&#45;&gt;26</title>
<path fill="none" stroke="grey" stroke-width="2" d="M461.26,-359.15C473.36,-350.93 487.94,-341.02 501.13,-332.06"/>
<polygon fill="grey" stroke="grey" stroke-width="2" points="502.98,-335.03 509.29,-326.51 499.05,-329.24 502.98,-335.03"/>
</g>
<!-- 24&#45;&gt;23 -->
<g id="edge33" class="edge">
<title>24&#45;&gt;23</title>
<path fill="none" stroke="grey" stroke-width="2" d="M429.02,-431.34C429.77,-424.75 430.65,-417.08 431.5,-409.67"/>
<polygon fill="grey" stroke="grey" stroke-width="2" points="434.95,-410.24 432.61,-399.91 428,-409.45 434.95,-410.24"/>
</g>
<!-- 25&#45;&gt;24 -->
<g id="edge36" class="edge">
<title>25&#45;&gt;24</title>
<path fill="none" stroke="grey" stroke-width="2" d="M276.76,-503.06C303.13,-493.93 335.43,-482.73 363.32,-473.07"/>
<polygon fill="grey" stroke="grey" stroke-width="2" points="364.21,-476.46 372.52,-469.88 361.92,-469.85 364.21,-476.46"/>
</g>
<!-- 26&#45;&gt;3 -->
<g id="edge7" class="edge">
<title>26&#45;&gt;3</title>
<path fill="none" stroke="grey" stroke-width="2" d="M564.26,-287.15C576.36,-278.93 590.94,-269.02 604.13,-260.06"/>
<polygon fill="grey" stroke="grey" stroke-width="2" points="605.98,-263.03 612.29,-254.51 602.05,-257.24 605.98,-263.03"/>
</g>
<!-- 27 -->
<g id="node28" class="node">
<title>27</title>
<path fill="none" stroke="#afd856" stroke-width="2" d="M409.5,-252C409.5,-252 280.5,-252 280.5,-252 274.5,-252 268.5,-246 268.5,-240 268.5,-240 268.5,-228 268.5,-228 268.5,-222 274.5,-216 280.5,-216 280.5,-216 409.5,-216 409.5,-216 415.5,-216 421.5,-222 421.5,-228 421.5,-228 421.5,-240 421.5,-240 421.5,-246 415.5,-252 409.5,-252"/>
<text text-anchor="middle" x="345" y="-231.5" font-family="sans" font-size="10.00">bracken_combined_rg_counts</text>
</g>
<!-- 27&#45;&gt;1 -->
<g id="edge3" class="edge">
<title>27&#45;&gt;1</title>
<path fill="none" stroke="grey" stroke-width="2" d="M381.73,-215.02C433.92,-189.46 529.58,-142.62 587.22,-114.39"/>
<polygon fill="grey" stroke="grey" stroke-width="2" points="588.41,-117.71 595.85,-110.17 585.33,-111.42 588.41,-117.71"/>
</g>
<!-- 28&#45;&gt;27 -->
<g id="edge40" class="edge">
<title>28&#45;&gt;27</title>
<path fill="none" stroke="grey" stroke-width="2" d="M84.39,-503.11C131.58,-454.56 262.3,-320.08 318.62,-262.14"/>
<polygon fill="grey" stroke="grey" stroke-width="2" points="321.05,-264.66 325.51,-255.05 316.03,-259.79 321.05,-264.66"/>
</g>
</g>
</svg>
