<?xml version="1.0" encoding="UTF-8" standalone="no"?>
<!DOCTYPE svg PUBLIC "-//W3C//DTD SVG 1.1//EN"
 "http://www.w3.org/Graphics/SVG/1.1/DTD/svg11.dtd">
<!-- Generated by graphviz version 7.1.0 (0)
 -->
<!-- Title: snakemake_dag Pages: 1 -->
<svg width="552pt" height="620pt"
 viewBox="0.00 0.00 552.00 620.00" xmlns="http://www.w3.org/2000/svg" xmlns:xlink="http://www.w3.org/1999/xlink">
<g id="graph0" class="graph" transform="scale(1 1) rotate(0) translate(4 616)">
<title>snakemake_dag</title>
<polygon fill="white" stroke="none" points="-4,4 -4,-616 548,-616 548,4 -4,4"/>
<!-- 0 -->
<g id="node1" class="node">
<title>0</title>
<path fill="none" stroke="#d89c56" stroke-width="2" d="M368,-36C368,-36 338,-36 338,-36 332,-36 326,-30 326,-24 326,-24 326,-12 326,-12 326,-6 332,0 338,0 338,0 368,0 368,0 374,0 380,-6 380,-12 380,-12 380,-24 380,-24 380,-30 374,-36 368,-36"/>
<text text-anchor="middle" x="353" y="-15.5" font-family="sans" font-size="10.00">all</text>
</g>
<!-- 1 -->
<g id="node2" class="node">
<title>1</title>
<path fill="none" stroke="#56d8d0" stroke-width="2" d="M400.5,-108C400.5,-108 305.5,-108 305.5,-108 299.5,-108 293.5,-102 293.5,-96 293.5,-96 293.5,-84 293.5,-84 293.5,-78 299.5,-72 305.5,-72 305.5,-72 400.5,-72 400.5,-72 406.5,-72 412.5,-78 412.5,-84 412.5,-84 412.5,-96 412.5,-96 412.5,-102 406.5,-108 400.5,-108"/>
<text text-anchor="middle" x="353" y="-87.5" font-family="sans" font-size="10.00">bracken_count_matrix</text>
</g>
<!-- 1&#45;&gt;0 -->
<g id="edge1" class="edge">
<title>1&#45;&gt;0</title>
<path fill="none" stroke="grey" stroke-width="2" d="M353,-71.34C353,-64.75 353,-57.08 353,-49.67"/>
<polygon fill="grey" stroke="grey" stroke-width="2" points="356.5,-49.93 353,-39.93 349.5,-49.93 356.5,-49.93"/>
</g>
<!-- 2 -->
<g id="node3" class="node">
<title>2</title>
<path fill="none" stroke="#a7d856" stroke-width="2" d="M396,-252C396,-252 310,-252 310,-252 304,-252 298,-246 298,-240 298,-240 298,-228 298,-228 298,-222 304,-216 310,-216 310,-216 396,-216 396,-216 402,-216 408,-222 408,-228 408,-228 408,-240 408,-240 408,-246 402,-252 396,-252"/>
<text text-anchor="middle" x="353" y="-231.5" font-family="sans" font-size="10.00">bracken_read_quant</text>
</g>
<!-- 2&#45;&gt;1 -->
<g id="edge3" class="edge">
<title>2&#45;&gt;1</title>
<path fill="none" stroke="grey" stroke-width="2" d="M339.53,-215.43C332.84,-205.59 325.46,-192.76 322,-180 317.82,-164.56 317.82,-159.44 322,-144 324.3,-135.53 328.32,-127.02 332.73,-119.38"/>
<polygon fill="grey" stroke="grey" stroke-width="2" points="335.56,-121.46 337.92,-111.13 329.63,-117.73 335.56,-121.46"/>
</g>
<!-- 16 -->
<g id="node17" class="node">
<title>16</title>
<path fill="none" stroke="#56d8a2" stroke-width="2" d="M463,-180C463,-180 343,-180 343,-180 337,-180 331,-174 331,-168 331,-168 331,-156 331,-156 331,-150 337,-144 343,-144 343,-144 463,-144 463,-144 469,-144 475,-150 475,-156 475,-156 475,-168 475,-168 475,-174 469,-180 463,-180"/>
<text text-anchor="middle" x="403" y="-159.5" font-family="sans" font-size="10.00">bracken_merged_rg_counts</text>
</g>
<!-- 2&#45;&gt;16 -->
<g id="edge19" class="edge">
<title>2&#45;&gt;16</title>
<path fill="none" stroke="grey" stroke-width="2" d="M365.62,-215.34C370.79,-208.1 376.91,-199.53 382.68,-191.45"/>
<polygon fill="grey" stroke="grey" stroke-width="2" points="385.49,-193.54 388.45,-183.37 379.79,-189.47 385.49,-193.54"/>
</g>
<!-- 3 -->
<g id="node4" class="node">
<title>3</title>
<path fill="none" stroke="#566bd8" stroke-width="2" d="M335.5,-324C335.5,-324 248.5,-324 248.5,-324 242.5,-324 236.5,-318 236.5,-312 236.5,-312 236.5,-300 236.5,-300 236.5,-294 242.5,-288 248.5,-288 248.5,-288 335.5,-288 335.5,-288 341.5,-288 347.5,-294 347.5,-300 347.5,-300 347.5,-312 347.5,-312 347.5,-318 341.5,-324 335.5,-324"/>
<text text-anchor="middle" x="292" y="-303.5" font-family="sans" font-size="10.00">kraken2_read_classif</text>
</g>
<!-- 3&#45;&gt;2 -->
<g id="edge5" class="edge">
<title>3&#45;&gt;2</title>
<path fill="none" stroke="grey" stroke-width="2" d="M307.39,-287.34C313.92,-279.85 321.67,-270.95 328.92,-262.63"/>
<polygon fill="grey" stroke="grey" stroke-width="2" points="331.48,-265.02 335.41,-255.18 326.2,-260.42 331.48,-265.02"/>
</g>
<!-- 4 -->
<g id="node5" class="node">
<title>4</title>
<path fill="none" stroke="#8fd856" stroke-width="2" d="M194.5,-396C194.5,-396 81.5,-396 81.5,-396 75.5,-396 69.5,-390 69.5,-384 69.5,-384 69.5,-372 69.5,-372 69.5,-366 75.5,-360 81.5,-360 81.5,-360 194.5,-360 194.5,-360 200.5,-360 206.5,-366 206.5,-372 206.5,-372 206.5,-384 206.5,-384 206.5,-390 200.5,-396 194.5,-396"/>
<text text-anchor="middle" x="138" y="-375.5" font-family="sans" font-size="10.00">bowtie2_filtered_fastq_pe</text>
</g>
<!-- 4&#45;&gt;3 -->
<g id="edge6" class="edge">
<title>4&#45;&gt;3</title>
<path fill="none" stroke="grey" stroke-width="2" d="M177.26,-359.15C196.55,-350.38 220.05,-339.71 240.74,-330.3"/>
<polygon fill="grey" stroke="grey" stroke-width="2" points="242.13,-333.51 249.79,-326.19 239.24,-327.14 242.13,-333.51"/>
</g>
<!-- 5 -->
<g id="node6" class="node">
<title>5</title>
<path fill="none" stroke="#d85656" stroke-width="2" d="M257,-468C257,-468 175,-468 175,-468 169,-468 163,-462 163,-456 163,-456 163,-444 163,-444 163,-438 169,-432 175,-432 175,-432 257,-432 257,-432 263,-432 269,-438 269,-444 269,-444 269,-456 269,-456 269,-462 263,-468 257,-468"/>
<text text-anchor="middle" x="216" y="-447.5" font-family="sans" font-size="10.00">bowtie2_host_filter</text>
</g>
<!-- 5&#45;&gt;4 -->
<g id="edge9" class="edge">
<title>5&#45;&gt;4</title>
<path fill="none" stroke="grey" stroke-width="2" d="M196.32,-431.34C187.61,-423.52 177.18,-414.16 167.57,-405.53"/>
<polygon fill="grey" stroke="grey" stroke-width="2" points="169.98,-403 160.2,-398.92 165.31,-408.21 169.98,-403"/>
</g>
<!-- 14 -->
<g id="node15" class="node">
<title>14</title>
<path fill="none" stroke="#56c9d8" stroke-width="2" d="M347.5,-396C347.5,-396 236.5,-396 236.5,-396 230.5,-396 224.5,-390 224.5,-384 224.5,-384 224.5,-372 224.5,-372 224.5,-366 230.5,-360 236.5,-360 236.5,-360 347.5,-360 347.5,-360 353.5,-360 359.5,-366 359.5,-372 359.5,-372 359.5,-384 359.5,-384 359.5,-390 353.5,-396 347.5,-396"/>
<text text-anchor="middle" x="292" y="-375.5" font-family="sans" font-size="10.00">bowtie2_filtered_fastq_se</text>
</g>
<!-- 5&#45;&gt;14 -->
<g id="edge17" class="edge">
<title>5&#45;&gt;14</title>
<path fill="none" stroke="grey" stroke-width="2" d="M235.18,-431.34C243.66,-423.52 253.82,-414.16 263.19,-405.53"/>
<polygon fill="grey" stroke="grey" stroke-width="2" points="265.35,-408.3 270.34,-398.95 260.61,-403.15 265.35,-408.3"/>
</g>
<!-- 6 -->
<g id="node7" class="node">
<title>6</title>
<path fill="none" stroke="#bed856" stroke-width="2" d="M120,-540C120,-540 12,-540 12,-540 6,-540 0,-534 0,-528 0,-528 0,-516 0,-516 0,-510 6,-504 12,-504 12,-504 120,-504 120,-504 126,-504 132,-510 132,-516 132,-516 132,-528 132,-528 132,-534 126,-540 120,-540"/>
<text text-anchor="middle" x="66" y="-519.5" font-family="sans" font-size="10.00">gdc_unmapped_fastq_pe</text>
</g>
<!-- 6&#45;&gt;5 -->
<g id="edge10" class="edge">
<title>6&#45;&gt;5</title>
<path fill="none" stroke="grey" stroke-width="2" d="M104.24,-503.15C122.94,-494.43 145.7,-483.81 165.79,-474.43"/>
<polygon fill="grey" stroke="grey" stroke-width="2" points="167.25,-477.61 174.83,-470.21 164.28,-471.27 167.25,-477.61"/>
</g>
<!-- 7 -->
<g id="node8" class="node">
<title>7</title>
<path fill="none" stroke="#d8c356" stroke-width="2" d="M185.5,-612C185.5,-612 96.5,-612 96.5,-612 90.5,-612 84.5,-606 84.5,-600 84.5,-600 84.5,-588 84.5,-588 84.5,-582 90.5,-576 96.5,-576 96.5,-576 185.5,-576 185.5,-576 191.5,-576 197.5,-582 197.5,-588 197.5,-588 197.5,-600 197.5,-600 197.5,-606 191.5,-612 185.5,-612"/>
<text text-anchor="middle" x="141" y="-591.5" font-family="sans" font-size="10.00">gdc_unmapped_bam</text>
</g>
<!-- 7&#45;&gt;6 -->
<g id="edge13" class="edge">
<title>7&#45;&gt;6</title>
<path fill="none" stroke="grey" stroke-width="2" d="M122.07,-575.34C113.7,-567.52 103.67,-558.16 94.43,-549.53"/>
<polygon fill="grey" stroke="grey" stroke-width="2" points="97.09,-547.23 87.39,-542.97 92.32,-552.35 97.09,-547.23"/>
</g>
<!-- 15 -->
<g id="node16" class="node">
<title>15</title>
<path fill="none" stroke="#d86e56" stroke-width="2" d="M269.5,-540C269.5,-540 162.5,-540 162.5,-540 156.5,-540 150.5,-534 150.5,-528 150.5,-528 150.5,-516 150.5,-516 150.5,-510 156.5,-504 162.5,-504 162.5,-504 269.5,-504 269.5,-504 275.5,-504 281.5,-510 281.5,-516 281.5,-516 281.5,-528 281.5,-528 281.5,-534 275.5,-540 269.5,-540"/>
<text text-anchor="middle" x="216" y="-519.5" font-family="sans" font-size="10.00">gdc_unmapped_fastq_se</text>
</g>
<!-- 7&#45;&gt;15 -->
<g id="edge18" class="edge">
<title>7&#45;&gt;15</title>
<path fill="none" stroke="grey" stroke-width="2" d="M159.93,-575.34C168.3,-567.52 178.33,-558.16 187.57,-549.53"/>
<polygon fill="grey" stroke="grey" stroke-width="2" points="189.68,-552.35 194.61,-542.97 184.91,-547.23 189.68,-552.35"/>
</g>
<!-- 8 -->
<g id="node9" class="node">
<title>8</title>
<path fill="none" stroke="#56b1d8" stroke-width="2" d="M396,-540C396,-540 312,-540 312,-540 306,-540 300,-534 300,-528 300,-528 300,-516 300,-516 300,-510 306,-504 312,-504 312,-504 396,-504 396,-504 402,-504 408,-510 408,-516 408,-516 408,-528 408,-528 408,-534 402,-540 396,-540"/>
<text text-anchor="middle" x="354" y="-519.5" font-family="sans" font-size="10.00">bowtie2_host_index</text>
</g>
<!-- 8&#45;&gt;5 -->
<g id="edge11" class="edge">
<title>8&#45;&gt;5</title>
<path fill="none" stroke="grey" stroke-width="2" d="M318.82,-503.15C301.71,-494.47 280.91,-483.92 262.5,-474.59"/>
<polygon fill="grey" stroke="grey" stroke-width="2" points="264.32,-471.58 253.82,-470.18 261.15,-477.83 264.32,-471.58"/>
</g>
<!-- 9 -->
<g id="node10" class="node">
<title>9</title>
<path fill="none" stroke="#56d892" stroke-width="2" d="M395.5,-612C395.5,-612 312.5,-612 312.5,-612 306.5,-612 300.5,-606 300.5,-600 300.5,-600 300.5,-588 300.5,-588 300.5,-582 306.5,-576 312.5,-576 312.5,-576 395.5,-576 395.5,-576 401.5,-576 407.5,-582 407.5,-588 407.5,-588 407.5,-600 407.5,-600 407.5,-606 401.5,-612 395.5,-612"/>
<text text-anchor="middle" x="354" y="-591.5" font-family="sans" font-size="10.00">host_genome_fasta</text>
</g>
<!-- 9&#45;&gt;8 -->
<g id="edge14" class="edge">
<title>9&#45;&gt;8</title>
<path fill="none" stroke="grey" stroke-width="2" d="M354,-575.34C354,-568.75 354,-561.08 354,-553.67"/>
<polygon fill="grey" stroke="grey" stroke-width="2" points="357.5,-553.93 354,-543.93 350.5,-553.93 357.5,-553.93"/>
</g>
<!-- 10 -->
<g id="node11" class="node">
<title>10</title>
<path fill="none" stroke="#d8b456" stroke-width="2" d="M464,-396C464,-396 390,-396 390,-396 384,-396 378,-390 378,-384 378,-384 378,-372 378,-372 378,-366 384,-360 390,-360 390,-360 464,-360 464,-360 470,-360 476,-366 476,-372 476,-372 476,-384 476,-384 476,-390 470,-396 464,-396"/>
<text text-anchor="middle" x="427" y="-375.5" font-family="sans" font-size="10.00">kraken2_db_build</text>
</g>
<!-- 10&#45;&gt;3 -->
<g id="edge7" class="edge">
<title>10&#45;&gt;3</title>
<path fill="none" stroke="grey" stroke-width="2" d="M392.58,-359.15C375.92,-350.52 355.69,-340.02 337.75,-330.72"/>
<polygon fill="grey" stroke="grey" stroke-width="2" points="339.53,-327.7 329.04,-326.21 336.31,-333.92 339.53,-327.7"/>
</g>
<!-- 11 -->
<g id="node12" class="node">
<title>11</title>
<path fill="none" stroke="#569ad8" stroke-width="2" d="M410,-468C410,-468 312,-468 312,-468 306,-468 300,-462 300,-456 300,-456 300,-444 300,-444 300,-438 306,-432 312,-432 312,-432 410,-432 410,-432 416,-432 422,-438 422,-444 422,-444 422,-456 422,-456 422,-462 416,-468 410,-468"/>
<text text-anchor="middle" x="361" y="-447.5" font-family="sans" font-size="10.00">kraken2_db_taxonomy</text>
</g>
<!-- 11&#45;&gt;10 -->
<g id="edge15" class="edge">
<title>11&#45;&gt;10</title>
<path fill="none" stroke="grey" stroke-width="2" d="M377.65,-431.34C384.79,-423.77 393.29,-414.75 401.21,-406.35"/>
<polygon fill="grey" stroke="grey" stroke-width="2" points="403.73,-408.78 408.04,-399.1 398.64,-403.98 403.73,-408.78"/>
</g>
<!-- 12 -->
<g id="node13" class="node">
<title>12</title>
<path fill="none" stroke="#d88556" stroke-width="2" d="M532,-468C532,-468 452,-468 452,-468 446,-468 440,-462 440,-456 440,-456 440,-444 440,-444 440,-438 446,-432 452,-432 452,-432 532,-432 532,-432 538,-432 544,-438 544,-444 544,-444 544,-456 544,-456 544,-462 538,-468 532,-468"/>
<text text-anchor="middle" x="492" y="-447.5" font-family="sans" font-size="10.00">kraken2_db_library</text>
</g>
<!-- 12&#45;&gt;10 -->
<g id="edge16" class="edge">
<title>12&#45;&gt;10</title>
<path fill="none" stroke="grey" stroke-width="2" d="M475.6,-431.34C468.57,-423.77 460.2,-414.75 452.4,-406.35"/>
<polygon fill="grey" stroke="grey" stroke-width="2" points="455.05,-404.07 445.68,-399.12 449.92,-408.83 455.05,-404.07"/>
</g>
<!-- 13 -->
<g id="node14" class="node">
<title>13</title>
<path fill="none" stroke="#d6d856" stroke-width="2" d="M450.5,-324C450.5,-324 377.5,-324 377.5,-324 371.5,-324 365.5,-318 365.5,-312 365.5,-312 365.5,-300 365.5,-300 365.5,-294 371.5,-288 377.5,-288 377.5,-288 450.5,-288 450.5,-288 456.5,-288 462.5,-294 462.5,-300 462.5,-300 462.5,-312 462.5,-312 462.5,-318 456.5,-324 450.5,-324"/>
<text text-anchor="middle" x="414" y="-303.5" font-family="sans" font-size="10.00">bracken_db_build</text>
</g>
<!-- 13&#45;&gt;2 -->
<g id="edge4" class="edge">
<title>13&#45;&gt;2</title>
<path fill="none" stroke="grey" stroke-width="2" d="M398.61,-287.34C392.08,-279.85 384.33,-270.95 377.08,-262.63"/>
<polygon fill="grey" stroke="grey" stroke-width="2" points="379.8,-260.42 370.59,-255.18 374.52,-265.02 379.8,-260.42"/>
</g>
<!-- 14&#45;&gt;3 -->
<g id="edge8" class="edge">
<title>14&#45;&gt;3</title>
<path fill="none" stroke="grey" stroke-width="2" d="M292,-359.34C292,-352.75 292,-345.08 292,-337.67"/>
<polygon fill="grey" stroke="grey" stroke-width="2" points="295.5,-337.93 292,-327.93 288.5,-337.93 295.5,-337.93"/>
</g>
<!-- 15&#45;&gt;5 -->
<g id="edge12" class="edge">
<title>15&#45;&gt;5</title>
<path fill="none" stroke="grey" stroke-width="2" d="M216,-503.34C216,-496.75 216,-489.08 216,-481.67"/>
<polygon fill="grey" stroke="grey" stroke-width="2" points="219.5,-481.93 216,-471.93 212.5,-481.93 219.5,-481.93"/>
</g>
<!-- 16&#45;&gt;1 -->
<g id="edge2" class="edge">
<title>16&#45;&gt;1</title>
<path fill="none" stroke="grey" stroke-width="2" d="M390.38,-143.34C385.21,-136.1 379.09,-127.53 373.32,-119.45"/>
<polygon fill="grey" stroke="grey" stroke-width="2" points="376.21,-117.47 367.55,-111.37 370.51,-121.54 376.21,-117.47"/>
</g>
</g>
</svg>
