<?xml version="1.0" encoding="UTF-8" standalone="no"?>
<!DOCTYPE svg PUBLIC "-//W3C//DTD SVG 1.1//EN"
 "http://www.w3.org/Graphics/SVG/1.1/DTD/svg11.dtd">
<!-- Generated by graphviz version 7.1.0 (0)
 -->
<!-- Title: snakemake_dag Pages: 1 -->
<svg width="714pt" height="764pt"
 viewBox="0.00 0.00 713.50 764.00" xmlns="http://www.w3.org/2000/svg" xmlns:xlink="http://www.w3.org/1999/xlink">
<g id="graph0" class="graph" transform="scale(1 1) rotate(0) translate(4 760)">
<title>snakemake_dag</title>
<polygon fill="white" stroke="none" points="-4,4 -4,-760 709.5,-760 709.5,4 -4,4"/>
<!-- 0 -->
<g id="node1" class="node">
<title>0</title>
<path fill="none" stroke="#b6d856" stroke-width="2" d="M496.5,-36C496.5,-36 466.5,-36 466.5,-36 460.5,-36 454.5,-30 454.5,-24 454.5,-24 454.5,-12 454.5,-12 454.5,-6 460.5,0 466.5,0 466.5,0 496.5,0 496.5,0 502.5,0 508.5,-6 508.5,-12 508.5,-12 508.5,-24 508.5,-24 508.5,-30 502.5,-36 496.5,-36"/>
<text text-anchor="middle" x="481.5" y="-15.5" font-family="sans" font-size="10.00">all</text>
</g>
<!-- 1 -->
<g id="node2" class="node">
<title>1</title>
<path fill="none" stroke="#56d85b" stroke-width="2" d="M529,-108C529,-108 434,-108 434,-108 428,-108 422,-102 422,-96 422,-96 422,-84 422,-84 422,-78 428,-72 434,-72 434,-72 529,-72 529,-72 535,-72 541,-78 541,-84 541,-84 541,-96 541,-96 541,-102 535,-108 529,-108"/>
<text text-anchor="middle" x="481.5" y="-87.5" font-family="sans" font-size="10.00">bracken_count_matrix</text>
</g>
<!-- 1&#45;&gt;0 -->
<g id="edge1" class="edge">
<title>1&#45;&gt;0</title>
<path fill="none" stroke="grey" stroke-width="2" d="M481.5,-71.34C481.5,-64.75 481.5,-57.08 481.5,-49.67"/>
<polygon fill="grey" stroke="grey" stroke-width="2" points="485,-49.93 481.5,-39.93 478,-49.93 485,-49.93"/>
</g>
<!-- 2 -->
<g id="node3" class="node">
<title>2</title>
<path fill="none" stroke="#d88d56" stroke-width="2" d="M524.5,-252C524.5,-252 438.5,-252 438.5,-252 432.5,-252 426.5,-246 426.5,-240 426.5,-240 426.5,-228 426.5,-228 426.5,-222 432.5,-216 438.5,-216 438.5,-216 524.5,-216 524.5,-216 530.5,-216 536.5,-222 536.5,-228 536.5,-228 536.5,-240 536.5,-240 536.5,-246 530.5,-252 524.5,-252"/>
<text text-anchor="middle" x="481.5" y="-231.5" font-family="sans" font-size="10.00">bracken_read_quant</text>
</g>
<!-- 2&#45;&gt;1 -->
<g id="edge3" class="edge">
<title>2&#45;&gt;1</title>
<path fill="none" stroke="grey" stroke-width="2" d="M468.03,-215.43C461.34,-205.59 453.96,-192.76 450.5,-180 446.32,-164.56 446.32,-159.44 450.5,-144 452.8,-135.53 456.82,-127.02 461.23,-119.38"/>
<polygon fill="grey" stroke="grey" stroke-width="2" points="464.06,-121.46 466.42,-111.13 458.13,-117.73 464.06,-121.46"/>
</g>
<!-- 21 -->
<g id="node22" class="node">
<title>21</title>
<path fill="none" stroke="#a7d856" stroke-width="2" d="M591.5,-180C591.5,-180 471.5,-180 471.5,-180 465.5,-180 459.5,-174 459.5,-168 459.5,-168 459.5,-156 459.5,-156 459.5,-150 465.5,-144 471.5,-144 471.5,-144 591.5,-144 591.5,-144 597.5,-144 603.5,-150 603.5,-156 603.5,-156 603.5,-168 603.5,-168 603.5,-174 597.5,-180 591.5,-180"/>
<text text-anchor="middle" x="531.5" y="-159.5" font-family="sans" font-size="10.00">bracken_merged_rg_counts</text>
</g>
<!-- 2&#45;&gt;21 -->
<g id="edge32" class="edge">
<title>2&#45;&gt;21</title>
<path fill="none" stroke="grey" stroke-width="2" d="M494.12,-215.34C499.29,-208.1 505.41,-199.53 511.18,-191.45"/>
<polygon fill="grey" stroke="grey" stroke-width="2" points="513.99,-193.54 516.95,-183.37 508.29,-189.47 513.99,-193.54"/>
</g>
<!-- 3 -->
<g id="node4" class="node">
<title>3</title>
<path fill="none" stroke="#56c1d8" stroke-width="2" d="M471,-324C471,-324 356,-324 356,-324 350,-324 344,-318 344,-312 344,-312 344,-300 344,-300 344,-294 350,-288 356,-288 356,-288 471,-288 471,-288 477,-288 483,-294 483,-300 483,-300 483,-312 483,-312 483,-318 477,-324 471,-324"/>
<text text-anchor="middle" x="413.5" y="-303.5" font-family="sans" font-size="10.00">kraken2_combined_report</text>
</g>
<!-- 3&#45;&gt;2 -->
<g id="edge5" class="edge">
<title>3&#45;&gt;2</title>
<path fill="none" stroke="grey" stroke-width="2" d="M430.66,-287.34C438.09,-279.69 446.96,-270.56 455.19,-262.08"/>
<polygon fill="grey" stroke="grey" stroke-width="2" points="457.54,-264.68 462,-255.07 452.52,-259.81 457.54,-264.68"/>
</g>
<!-- 4 -->
<g id="node5" class="node">
<title>4</title>
<path fill="none" stroke="#56b1d8" stroke-width="2" d="M270,-468C270,-468 143,-468 143,-468 137,-468 131,-462 131,-456 131,-456 131,-444 131,-444 131,-438 137,-432 143,-432 143,-432 270,-432 270,-432 276,-432 282,-438 282,-444 282,-444 282,-456 282,-456 282,-462 276,-468 270,-468"/>
<text text-anchor="middle" x="206.5" y="-447.5" font-family="sans" font-size="10.00">kraken2_nucl_read_classif_pe</text>
</g>
<!-- 4&#45;&gt;3 -->
<g id="edge8" class="edge">
<title>4&#45;&gt;3</title>
<path fill="none" stroke="grey" stroke-width="2" d="M205.02,-431.2C204.38,-411.29 206.58,-379.29 224.5,-360 251.59,-330.84 293.3,-317.25 330.65,-311.1"/>
<polygon fill="grey" stroke="grey" stroke-width="2" points="330.74,-314.63 340.13,-309.72 329.73,-307.7 330.74,-314.63"/>
</g>
<!-- 14 -->
<g id="node15" class="node">
<title>14</title>
<path fill="none" stroke="#566bd8" stroke-width="2" d="M373.5,-396C373.5,-396 245.5,-396 245.5,-396 239.5,-396 233.5,-390 233.5,-384 233.5,-384 233.5,-372 233.5,-372 233.5,-366 239.5,-360 245.5,-360 245.5,-360 373.5,-360 373.5,-360 379.5,-360 385.5,-366 385.5,-372 385.5,-372 385.5,-384 385.5,-384 385.5,-390 379.5,-396 373.5,-396"/>
<text text-anchor="middle" x="309.5" y="-375.5" font-family="sans" font-size="10.00">kraken2_prot_read_classif_pe</text>
</g>
<!-- 4&#45;&gt;14 -->
<g id="edge23" class="edge">
<title>4&#45;&gt;14</title>
<path fill="none" stroke="grey" stroke-width="2" d="M232.76,-431.15C244.86,-422.93 259.44,-413.02 272.63,-404.06"/>
<polygon fill="grey" stroke="grey" stroke-width="2" points="274.48,-407.03 280.79,-398.51 270.55,-401.24 274.48,-407.03"/>
</g>
<!-- 5 -->
<g id="node6" class="node">
<title>5</title>
<path fill="none" stroke="#d8d356" stroke-width="2" d="M263,-540C263,-540 150,-540 150,-540 144,-540 138,-534 138,-528 138,-528 138,-516 138,-516 138,-510 144,-504 150,-504 150,-504 263,-504 263,-504 269,-504 275,-510 275,-516 275,-516 275,-528 275,-528 275,-534 269,-540 263,-540"/>
<text text-anchor="middle" x="206.5" y="-519.5" font-family="sans" font-size="10.00">bowtie2_filtered_fastq_pe</text>
</g>
<!-- 5&#45;&gt;4 -->
<g id="edge10" class="edge">
<title>5&#45;&gt;4</title>
<path fill="none" stroke="grey" stroke-width="2" d="M206.5,-503.34C206.5,-496.75 206.5,-489.08 206.5,-481.67"/>
<polygon fill="grey" stroke="grey" stroke-width="2" points="210,-481.93 206.5,-471.93 203,-481.93 210,-481.93"/>
</g>
<!-- 6 -->
<g id="node7" class="node">
<title>6</title>
<path fill="none" stroke="#d89c56" stroke-width="2" d="M256.5,-612C256.5,-612 174.5,-612 174.5,-612 168.5,-612 162.5,-606 162.5,-600 162.5,-600 162.5,-588 162.5,-588 162.5,-582 168.5,-576 174.5,-576 174.5,-576 256.5,-576 256.5,-576 262.5,-576 268.5,-582 268.5,-588 268.5,-588 268.5,-600 268.5,-600 268.5,-606 262.5,-612 256.5,-612"/>
<text text-anchor="middle" x="215.5" y="-591.5" font-family="sans" font-size="10.00">bowtie2_host_filter</text>
</g>
<!-- 6&#45;&gt;5 -->
<g id="edge12" class="edge">
<title>6&#45;&gt;5</title>
<path fill="none" stroke="grey" stroke-width="2" d="M213.23,-575.34C212.38,-568.75 211.4,-561.08 210.44,-553.67"/>
<polygon fill="grey" stroke="grey" stroke-width="2" points="213.93,-553.38 209.19,-543.9 206.99,-554.27 213.93,-553.38"/>
</g>
<!-- 18 -->
<g id="node19" class="node">
<title>18</title>
<path fill="none" stroke="#d85656" stroke-width="2" d="M416,-540C416,-540 305,-540 305,-540 299,-540 293,-534 293,-528 293,-528 293,-516 293,-516 293,-510 299,-504 305,-504 305,-504 416,-504 416,-504 422,-504 428,-510 428,-516 428,-516 428,-528 428,-528 428,-534 422,-540 416,-540"/>
<text text-anchor="middle" x="360.5" y="-519.5" font-family="sans" font-size="10.00">bowtie2_filtered_fastq_se</text>
</g>
<!-- 6&#45;&gt;18 -->
<g id="edge28" class="edge">
<title>6&#45;&gt;18</title>
<path fill="none" stroke="grey" stroke-width="2" d="M252.46,-575.15C270.46,-566.47 292.34,-555.91 311.69,-546.56"/>
<polygon fill="grey" stroke="grey" stroke-width="2" points="313.14,-549.75 320.62,-542.25 310.1,-543.45 313.14,-549.75"/>
</g>
<!-- 7 -->
<g id="node8" class="node">
<title>7</title>
<path fill="none" stroke="#56a2d8" stroke-width="2" d="M269.5,-684C269.5,-684 161.5,-684 161.5,-684 155.5,-684 149.5,-678 149.5,-672 149.5,-672 149.5,-660 149.5,-660 149.5,-654 155.5,-648 161.5,-648 161.5,-648 269.5,-648 269.5,-648 275.5,-648 281.5,-654 281.5,-660 281.5,-660 281.5,-672 281.5,-672 281.5,-678 275.5,-684 269.5,-684"/>
<text text-anchor="middle" x="215.5" y="-663.5" font-family="sans" font-size="10.00">gdc_unmapped_fastq_pe</text>
</g>
<!-- 7&#45;&gt;6 -->
<g id="edge15" class="edge">
<title>7&#45;&gt;6</title>
<path fill="none" stroke="grey" stroke-width="2" d="M215.5,-647.34C215.5,-640.75 215.5,-633.08 215.5,-625.67"/>
<polygon fill="grey" stroke="grey" stroke-width="2" points="219,-625.93 215.5,-615.93 212,-625.93 219,-625.93"/>
</g>
<!-- 8 -->
<g id="node9" class="node">
<title>8</title>
<path fill="none" stroke="#d8ac56" stroke-width="2" d="M185,-756C185,-756 96,-756 96,-756 90,-756 84,-750 84,-744 84,-744 84,-732 84,-732 84,-726 90,-720 96,-720 96,-720 185,-720 185,-720 191,-720 197,-726 197,-732 197,-732 197,-744 197,-744 197,-750 191,-756 185,-756"/>
<text text-anchor="middle" x="140.5" y="-735.5" font-family="sans" font-size="10.00">gdc_unmapped_bam</text>
</g>
<!-- 8&#45;&gt;7 -->
<g id="edge16" class="edge">
<title>8&#45;&gt;7</title>
<path fill="none" stroke="grey" stroke-width="2" d="M159.43,-719.34C167.8,-711.52 177.83,-702.16 187.07,-693.53"/>
<polygon fill="grey" stroke="grey" stroke-width="2" points="189.18,-696.35 194.11,-686.97 184.41,-691.23 189.18,-696.35"/>
</g>
<!-- 19 -->
<g id="node20" class="node">
<title>19</title>
<path fill="none" stroke="#567bd8" stroke-width="2" d="M119,-684C119,-684 12,-684 12,-684 6,-684 0,-678 0,-672 0,-672 0,-660 0,-660 0,-654 6,-648 12,-648 12,-648 119,-648 119,-648 125,-648 131,-654 131,-660 131,-660 131,-672 131,-672 131,-678 125,-684 119,-684"/>
<text text-anchor="middle" x="65.5" y="-663.5" font-family="sans" font-size="10.00">gdc_unmapped_fastq_se</text>
</g>
<!-- 8&#45;&gt;19 -->
<g id="edge29" class="edge">
<title>8&#45;&gt;19</title>
<path fill="none" stroke="grey" stroke-width="2" d="M121.57,-719.34C113.2,-711.52 103.17,-702.16 93.93,-693.53"/>
<polygon fill="grey" stroke="grey" stroke-width="2" points="96.59,-691.23 86.89,-686.97 91.82,-696.35 96.59,-691.23"/>
</g>
<!-- 9 -->
<g id="node10" class="node">
<title>9</title>
<path fill="none" stroke="#d8c356" stroke-width="2" d="M395.5,-684C395.5,-684 311.5,-684 311.5,-684 305.5,-684 299.5,-678 299.5,-672 299.5,-672 299.5,-660 299.5,-660 299.5,-654 305.5,-648 311.5,-648 311.5,-648 395.5,-648 395.5,-648 401.5,-648 407.5,-654 407.5,-660 407.5,-660 407.5,-672 407.5,-672 407.5,-678 401.5,-684 395.5,-684"/>
<text text-anchor="middle" x="353.5" y="-663.5" font-family="sans" font-size="10.00">bowtie2_host_index</text>
</g>
<!-- 9&#45;&gt;6 -->
<g id="edge13" class="edge">
<title>9&#45;&gt;6</title>
<path fill="none" stroke="grey" stroke-width="2" d="M318.32,-647.15C301.21,-638.47 280.41,-627.92 262,-618.59"/>
<polygon fill="grey" stroke="grey" stroke-width="2" points="263.82,-615.58 253.32,-614.18 260.65,-621.83 263.82,-615.58"/>
</g>
<!-- 10 -->
<g id="node11" class="node">
<title>10</title>
<path fill="none" stroke="#56d8b9" stroke-width="2" d="M395,-756C395,-756 312,-756 312,-756 306,-756 300,-750 300,-744 300,-744 300,-732 300,-732 300,-726 306,-720 312,-720 312,-720 395,-720 395,-720 401,-720 407,-726 407,-732 407,-732 407,-744 407,-744 407,-750 401,-756 395,-756"/>
<text text-anchor="middle" x="353.5" y="-735.5" font-family="sans" font-size="10.00">host_genome_fasta</text>
</g>
<!-- 10&#45;&gt;9 -->
<g id="edge17" class="edge">
<title>10&#45;&gt;9</title>
<path fill="none" stroke="grey" stroke-width="2" d="M353.5,-719.34C353.5,-712.75 353.5,-705.08 353.5,-697.67"/>
<polygon fill="grey" stroke="grey" stroke-width="2" points="357,-697.93 353.5,-687.93 350,-697.93 357,-697.93"/>
</g>
<!-- 11 -->
<g id="node12" class="node">
<title>11</title>
<path fill="none" stroke="#56d882" stroke-width="2" d="M532.5,-540C532.5,-540 458.5,-540 458.5,-540 452.5,-540 446.5,-534 446.5,-528 446.5,-528 446.5,-516 446.5,-516 446.5,-510 452.5,-504 458.5,-504 458.5,-504 532.5,-504 532.5,-504 538.5,-504 544.5,-510 544.5,-516 544.5,-516 544.5,-528 544.5,-528 544.5,-534 538.5,-540 532.5,-540"/>
<text text-anchor="middle" x="495.5" y="-519.5" font-family="sans" font-size="10.00">kraken2_db_build</text>
</g>
<!-- 11&#45;&gt;4 -->
<g id="edge11" class="edge">
<title>11&#45;&gt;4</title>
<path fill="none" stroke="grey" stroke-width="2" d="M445.57,-506.16C442.84,-505.41 440.14,-504.69 437.5,-504 390.85,-491.82 338.5,-479.69 295.45,-470.11"/>
<polygon fill="grey" stroke="grey" stroke-width="2" points="296.47,-466.75 285.95,-468 294.95,-473.58 296.47,-466.75"/>
</g>
<!-- 11&#45;&gt;14 -->
<g id="edge22" class="edge">
<title>11&#45;&gt;14</title>
<path fill="none" stroke="grey" stroke-width="2" d="M445.59,-506.38C398.21,-492.3 333.61,-472.49 329.5,-468 315.13,-452.3 310.33,-428.56 309.02,-409.55"/>
<polygon fill="grey" stroke="grey" stroke-width="2" points="312.53,-409.62 308.7,-399.74 305.53,-409.86 312.53,-409.62"/>
</g>
<!-- 16 -->
<g id="node17" class="node">
<title>16</title>
<path fill="none" stroke="#56d892" stroke-width="2" d="M621,-324C621,-324 548,-324 548,-324 542,-324 536,-318 536,-312 536,-312 536,-300 536,-300 536,-294 542,-288 548,-288 548,-288 621,-288 621,-288 627,-288 633,-294 633,-300 633,-300 633,-312 633,-312 633,-318 627,-324 621,-324"/>
<text text-anchor="middle" x="584.5" y="-303.5" font-family="sans" font-size="10.00">bracken_db_build</text>
</g>
<!-- 11&#45;&gt;16 -->
<g id="edge25" class="edge">
<title>11&#45;&gt;16</title>
<path fill="none" stroke="grey" stroke-width="2" d="M517.96,-503.1C543.6,-481.06 584.11,-441 600.5,-396 607.43,-376.98 603.32,-354.55 597.53,-336.96"/>
<polygon fill="grey" stroke="grey" stroke-width="2" points="600.86,-335.86 594.1,-327.7 594.3,-338.29 600.86,-335.86"/>
</g>
<!-- 17 -->
<g id="node18" class="node">
<title>17</title>
<path fill="none" stroke="#56d873" stroke-width="2" d="M476,-468C476,-468 351,-468 351,-468 345,-468 339,-462 339,-456 339,-456 339,-444 339,-444 339,-438 345,-432 351,-432 351,-432 476,-432 476,-432 482,-432 488,-438 488,-444 488,-444 488,-456 488,-456 488,-462 482,-468 476,-468"/>
<text text-anchor="middle" x="413.5" y="-447.5" font-family="sans" font-size="10.00">kraken2_nucl_read_classif_se</text>
</g>
<!-- 11&#45;&gt;17 -->
<g id="edge27" class="edge">
<title>11&#45;&gt;17</title>
<path fill="none" stroke="grey" stroke-width="2" d="M474.81,-503.34C465.56,-495.44 454.46,-485.96 444.26,-477.26"/>
<polygon fill="grey" stroke="grey" stroke-width="2" points="446.65,-474.7 436.77,-470.87 442.11,-480.02 446.65,-474.7"/>
</g>
<!-- 20 -->
<g id="node21" class="node">
<title>20</title>
<path fill="none" stroke="#56d0d8" stroke-width="2" d="M579.5,-396C579.5,-396 453.5,-396 453.5,-396 447.5,-396 441.5,-390 441.5,-384 441.5,-384 441.5,-372 441.5,-372 441.5,-366 447.5,-360 453.5,-360 453.5,-360 579.5,-360 579.5,-360 585.5,-360 591.5,-366 591.5,-372 591.5,-372 591.5,-384 591.5,-384 591.5,-390 585.5,-396 579.5,-396"/>
<text text-anchor="middle" x="516.5" y="-375.5" font-family="sans" font-size="10.00">kraken2_prot_read_classif_se</text>
</g>
<!-- 11&#45;&gt;20 -->
<g id="edge31" class="edge">
<title>11&#45;&gt;20</title>
<path fill="none" stroke="grey" stroke-width="2" d="M498.16,-503.02C501.63,-479.54 507.76,-438.11 511.97,-409.64"/>
<polygon fill="grey" stroke="grey" stroke-width="2" points="515.42,-410.24 513.42,-399.83 508.49,-409.21 515.42,-410.24"/>
</g>
<!-- 12 -->
<g id="node13" class="node">
<title>12</title>
<path fill="none" stroke="#ced856" stroke-width="2" d="M544.5,-684C544.5,-684 446.5,-684 446.5,-684 440.5,-684 434.5,-678 434.5,-672 434.5,-672 434.5,-660 434.5,-660 434.5,-654 440.5,-648 446.5,-648 446.5,-648 544.5,-648 544.5,-648 550.5,-648 556.5,-654 556.5,-660 556.5,-660 556.5,-672 556.5,-672 556.5,-678 550.5,-684 544.5,-684"/>
<text text-anchor="middle" x="495.5" y="-663.5" font-family="sans" font-size="10.00">kraken2_db_taxonomy</text>
</g>
<!-- 12&#45;&gt;11 -->
<g id="edge18" class="edge">
<title>12&#45;&gt;11</title>
<path fill="none" stroke="grey" stroke-width="2" d="M457.83,-647.21C444.11,-638.64 430.11,-626.93 422.5,-612 415.23,-597.75 415.23,-590.25 422.5,-576 428.15,-564.92 437.32,-555.61 447.28,-548.05"/>
<polygon fill="grey" stroke="grey" stroke-width="2" points="449.08,-551.05 455.34,-542.5 445.12,-545.29 449.08,-551.05"/>
</g>
<!-- 13 -->
<g id="node14" class="node">
<title>13</title>
<path fill="none" stroke="#d86656" stroke-width="2" d="M547.5,-612C547.5,-612 443.5,-612 443.5,-612 437.5,-612 431.5,-606 431.5,-600 431.5,-600 431.5,-588 431.5,-588 431.5,-582 437.5,-576 443.5,-576 443.5,-576 547.5,-576 547.5,-576 553.5,-576 559.5,-582 559.5,-588 559.5,-588 559.5,-600 559.5,-600 559.5,-606 553.5,-612 547.5,-612"/>
<text text-anchor="middle" x="495.5" y="-591.5" font-family="sans" font-size="10.00">kraken2_nucl_db_library</text>
</g>
<!-- 12&#45;&gt;13 -->
<g id="edge21" class="edge">
<title>12&#45;&gt;13</title>
<path fill="none" stroke="grey" stroke-width="2" d="M495.5,-647.34C495.5,-640.75 495.5,-633.08 495.5,-625.67"/>
<polygon fill="grey" stroke="grey" stroke-width="2" points="499,-625.93 495.5,-615.93 492,-625.93 499,-625.93"/>
</g>
<!-- 15 -->
<g id="node16" class="node">
<title>15</title>
<path fill="none" stroke="#70d856" stroke-width="2" d="M693.5,-612C693.5,-612 589.5,-612 589.5,-612 583.5,-612 577.5,-606 577.5,-600 577.5,-600 577.5,-588 577.5,-588 577.5,-582 583.5,-576 589.5,-576 589.5,-576 693.5,-576 693.5,-576 699.5,-576 705.5,-582 705.5,-588 705.5,-588 705.5,-600 705.5,-600 705.5,-606 699.5,-612 693.5,-612"/>
<text text-anchor="middle" x="641.5" y="-591.5" font-family="sans" font-size="10.00">kraken2_prot_db_library</text>
</g>
<!-- 12&#45;&gt;15 -->
<g id="edge24" class="edge">
<title>12&#45;&gt;15</title>
<path fill="none" stroke="grey" stroke-width="2" d="M532.72,-647.15C550.84,-638.47 572.87,-627.91 592.35,-618.56"/>
<polygon fill="grey" stroke="grey" stroke-width="2" points="593.86,-621.72 601.37,-614.24 590.83,-615.41 593.86,-621.72"/>
</g>
<!-- 13&#45;&gt;11 -->
<g id="edge20" class="edge">
<title>13&#45;&gt;11</title>
<path fill="none" stroke="grey" stroke-width="2" d="M495.5,-575.34C495.5,-568.75 495.5,-561.08 495.5,-553.67"/>
<polygon fill="grey" stroke="grey" stroke-width="2" points="499,-553.93 495.5,-543.93 492,-553.93 499,-553.93"/>
</g>
<!-- 14&#45;&gt;3 -->
<g id="edge9" class="edge">
<title>14&#45;&gt;3</title>
<path fill="none" stroke="grey" stroke-width="2" d="M336.01,-359.15C348.24,-350.93 362.96,-341.02 376.27,-332.06"/>
<polygon fill="grey" stroke="grey" stroke-width="2" points="378.18,-334.99 384.52,-326.5 374.27,-329.18 378.18,-334.99"/>
</g>
<!-- 15&#45;&gt;11 -->
<g id="edge19" class="edge">
<title>15&#45;&gt;11</title>
<path fill="none" stroke="grey" stroke-width="2" d="M604.28,-575.15C586.16,-566.47 564.13,-555.91 544.65,-546.56"/>
<polygon fill="grey" stroke="grey" stroke-width="2" points="546.17,-543.41 535.63,-542.24 543.14,-549.72 546.17,-543.41"/>
</g>
<!-- 16&#45;&gt;2 -->
<g id="edge4" class="edge">
<title>16&#45;&gt;2</title>
<path fill="none" stroke="grey" stroke-width="2" d="M558.24,-287.15C546.14,-278.93 531.56,-269.02 518.37,-260.06"/>
<polygon fill="grey" stroke="grey" stroke-width="2" points="520.45,-257.24 510.21,-254.51 516.52,-263.03 520.45,-257.24"/>
</g>
<!-- 17&#45;&gt;3 -->
<g id="edge7" class="edge">
<title>17&#45;&gt;3</title>
<path fill="none" stroke="grey" stroke-width="2" d="M413.5,-431.02C413.5,-407.54 413.5,-366.11 413.5,-337.64"/>
<polygon fill="grey" stroke="grey" stroke-width="2" points="417,-337.87 413.5,-327.87 410,-337.87 417,-337.87"/>
</g>
<!-- 17&#45;&gt;20 -->
<g id="edge30" class="edge">
<title>17&#45;&gt;20</title>
<path fill="none" stroke="grey" stroke-width="2" d="M439.76,-431.15C451.86,-422.93 466.44,-413.02 479.63,-404.06"/>
<polygon fill="grey" stroke="grey" stroke-width="2" points="481.48,-407.03 487.79,-398.51 477.55,-401.24 481.48,-407.03"/>
</g>
<!-- 18&#45;&gt;17 -->
<g id="edge26" class="edge">
<title>18&#45;&gt;17</title>
<path fill="none" stroke="grey" stroke-width="2" d="M373.87,-503.34C379.42,-496.01 385.99,-487.34 392.17,-479.18"/>
<polygon fill="grey" stroke="grey" stroke-width="2" points="394.87,-481.4 398.12,-471.32 389.29,-477.18 394.87,-481.4"/>
</g>
<!-- 19&#45;&gt;6 -->
<g id="edge14" class="edge">
<title>19&#45;&gt;6</title>
<path fill="none" stroke="grey" stroke-width="2" d="M103.74,-647.15C122.44,-638.43 145.2,-627.81 165.29,-618.43"/>
<polygon fill="grey" stroke="grey" stroke-width="2" points="166.75,-621.61 174.33,-614.21 163.78,-615.27 166.75,-621.61"/>
</g>
<!-- 20&#45;&gt;3 -->
<g id="edge6" class="edge">
<title>20&#45;&gt;3</title>
<path fill="none" stroke="grey" stroke-width="2" d="M490.24,-359.15C478.14,-350.93 463.56,-341.02 450.37,-332.06"/>
<polygon fill="grey" stroke="grey" stroke-width="2" points="452.45,-329.24 442.21,-326.51 448.52,-335.03 452.45,-329.24"/>
</g>
<!-- 21&#45;&gt;1 -->
<g id="edge2" class="edge">
<title>21&#45;&gt;1</title>
<path fill="none" stroke="grey" stroke-width="2" d="M518.88,-143.34C513.71,-136.1 507.59,-127.53 501.82,-119.45"/>
<polygon fill="grey" stroke="grey" stroke-width="2" points="504.71,-117.47 496.05,-111.37 499.01,-121.54 504.71,-117.47"/>
</g>
</g>
</svg>
