<?xml version="1.0" encoding="UTF-8" standalone="no"?>
<!DOCTYPE svg PUBLIC "-//W3C//DTD SVG 1.1//EN"
 "http://www.w3.org/Graphics/SVG/1.1/DTD/svg11.dtd">
<!-- Generated by graphviz version 7.1.0 (0)
 -->
<!-- Title: snakemake_dag Pages: 1 -->
<svg width="881pt" height="836pt"
 viewBox="0.00 0.00 880.54 836.00" xmlns="http://www.w3.org/2000/svg" xmlns:xlink="http://www.w3.org/1999/xlink">
<g id="graph0" class="graph" transform="scale(1 1) rotate(0) translate(4 832)">
<title>snakemake_dag</title>
<polygon fill="white" stroke="none" points="-4,4 -4,-832 876.54,-832 876.54,4 -4,4"/>
<!-- 0 -->
<g id="node1" class="node">
<title>0</title>
<path fill="none" stroke="#d8d356" stroke-width="2" d="M195.54,-36C195.54,-36 165.54,-36 165.54,-36 159.54,-36 153.54,-30 153.54,-24 153.54,-24 153.54,-12 153.54,-12 153.54,-6 159.54,0 165.54,0 165.54,0 195.54,0 195.54,0 201.54,0 207.54,-6 207.54,-12 207.54,-12 207.54,-24 207.54,-24 207.54,-30 201.54,-36 195.54,-36"/>
<text text-anchor="middle" x="180.54" y="-15.5" font-family="sans" font-size="10.00">all</text>
</g>
<!-- 1 -->
<g id="node2" class="node">
<title>1</title>
<path fill="none" stroke="#68d856" stroke-width="2" d="M228.04,-108C228.04,-108 133.04,-108 133.04,-108 127.04,-108 121.04,-102 121.04,-96 121.04,-96 121.04,-84 121.04,-84 121.04,-78 127.04,-72 133.04,-72 133.04,-72 228.04,-72 228.04,-72 234.04,-72 240.04,-78 240.04,-84 240.04,-84 240.04,-96 240.04,-96 240.04,-102 234.04,-108 228.04,-108"/>
<text text-anchor="middle" x="180.54" y="-87.5" font-family="sans" font-size="10.00">bracken_count_matrix</text>
</g>
<!-- 1&#45;&gt;0 -->
<g id="edge1" class="edge">
<title>1&#45;&gt;0</title>
<path fill="none" stroke="grey" stroke-width="2" d="M180.54,-71.34C180.54,-64.75 180.54,-57.08 180.54,-49.67"/>
<polygon fill="grey" stroke="grey" stroke-width="2" points="184.04,-49.93 180.54,-39.93 177.04,-49.93 184.04,-49.93"/>
</g>
<!-- 2 -->
<g id="node3" class="node">
<title>2</title>
<path fill="none" stroke="#56c1d8" stroke-width="2" d="M223.54,-252C223.54,-252 137.54,-252 137.54,-252 131.54,-252 125.54,-246 125.54,-240 125.54,-240 125.54,-228 125.54,-228 125.54,-222 131.54,-216 137.54,-216 137.54,-216 223.54,-216 223.54,-216 229.54,-216 235.54,-222 235.54,-228 235.54,-228 235.54,-240 235.54,-240 235.54,-246 229.54,-252 223.54,-252"/>
<text text-anchor="middle" x="180.54" y="-231.5" font-family="sans" font-size="10.00">bracken_read_quant</text>
</g>
<!-- 2&#45;&gt;1 -->
<g id="edge2" class="edge">
<title>2&#45;&gt;1</title>
<path fill="none" stroke="grey" stroke-width="2" d="M167.07,-215.43C160.38,-205.59 153,-192.76 149.54,-180 145.35,-164.56 145.35,-159.44 149.54,-144 151.83,-135.53 155.86,-127.02 160.27,-119.38"/>
<polygon fill="grey" stroke="grey" stroke-width="2" points="163.1,-121.46 165.46,-111.13 157.17,-117.73 163.1,-121.46"/>
</g>
<!-- 26 -->
<g id="node27" class="node">
<title>26</title>
<path fill="none" stroke="#d86656" stroke-width="2" d="M290.54,-180C290.54,-180 170.54,-180 170.54,-180 164.54,-180 158.54,-174 158.54,-168 158.54,-168 158.54,-156 158.54,-156 158.54,-150 164.54,-144 170.54,-144 170.54,-144 290.54,-144 290.54,-144 296.54,-144 302.54,-150 302.54,-156 302.54,-156 302.54,-168 302.54,-168 302.54,-174 296.54,-180 290.54,-180"/>
<text text-anchor="middle" x="230.54" y="-159.5" font-family="sans" font-size="10.00">bracken_merged_rg_counts</text>
</g>
<!-- 2&#45;&gt;26 -->
<g id="edge38" class="edge">
<title>2&#45;&gt;26</title>
<path fill="none" stroke="grey" stroke-width="2" d="M193.16,-215.34C198.33,-208.1 204.44,-199.53 210.22,-191.45"/>
<polygon fill="grey" stroke="grey" stroke-width="2" points="213.03,-193.54 215.99,-183.37 207.33,-189.47 213.03,-193.54"/>
</g>
<!-- 3 -->
<g id="node4" class="node">
<title>3</title>
<path fill="none" stroke="#97d856" stroke-width="2" d="M249.04,-540C249.04,-540 202.04,-540 202.04,-540 196.04,-540 190.04,-534 190.04,-528 190.04,-528 190.04,-516 190.04,-516 190.04,-510 196.04,-504 202.04,-504 202.04,-504 249.04,-504 249.04,-504 255.04,-504 261.04,-510 261.04,-516 261.04,-516 261.04,-528 261.04,-528 261.04,-534 255.04,-540 249.04,-540"/>
<text text-anchor="middle" x="225.54" y="-519.5" font-family="sans" font-size="10.00">kraken2_db</text>
</g>
<!-- 3&#45;&gt;2 -->
<g id="edge4" class="edge">
<title>3&#45;&gt;2</title>
<path fill="none" stroke="grey" stroke-width="2" d="M207.72,-503.17C198.83,-493.46 188.51,-480.82 181.54,-468 149.52,-409.09 146.65,-390.28 136.54,-324 134.13,-308.18 131.11,-303.05 136.54,-288 139.89,-278.72 145.65,-269.92 151.92,-262.25"/>
<polygon fill="grey" stroke="grey" stroke-width="2" points="154.52,-264.59 158.58,-254.81 149.31,-259.92 154.52,-264.59"/>
</g>
<!-- 12 -->
<g id="node13" class="node">
<title>12</title>
<path fill="none" stroke="#56d8c1" stroke-width="2" d="M599.04,-468C599.04,-468 472.04,-468 472.04,-468 466.04,-468 460.04,-462 460.04,-456 460.04,-456 460.04,-444 460.04,-444 460.04,-438 466.04,-432 472.04,-432 472.04,-432 599.04,-432 599.04,-432 605.04,-432 611.04,-438 611.04,-444 611.04,-444 611.04,-456 611.04,-456 611.04,-462 605.04,-468 599.04,-468"/>
<text text-anchor="middle" x="535.54" y="-447.5" font-family="sans" font-size="10.00">kraken2_nucl_read_classif_pe</text>
</g>
<!-- 3&#45;&gt;12 -->
<g id="edge21" class="edge">
<title>3&#45;&gt;12</title>
<path fill="none" stroke="grey" stroke-width="2" d="M261.89,-510.47C269.98,-508.24 278.53,-505.97 286.54,-504 339.44,-491.01 399.11,-478.25 446.77,-468.5"/>
<polygon fill="grey" stroke="grey" stroke-width="2" points="447.18,-471.99 456.28,-466.56 445.79,-465.13 447.18,-471.99"/>
</g>
<!-- 19 -->
<g id="node20" class="node">
<title>19</title>
<path fill="none" stroke="#d89556" stroke-width="2" d="M529.54,-396C529.54,-396 401.54,-396 401.54,-396 395.54,-396 389.54,-390 389.54,-384 389.54,-384 389.54,-372 389.54,-372 389.54,-366 395.54,-360 401.54,-360 401.54,-360 529.54,-360 529.54,-360 535.54,-360 541.54,-366 541.54,-372 541.54,-372 541.54,-384 541.54,-384 541.54,-390 535.54,-396 529.54,-396"/>
<text text-anchor="middle" x="465.54" y="-375.5" font-family="sans" font-size="10.00">kraken2_prot_read_classif_pe</text>
</g>
<!-- 3&#45;&gt;19 -->
<g id="edge29" class="edge">
<title>3&#45;&gt;19</title>
<path fill="none" stroke="grey" stroke-width="2" d="M261.67,-510.94C315.59,-495.9 411,-469.18 412.54,-468 432.19,-452.9 446.05,-428.27 454.65,-408.74"/>
<polygon fill="grey" stroke="grey" stroke-width="2" points="457.84,-410.18 458.4,-399.6 451.37,-407.52 457.84,-410.18"/>
</g>
<!-- 21 -->
<g id="node22" class="node">
<title>21</title>
<path fill="none" stroke="#56d8d0" stroke-width="2" d="M203.54,-324C203.54,-324 157.54,-324 157.54,-324 151.54,-324 145.54,-318 145.54,-312 145.54,-312 145.54,-300 145.54,-300 145.54,-294 151.54,-288 157.54,-288 157.54,-288 203.54,-288 203.54,-288 209.54,-288 215.54,-294 215.54,-300 215.54,-300 215.54,-312 215.54,-312 215.54,-318 209.54,-324 203.54,-324"/>
<text text-anchor="middle" x="180.54" y="-303.5" font-family="sans" font-size="10.00">bracken_db</text>
</g>
<!-- 3&#45;&gt;21 -->
<g id="edge31" class="edge">
<title>3&#45;&gt;21</title>
<path fill="none" stroke="grey" stroke-width="2" d="M215.61,-503.06C203.13,-479.38 182.39,-436.02 174.54,-396 170.78,-376.81 172.18,-354.91 174.58,-337.63"/>
<polygon fill="grey" stroke="grey" stroke-width="2" points="178.01,-338.32 176.15,-327.89 171.1,-337.21 178.01,-338.32"/>
</g>
<!-- 22 -->
<g id="node23" class="node">
<title>22</title>
<path fill="none" stroke="#9fd856" stroke-width="2" d="M391.04,-468C391.04,-468 266.04,-468 266.04,-468 260.04,-468 254.04,-462 254.04,-456 254.04,-456 254.04,-444 254.04,-444 254.04,-438 260.04,-432 266.04,-432 266.04,-432 391.04,-432 391.04,-432 397.04,-432 403.04,-438 403.04,-444 403.04,-444 403.04,-456 403.04,-456 403.04,-462 397.04,-468 391.04,-468"/>
<text text-anchor="middle" x="328.54" y="-447.5" font-family="sans" font-size="10.00">kraken2_nucl_read_classif_se</text>
</g>
<!-- 3&#45;&gt;22 -->
<g id="edge32" class="edge">
<title>3&#45;&gt;22</title>
<path fill="none" stroke="grey" stroke-width="2" d="M251.8,-503.15C263.9,-494.93 278.48,-485.02 291.67,-476.06"/>
<polygon fill="grey" stroke="grey" stroke-width="2" points="293.52,-479.03 299.83,-470.51 289.59,-473.24 293.52,-479.03"/>
</g>
<!-- 25 -->
<g id="node26" class="node">
<title>25</title>
<path fill="none" stroke="#56d892" stroke-width="2" d="M321.54,-396C321.54,-396 195.54,-396 195.54,-396 189.54,-396 183.54,-390 183.54,-384 183.54,-384 183.54,-372 183.54,-372 183.54,-366 189.54,-360 195.54,-360 195.54,-360 321.54,-360 321.54,-360 327.54,-360 333.54,-366 333.54,-372 333.54,-372 333.54,-384 333.54,-384 333.54,-390 327.54,-396 321.54,-396"/>
<text text-anchor="middle" x="258.54" y="-375.5" font-family="sans" font-size="10.00">kraken2_prot_read_classif_se</text>
</g>
<!-- 3&#45;&gt;25 -->
<g id="edge37" class="edge">
<title>3&#45;&gt;25</title>
<path fill="none" stroke="grey" stroke-width="2" d="M229.07,-503.21C232.72,-485.21 238.67,-456.59 244.54,-432 246.33,-424.5 248.39,-416.44 250.37,-408.93"/>
<polygon fill="grey" stroke="grey" stroke-width="2" points="253.67,-410.1 252.88,-399.54 246.91,-408.29 253.67,-410.1"/>
</g>
<!-- 4 -->
<g id="node5" class="node">
<title>4</title>
<path fill="none" stroke="#56d863" stroke-width="2" d="M124.54,-684C124.54,-684 26.54,-684 26.54,-684 20.54,-684 14.54,-678 14.54,-672 14.54,-672 14.54,-660 14.54,-660 14.54,-654 20.54,-648 26.54,-648 26.54,-648 124.54,-648 124.54,-648 130.54,-648 136.54,-654 136.54,-660 136.54,-660 136.54,-672 136.54,-672 136.54,-678 130.54,-684 124.54,-684"/>
<text text-anchor="middle" x="75.54" y="-663.5" font-family="sans" font-size="10.00">kraken2_db_taxonomy</text>
</g>
<!-- 4&#45;&gt;3 -->
<g id="edge8" class="edge">
<title>4&#45;&gt;3</title>
<path fill="none" stroke="grey" stroke-width="2" d="M40.25,-647.01C27.16,-638.35 13.75,-626.63 6.54,-612 -0.53,-597.65 -3.36,-588.57 6.54,-576 27.24,-549.69 118.16,-534.87 176.15,-527.94"/>
<polygon fill="grey" stroke="grey" stroke-width="2" points="176.51,-531.42 186.05,-526.8 175.71,-524.46 176.51,-531.42"/>
</g>
<!-- 5 -->
<g id="node6" class="node">
<title>5</title>
<path fill="none" stroke="#56b1d8" stroke-width="2" d="M131.54,-612C131.54,-612 27.54,-612 27.54,-612 21.54,-612 15.54,-606 15.54,-600 15.54,-600 15.54,-588 15.54,-588 15.54,-582 21.54,-576 27.54,-576 27.54,-576 131.54,-576 131.54,-576 137.54,-576 143.54,-582 143.54,-588 143.54,-588 143.54,-600 143.54,-600 143.54,-606 137.54,-612 131.54,-612"/>
<text text-anchor="middle" x="79.54" y="-591.5" font-family="sans" font-size="10.00">kraken2_nucl_db_library</text>
</g>
<!-- 4&#45;&gt;5 -->
<g id="edge11" class="edge">
<title>4&#45;&gt;5</title>
<path fill="none" stroke="grey" stroke-width="2" d="M76.55,-647.34C76.92,-640.75 77.36,-633.08 77.79,-625.67"/>
<polygon fill="grey" stroke="grey" stroke-width="2" points="81.27,-626.11 78.34,-615.92 74.28,-625.71 81.27,-626.11"/>
</g>
<!-- 20 -->
<g id="node21" class="node">
<title>20</title>
<path fill="none" stroke="#56a2d8" stroke-width="2" d="M277.54,-612C277.54,-612 173.54,-612 173.54,-612 167.54,-612 161.54,-606 161.54,-600 161.54,-600 161.54,-588 161.54,-588 161.54,-582 167.54,-576 173.54,-576 173.54,-576 277.54,-576 277.54,-576 283.54,-576 289.54,-582 289.54,-588 289.54,-588 289.54,-600 289.54,-600 289.54,-606 283.54,-612 277.54,-612"/>
<text text-anchor="middle" x="225.54" y="-591.5" font-family="sans" font-size="10.00">kraken2_prot_db_library</text>
</g>
<!-- 4&#45;&gt;20 -->
<g id="edge30" class="edge">
<title>4&#45;&gt;20</title>
<path fill="none" stroke="grey" stroke-width="2" d="M113.78,-647.15C132.48,-638.43 155.24,-627.81 175.33,-618.43"/>
<polygon fill="grey" stroke="grey" stroke-width="2" points="176.78,-621.61 184.37,-614.21 173.82,-615.27 176.78,-621.61"/>
</g>
<!-- 5&#45;&gt;3 -->
<g id="edge9" class="edge">
<title>5&#45;&gt;3</title>
<path fill="none" stroke="grey" stroke-width="2" d="M116.76,-575.15C135.25,-566.29 157.8,-555.48 177.57,-546"/>
<polygon fill="grey" stroke="grey" stroke-width="2" points="178.91,-549.24 186.42,-541.76 175.88,-542.93 178.91,-549.24"/>
</g>
<!-- 6 -->
<g id="node7" class="node">
<title>6</title>
<path fill="none" stroke="#5663d8" stroke-width="2" d="M437.54,-612C437.54,-612 319.54,-612 319.54,-612 313.54,-612 307.54,-606 307.54,-600 307.54,-600 307.54,-588 307.54,-588 307.54,-582 313.54,-576 319.54,-576 319.54,-576 437.54,-576 437.54,-576 443.54,-576 449.54,-582 449.54,-588 449.54,-588 449.54,-600 449.54,-600 449.54,-606 443.54,-612 437.54,-612"/>
<text text-anchor="middle" x="378.54" y="-591.5" font-family="sans" font-size="10.00">kraken2_eupathdb_lib_files</text>
</g>
<!-- 6&#45;&gt;3 -->
<g id="edge10" class="edge">
<title>6&#45;&gt;3</title>
<path fill="none" stroke="grey" stroke-width="2" d="M339.53,-575.15C319.46,-565.97 294.81,-554.69 273.57,-544.97"/>
<polygon fill="grey" stroke="grey" stroke-width="2" points="275.15,-541.85 264.6,-540.87 272.23,-548.21 275.15,-541.85"/>
</g>
<!-- 7 -->
<g id="node8" class="node">
<title>7</title>
<path fill="none" stroke="#bed856" stroke-width="2" d="M286.54,-684C286.54,-684 166.54,-684 166.54,-684 160.54,-684 154.54,-678 154.54,-672 154.54,-672 154.54,-660 154.54,-660 154.54,-654 160.54,-648 166.54,-648 166.54,-648 286.54,-648 286.54,-648 292.54,-648 298.54,-654 298.54,-660 298.54,-660 298.54,-672 298.54,-672 298.54,-678 292.54,-684 286.54,-684"/>
<text text-anchor="middle" x="226.54" y="-663.5" font-family="sans" font-size="10.00">eupathdb_seqid2taxid_map</text>
</g>
<!-- 7&#45;&gt;6 -->
<g id="edge12" class="edge">
<title>7&#45;&gt;6</title>
<path fill="none" stroke="grey" stroke-width="2" d="M265.29,-647.15C284.33,-638.38 307.52,-627.71 327.94,-618.3"/>
<polygon fill="grey" stroke="grey" stroke-width="2" points="329.23,-621.56 336.85,-614.2 326.3,-615.2 329.23,-621.56"/>
</g>
<!-- 8 -->
<g id="node9" class="node">
<title>8</title>
<path fill="none" stroke="#78d856" stroke-width="2" d="M434.54,-684C434.54,-684 328.54,-684 328.54,-684 322.54,-684 316.54,-678 316.54,-672 316.54,-672 316.54,-660 316.54,-660 316.54,-654 322.54,-648 328.54,-648 328.54,-648 434.54,-648 434.54,-648 440.54,-648 446.54,-654 446.54,-660 446.54,-660 446.54,-672 446.54,-672 446.54,-678 440.54,-684 434.54,-684"/>
<text text-anchor="middle" x="381.54" y="-663.5" font-family="sans" font-size="10.00">eupathdb_merged_fasta</text>
</g>
<!-- 8&#45;&gt;6 -->
<g id="edge13" class="edge">
<title>8&#45;&gt;6</title>
<path fill="none" stroke="grey" stroke-width="2" d="M380.78,-647.34C380.5,-640.75 380.17,-633.08 379.85,-625.67"/>
<polygon fill="grey" stroke="grey" stroke-width="2" points="383.36,-625.77 379.44,-615.93 376.37,-626.07 383.36,-625.77"/>
</g>
<!-- 9 -->
<g id="node10" class="node">
<title>9</title>
<path fill="none" stroke="#56d8a2" stroke-width="2" d="M416.04,-756C416.04,-756 347.04,-756 347.04,-756 341.04,-756 335.04,-750 335.04,-744 335.04,-744 335.04,-732 335.04,-732 335.04,-726 341.04,-720 347.04,-720 347.04,-720 416.04,-720 416.04,-720 422.04,-720 428.04,-726 428.04,-732 428.04,-732 428.04,-744 428.04,-744 428.04,-750 422.04,-756 416.04,-756"/>
<text text-anchor="middle" x="381.54" y="-735.5" font-family="sans" font-size="10.00">eupathdb_fastas</text>
</g>
<!-- 9&#45;&gt;8 -->
<g id="edge14" class="edge">
<title>9&#45;&gt;8</title>
<path fill="none" stroke="grey" stroke-width="2" d="M381.54,-719.34C381.54,-712.75 381.54,-705.08 381.54,-697.67"/>
<polygon fill="grey" stroke="grey" stroke-width="2" points="385.04,-697.93 381.54,-687.93 378.04,-697.93 385.04,-697.93"/>
</g>
<!-- 10 -->
<g id="node11" class="node">
<title>10</title>
<path fill="none" stroke="#5673d8" stroke-width="2" d="M432.54,-828C432.54,-828 330.54,-828 330.54,-828 324.54,-828 318.54,-822 318.54,-816 318.54,-816 318.54,-804 318.54,-804 318.54,-798 324.54,-792 330.54,-792 330.54,-792 432.54,-792 432.54,-792 438.54,-792 444.54,-798 444.54,-804 444.54,-804 444.54,-816 444.54,-816 444.54,-822 438.54,-828 432.54,-828"/>
<text text-anchor="middle" x="381.54" y="-807.5" font-family="sans" font-size="10.00">eupathdb_fasta_archive</text>
</g>
<!-- 10&#45;&gt;9 -->
<g id="edge15" class="edge">
<title>10&#45;&gt;9</title>
<path fill="none" stroke="grey" stroke-width="2" d="M381.54,-791.34C381.54,-784.75 381.54,-777.08 381.54,-769.67"/>
<polygon fill="grey" stroke="grey" stroke-width="2" points="385.04,-769.93 381.54,-759.93 378.04,-769.93 385.04,-769.93"/>
</g>
<!-- 11 -->
<g id="node12" class="node">
<title>11</title>
<path fill="none" stroke="#d85656" stroke-width="2" d="M419.04,-324C419.04,-324 304.04,-324 304.04,-324 298.04,-324 292.04,-318 292.04,-312 292.04,-312 292.04,-300 292.04,-300 292.04,-294 298.04,-288 304.04,-288 304.04,-288 419.04,-288 419.04,-288 425.04,-288 431.04,-294 431.04,-300 431.04,-300 431.04,-312 431.04,-312 431.04,-318 425.04,-324 419.04,-324"/>
<text text-anchor="middle" x="361.54" y="-303.5" font-family="sans" font-size="10.00">kraken2_combined_report</text>
</g>
<!-- 11&#45;&gt;2 -->
<g id="edge5" class="edge">
<title>11&#45;&gt;2</title>
<path fill="none" stroke="grey" stroke-width="2" d="M315.4,-287.15C292.08,-278.14 263.55,-267.11 238.75,-257.51"/>
<polygon fill="grey" stroke="grey" stroke-width="2" points="240.32,-254.37 229.73,-254.03 237.8,-260.9 240.32,-254.37"/>
</g>
<!-- 12&#45;&gt;11 -->
<g id="edge16" class="edge">
<title>12&#45;&gt;11</title>
<path fill="none" stroke="grey" stroke-width="2" d="M545.8,-431.07C555.41,-411.62 566.16,-380.6 550.54,-360 537.21,-342.41 488.99,-329.06 444.59,-320.15"/>
<polygon fill="grey" stroke="grey" stroke-width="2" points="445.36,-316.73 434.87,-318.27 444.03,-323.61 445.36,-316.73"/>
</g>
<!-- 12&#45;&gt;19 -->
<g id="edge28" class="edge">
<title>12&#45;&gt;19</title>
<path fill="none" stroke="grey" stroke-width="2" d="M517.88,-431.34C510.22,-423.69 501.09,-414.56 492.62,-406.08"/>
<polygon fill="grey" stroke="grey" stroke-width="2" points="495.13,-403.64 485.58,-399.04 490.18,-408.59 495.13,-403.64"/>
</g>
<!-- 13 -->
<g id="node14" class="node">
<title>13</title>
<path fill="none" stroke="#d88556" stroke-width="2" d="M592.04,-540C592.04,-540 479.04,-540 479.04,-540 473.04,-540 467.04,-534 467.04,-528 467.04,-528 467.04,-516 467.04,-516 467.04,-510 473.04,-504 479.04,-504 479.04,-504 592.04,-504 592.04,-504 598.04,-504 604.04,-510 604.04,-516 604.04,-516 604.04,-528 604.04,-528 604.04,-534 598.04,-540 592.04,-540"/>
<text text-anchor="middle" x="535.54" y="-519.5" font-family="sans" font-size="10.00">bowtie2_filtered_fastq_pe</text>
</g>
<!-- 13&#45;&gt;12 -->
<g id="edge20" class="edge">
<title>13&#45;&gt;12</title>
<path fill="none" stroke="grey" stroke-width="2" d="M535.54,-503.34C535.54,-496.75 535.54,-489.08 535.54,-481.67"/>
<polygon fill="grey" stroke="grey" stroke-width="2" points="539.04,-481.93 535.54,-471.93 532.04,-481.93 539.04,-481.93"/>
</g>
<!-- 14 -->
<g id="node15" class="node">
<title>14</title>
<path fill="none" stroke="#d8b456" stroke-width="2" d="M576.54,-612C576.54,-612 494.54,-612 494.54,-612 488.54,-612 482.54,-606 482.54,-600 482.54,-600 482.54,-588 482.54,-588 482.54,-582 488.54,-576 494.54,-576 494.54,-576 576.54,-576 576.54,-576 582.54,-576 588.54,-582 588.54,-588 588.54,-588 588.54,-600 588.54,-600 588.54,-606 582.54,-612 576.54,-612"/>
<text text-anchor="middle" x="535.54" y="-591.5" font-family="sans" font-size="10.00">bowtie2_host_filter</text>
</g>
<!-- 14&#45;&gt;13 -->
<g id="edge22" class="edge">
<title>14&#45;&gt;13</title>
<path fill="none" stroke="grey" stroke-width="2" d="M535.54,-575.34C535.54,-568.75 535.54,-561.08 535.54,-553.67"/>
<polygon fill="grey" stroke="grey" stroke-width="2" points="539.04,-553.93 535.54,-543.93 532.04,-553.93 539.04,-553.93"/>
</g>
<!-- 23 -->
<g id="node24" class="node">
<title>23</title>
<path fill="none" stroke="#d87556" stroke-width="2" d="M419.04,-540C419.04,-540 308.04,-540 308.04,-540 302.04,-540 296.04,-534 296.04,-528 296.04,-528 296.04,-516 296.04,-516 296.04,-510 302.04,-504 308.04,-504 308.04,-504 419.04,-504 419.04,-504 425.04,-504 431.04,-510 431.04,-516 431.04,-516 431.04,-528 431.04,-528 431.04,-534 425.04,-540 419.04,-540"/>
<text text-anchor="middle" x="363.54" y="-519.5" font-family="sans" font-size="10.00">bowtie2_filtered_fastq_se</text>
</g>
<!-- 14&#45;&gt;23 -->
<g id="edge34" class="edge">
<title>14&#45;&gt;23</title>
<path fill="none" stroke="grey" stroke-width="2" d="M491.69,-575.15C469.74,-566.22 442.92,-555.31 419.5,-545.77"/>
<polygon fill="grey" stroke="grey" stroke-width="2" points="420.99,-542.6 410.41,-542.08 418.35,-549.09 420.99,-542.6"/>
</g>
<!-- 15 -->
<g id="node16" class="node">
<title>15</title>
<path fill="none" stroke="#56d882" stroke-width="2" d="M584.54,-684C584.54,-684 476.54,-684 476.54,-684 470.54,-684 464.54,-678 464.54,-672 464.54,-672 464.54,-660 464.54,-660 464.54,-654 470.54,-648 476.54,-648 476.54,-648 584.54,-648 584.54,-648 590.54,-648 596.54,-654 596.54,-660 596.54,-660 596.54,-672 596.54,-672 596.54,-678 590.54,-684 584.54,-684"/>
<text text-anchor="middle" x="530.54" y="-663.5" font-family="sans" font-size="10.00">gdc_unmapped_fastq_pe</text>
</g>
<!-- 15&#45;&gt;14 -->
<g id="edge23" class="edge">
<title>15&#45;&gt;14</title>
<path fill="none" stroke="grey" stroke-width="2" d="M531.8,-647.34C532.27,-640.75 532.82,-633.08 533.35,-625.67"/>
<polygon fill="grey" stroke="grey" stroke-width="2" points="536.82,-626.15 534.04,-615.92 529.84,-625.65 536.82,-626.15"/>
</g>
<!-- 16 -->
<g id="node17" class="node">
<title>16</title>
<path fill="none" stroke="#59d856" stroke-width="2" d="M650.04,-756C650.04,-756 561.04,-756 561.04,-756 555.04,-756 549.04,-750 549.04,-744 549.04,-744 549.04,-732 549.04,-732 549.04,-726 555.04,-720 561.04,-720 561.04,-720 650.04,-720 650.04,-720 656.04,-720 662.04,-726 662.04,-732 662.04,-732 662.04,-744 662.04,-744 662.04,-750 656.04,-756 650.04,-756"/>
<text text-anchor="middle" x="605.54" y="-735.5" font-family="sans" font-size="10.00">gdc_unmapped_bam</text>
</g>
<!-- 16&#45;&gt;15 -->
<g id="edge26" class="edge">
<title>16&#45;&gt;15</title>
<path fill="none" stroke="grey" stroke-width="2" d="M586.61,-719.34C578.24,-711.52 568.21,-702.16 558.97,-693.53"/>
<polygon fill="grey" stroke="grey" stroke-width="2" points="561.63,-691.23 551.93,-686.97 556.85,-696.35 561.63,-691.23"/>
</g>
<!-- 24 -->
<g id="node25" class="node">
<title>24</title>
<path fill="none" stroke="#5682d8" stroke-width="2" d="M734.04,-684C734.04,-684 627.04,-684 627.04,-684 621.04,-684 615.04,-678 615.04,-672 615.04,-672 615.04,-660 615.04,-660 615.04,-654 621.04,-648 627.04,-648 627.04,-648 734.04,-648 734.04,-648 740.04,-648 746.04,-654 746.04,-660 746.04,-660 746.04,-672 746.04,-672 746.04,-678 740.04,-684 734.04,-684"/>
<text text-anchor="middle" x="680.54" y="-663.5" font-family="sans" font-size="10.00">gdc_unmapped_fastq_se</text>
</g>
<!-- 16&#45;&gt;24 -->
<g id="edge35" class="edge">
<title>16&#45;&gt;24</title>
<path fill="none" stroke="grey" stroke-width="2" d="M624.46,-719.34C632.84,-711.52 642.87,-702.16 652.11,-693.53"/>
<polygon fill="grey" stroke="grey" stroke-width="2" points="654.22,-696.35 659.15,-686.97 649.45,-691.23 654.22,-696.35"/>
</g>
<!-- 17 -->
<g id="node18" class="node">
<title>17</title>
<path fill="none" stroke="#d8a456" stroke-width="2" d="M860.54,-684C860.54,-684 776.54,-684 776.54,-684 770.54,-684 764.54,-678 764.54,-672 764.54,-672 764.54,-660 764.54,-660 764.54,-654 770.54,-648 776.54,-648 776.54,-648 860.54,-648 860.54,-648 866.54,-648 872.54,-654 872.54,-660 872.54,-660 872.54,-672 872.54,-672 872.54,-678 866.54,-684 860.54,-684"/>
<text text-anchor="middle" x="818.54" y="-663.5" font-family="sans" font-size="10.00">bowtie2_host_index</text>
</g>
<!-- 17&#45;&gt;14 -->
<g id="edge24" class="edge">
<title>17&#45;&gt;14</title>
<path fill="none" stroke="grey" stroke-width="2" d="M763.59,-650.08C760.87,-649.37 758.17,-648.67 755.54,-648 704.09,-634.86 645.64,-620.82 601.93,-610.5"/>
<polygon fill="grey" stroke="grey" stroke-width="2" points="602.92,-607.14 592.38,-608.25 601.31,-613.95 602.92,-607.14"/>
</g>
<!-- 18 -->
<g id="node19" class="node">
<title>18</title>
<path fill="none" stroke="#88d856" stroke-width="2" d="M860.04,-756C860.04,-756 777.04,-756 777.04,-756 771.04,-756 765.04,-750 765.04,-744 765.04,-744 765.04,-732 765.04,-732 765.04,-726 771.04,-720 777.04,-720 777.04,-720 860.04,-720 860.04,-720 866.04,-720 872.04,-726 872.04,-732 872.04,-732 872.04,-744 872.04,-744 872.04,-750 866.04,-756 860.04,-756"/>
<text text-anchor="middle" x="818.54" y="-735.5" font-family="sans" font-size="10.00">host_genome_fasta</text>
</g>
<!-- 18&#45;&gt;17 -->
<g id="edge27" class="edge">
<title>18&#45;&gt;17</title>
<path fill="none" stroke="grey" stroke-width="2" d="M818.54,-719.34C818.54,-712.75 818.54,-705.08 818.54,-697.67"/>
<polygon fill="grey" stroke="grey" stroke-width="2" points="822.04,-697.93 818.54,-687.93 815.04,-697.93 822.04,-697.93"/>
</g>
<!-- 19&#45;&gt;11 -->
<g id="edge18" class="edge">
<title>19&#45;&gt;11</title>
<path fill="none" stroke="grey" stroke-width="2" d="M439.03,-359.15C426.8,-350.93 412.08,-341.02 398.77,-332.06"/>
<polygon fill="grey" stroke="grey" stroke-width="2" points="400.76,-329.18 390.51,-326.5 396.86,-334.99 400.76,-329.18"/>
</g>
<!-- 20&#45;&gt;3 -->
<g id="edge7" class="edge">
<title>20&#45;&gt;3</title>
<path fill="none" stroke="grey" stroke-width="2" d="M225.54,-575.34C225.54,-568.75 225.54,-561.08 225.54,-553.67"/>
<polygon fill="grey" stroke="grey" stroke-width="2" points="229.04,-553.93 225.54,-543.93 222.04,-553.93 229.04,-553.93"/>
</g>
<!-- 21&#45;&gt;2 -->
<g id="edge6" class="edge">
<title>21&#45;&gt;2</title>
<path fill="none" stroke="grey" stroke-width="2" d="M180.54,-287.34C180.54,-280.75 180.54,-273.08 180.54,-265.67"/>
<polygon fill="grey" stroke="grey" stroke-width="2" points="184.04,-265.93 180.54,-255.93 177.04,-265.93 184.04,-265.93"/>
</g>
<!-- 22&#45;&gt;11 -->
<g id="edge17" class="edge">
<title>22&#45;&gt;11</title>
<path fill="none" stroke="grey" stroke-width="2" d="M333.42,-431.39C336.21,-421.1 339.71,-407.85 342.54,-396 347.17,-376.6 351.85,-354.69 355.41,-337.46"/>
<polygon fill="grey" stroke="grey" stroke-width="2" points="358.82,-338.25 357.4,-327.75 351.97,-336.85 358.82,-338.25"/>
</g>
<!-- 22&#45;&gt;25 -->
<g id="edge36" class="edge">
<title>22&#45;&gt;25</title>
<path fill="none" stroke="grey" stroke-width="2" d="M310.88,-431.34C303.22,-423.69 294.09,-414.56 285.62,-406.08"/>
<polygon fill="grey" stroke="grey" stroke-width="2" points="288.13,-403.64 278.58,-399.04 283.18,-408.59 288.13,-403.64"/>
</g>
<!-- 23&#45;&gt;22 -->
<g id="edge33" class="edge">
<title>23&#45;&gt;22</title>
<path fill="none" stroke="grey" stroke-width="2" d="M354.71,-503.34C351.21,-496.34 347.1,-488.12 343.18,-480.28"/>
<polygon fill="grey" stroke="grey" stroke-width="2" points="346.45,-478.99 338.84,-471.61 340.19,-482.12 346.45,-478.99"/>
</g>
<!-- 24&#45;&gt;14 -->
<g id="edge25" class="edge">
<title>24&#45;&gt;14</title>
<path fill="none" stroke="grey" stroke-width="2" d="M643.57,-647.15C625.58,-638.47 603.7,-627.91 584.35,-618.56"/>
<polygon fill="grey" stroke="grey" stroke-width="2" points="585.94,-615.45 575.41,-614.25 582.9,-621.75 585.94,-615.45"/>
</g>
<!-- 25&#45;&gt;11 -->
<g id="edge19" class="edge">
<title>25&#45;&gt;11</title>
<path fill="none" stroke="grey" stroke-width="2" d="M284.8,-359.15C296.9,-350.93 311.48,-341.02 324.67,-332.06"/>
<polygon fill="grey" stroke="grey" stroke-width="2" points="326.52,-335.03 332.83,-326.51 322.59,-329.24 326.52,-335.03"/>
</g>
<!-- 26&#45;&gt;1 -->
<g id="edge3" class="edge">
<title>26&#45;&gt;1</title>
<path fill="none" stroke="grey" stroke-width="2" d="M217.92,-143.34C212.75,-136.1 206.63,-127.53 200.86,-119.45"/>
<polygon fill="grey" stroke="grey" stroke-width="2" points="203.75,-117.47 195.09,-111.37 198.05,-121.54 203.75,-117.47"/>
</g>
</g>
</svg>
