<?xml version="1.0" encoding="UTF-8" standalone="no"?>
<!DOCTYPE svg PUBLIC "-//W3C//DTD SVG 1.1//EN"
 "http://www.w3.org/Graphics/SVG/1.1/DTD/svg11.dtd">
<!-- Generated by graphviz version 7.1.0 (0)
 -->
<!-- Title: snakemake_dag Pages: 1 -->
<svg width="608pt" height="692pt"
 viewBox="0.00 0.00 608.00 692.00" xmlns="http://www.w3.org/2000/svg" xmlns:xlink="http://www.w3.org/1999/xlink">
<g id="graph0" class="graph" transform="scale(1 1) rotate(0) translate(4 688)">
<title>snakemake_dag</title>
<polygon fill="white" stroke="none" points="-4,4 -4,-688 604,-688 604,4 -4,4"/>
<!-- 0 -->
<g id="node1" class="node">
<title>0</title>
<path fill="none" stroke="#d8d356" stroke-width="2" d="M165,-36C165,-36 135,-36 135,-36 129,-36 123,-30 123,-24 123,-24 123,-12 123,-12 123,-6 129,0 135,0 135,0 165,0 165,0 171,0 177,-6 177,-12 177,-12 177,-24 177,-24 177,-30 171,-36 165,-36"/>
<text text-anchor="middle" x="150" y="-15.5" font-family="sans" font-size="10.00">all</text>
</g>
<!-- 1 -->
<g id="node2" class="node">
<title>1</title>
<path fill="none" stroke="#afd856" stroke-width="2" d="M110,-468C110,-468 12,-468 12,-468 6,-468 0,-462 0,-456 0,-456 0,-444 0,-444 0,-438 6,-432 12,-432 12,-432 110,-432 110,-432 116,-432 122,-438 122,-444 122,-444 122,-456 122,-456 122,-462 116,-468 110,-468"/>
<text text-anchor="middle" x="61" y="-447.5" font-family="sans" font-size="10.00">kraken2_db_taxonomy</text>
</g>
<!-- 1&#45;&gt;0 -->
<g id="edge1" class="edge">
<title>1&#45;&gt;0</title>
<path fill="none" stroke="grey" stroke-width="2" d="M65.97,-431.23C73,-404.5 85,-352.25 85,-307 85,-307 85,-307 85,-161 85,-118.34 109.55,-74.49 128.47,-47.02"/>
<polygon fill="grey" stroke="grey" stroke-width="2" points="131.16,-49.27 134.13,-39.1 125.47,-45.2 131.16,-49.27"/>
</g>
<!-- 3 -->
<g id="node4" class="node">
<title>3</title>
<path fill="none" stroke="#56d863" stroke-width="2" d="M245,-396C245,-396 171,-396 171,-396 165,-396 159,-390 159,-384 159,-384 159,-372 159,-372 159,-366 165,-360 171,-360 171,-360 245,-360 245,-360 251,-360 257,-366 257,-372 257,-372 257,-384 257,-384 257,-390 251,-396 245,-396"/>
<text text-anchor="middle" x="208" y="-375.5" font-family="sans" font-size="10.00">kraken2_db_build</text>
</g>
<!-- 1&#45;&gt;3 -->
<g id="edge5" class="edge">
<title>1&#45;&gt;3</title>
<path fill="none" stroke="grey" stroke-width="2" d="M98.47,-431.15C116.81,-422.43 139.11,-411.81 158.79,-402.43"/>
<polygon fill="grey" stroke="grey" stroke-width="2" points="160.08,-405.69 167.61,-398.24 157.07,-399.37 160.08,-405.69"/>
</g>
<!-- 2 -->
<g id="node3" class="node">
<title>2</title>
<path fill="none" stroke="#5673d8" stroke-width="2" d="M232,-468C232,-468 152,-468 152,-468 146,-468 140,-462 140,-456 140,-456 140,-444 140,-444 140,-438 146,-432 152,-432 152,-432 232,-432 232,-432 238,-432 244,-438 244,-444 244,-444 244,-456 244,-456 244,-462 238,-468 232,-468"/>
<text text-anchor="middle" x="192" y="-447.5" font-family="sans" font-size="10.00">kraken2_db_library</text>
</g>
<!-- 2&#45;&gt;0 -->
<g id="edge4" class="edge">
<title>2&#45;&gt;0</title>
<path fill="none" stroke="grey" stroke-width="2" d="M174.54,-431.29C165.93,-421.6 156.1,-408.96 150,-396 132.76,-359.41 131,-347.45 131,-307 131,-307 131,-307 131,-161 131,-122.31 138.01,-78.21 143.52,-49.56"/>
<polygon fill="grey" stroke="grey" stroke-width="2" points="146.94,-50.29 145.47,-39.8 140.08,-48.92 146.94,-50.29"/>
</g>
<!-- 2&#45;&gt;3 -->
<g id="edge6" class="edge">
<title>2&#45;&gt;3</title>
<path fill="none" stroke="grey" stroke-width="2" d="M196.04,-431.34C197.56,-424.67 199.34,-416.89 201.05,-409.39"/>
<polygon fill="grey" stroke="grey" stroke-width="2" points="204.42,-410.38 203.23,-399.85 197.59,-408.82 204.42,-410.38"/>
</g>
<!-- 3&#45;&gt;0 -->
<g id="edge3" class="edge">
<title>3&#45;&gt;0</title>
<path fill="none" stroke="grey" stroke-width="2" d="M199.73,-359.05C188.28,-332.53 169,-281.02 169,-235 169,-235 169,-235 169,-161 169,-122.31 161.99,-78.21 156.48,-49.56"/>
<polygon fill="grey" stroke="grey" stroke-width="2" points="159.92,-48.92 154.53,-39.8 153.06,-50.29 159.92,-48.92"/>
</g>
<!-- 5 -->
<g id="node6" class="node">
<title>5</title>
<path fill="none" stroke="#d86e56" stroke-width="2" d="M357,-252C357,-252 271,-252 271,-252 265,-252 259,-246 259,-240 259,-240 259,-228 259,-228 259,-222 265,-216 271,-216 271,-216 357,-216 357,-216 363,-216 369,-222 369,-228 369,-228 369,-240 369,-240 369,-246 363,-252 357,-252"/>
<text text-anchor="middle" x="314" y="-231.5" font-family="sans" font-size="10.00">bracken_read_quant</text>
</g>
<!-- 3&#45;&gt;5 -->
<g id="edge10" class="edge">
<title>3&#45;&gt;5</title>
<path fill="none" stroke="grey" stroke-width="2" d="M215.17,-359.19C223.22,-340.4 237.48,-310.46 255,-288 262.38,-278.53 271.58,-269.37 280.5,-261.4"/>
<polygon fill="grey" stroke="grey" stroke-width="2" points="282.74,-264.09 288.04,-254.92 278.18,-258.78 282.74,-264.09"/>
</g>
<!-- 6 -->
<g id="node7" class="node">
<title>6</title>
<path fill="none" stroke="#568ad8" stroke-width="2" d="M352,-324C352,-324 276,-324 276,-324 270,-324 264,-318 264,-312 264,-312 264,-300 264,-300 264,-294 270,-288 276,-288 276,-288 352,-288 352,-288 358,-288 364,-294 364,-300 364,-300 364,-312 364,-312 364,-318 358,-324 352,-324"/>
<text text-anchor="middle" x="314" y="-303.5" font-family="sans" font-size="10.00">krakenuniq_classif</text>
</g>
<!-- 3&#45;&gt;6 -->
<g id="edge14" class="edge">
<title>3&#45;&gt;6</title>
<path fill="none" stroke="grey" stroke-width="2" d="M235.02,-359.15C247.61,-350.84 262.79,-340.82 276.46,-331.79"/>
<polygon fill="grey" stroke="grey" stroke-width="2" points="278.08,-334.91 284.5,-326.48 274.23,-329.07 278.08,-334.91"/>
</g>
<!-- 4 -->
<g id="node5" class="node">
<title>4</title>
<path fill="none" stroke="#56d0d8" stroke-width="2" d="M304.5,-108C304.5,-108 209.5,-108 209.5,-108 203.5,-108 197.5,-102 197.5,-96 197.5,-96 197.5,-84 197.5,-84 197.5,-78 203.5,-72 209.5,-72 209.5,-72 304.5,-72 304.5,-72 310.5,-72 316.5,-78 316.5,-84 316.5,-84 316.5,-96 316.5,-96 316.5,-102 310.5,-108 304.5,-108"/>
<text text-anchor="middle" x="257" y="-87.5" font-family="sans" font-size="10.00">bracken_count_matrix</text>
</g>
<!-- 4&#45;&gt;0 -->
<g id="edge2" class="edge">
<title>4&#45;&gt;0</title>
<path fill="none" stroke="grey" stroke-width="2" d="M229.72,-71.15C217.02,-62.84 201.7,-52.82 187.89,-43.79"/>
<polygon fill="grey" stroke="grey" stroke-width="2" points="190.05,-41.02 179.76,-38.47 186.21,-46.87 190.05,-41.02"/>
</g>
<!-- 5&#45;&gt;4 -->
<g id="edge7" class="edge">
<title>5&#45;&gt;4</title>
<path fill="none" stroke="grey" stroke-width="2" d="M282.71,-215.09C270.43,-206.26 257.7,-194.38 251,-180 242.56,-161.88 244.16,-139.4 247.82,-121.57"/>
<polygon fill="grey" stroke="grey" stroke-width="2" points="251.2,-122.47 250.17,-111.93 244.4,-120.81 251.2,-122.47"/>
</g>
<!-- 17 -->
<g id="node18" class="node">
<title>17</title>
<path fill="none" stroke="#56b9d8" stroke-width="2" d="M392,-180C392,-180 272,-180 272,-180 266,-180 260,-174 260,-168 260,-168 260,-156 260,-156 260,-150 266,-144 272,-144 272,-144 392,-144 392,-144 398,-144 404,-150 404,-156 404,-156 404,-168 404,-168 404,-174 398,-180 392,-180"/>
<text text-anchor="middle" x="332" y="-159.5" font-family="sans" font-size="10.00">bracken_merged_rg_counts</text>
</g>
<!-- 5&#45;&gt;17 -->
<g id="edge26" class="edge">
<title>5&#45;&gt;17</title>
<path fill="none" stroke="grey" stroke-width="2" d="M318.54,-215.34C320.26,-208.67 322.26,-200.89 324.19,-193.39"/>
<polygon fill="grey" stroke="grey" stroke-width="2" points="327.54,-194.39 326.64,-183.83 320.76,-192.65 327.54,-194.39"/>
</g>
<!-- 6&#45;&gt;5 -->
<g id="edge9" class="edge">
<title>6&#45;&gt;5</title>
<path fill="none" stroke="grey" stroke-width="2" d="M314,-287.34C314,-280.75 314,-273.08 314,-265.67"/>
<polygon fill="grey" stroke="grey" stroke-width="2" points="317.5,-265.93 314,-255.93 310.5,-265.93 317.5,-265.93"/>
</g>
<!-- 7 -->
<g id="node8" class="node">
<title>7</title>
<path fill="none" stroke="#97d856" stroke-width="2" d="M387.5,-468C387.5,-468 274.5,-468 274.5,-468 268.5,-468 262.5,-462 262.5,-456 262.5,-456 262.5,-444 262.5,-444 262.5,-438 268.5,-432 274.5,-432 274.5,-432 387.5,-432 387.5,-432 393.5,-432 399.5,-438 399.5,-444 399.5,-444 399.5,-456 399.5,-456 399.5,-462 393.5,-468 387.5,-468"/>
<text text-anchor="middle" x="331" y="-447.5" font-family="sans" font-size="10.00">bowtie2_filtered_fastq_pe</text>
</g>
<!-- 7&#45;&gt;6 -->
<g id="edge13" class="edge">
<title>7&#45;&gt;6</title>
<path fill="none" stroke="grey" stroke-width="2" d="M328.85,-431.02C326.04,-407.54 321.08,-366.11 317.67,-337.64"/>
<polygon fill="grey" stroke="grey" stroke-width="2" points="321.16,-337.36 316.5,-327.84 314.21,-338.19 321.16,-337.36"/>
</g>
<!-- 14 -->
<g id="node15" class="node">
<title>14</title>
<path fill="none" stroke="#c6d856" stroke-width="2" d="M528,-396C528,-396 392,-396 392,-396 386,-396 380,-390 380,-384 380,-384 380,-372 380,-372 380,-366 386,-360 392,-360 392,-360 528,-360 528,-360 534,-360 540,-366 540,-372 540,-372 540,-384 540,-384 540,-390 534,-396 528,-396"/>
<text text-anchor="middle" x="460" y="-375.5" font-family="sans" font-size="10.00">bbmap_read_length_histogram</text>
</g>
<!-- 7&#45;&gt;14 -->
<g id="edge23" class="edge">
<title>7&#45;&gt;14</title>
<path fill="none" stroke="grey" stroke-width="2" d="M363.89,-431.15C379.66,-422.6 398.77,-412.22 415.79,-402.99"/>
<polygon fill="grey" stroke="grey" stroke-width="2" points="417.39,-406.1 424.51,-398.26 414.05,-399.95 417.39,-406.1"/>
</g>
<!-- 8 -->
<g id="node9" class="node">
<title>8</title>
<path fill="none" stroke="#d8bc56" stroke-width="2" d="M449,-540C449,-540 367,-540 367,-540 361,-540 355,-534 355,-528 355,-528 355,-516 355,-516 355,-510 361,-504 367,-504 367,-504 449,-504 449,-504 455,-504 461,-510 461,-516 461,-516 461,-528 461,-528 461,-534 455,-540 449,-540"/>
<text text-anchor="middle" x="408" y="-519.5" font-family="sans" font-size="10.00">bowtie2_host_filter</text>
</g>
<!-- 8&#45;&gt;7 -->
<g id="edge15" class="edge">
<title>8&#45;&gt;7</title>
<path fill="none" stroke="grey" stroke-width="2" d="M388.57,-503.34C379.97,-495.52 369.68,-486.16 360.19,-477.53"/>
<polygon fill="grey" stroke="grey" stroke-width="2" points="362.69,-475.07 352.93,-470.94 357.98,-480.25 362.69,-475.07"/>
</g>
<!-- 15 -->
<g id="node16" class="node">
<title>15</title>
<path fill="none" stroke="#d8a456" stroke-width="2" d="M540.5,-468C540.5,-468 429.5,-468 429.5,-468 423.5,-468 417.5,-462 417.5,-456 417.5,-456 417.5,-444 417.5,-444 417.5,-438 423.5,-432 429.5,-432 429.5,-432 540.5,-432 540.5,-432 546.5,-432 552.5,-438 552.5,-444 552.5,-444 552.5,-456 552.5,-456 552.5,-462 546.5,-468 540.5,-468"/>
<text text-anchor="middle" x="485" y="-447.5" font-family="sans" font-size="10.00">bowtie2_filtered_fastq_se</text>
</g>
<!-- 8&#45;&gt;15 -->
<g id="edge24" class="edge">
<title>8&#45;&gt;15</title>
<path fill="none" stroke="grey" stroke-width="2" d="M427.43,-503.34C436.03,-495.52 446.32,-486.16 455.81,-477.53"/>
<polygon fill="grey" stroke="grey" stroke-width="2" points="458.02,-480.25 463.07,-470.94 453.31,-475.07 458.02,-480.25"/>
</g>
<!-- 9 -->
<g id="node10" class="node">
<title>9</title>
<path fill="none" stroke="#56d87b" stroke-width="2" d="M312,-612C312,-612 204,-612 204,-612 198,-612 192,-606 192,-600 192,-600 192,-588 192,-588 192,-582 198,-576 204,-576 204,-576 312,-576 312,-576 318,-576 324,-582 324,-588 324,-588 324,-600 324,-600 324,-606 318,-612 312,-612"/>
<text text-anchor="middle" x="258" y="-591.5" font-family="sans" font-size="10.00">gdc_unmapped_fastq_pe</text>
</g>
<!-- 9&#45;&gt;8 -->
<g id="edge17" class="edge">
<title>9&#45;&gt;8</title>
<path fill="none" stroke="grey" stroke-width="2" d="M296.24,-575.15C314.94,-566.43 337.7,-555.81 357.79,-546.43"/>
<polygon fill="grey" stroke="grey" stroke-width="2" points="359.25,-549.61 366.83,-542.21 356.28,-543.27 359.25,-549.61"/>
</g>
<!-- 10 -->
<g id="node11" class="node">
<title>10</title>
<path fill="none" stroke="#56d8c9" stroke-width="2" d="M377.5,-684C377.5,-684 288.5,-684 288.5,-684 282.5,-684 276.5,-678 276.5,-672 276.5,-672 276.5,-660 276.5,-660 276.5,-654 282.5,-648 288.5,-648 288.5,-648 377.5,-648 377.5,-648 383.5,-648 389.5,-654 389.5,-660 389.5,-660 389.5,-672 389.5,-672 389.5,-678 383.5,-684 377.5,-684"/>
<text text-anchor="middle" x="333" y="-663.5" font-family="sans" font-size="10.00">gdc_unmapped_bam</text>
</g>
<!-- 10&#45;&gt;9 -->
<g id="edge19" class="edge">
<title>10&#45;&gt;9</title>
<path fill="none" stroke="grey" stroke-width="2" d="M314.07,-647.34C305.7,-639.52 295.67,-630.16 286.43,-621.53"/>
<polygon fill="grey" stroke="grey" stroke-width="2" points="289.09,-619.23 279.39,-614.97 284.32,-624.35 289.09,-619.23"/>
</g>
<!-- 16 -->
<g id="node17" class="node">
<title>16</title>
<path fill="none" stroke="#56d892" stroke-width="2" d="M461.5,-612C461.5,-612 354.5,-612 354.5,-612 348.5,-612 342.5,-606 342.5,-600 342.5,-600 342.5,-588 342.5,-588 342.5,-582 348.5,-576 354.5,-576 354.5,-576 461.5,-576 461.5,-576 467.5,-576 473.5,-582 473.5,-588 473.5,-588 473.5,-600 473.5,-600 473.5,-606 467.5,-612 461.5,-612"/>
<text text-anchor="middle" x="408" y="-591.5" font-family="sans" font-size="10.00">gdc_unmapped_fastq_se</text>
</g>
<!-- 10&#45;&gt;16 -->
<g id="edge25" class="edge">
<title>10&#45;&gt;16</title>
<path fill="none" stroke="grey" stroke-width="2" d="M351.93,-647.34C360.3,-639.52 370.33,-630.16 379.57,-621.53"/>
<polygon fill="grey" stroke="grey" stroke-width="2" points="381.68,-624.35 386.61,-614.97 376.91,-619.23 381.68,-624.35"/>
</g>
<!-- 11 -->
<g id="node12" class="node">
<title>11</title>
<path fill="none" stroke="#d88556" stroke-width="2" d="M588,-612C588,-612 504,-612 504,-612 498,-612 492,-606 492,-600 492,-600 492,-588 492,-588 492,-582 498,-576 504,-576 504,-576 588,-576 588,-576 594,-576 600,-582 600,-588 600,-588 600,-600 600,-600 600,-606 594,-612 588,-612"/>
<text text-anchor="middle" x="546" y="-591.5" font-family="sans" font-size="10.00">bowtie2_host_index</text>
</g>
<!-- 11&#45;&gt;8 -->
<g id="edge18" class="edge">
<title>11&#45;&gt;8</title>
<path fill="none" stroke="grey" stroke-width="2" d="M510.82,-575.15C493.71,-566.47 472.91,-555.92 454.5,-546.59"/>
<polygon fill="grey" stroke="grey" stroke-width="2" points="456.32,-543.58 445.82,-542.18 453.15,-549.83 456.32,-543.58"/>
</g>
<!-- 12 -->
<g id="node13" class="node">
<title>12</title>
<path fill="none" stroke="#d85656" stroke-width="2" d="M587.5,-684C587.5,-684 504.5,-684 504.5,-684 498.5,-684 492.5,-678 492.5,-672 492.5,-672 492.5,-660 492.5,-660 492.5,-654 498.5,-648 504.5,-648 504.5,-648 587.5,-648 587.5,-648 593.5,-648 599.5,-654 599.5,-660 599.5,-660 599.5,-672 599.5,-672 599.5,-678 593.5,-684 587.5,-684"/>
<text text-anchor="middle" x="546" y="-663.5" font-family="sans" font-size="10.00">host_genome_fasta</text>
</g>
<!-- 12&#45;&gt;11 -->
<g id="edge20" class="edge">
<title>12&#45;&gt;11</title>
<path fill="none" stroke="grey" stroke-width="2" d="M546,-647.34C546,-640.75 546,-633.08 546,-625.67"/>
<polygon fill="grey" stroke="grey" stroke-width="2" points="549.5,-625.93 546,-615.93 542.5,-625.93 549.5,-625.93"/>
</g>
<!-- 13 -->
<g id="node14" class="node">
<title>13</title>
<path fill="none" stroke="#56d8a9" stroke-width="2" d="M508.5,-324C508.5,-324 399.5,-324 399.5,-324 393.5,-324 387.5,-318 387.5,-312 387.5,-312 387.5,-300 387.5,-300 387.5,-294 393.5,-288 399.5,-288 399.5,-288 508.5,-288 508.5,-288 514.5,-288 520.5,-294 520.5,-300 520.5,-300 520.5,-312 520.5,-312 520.5,-318 514.5,-324 508.5,-324"/>
<text text-anchor="middle" x="454" y="-303.5" font-family="sans" font-size="10.00">bbmap_max_read_length</text>
</g>
<!-- 13&#45;&gt;5 -->
<g id="edge11" class="edge">
<title>13&#45;&gt;5</title>
<path fill="none" stroke="grey" stroke-width="2" d="M418.31,-287.15C400.95,-278.47 379.85,-267.92 361.18,-258.59"/>
<polygon fill="grey" stroke="grey" stroke-width="2" points="362.84,-255.51 352.33,-254.17 359.71,-261.77 362.84,-255.51"/>
</g>
<!-- 14&#45;&gt;13 -->
<g id="edge21" class="edge">
<title>14&#45;&gt;13</title>
<path fill="none" stroke="grey" stroke-width="2" d="M458.49,-359.34C457.92,-352.75 457.26,-345.08 456.63,-337.67"/>
<polygon fill="grey" stroke="grey" stroke-width="2" points="460.13,-337.58 455.79,-327.92 453.16,-338.18 460.13,-337.58"/>
</g>
<!-- 15&#45;&gt;6 -->
<g id="edge12" class="edge">
<title>15&#45;&gt;6</title>
<path fill="none" stroke="grey" stroke-width="2" d="M430.52,-431.05C410.32,-422.59 388.17,-411.01 371,-396 352.19,-379.56 337.26,-355.43 327.41,-336.44"/>
<polygon fill="grey" stroke="grey" stroke-width="2" points="330.58,-334.96 323.02,-327.55 324.31,-338.06 330.58,-334.96"/>
</g>
<!-- 15&#45;&gt;14 -->
<g id="edge22" class="edge">
<title>15&#45;&gt;14</title>
<path fill="none" stroke="grey" stroke-width="2" d="M478.69,-431.34C476.28,-424.59 473.46,-416.69 470.75,-409.11"/>
<polygon fill="grey" stroke="grey" stroke-width="2" points="474.07,-407.99 467.41,-399.75 467.48,-410.35 474.07,-407.99"/>
</g>
<!-- 16&#45;&gt;8 -->
<g id="edge16" class="edge">
<title>16&#45;&gt;8</title>
<path fill="none" stroke="grey" stroke-width="2" d="M408,-575.34C408,-568.75 408,-561.08 408,-553.67"/>
<polygon fill="grey" stroke="grey" stroke-width="2" points="411.5,-553.93 408,-543.93 404.5,-553.93 411.5,-553.93"/>
</g>
<!-- 17&#45;&gt;4 -->
<g id="edge8" class="edge">
<title>17&#45;&gt;4</title>
<path fill="none" stroke="grey" stroke-width="2" d="M313.07,-143.34C304.7,-135.52 294.67,-126.16 285.43,-117.53"/>
<polygon fill="grey" stroke="grey" stroke-width="2" points="288.09,-115.23 278.39,-110.97 283.32,-120.35 288.09,-115.23"/>
</g>
</g>
</svg>
