<?xml version="1.0" encoding="UTF-8" standalone="no"?>
<!DOCTYPE svg PUBLIC "-//W3C//DTD SVG 1.1//EN"
 "http://www.w3.org/Graphics/SVG/1.1/DTD/svg11.dtd">
<!-- Generated by graphviz version 7.1.0 (0)
 -->
<!-- Title: snakemake_dag Pages: 1 -->
<svg width="688pt" height="836pt"
 viewBox="0.00 0.00 687.50 836.00" xmlns="http://www.w3.org/2000/svg" xmlns:xlink="http://www.w3.org/1999/xlink">
<g id="graph0" class="graph" transform="scale(1 1) rotate(0) translate(4 832)">
<title>snakemake_dag</title>
<polygon fill="white" stroke="none" points="-4,4 -4,-832 683.5,-832 683.5,4 -4,4"/>
<!-- 0 -->
<g id="node1" class="node">
<title>0</title>
<path fill="none" stroke="#56d8a9" stroke-width="2" d="M495.5,-36C495.5,-36 465.5,-36 465.5,-36 459.5,-36 453.5,-30 453.5,-24 453.5,-24 453.5,-12 453.5,-12 453.5,-6 459.5,0 465.5,0 465.5,0 495.5,0 495.5,0 501.5,0 507.5,-6 507.5,-12 507.5,-12 507.5,-24 507.5,-24 507.5,-30 501.5,-36 495.5,-36"/>
<text text-anchor="middle" x="480.5" y="-15.5" font-family="sans" font-size="10.00">all</text>
</g>
<!-- 1 -->
<g id="node2" class="node">
<title>1</title>
<path fill="none" stroke="#88d856" stroke-width="2" d="M528,-108C528,-108 433,-108 433,-108 427,-108 421,-102 421,-96 421,-96 421,-84 421,-84 421,-78 427,-72 433,-72 433,-72 528,-72 528,-72 534,-72 540,-78 540,-84 540,-84 540,-96 540,-96 540,-102 534,-108 528,-108"/>
<text text-anchor="middle" x="480.5" y="-87.5" font-family="sans" font-size="10.00">bracken_count_matrix</text>
</g>
<!-- 1&#45;&gt;0 -->
<g id="edge1" class="edge">
<title>1&#45;&gt;0</title>
<path fill="none" stroke="grey" stroke-width="2" d="M480.5,-71.34C480.5,-64.75 480.5,-57.08 480.5,-49.67"/>
<polygon fill="grey" stroke="grey" stroke-width="2" points="484,-49.93 480.5,-39.93 477,-49.93 484,-49.93"/>
</g>
<!-- 2 -->
<g id="node3" class="node">
<title>2</title>
<path fill="none" stroke="#afd856" stroke-width="2" d="M523.5,-252C523.5,-252 437.5,-252 437.5,-252 431.5,-252 425.5,-246 425.5,-240 425.5,-240 425.5,-228 425.5,-228 425.5,-222 431.5,-216 437.5,-216 437.5,-216 523.5,-216 523.5,-216 529.5,-216 535.5,-222 535.5,-228 535.5,-228 535.5,-240 535.5,-240 535.5,-246 529.5,-252 523.5,-252"/>
<text text-anchor="middle" x="480.5" y="-231.5" font-family="sans" font-size="10.00">bracken_read_quant</text>
</g>
<!-- 2&#45;&gt;1 -->
<g id="edge2" class="edge">
<title>2&#45;&gt;1</title>
<path fill="none" stroke="grey" stroke-width="2" d="M467.03,-215.43C460.34,-205.59 452.96,-192.76 449.5,-180 445.32,-164.56 445.32,-159.44 449.5,-144 451.8,-135.53 455.82,-127.02 460.23,-119.38"/>
<polygon fill="grey" stroke="grey" stroke-width="2" points="463.06,-121.46 465.42,-111.13 457.13,-117.73 463.06,-121.46"/>
</g>
<!-- 22 -->
<g id="node23" class="node">
<title>22</title>
<path fill="none" stroke="#56d0d8" stroke-width="2" d="M590.5,-180C590.5,-180 470.5,-180 470.5,-180 464.5,-180 458.5,-174 458.5,-168 458.5,-168 458.5,-156 458.5,-156 458.5,-150 464.5,-144 470.5,-144 470.5,-144 590.5,-144 590.5,-144 596.5,-144 602.5,-150 602.5,-156 602.5,-156 602.5,-168 602.5,-168 602.5,-174 596.5,-180 590.5,-180"/>
<text text-anchor="middle" x="530.5" y="-159.5" font-family="sans" font-size="10.00">bracken_merged_rg_counts</text>
</g>
<!-- 2&#45;&gt;22 -->
<g id="edge32" class="edge">
<title>2&#45;&gt;22</title>
<path fill="none" stroke="grey" stroke-width="2" d="M493.12,-215.34C498.29,-208.1 504.41,-199.53 510.18,-191.45"/>
<polygon fill="grey" stroke="grey" stroke-width="2" points="512.99,-193.54 515.95,-183.37 507.29,-189.47 512.99,-193.54"/>
</g>
<!-- 3 -->
<g id="node4" class="node">
<title>3</title>
<path fill="none" stroke="#56d8d0" stroke-width="2" d="M402,-324C402,-324 287,-324 287,-324 281,-324 275,-318 275,-312 275,-312 275,-300 275,-300 275,-294 281,-288 287,-288 287,-288 402,-288 402,-288 408,-288 414,-294 414,-300 414,-300 414,-312 414,-312 414,-318 408,-324 402,-324"/>
<text text-anchor="middle" x="344.5" y="-303.5" font-family="sans" font-size="10.00">kraken2_combined_report</text>
</g>
<!-- 3&#45;&gt;2 -->
<g id="edge4" class="edge">
<title>3&#45;&gt;2</title>
<path fill="none" stroke="grey" stroke-width="2" d="M379.17,-287.15C395.96,-278.52 416.34,-268.02 434.41,-258.72"/>
<polygon fill="grey" stroke="grey" stroke-width="2" points="435.91,-261.89 443.2,-254.2 432.71,-255.66 435.91,-261.89"/>
</g>
<!-- 4 -->
<g id="node5" class="node">
<title>4</title>
<path fill="none" stroke="#56d8c1" stroke-width="2" d="M435,-540C435,-540 308,-540 308,-540 302,-540 296,-534 296,-528 296,-528 296,-516 296,-516 296,-510 302,-504 308,-504 308,-504 435,-504 435,-504 441,-504 447,-510 447,-516 447,-516 447,-528 447,-528 447,-534 441,-540 435,-540"/>
<text text-anchor="middle" x="371.5" y="-519.5" font-family="sans" font-size="10.00">kraken2_nucl_read_classif_pe</text>
</g>
<!-- 4&#45;&gt;3 -->
<g id="edge7" class="edge">
<title>4&#45;&gt;3</title>
<path fill="none" stroke="grey" stroke-width="2" d="M321.73,-503.06C305.09,-494.77 287.9,-483.3 276.5,-468 256.92,-441.71 264.08,-428.58 260.5,-396 258.75,-380.1 252.77,-374.01 260.5,-360 266.81,-348.56 276.74,-339.25 287.59,-331.81"/>
<polygon fill="grey" stroke="grey" stroke-width="2" points="289.41,-334.81 296.08,-326.58 285.73,-328.85 289.41,-334.81"/>
</g>
<!-- 15 -->
<g id="node16" class="node">
<title>15</title>
<path fill="none" stroke="#56d89a" stroke-width="2" d="M417,-468C417,-468 298,-468 298,-468 292,-468 286,-462 286,-456 286,-456 286,-444 286,-444 286,-438 292,-432 298,-432 298,-432 417,-432 417,-432 423,-432 429,-438 429,-444 429,-444 429,-456 429,-456 429,-462 423,-468 417,-468"/>
<text text-anchor="middle" x="357.5" y="-447.5" font-family="sans" font-size="10.00">kraken2_compressed_fastq</text>
</g>
<!-- 4&#45;&gt;15 -->
<g id="edge24" class="edge">
<title>4&#45;&gt;15</title>
<path fill="none" stroke="grey" stroke-width="2" d="M367.97,-503.34C366.65,-496.75 365.12,-489.08 363.63,-481.67"/>
<polygon fill="grey" stroke="grey" stroke-width="2" points="367.07,-480.99 361.67,-471.87 360.2,-482.36 367.07,-480.99"/>
</g>
<!-- 5 -->
<g id="node6" class="node">
<title>5</title>
<path fill="none" stroke="#56d88a" stroke-width="2" d="M414,-612C414,-612 301,-612 301,-612 295,-612 289,-606 289,-600 289,-600 289,-588 289,-588 289,-582 295,-576 301,-576 301,-576 414,-576 414,-576 420,-576 426,-582 426,-588 426,-588 426,-600 426,-600 426,-606 420,-612 414,-612"/>
<text text-anchor="middle" x="357.5" y="-591.5" font-family="sans" font-size="10.00">bowtie2_filtered_fastq_pe</text>
</g>
<!-- 5&#45;&gt;4 -->
<g id="edge11" class="edge">
<title>5&#45;&gt;4</title>
<path fill="none" stroke="grey" stroke-width="2" d="M361.03,-575.34C362.35,-568.75 363.88,-561.08 365.37,-553.67"/>
<polygon fill="grey" stroke="grey" stroke-width="2" points="368.8,-554.36 367.33,-543.87 361.93,-552.99 368.8,-554.36"/>
</g>
<!-- 6 -->
<g id="node7" class="node">
<title>6</title>
<path fill="none" stroke="#56c1d8" stroke-width="2" d="M256.5,-684C256.5,-684 174.5,-684 174.5,-684 168.5,-684 162.5,-678 162.5,-672 162.5,-672 162.5,-660 162.5,-660 162.5,-654 168.5,-648 174.5,-648 174.5,-648 256.5,-648 256.5,-648 262.5,-648 268.5,-654 268.5,-660 268.5,-660 268.5,-672 268.5,-672 268.5,-678 262.5,-684 256.5,-684"/>
<text text-anchor="middle" x="215.5" y="-663.5" font-family="sans" font-size="10.00">bowtie2_host_filter</text>
</g>
<!-- 6&#45;&gt;5 -->
<g id="edge12" class="edge">
<title>6&#45;&gt;5</title>
<path fill="none" stroke="grey" stroke-width="2" d="M251.7,-647.15C269.39,-638.43 290.91,-627.82 309.92,-618.46"/>
<polygon fill="grey" stroke="grey" stroke-width="2" points="311.23,-621.71 318.65,-614.15 308.13,-615.43 311.23,-621.71"/>
</g>
<!-- 19 -->
<g id="node20" class="node">
<title>19</title>
<path fill="none" stroke="#bed856" stroke-width="2" d="M259,-612C259,-612 148,-612 148,-612 142,-612 136,-606 136,-600 136,-600 136,-588 136,-588 136,-582 142,-576 148,-576 148,-576 259,-576 259,-576 265,-576 271,-582 271,-588 271,-588 271,-600 271,-600 271,-606 265,-612 259,-612"/>
<text text-anchor="middle" x="203.5" y="-591.5" font-family="sans" font-size="10.00">bowtie2_filtered_fastq_se</text>
</g>
<!-- 6&#45;&gt;19 -->
<g id="edge28" class="edge">
<title>6&#45;&gt;19</title>
<path fill="none" stroke="grey" stroke-width="2" d="M212.47,-647.34C211.34,-640.75 210.03,-633.08 208.76,-625.67"/>
<polygon fill="grey" stroke="grey" stroke-width="2" points="212.22,-625.15 207.08,-615.89 205.32,-626.33 212.22,-625.15"/>
</g>
<!-- 7 -->
<g id="node8" class="node">
<title>7</title>
<path fill="none" stroke="#56d86b" stroke-width="2" d="M269.5,-756C269.5,-756 161.5,-756 161.5,-756 155.5,-756 149.5,-750 149.5,-744 149.5,-744 149.5,-732 149.5,-732 149.5,-726 155.5,-720 161.5,-720 161.5,-720 269.5,-720 269.5,-720 275.5,-720 281.5,-726 281.5,-732 281.5,-732 281.5,-744 281.5,-744 281.5,-750 275.5,-756 269.5,-756"/>
<text text-anchor="middle" x="215.5" y="-735.5" font-family="sans" font-size="10.00">gdc_unmapped_fastq_pe</text>
</g>
<!-- 7&#45;&gt;6 -->
<g id="edge14" class="edge">
<title>7&#45;&gt;6</title>
<path fill="none" stroke="grey" stroke-width="2" d="M215.5,-719.34C215.5,-712.75 215.5,-705.08 215.5,-697.67"/>
<polygon fill="grey" stroke="grey" stroke-width="2" points="219,-697.93 215.5,-687.93 212,-697.93 219,-697.93"/>
</g>
<!-- 8 -->
<g id="node9" class="node">
<title>8</title>
<path fill="none" stroke="#ced856" stroke-width="2" d="M185,-828C185,-828 96,-828 96,-828 90,-828 84,-822 84,-816 84,-816 84,-804 84,-804 84,-798 90,-792 96,-792 96,-792 185,-792 185,-792 191,-792 197,-798 197,-804 197,-804 197,-816 197,-816 197,-822 191,-828 185,-828"/>
<text text-anchor="middle" x="140.5" y="-807.5" font-family="sans" font-size="10.00">gdc_unmapped_bam</text>
</g>
<!-- 8&#45;&gt;7 -->
<g id="edge16" class="edge">
<title>8&#45;&gt;7</title>
<path fill="none" stroke="grey" stroke-width="2" d="M159.43,-791.34C167.8,-783.52 177.83,-774.16 187.07,-765.53"/>
<polygon fill="grey" stroke="grey" stroke-width="2" points="189.18,-768.35 194.11,-758.97 184.41,-763.23 189.18,-768.35"/>
</g>
<!-- 20 -->
<g id="node21" class="node">
<title>20</title>
<path fill="none" stroke="#68d856" stroke-width="2" d="M119,-756C119,-756 12,-756 12,-756 6,-756 0,-750 0,-744 0,-744 0,-732 0,-732 0,-726 6,-720 12,-720 12,-720 119,-720 119,-720 125,-720 131,-726 131,-732 131,-732 131,-744 131,-744 131,-750 125,-756 119,-756"/>
<text text-anchor="middle" x="65.5" y="-735.5" font-family="sans" font-size="10.00">gdc_unmapped_fastq_se</text>
</g>
<!-- 8&#45;&gt;20 -->
<g id="edge29" class="edge">
<title>8&#45;&gt;20</title>
<path fill="none" stroke="grey" stroke-width="2" d="M121.57,-791.34C113.2,-783.52 103.17,-774.16 93.93,-765.53"/>
<polygon fill="grey" stroke="grey" stroke-width="2" points="96.59,-763.23 86.89,-758.97 91.82,-768.35 96.59,-763.23"/>
</g>
<!-- 9 -->
<g id="node10" class="node">
<title>9</title>
<path fill="none" stroke="#56d87b" stroke-width="2" d="M395.5,-756C395.5,-756 311.5,-756 311.5,-756 305.5,-756 299.5,-750 299.5,-744 299.5,-744 299.5,-732 299.5,-732 299.5,-726 305.5,-720 311.5,-720 311.5,-720 395.5,-720 395.5,-720 401.5,-720 407.5,-726 407.5,-732 407.5,-732 407.5,-744 407.5,-744 407.5,-750 401.5,-756 395.5,-756"/>
<text text-anchor="middle" x="353.5" y="-735.5" font-family="sans" font-size="10.00">bowtie2_host_index</text>
</g>
<!-- 9&#45;&gt;6 -->
<g id="edge15" class="edge">
<title>9&#45;&gt;6</title>
<path fill="none" stroke="grey" stroke-width="2" d="M318.32,-719.15C301.21,-710.47 280.41,-699.92 262,-690.59"/>
<polygon fill="grey" stroke="grey" stroke-width="2" points="263.82,-687.58 253.32,-686.18 260.65,-693.83 263.82,-687.58"/>
</g>
<!-- 10 -->
<g id="node11" class="node">
<title>10</title>
<path fill="none" stroke="#d86656" stroke-width="2" d="M395,-828C395,-828 312,-828 312,-828 306,-828 300,-822 300,-816 300,-816 300,-804 300,-804 300,-798 306,-792 312,-792 312,-792 395,-792 395,-792 401,-792 407,-798 407,-804 407,-804 407,-816 407,-816 407,-822 401,-828 395,-828"/>
<text text-anchor="middle" x="353.5" y="-807.5" font-family="sans" font-size="10.00">host_genome_fasta</text>
</g>
<!-- 10&#45;&gt;9 -->
<g id="edge17" class="edge">
<title>10&#45;&gt;9</title>
<path fill="none" stroke="grey" stroke-width="2" d="M353.5,-791.34C353.5,-784.75 353.5,-777.08 353.5,-769.67"/>
<polygon fill="grey" stroke="grey" stroke-width="2" points="357,-769.93 353.5,-759.93 350,-769.93 357,-769.93"/>
</g>
<!-- 11 -->
<g id="node12" class="node">
<title>11</title>
<path fill="none" stroke="#d87556" stroke-width="2" d="M530.5,-612C530.5,-612 456.5,-612 456.5,-612 450.5,-612 444.5,-606 444.5,-600 444.5,-600 444.5,-588 444.5,-588 444.5,-582 450.5,-576 456.5,-576 456.5,-576 530.5,-576 530.5,-576 536.5,-576 542.5,-582 542.5,-588 542.5,-588 542.5,-600 542.5,-600 542.5,-606 536.5,-612 530.5,-612"/>
<text text-anchor="middle" x="493.5" y="-591.5" font-family="sans" font-size="10.00">kraken2_db_build</text>
</g>
<!-- 11&#45;&gt;4 -->
<g id="edge10" class="edge">
<title>11&#45;&gt;4</title>
<path fill="none" stroke="grey" stroke-width="2" d="M462.4,-575.15C447.63,-566.68 429.75,-556.42 413.77,-547.25"/>
<polygon fill="grey" stroke="grey" stroke-width="2" points="415.59,-544.26 405.17,-542.32 412.1,-550.33 415.59,-544.26"/>
</g>
<!-- 14 -->
<g id="node15" class="node">
<title>14</title>
<path fill="none" stroke="#9fd856" stroke-width="2" d="M577.5,-396C577.5,-396 449.5,-396 449.5,-396 443.5,-396 437.5,-390 437.5,-384 437.5,-384 437.5,-372 437.5,-372 437.5,-366 443.5,-360 449.5,-360 449.5,-360 577.5,-360 577.5,-360 583.5,-360 589.5,-366 589.5,-372 589.5,-372 589.5,-384 589.5,-384 589.5,-390 583.5,-396 577.5,-396"/>
<text text-anchor="middle" x="513.5" y="-375.5" font-family="sans" font-size="10.00">kraken2_prot_read_classif_pe</text>
</g>
<!-- 11&#45;&gt;14 -->
<g id="edge21" class="edge">
<title>11&#45;&gt;14</title>
<path fill="none" stroke="grey" stroke-width="2" d="M495.17,-575.12C498.58,-538.62 506.39,-455.13 510.63,-409.74"/>
<polygon fill="grey" stroke="grey" stroke-width="2" points="514.09,-410.27 511.54,-399.99 507.12,-409.62 514.09,-410.27"/>
</g>
<!-- 17 -->
<g id="node18" class="node">
<title>17</title>
<path fill="none" stroke="#d85656" stroke-width="2" d="M640,-468C640,-468 567,-468 567,-468 561,-468 555,-462 555,-456 555,-456 555,-444 555,-444 555,-438 561,-432 567,-432 567,-432 640,-432 640,-432 646,-432 652,-438 652,-444 652,-444 652,-456 652,-456 652,-462 646,-468 640,-468"/>
<text text-anchor="middle" x="603.5" y="-447.5" font-family="sans" font-size="10.00">bracken_db_build</text>
</g>
<!-- 11&#45;&gt;17 -->
<g id="edge25" class="edge">
<title>11&#45;&gt;17</title>
<path fill="none" stroke="grey" stroke-width="2" d="M507.43,-575.02C526.19,-550.8 559.77,-507.45 581.84,-478.96"/>
<polygon fill="grey" stroke="grey" stroke-width="2" points="584.47,-481.28 587.83,-471.23 578.94,-476.99 584.47,-481.28"/>
</g>
<!-- 18 -->
<g id="node19" class="node">
<title>18</title>
<path fill="none" stroke="#d8ac56" stroke-width="2" d="M266,-540C266,-540 141,-540 141,-540 135,-540 129,-534 129,-528 129,-528 129,-516 129,-516 129,-510 135,-504 141,-504 141,-504 266,-504 266,-504 272,-504 278,-510 278,-516 278,-516 278,-528 278,-528 278,-534 272,-540 266,-540"/>
<text text-anchor="middle" x="203.5" y="-519.5" font-family="sans" font-size="10.00">kraken2_nucl_read_classif_se</text>
</g>
<!-- 11&#45;&gt;18 -->
<g id="edge26" class="edge">
<title>11&#45;&gt;18</title>
<path fill="none" stroke="grey" stroke-width="2" d="M443.66,-578.43C440.56,-577.59 437.49,-576.77 434.5,-576 387.46,-563.84 334.66,-551.62 291.43,-541.98"/>
<polygon fill="grey" stroke="grey" stroke-width="2" points="292.39,-538.61 281.87,-539.86 290.88,-545.44 292.39,-538.61"/>
</g>
<!-- 21 -->
<g id="node22" class="node">
<title>21</title>
<path fill="none" stroke="#d8d356" stroke-width="2" d="M407.5,-396C407.5,-396 281.5,-396 281.5,-396 275.5,-396 269.5,-390 269.5,-384 269.5,-384 269.5,-372 269.5,-372 269.5,-366 275.5,-360 281.5,-360 281.5,-360 407.5,-360 407.5,-360 413.5,-360 419.5,-366 419.5,-372 419.5,-372 419.5,-384 419.5,-384 419.5,-390 413.5,-396 407.5,-396"/>
<text text-anchor="middle" x="344.5" y="-375.5" font-family="sans" font-size="10.00">kraken2_prot_read_classif_se</text>
</g>
<!-- 11&#45;&gt;21 -->
<g id="edge30" class="edge">
<title>11&#45;&gt;21</title>
<path fill="none" stroke="grey" stroke-width="2" d="M491.42,-575.03C486.89,-542.98 473.45,-475.23 437.5,-432 427.75,-420.28 414.7,-410.63 401.47,-402.92"/>
<polygon fill="grey" stroke="grey" stroke-width="2" points="403.49,-400.04 393.04,-398.35 400.16,-406.19 403.49,-400.04"/>
</g>
<!-- 12 -->
<g id="node13" class="node">
<title>12</title>
<path fill="none" stroke="#568ad8" stroke-width="2" d="M407.5,-684C407.5,-684 309.5,-684 309.5,-684 303.5,-684 297.5,-678 297.5,-672 297.5,-672 297.5,-660 297.5,-660 297.5,-654 303.5,-648 309.5,-648 309.5,-648 407.5,-648 407.5,-648 413.5,-648 419.5,-654 419.5,-660 419.5,-660 419.5,-672 419.5,-672 419.5,-678 413.5,-684 407.5,-684"/>
<text text-anchor="middle" x="358.5" y="-663.5" font-family="sans" font-size="10.00">kraken2_db_taxonomy</text>
</g>
<!-- 12&#45;&gt;11 -->
<g id="edge20" class="edge">
<title>12&#45;&gt;11</title>
<path fill="none" stroke="grey" stroke-width="2" d="M392.92,-647.15C409.58,-638.52 429.81,-628.02 447.75,-618.72"/>
<polygon fill="grey" stroke="grey" stroke-width="2" points="449.19,-621.92 456.46,-614.21 445.97,-615.7 449.19,-621.92"/>
</g>
<!-- 13 -->
<g id="node14" class="node">
<title>13</title>
<path fill="none" stroke="#566bd8" stroke-width="2" d="M537,-684C537,-684 450,-684 450,-684 444,-684 438,-678 438,-672 438,-672 438,-660 438,-660 438,-654 444,-648 450,-648 450,-648 537,-648 537,-648 543,-648 549,-654 549,-660 549,-660 549,-672 549,-672 549,-678 543,-684 537,-684"/>
<text text-anchor="middle" x="493.5" y="-663.5" font-family="sans" font-size="10.00">kraken2_nucl_library</text>
</g>
<!-- 13&#45;&gt;11 -->
<g id="edge19" class="edge">
<title>13&#45;&gt;11</title>
<path fill="none" stroke="grey" stroke-width="2" d="M493.5,-647.34C493.5,-640.75 493.5,-633.08 493.5,-625.67"/>
<polygon fill="grey" stroke="grey" stroke-width="2" points="497,-625.93 493.5,-615.93 490,-625.93 497,-625.93"/>
</g>
<!-- 14&#45;&gt;3 -->
<g id="edge8" class="edge">
<title>14&#45;&gt;3</title>
<path fill="none" stroke="grey" stroke-width="2" d="M470.42,-359.15C448.95,-350.26 422.74,-339.41 399.8,-329.91"/>
<polygon fill="grey" stroke="grey" stroke-width="2" points="401.17,-326.69 390.59,-326.09 398.49,-333.15 401.17,-326.69"/>
</g>
<!-- 15&#45;&gt;14 -->
<g id="edge22" class="edge">
<title>15&#45;&gt;14</title>
<path fill="none" stroke="grey" stroke-width="2" d="M397.27,-431.15C416.9,-422.34 440.84,-411.61 461.87,-402.17"/>
<polygon fill="grey" stroke="grey" stroke-width="2" points="463.08,-405.46 470.77,-398.17 460.21,-399.07 463.08,-405.46"/>
</g>
<!-- 15&#45;&gt;21 -->
<g id="edge31" class="edge">
<title>15&#45;&gt;21</title>
<path fill="none" stroke="grey" stroke-width="2" d="M354.22,-431.34C353,-424.75 351.57,-417.08 350.2,-409.67"/>
<polygon fill="grey" stroke="grey" stroke-width="2" points="353.64,-409.07 348.38,-399.88 346.76,-410.35 353.64,-409.07"/>
</g>
<!-- 16 -->
<g id="node17" class="node">
<title>16</title>
<path fill="none" stroke="#d8bc56" stroke-width="2" d="M667.5,-684C667.5,-684 579.5,-684 579.5,-684 573.5,-684 567.5,-678 567.5,-672 567.5,-672 567.5,-660 567.5,-660 567.5,-654 573.5,-648 579.5,-648 579.5,-648 667.5,-648 667.5,-648 673.5,-648 679.5,-654 679.5,-660 679.5,-660 679.5,-672 679.5,-672 679.5,-678 673.5,-684 667.5,-684"/>
<text text-anchor="middle" x="623.5" y="-663.5" font-family="sans" font-size="10.00">kraken2_prot_library</text>
</g>
<!-- 16&#45;&gt;11 -->
<g id="edge18" class="edge">
<title>16&#45;&gt;11</title>
<path fill="none" stroke="grey" stroke-width="2" d="M590.36,-647.15C574.47,-638.6 555.2,-628.22 538.05,-618.99"/>
<polygon fill="grey" stroke="grey" stroke-width="2" points="539.71,-615.91 529.25,-614.25 536.39,-622.07 539.71,-615.91"/>
</g>
<!-- 17&#45;&gt;2 -->
<g id="edge5" class="edge">
<title>17&#45;&gt;2</title>
<path fill="none" stroke="grey" stroke-width="2" d="M605.98,-431.13C607.78,-412.55 608.41,-383.03 598.5,-360 580.93,-319.16 543.85,-283.53 515.92,-260.86"/>
<polygon fill="grey" stroke="grey" stroke-width="2" points="518.12,-258.14 508.1,-254.7 513.79,-263.64 518.12,-258.14"/>
</g>
<!-- 18&#45;&gt;3 -->
<g id="edge6" class="edge">
<title>18&#45;&gt;3</title>
<path fill="none" stroke="grey" stroke-width="2" d="M204.85,-503.09C208.1,-471.12 218.87,-403.51 253.5,-360 262.75,-348.38 275.28,-338.8 288.09,-331.14"/>
<polygon fill="grey" stroke="grey" stroke-width="2" points="289.66,-334.27 296.7,-326.36 286.26,-328.15 289.66,-334.27"/>
</g>
<!-- 18&#45;&gt;15 -->
<g id="edge23" class="edge">
<title>18&#45;&gt;15</title>
<path fill="none" stroke="grey" stroke-width="2" d="M242.76,-503.15C262.05,-494.38 285.55,-483.71 306.24,-474.3"/>
<polygon fill="grey" stroke="grey" stroke-width="2" points="307.63,-477.51 315.29,-470.19 304.74,-471.14 307.63,-477.51"/>
</g>
<!-- 19&#45;&gt;18 -->
<g id="edge27" class="edge">
<title>19&#45;&gt;18</title>
<path fill="none" stroke="grey" stroke-width="2" d="M203.5,-575.34C203.5,-568.75 203.5,-561.08 203.5,-553.67"/>
<polygon fill="grey" stroke="grey" stroke-width="2" points="207,-553.93 203.5,-543.93 200,-553.93 207,-553.93"/>
</g>
<!-- 20&#45;&gt;6 -->
<g id="edge13" class="edge">
<title>20&#45;&gt;6</title>
<path fill="none" stroke="grey" stroke-width="2" d="M103.74,-719.15C122.44,-710.43 145.2,-699.81 165.29,-690.43"/>
<polygon fill="grey" stroke="grey" stroke-width="2" points="166.75,-693.61 174.33,-686.21 163.78,-687.27 166.75,-693.61"/>
</g>
<!-- 21&#45;&gt;3 -->
<g id="edge9" class="edge">
<title>21&#45;&gt;3</title>
<path fill="none" stroke="grey" stroke-width="2" d="M344.5,-359.34C344.5,-352.75 344.5,-345.08 344.5,-337.67"/>
<polygon fill="grey" stroke="grey" stroke-width="2" points="348,-337.93 344.5,-327.93 341,-337.93 348,-337.93"/>
</g>
<!-- 22&#45;&gt;1 -->
<g id="edge3" class="edge">
<title>22&#45;&gt;1</title>
<path fill="none" stroke="grey" stroke-width="2" d="M517.88,-143.34C512.71,-136.1 506.59,-127.53 500.82,-119.45"/>
<polygon fill="grey" stroke="grey" stroke-width="2" points="503.71,-117.47 495.05,-111.37 498.01,-121.54 503.71,-117.47"/>
</g>
</g>
</svg>
