<?xml version="1.0" encoding="UTF-8" standalone="no"?>
<!DOCTYPE svg PUBLIC "-//W3C//DTD SVG 1.1//EN"
 "http://www.w3.org/Graphics/SVG/1.1/DTD/svg11.dtd">
<!-- Generated by graphviz version 7.1.0 (0)
 -->
<!-- Title: snakemake_dag Pages: 1 -->
<svg width="966pt" height="836pt"
 viewBox="0.00 0.00 966.00 836.00" xmlns="http://www.w3.org/2000/svg" xmlns:xlink="http://www.w3.org/1999/xlink">
<g id="graph0" class="graph" transform="scale(1 1) rotate(0) translate(4 832)">
<title>snakemake_dag</title>
<polygon fill="white" stroke="none" points="-4,4 -4,-832 962,-832 962,4 -4,4"/>
<!-- 0 -->
<g id="node1" class="node">
<title>0</title>
<path fill="none" stroke="#5692d8" stroke-width="2" d="M530,-36C530,-36 500,-36 500,-36 494,-36 488,-30 488,-24 488,-24 488,-12 488,-12 488,-6 494,0 500,0 500,0 530,0 530,0 536,0 542,-6 542,-12 542,-12 542,-24 542,-24 542,-30 536,-36 530,-36"/>
<text text-anchor="middle" x="515" y="-15.5" font-family="sans" font-size="10.00">all</text>
</g>
<!-- 1 -->
<g id="node2" class="node">
<title>1</title>
<path fill="none" stroke="#d6d856" stroke-width="2" d="M562.5,-108C562.5,-108 467.5,-108 467.5,-108 461.5,-108 455.5,-102 455.5,-96 455.5,-96 455.5,-84 455.5,-84 455.5,-78 461.5,-72 467.5,-72 467.5,-72 562.5,-72 562.5,-72 568.5,-72 574.5,-78 574.5,-84 574.5,-84 574.5,-96 574.5,-96 574.5,-102 568.5,-108 562.5,-108"/>
<text text-anchor="middle" x="515" y="-87.5" font-family="sans" font-size="10.00">bracken_count_matrix</text>
</g>
<!-- 1&#45;&gt;0 -->
<g id="edge1" class="edge">
<title>1&#45;&gt;0</title>
<path fill="none" stroke="grey" stroke-width="2" d="M515,-71.34C515,-64.75 515,-57.08 515,-49.67"/>
<polygon fill="grey" stroke="grey" stroke-width="2" points="518.5,-49.93 515,-39.93 511.5,-49.93 518.5,-49.93"/>
</g>
<!-- 2 -->
<g id="node3" class="node">
<title>2</title>
<path fill="none" stroke="#56c9d8" stroke-width="2" d="M558,-252C558,-252 472,-252 472,-252 466,-252 460,-246 460,-240 460,-240 460,-228 460,-228 460,-222 466,-216 472,-216 472,-216 558,-216 558,-216 564,-216 570,-222 570,-228 570,-228 570,-240 570,-240 570,-246 564,-252 558,-252"/>
<text text-anchor="middle" x="515" y="-231.5" font-family="sans" font-size="10.00">bracken_read_quant</text>
</g>
<!-- 2&#45;&gt;1 -->
<g id="edge2" class="edge">
<title>2&#45;&gt;1</title>
<path fill="none" stroke="grey" stroke-width="2" d="M501.53,-215.43C494.84,-205.59 487.46,-192.76 484,-180 479.82,-164.56 479.82,-159.44 484,-144 486.3,-135.53 490.32,-127.02 494.73,-119.38"/>
<polygon fill="grey" stroke="grey" stroke-width="2" points="497.56,-121.46 499.92,-111.13 491.63,-117.73 497.56,-121.46"/>
</g>
<!-- 28 -->
<g id="node29" class="node">
<title>28</title>
<path fill="none" stroke="#56d863" stroke-width="2" d="M625,-180C625,-180 505,-180 505,-180 499,-180 493,-174 493,-168 493,-168 493,-156 493,-156 493,-150 499,-144 505,-144 505,-144 625,-144 625,-144 631,-144 637,-150 637,-156 637,-156 637,-168 637,-168 637,-174 631,-180 625,-180"/>
<text text-anchor="middle" x="565" y="-159.5" font-family="sans" font-size="10.00">bracken_merged_rg_counts</text>
</g>
<!-- 2&#45;&gt;28 -->
<g id="edge42" class="edge">
<title>2&#45;&gt;28</title>
<path fill="none" stroke="grey" stroke-width="2" d="M527.62,-215.34C532.79,-208.1 538.91,-199.53 544.68,-191.45"/>
<polygon fill="grey" stroke="grey" stroke-width="2" points="547.49,-193.54 550.45,-183.37 541.79,-189.47 547.49,-193.54"/>
</g>
<!-- 3 -->
<g id="node4" class="node">
<title>3</title>
<path fill="none" stroke="#9fd856" stroke-width="2" d="M481.5,-324C481.5,-324 366.5,-324 366.5,-324 360.5,-324 354.5,-318 354.5,-312 354.5,-312 354.5,-300 354.5,-300 354.5,-294 360.5,-288 366.5,-288 366.5,-288 481.5,-288 481.5,-288 487.5,-288 493.5,-294 493.5,-300 493.5,-300 493.5,-312 493.5,-312 493.5,-318 487.5,-324 481.5,-324"/>
<text text-anchor="middle" x="424" y="-303.5" font-family="sans" font-size="10.00">kraken2_combined_report</text>
</g>
<!-- 3&#45;&gt;2 -->
<g id="edge5" class="edge">
<title>3&#45;&gt;2</title>
<path fill="none" stroke="grey" stroke-width="2" d="M446.96,-287.34C457.44,-279.27 470.06,-269.57 481.57,-260.72"/>
<polygon fill="grey" stroke="grey" stroke-width="2" points="483.54,-263.62 489.33,-254.75 479.27,-258.07 483.54,-263.62"/>
</g>
<!-- 4 -->
<g id="node5" class="node">
<title>4</title>
<path fill="none" stroke="#56d882" stroke-width="2" d="M553.5,-468C553.5,-468 426.5,-468 426.5,-468 420.5,-468 414.5,-462 414.5,-456 414.5,-456 414.5,-444 414.5,-444 414.5,-438 420.5,-432 426.5,-432 426.5,-432 553.5,-432 553.5,-432 559.5,-432 565.5,-438 565.5,-444 565.5,-444 565.5,-456 565.5,-456 565.5,-462 559.5,-468 553.5,-468"/>
<text text-anchor="middle" x="490" y="-447.5" font-family="sans" font-size="10.00">kraken2_nucl_read_classif_pe</text>
</g>
<!-- 4&#45;&gt;3 -->
<g id="edge8" class="edge">
<title>4&#45;&gt;3</title>
<path fill="none" stroke="grey" stroke-width="2" d="M469.94,-431.17C460.4,-421.64 449.66,-409.17 443,-396 433.85,-377.89 429.09,-355.54 426.63,-337.77"/>
<polygon fill="grey" stroke="grey" stroke-width="2" points="430.12,-337.48 425.49,-327.95 423.17,-338.29 430.12,-337.48"/>
</g>
<!-- 19 -->
<g id="node20" class="node">
<title>19</title>
<path fill="none" stroke="#70d856" stroke-width="2" d="M592,-396C592,-396 464,-396 464,-396 458,-396 452,-390 452,-384 452,-384 452,-372 452,-372 452,-366 458,-360 464,-360 464,-360 592,-360 592,-360 598,-360 604,-366 604,-372 604,-372 604,-384 604,-384 604,-390 598,-396 592,-396"/>
<text text-anchor="middle" x="528" y="-375.5" font-family="sans" font-size="10.00">kraken2_prot_read_classif_pe</text>
</g>
<!-- 4&#45;&gt;19 -->
<g id="edge29" class="edge">
<title>4&#45;&gt;19</title>
<path fill="none" stroke="grey" stroke-width="2" d="M499.59,-431.34C503.39,-424.34 507.85,-416.12 512.11,-408.28"/>
<polygon fill="grey" stroke="grey" stroke-width="2" points="515.14,-410.02 516.84,-399.56 508.99,-406.68 515.14,-410.02"/>
</g>
<!-- 5 -->
<g id="node6" class="node">
<title>5</title>
<path fill="none" stroke="#56a2d8" stroke-width="2" d="M424.5,-540C424.5,-540 311.5,-540 311.5,-540 305.5,-540 299.5,-534 299.5,-528 299.5,-528 299.5,-516 299.5,-516 299.5,-510 305.5,-504 311.5,-504 311.5,-504 424.5,-504 424.5,-504 430.5,-504 436.5,-510 436.5,-516 436.5,-516 436.5,-528 436.5,-528 436.5,-534 430.5,-540 424.5,-540"/>
<text text-anchor="middle" x="368" y="-519.5" font-family="sans" font-size="10.00">bowtie2_filtered_fastq_pe</text>
</g>
<!-- 5&#45;&gt;4 -->
<g id="edge12" class="edge">
<title>5&#45;&gt;4</title>
<path fill="none" stroke="grey" stroke-width="2" d="M399.1,-503.15C413.87,-494.68 431.75,-484.42 447.73,-475.25"/>
<polygon fill="grey" stroke="grey" stroke-width="2" points="449.4,-478.33 456.33,-470.32 445.91,-472.26 449.4,-478.33"/>
</g>
<!-- 23 -->
<g id="node24" class="node">
<title>23</title>
<path fill="none" stroke="#d85656" stroke-width="2" d="M178,-468C178,-468 42,-468 42,-468 36,-468 30,-462 30,-456 30,-456 30,-444 30,-444 30,-438 36,-432 42,-432 42,-432 178,-432 178,-432 184,-432 190,-438 190,-444 190,-444 190,-456 190,-456 190,-462 184,-468 178,-468"/>
<text text-anchor="middle" x="110" y="-447.5" font-family="sans" font-size="10.00">bbmap_read_length_histogram</text>
</g>
<!-- 5&#45;&gt;23 -->
<g id="edge34" class="edge">
<title>5&#45;&gt;23</title>
<path fill="none" stroke="grey" stroke-width="2" d="M301.89,-503.06C267.3,-493.68 224.72,-482.13 188.47,-472.29"/>
<polygon fill="grey" stroke="grey" stroke-width="2" points="189.42,-468.92 178.86,-469.68 187.59,-475.68 189.42,-468.92"/>
</g>
<!-- 6 -->
<g id="node7" class="node">
<title>6</title>
<path fill="none" stroke="#5663d8" stroke-width="2" d="M257,-612C257,-612 175,-612 175,-612 169,-612 163,-606 163,-600 163,-600 163,-588 163,-588 163,-582 169,-576 175,-576 175,-576 257,-576 257,-576 263,-576 269,-582 269,-588 269,-588 269,-600 269,-600 269,-606 263,-612 257,-612"/>
<text text-anchor="middle" x="216" y="-591.5" font-family="sans" font-size="10.00">bowtie2_host_filter</text>
</g>
<!-- 6&#45;&gt;5 -->
<g id="edge14" class="edge">
<title>6&#45;&gt;5</title>
<path fill="none" stroke="grey" stroke-width="2" d="M254.75,-575.15C273.79,-566.38 296.98,-555.71 317.4,-546.3"/>
<polygon fill="grey" stroke="grey" stroke-width="2" points="318.69,-549.56 326.31,-542.2 315.76,-543.2 318.69,-549.56"/>
</g>
<!-- 25 -->
<g id="node26" class="node">
<title>25</title>
<path fill="none" stroke="#56d8c9" stroke-width="2" d="M269.5,-540C269.5,-540 158.5,-540 158.5,-540 152.5,-540 146.5,-534 146.5,-528 146.5,-528 146.5,-516 146.5,-516 146.5,-510 152.5,-504 158.5,-504 158.5,-504 269.5,-504 269.5,-504 275.5,-504 281.5,-510 281.5,-516 281.5,-516 281.5,-528 281.5,-528 281.5,-534 275.5,-540 269.5,-540"/>
<text text-anchor="middle" x="214" y="-519.5" font-family="sans" font-size="10.00">bowtie2_filtered_fastq_se</text>
</g>
<!-- 6&#45;&gt;25 -->
<g id="edge38" class="edge">
<title>6&#45;&gt;25</title>
<path fill="none" stroke="grey" stroke-width="2" d="M215.5,-575.34C215.31,-568.75 215.09,-561.08 214.88,-553.67"/>
<polygon fill="grey" stroke="grey" stroke-width="2" points="218.38,-553.82 214.6,-543.93 211.39,-554.02 218.38,-553.82"/>
</g>
<!-- 7 -->
<g id="node8" class="node">
<title>7</title>
<path fill="none" stroke="#d87556" stroke-width="2" d="M120,-684C120,-684 12,-684 12,-684 6,-684 0,-678 0,-672 0,-672 0,-660 0,-660 0,-654 6,-648 12,-648 12,-648 120,-648 120,-648 126,-648 132,-654 132,-660 132,-660 132,-672 132,-672 132,-678 126,-684 120,-684"/>
<text text-anchor="middle" x="66" y="-663.5" font-family="sans" font-size="10.00">gdc_unmapped_fastq_pe</text>
</g>
<!-- 7&#45;&gt;6 -->
<g id="edge17" class="edge">
<title>7&#45;&gt;6</title>
<path fill="none" stroke="grey" stroke-width="2" d="M104.24,-647.15C122.94,-638.43 145.7,-627.81 165.79,-618.43"/>
<polygon fill="grey" stroke="grey" stroke-width="2" points="167.25,-621.61 174.83,-614.21 164.28,-615.27 167.25,-621.61"/>
</g>
<!-- 8 -->
<g id="node9" class="node">
<title>8</title>
<path fill="none" stroke="#d86656" stroke-width="2" d="M185.5,-756C185.5,-756 96.5,-756 96.5,-756 90.5,-756 84.5,-750 84.5,-744 84.5,-744 84.5,-732 84.5,-732 84.5,-726 90.5,-720 96.5,-720 96.5,-720 185.5,-720 185.5,-720 191.5,-720 197.5,-726 197.5,-732 197.5,-732 197.5,-744 197.5,-744 197.5,-750 191.5,-756 185.5,-756"/>
<text text-anchor="middle" x="141" y="-735.5" font-family="sans" font-size="10.00">gdc_unmapped_bam</text>
</g>
<!-- 8&#45;&gt;7 -->
<g id="edge18" class="edge">
<title>8&#45;&gt;7</title>
<path fill="none" stroke="grey" stroke-width="2" d="M122.07,-719.34C113.7,-711.52 103.67,-702.16 94.43,-693.53"/>
<polygon fill="grey" stroke="grey" stroke-width="2" points="97.09,-691.23 87.39,-686.97 92.32,-696.35 97.09,-691.23"/>
</g>
<!-- 26 -->
<g id="node27" class="node">
<title>26</title>
<path fill="none" stroke="#56d873" stroke-width="2" d="M269.5,-684C269.5,-684 162.5,-684 162.5,-684 156.5,-684 150.5,-678 150.5,-672 150.5,-672 150.5,-660 150.5,-660 150.5,-654 156.5,-648 162.5,-648 162.5,-648 269.5,-648 269.5,-648 275.5,-648 281.5,-654 281.5,-660 281.5,-660 281.5,-672 281.5,-672 281.5,-678 275.5,-684 269.5,-684"/>
<text text-anchor="middle" x="216" y="-663.5" font-family="sans" font-size="10.00">gdc_unmapped_fastq_se</text>
</g>
<!-- 8&#45;&gt;26 -->
<g id="edge39" class="edge">
<title>8&#45;&gt;26</title>
<path fill="none" stroke="grey" stroke-width="2" d="M159.93,-719.34C168.3,-711.52 178.33,-702.16 187.57,-693.53"/>
<polygon fill="grey" stroke="grey" stroke-width="2" points="189.68,-696.35 194.61,-686.97 184.91,-691.23 189.68,-696.35"/>
</g>
<!-- 9 -->
<g id="node10" class="node">
<title>9</title>
<path fill="none" stroke="#d8cb56" stroke-width="2" d="M396,-684C396,-684 312,-684 312,-684 306,-684 300,-678 300,-672 300,-672 300,-660 300,-660 300,-654 306,-648 312,-648 312,-648 396,-648 396,-648 402,-648 408,-654 408,-660 408,-660 408,-672 408,-672 408,-678 402,-684 396,-684"/>
<text text-anchor="middle" x="354" y="-663.5" font-family="sans" font-size="10.00">bowtie2_host_index</text>
</g>
<!-- 9&#45;&gt;6 -->
<g id="edge16" class="edge">
<title>9&#45;&gt;6</title>
<path fill="none" stroke="grey" stroke-width="2" d="M318.82,-647.15C301.71,-638.47 280.91,-627.92 262.5,-618.59"/>
<polygon fill="grey" stroke="grey" stroke-width="2" points="264.32,-615.58 253.82,-614.18 261.15,-621.83 264.32,-615.58"/>
</g>
<!-- 10 -->
<g id="node11" class="node">
<title>10</title>
<path fill="none" stroke="#5682d8" stroke-width="2" d="M395.5,-756C395.5,-756 312.5,-756 312.5,-756 306.5,-756 300.5,-750 300.5,-744 300.5,-744 300.5,-732 300.5,-732 300.5,-726 306.5,-720 312.5,-720 312.5,-720 395.5,-720 395.5,-720 401.5,-720 407.5,-726 407.5,-732 407.5,-732 407.5,-744 407.5,-744 407.5,-750 401.5,-756 395.5,-756"/>
<text text-anchor="middle" x="354" y="-735.5" font-family="sans" font-size="10.00">host_genome_fasta</text>
</g>
<!-- 10&#45;&gt;9 -->
<g id="edge19" class="edge">
<title>10&#45;&gt;9</title>
<path fill="none" stroke="grey" stroke-width="2" d="M354,-719.34C354,-712.75 354,-705.08 354,-697.67"/>
<polygon fill="grey" stroke="grey" stroke-width="2" points="357.5,-697.93 354,-687.93 350.5,-697.93 357.5,-697.93"/>
</g>
<!-- 11 -->
<g id="node12" class="node">
<title>11</title>
<path fill="none" stroke="#56d8d8" stroke-width="2" d="M565.5,-540C565.5,-540 518.5,-540 518.5,-540 512.5,-540 506.5,-534 506.5,-528 506.5,-528 506.5,-516 506.5,-516 506.5,-510 512.5,-504 518.5,-504 518.5,-504 565.5,-504 565.5,-504 571.5,-504 577.5,-510 577.5,-516 577.5,-516 577.5,-528 577.5,-528 577.5,-534 571.5,-540 565.5,-540"/>
<text text-anchor="middle" x="542" y="-519.5" font-family="sans" font-size="10.00">kraken2_db</text>
</g>
<!-- 11&#45;&gt;2 -->
<g id="edge6" class="edge">
<title>11&#45;&gt;2</title>
<path fill="none" stroke="grey" stroke-width="2" d="M575.61,-503.05C589.15,-494.2 603.73,-482.34 613,-468 639.35,-427.26 631.68,-408.45 629,-360 627.22,-327.85 639.42,-314.41 621,-288 611.43,-274.28 597.26,-263.93 582.36,-256.19"/>
<polygon fill="grey" stroke="grey" stroke-width="2" points="584.17,-253.18 573.63,-252.07 581.18,-259.51 584.17,-253.18"/>
</g>
<!-- 11&#45;&gt;4 -->
<g id="edge13" class="edge">
<title>11&#45;&gt;4</title>
<path fill="none" stroke="grey" stroke-width="2" d="M528.88,-503.34C523.44,-496.01 516.99,-487.34 510.93,-479.18"/>
<polygon fill="grey" stroke="grey" stroke-width="2" points="513.88,-477.27 505.1,-471.33 508.26,-481.45 513.88,-477.27"/>
</g>
<!-- 11&#45;&gt;19 -->
<g id="edge30" class="edge">
<title>11&#45;&gt;19</title>
<path fill="none" stroke="grey" stroke-width="2" d="M556.23,-503.02C563.05,-493.26 570.48,-480.63 574,-468 578.29,-452.59 579.6,-446.99 574,-432 570.5,-422.64 564.52,-413.83 558.01,-406.19"/>
<polygon fill="grey" stroke="grey" stroke-width="2" points="560.75,-403.99 551.37,-399.07 555.63,-408.77 560.75,-403.99"/>
</g>
<!-- 21 -->
<g id="node22" class="node">
<title>21</title>
<path fill="none" stroke="#c6d856" stroke-width="2" d="M600,-324C600,-324 554,-324 554,-324 548,-324 542,-318 542,-312 542,-312 542,-300 542,-300 542,-294 548,-288 554,-288 554,-288 600,-288 600,-288 606,-288 612,-294 612,-300 612,-300 612,-312 612,-312 612,-318 606,-324 600,-324"/>
<text text-anchor="middle" x="577" y="-303.5" font-family="sans" font-size="10.00">bracken_db</text>
</g>
<!-- 11&#45;&gt;21 -->
<g id="edge32" class="edge">
<title>11&#45;&gt;21</title>
<path fill="none" stroke="grey" stroke-width="2" d="M561.47,-503.43C571.19,-493.78 582.44,-481.12 590,-468 606.77,-438.89 607.83,-429.19 613,-396 615.46,-380.19 617.7,-375.29 613,-360 610.32,-351.29 605.67,-342.72 600.58,-335.1"/>
<polygon fill="grey" stroke="grey" stroke-width="2" points="603.49,-333.16 594.77,-327.15 597.84,-337.29 603.49,-333.16"/>
</g>
<!-- 24 -->
<g id="node25" class="node">
<title>24</title>
<path fill="none" stroke="#56d8a2" stroke-width="2" d="M345.5,-468C345.5,-468 220.5,-468 220.5,-468 214.5,-468 208.5,-462 208.5,-456 208.5,-456 208.5,-444 208.5,-444 208.5,-438 214.5,-432 220.5,-432 220.5,-432 345.5,-432 345.5,-432 351.5,-432 357.5,-438 357.5,-444 357.5,-444 357.5,-456 357.5,-456 357.5,-462 351.5,-468 345.5,-468"/>
<text text-anchor="middle" x="283" y="-447.5" font-family="sans" font-size="10.00">kraken2_nucl_read_classif_se</text>
</g>
<!-- 11&#45;&gt;24 -->
<g id="edge36" class="edge">
<title>11&#45;&gt;24</title>
<path fill="none" stroke="grey" stroke-width="2" d="M505.71,-511.19C468.65,-501.18 409.92,-485.3 362.08,-472.37"/>
<polygon fill="grey" stroke="grey" stroke-width="2" points="363.02,-469 352.45,-469.77 361.19,-475.76 363.02,-469"/>
</g>
<!-- 27 -->
<g id="node28" class="node">
<title>27</title>
<path fill="none" stroke="#afd856" stroke-width="2" d="M384,-396C384,-396 258,-396 258,-396 252,-396 246,-390 246,-384 246,-384 246,-372 246,-372 246,-366 252,-360 258,-360 258,-360 384,-360 384,-360 390,-360 396,-366 396,-372 396,-372 396,-384 396,-384 396,-390 390,-396 384,-396"/>
<text text-anchor="middle" x="321" y="-375.5" font-family="sans" font-size="10.00">kraken2_prot_read_classif_se</text>
</g>
<!-- 11&#45;&gt;27 -->
<g id="edge41" class="edge">
<title>11&#45;&gt;27</title>
<path fill="none" stroke="grey" stroke-width="2" d="M505.56,-511.73C476.67,-503.28 436.12,-488.91 405,-468 391.62,-459.01 364.58,-429.4 344.79,-406.78"/>
<polygon fill="grey" stroke="grey" stroke-width="2" points="347.46,-404.52 338.26,-399.26 342.17,-409.11 347.46,-404.52"/>
</g>
<!-- 12 -->
<g id="node13" class="node">
<title>12</title>
<path fill="none" stroke="#8fd856" stroke-width="2" d="M563,-684C563,-684 465,-684 465,-684 459,-684 453,-678 453,-672 453,-672 453,-660 453,-660 453,-654 459,-648 465,-648 465,-648 563,-648 563,-648 569,-648 575,-654 575,-660 575,-660 575,-672 575,-672 575,-678 569,-684 563,-684"/>
<text text-anchor="middle" x="514" y="-663.5" font-family="sans" font-size="10.00">kraken2_db_taxonomy</text>
</g>
<!-- 12&#45;&gt;11 -->
<g id="edge23" class="edge">
<title>12&#45;&gt;11</title>
<path fill="none" stroke="grey" stroke-width="2" d="M476.33,-647.21C462.61,-638.64 448.61,-626.93 441,-612 433.73,-597.75 432.72,-589.69 441,-576 452.58,-556.84 473.63,-544.27 493.52,-536.2"/>
<polygon fill="grey" stroke="grey" stroke-width="2" points="494.64,-539.52 502.82,-532.79 492.23,-532.95 494.64,-539.52"/>
</g>
<!-- 13 -->
<g id="node14" class="node">
<title>13</title>
<path fill="none" stroke="#56a9d8" stroke-width="2" d="M566,-612C566,-612 462,-612 462,-612 456,-612 450,-606 450,-600 450,-600 450,-588 450,-588 450,-582 456,-576 462,-576 462,-576 566,-576 566,-576 572,-576 578,-582 578,-588 578,-588 578,-600 578,-600 578,-606 572,-612 566,-612"/>
<text text-anchor="middle" x="514" y="-591.5" font-family="sans" font-size="10.00">kraken2_nucl_db_library</text>
</g>
<!-- 12&#45;&gt;13 -->
<g id="edge24" class="edge">
<title>12&#45;&gt;13</title>
<path fill="none" stroke="grey" stroke-width="2" d="M514,-647.34C514,-640.75 514,-633.08 514,-625.67"/>
<polygon fill="grey" stroke="grey" stroke-width="2" points="517.5,-625.93 514,-615.93 510.5,-625.93 517.5,-625.93"/>
</g>
<!-- 20 -->
<g id="node21" class="node">
<title>20</title>
<path fill="none" stroke="#d8bc56" stroke-width="2" d="M712,-612C712,-612 608,-612 608,-612 602,-612 596,-606 596,-600 596,-600 596,-588 596,-588 596,-582 602,-576 608,-576 608,-576 712,-576 712,-576 718,-576 724,-582 724,-588 724,-588 724,-600 724,-600 724,-606 718,-612 712,-612"/>
<text text-anchor="middle" x="660" y="-591.5" font-family="sans" font-size="10.00">kraken2_prot_db_library</text>
</g>
<!-- 12&#45;&gt;20 -->
<g id="edge31" class="edge">
<title>12&#45;&gt;20</title>
<path fill="none" stroke="grey" stroke-width="2" d="M551.22,-647.15C569.34,-638.47 591.37,-627.91 610.85,-618.56"/>
<polygon fill="grey" stroke="grey" stroke-width="2" points="612.36,-621.72 619.87,-614.24 609.33,-615.41 612.36,-621.72"/>
</g>
<!-- 13&#45;&gt;11 -->
<g id="edge20" class="edge">
<title>13&#45;&gt;11</title>
<path fill="none" stroke="grey" stroke-width="2" d="M521.07,-575.34C523.8,-568.51 527,-560.5 530.07,-552.83"/>
<polygon fill="grey" stroke="grey" stroke-width="2" points="533.25,-554.3 533.72,-543.71 526.75,-551.7 533.25,-554.3"/>
</g>
<!-- 14 -->
<g id="node15" class="node">
<title>14</title>
<path fill="none" stroke="#5673d8" stroke-width="2" d="M867.5,-612C867.5,-612 754.5,-612 754.5,-612 748.5,-612 742.5,-606 742.5,-600 742.5,-600 742.5,-588 742.5,-588 742.5,-582 748.5,-576 754.5,-576 754.5,-576 867.5,-576 867.5,-576 873.5,-576 879.5,-582 879.5,-588 879.5,-588 879.5,-600 879.5,-600 879.5,-606 873.5,-612 867.5,-612"/>
<text text-anchor="middle" x="811" y="-591.5" font-family="sans" font-size="10.00">kraken2_eupathdb_library</text>
</g>
<!-- 14&#45;&gt;11 -->
<g id="edge22" class="edge">
<title>14&#45;&gt;11</title>
<path fill="none" stroke="grey" stroke-width="2" d="M742.08,-575.06C694.67,-562.73 632.89,-546.65 590.59,-535.65"/>
<polygon fill="grey" stroke="grey" stroke-width="2" points="591.62,-532.3 581.06,-533.16 589.86,-539.07 591.62,-532.3"/>
</g>
<!-- 15 -->
<g id="node16" class="node">
<title>15</title>
<path fill="none" stroke="#80d856" stroke-width="2" d="M798,-684C798,-684 678,-684 678,-684 672,-684 666,-678 666,-672 666,-672 666,-660 666,-660 666,-654 672,-648 678,-648 678,-648 798,-648 798,-648 804,-648 810,-654 810,-660 810,-660 810,-672 810,-672 810,-678 804,-684 798,-684"/>
<text text-anchor="middle" x="738" y="-663.5" font-family="sans" font-size="10.00">eupathdb_seqid2taxid_map</text>
</g>
<!-- 15&#45;&gt;14 -->
<g id="edge26" class="edge">
<title>15&#45;&gt;14</title>
<path fill="none" stroke="grey" stroke-width="2" d="M756.42,-647.34C764.49,-639.6 774.13,-630.36 783.04,-621.81"/>
<polygon fill="grey" stroke="grey" stroke-width="2" points="785.35,-624.44 790.15,-615 780.51,-619.39 785.35,-624.44"/>
</g>
<!-- 16 -->
<g id="node17" class="node">
<title>16</title>
<path fill="none" stroke="#d88d56" stroke-width="2" d="M946,-684C946,-684 840,-684 840,-684 834,-684 828,-678 828,-672 828,-672 828,-660 828,-660 828,-654 834,-648 840,-648 840,-648 946,-648 946,-648 952,-648 958,-654 958,-660 958,-660 958,-672 958,-672 958,-678 952,-684 946,-684"/>
<text text-anchor="middle" x="893" y="-663.5" font-family="sans" font-size="10.00">eupathdb_merged_fasta</text>
</g>
<!-- 16&#45;&gt;14 -->
<g id="edge25" class="edge">
<title>16&#45;&gt;14</title>
<path fill="none" stroke="grey" stroke-width="2" d="M872.31,-647.34C863.06,-639.44 851.96,-629.96 841.76,-621.26"/>
<polygon fill="grey" stroke="grey" stroke-width="2" points="844.15,-618.7 834.27,-614.87 839.61,-624.02 844.15,-618.7"/>
</g>
<!-- 17 -->
<g id="node18" class="node">
<title>17</title>
<path fill="none" stroke="#d8ac56" stroke-width="2" d="M927.5,-756C927.5,-756 858.5,-756 858.5,-756 852.5,-756 846.5,-750 846.5,-744 846.5,-744 846.5,-732 846.5,-732 846.5,-726 852.5,-720 858.5,-720 858.5,-720 927.5,-720 927.5,-720 933.5,-720 939.5,-726 939.5,-732 939.5,-732 939.5,-744 939.5,-744 939.5,-750 933.5,-756 927.5,-756"/>
<text text-anchor="middle" x="893" y="-735.5" font-family="sans" font-size="10.00">eupathdb_fastas</text>
</g>
<!-- 17&#45;&gt;16 -->
<g id="edge27" class="edge">
<title>17&#45;&gt;16</title>
<path fill="none" stroke="grey" stroke-width="2" d="M893,-719.34C893,-712.75 893,-705.08 893,-697.67"/>
<polygon fill="grey" stroke="grey" stroke-width="2" points="896.5,-697.93 893,-687.93 889.5,-697.93 896.5,-697.93"/>
</g>
<!-- 18 -->
<g id="node19" class="node">
<title>18</title>
<path fill="none" stroke="#56d8b9" stroke-width="2" d="M944,-828C944,-828 842,-828 842,-828 836,-828 830,-822 830,-816 830,-816 830,-804 830,-804 830,-798 836,-792 842,-792 842,-792 944,-792 944,-792 950,-792 956,-798 956,-804 956,-804 956,-816 956,-816 956,-822 950,-828 944,-828"/>
<text text-anchor="middle" x="893" y="-807.5" font-family="sans" font-size="10.00">eupathdb_fasta_archive</text>
</g>
<!-- 18&#45;&gt;17 -->
<g id="edge28" class="edge">
<title>18&#45;&gt;17</title>
<path fill="none" stroke="grey" stroke-width="2" d="M893,-791.34C893,-784.75 893,-777.08 893,-769.67"/>
<polygon fill="grey" stroke="grey" stroke-width="2" points="896.5,-769.93 893,-759.93 889.5,-769.93 896.5,-769.93"/>
</g>
<!-- 19&#45;&gt;3 -->
<g id="edge11" class="edge">
<title>19&#45;&gt;3</title>
<path fill="none" stroke="grey" stroke-width="2" d="M501.49,-359.15C489.26,-350.93 474.54,-341.02 461.23,-332.06"/>
<polygon fill="grey" stroke="grey" stroke-width="2" points="463.23,-329.18 452.98,-326.5 459.32,-334.99 463.23,-329.18"/>
</g>
<!-- 20&#45;&gt;11 -->
<g id="edge21" class="edge">
<title>20&#45;&gt;11</title>
<path fill="none" stroke="grey" stroke-width="2" d="M629.92,-575.15C615.63,-566.68 598.34,-556.42 582.89,-547.25"/>
<polygon fill="grey" stroke="grey" stroke-width="2" points="585.02,-544.45 574.63,-542.36 581.45,-550.47 585.02,-544.45"/>
</g>
<!-- 21&#45;&gt;2 -->
<g id="edge7" class="edge">
<title>21&#45;&gt;2</title>
<path fill="none" stroke="grey" stroke-width="2" d="M561.35,-287.34C554.72,-279.85 546.84,-270.95 539.47,-262.63"/>
<polygon fill="grey" stroke="grey" stroke-width="2" points="542.11,-260.33 532.86,-255.17 536.87,-264.97 542.11,-260.33"/>
</g>
<!-- 22 -->
<g id="node23" class="node">
<title>22</title>
<path fill="none" stroke="#59d856" stroke-width="2" d="M279.5,-324C279.5,-324 170.5,-324 170.5,-324 164.5,-324 158.5,-318 158.5,-312 158.5,-312 158.5,-300 158.5,-300 158.5,-294 164.5,-288 170.5,-288 170.5,-288 279.5,-288 279.5,-288 285.5,-288 291.5,-294 291.5,-300 291.5,-300 291.5,-312 291.5,-312 291.5,-318 285.5,-324 279.5,-324"/>
<text text-anchor="middle" x="225" y="-303.5" font-family="sans" font-size="10.00">bbmap_max_read_length</text>
</g>
<!-- 22&#45;&gt;2 -->
<g id="edge4" class="edge">
<title>22&#45;&gt;2</title>
<path fill="none" stroke="grey" stroke-width="2" d="M292.26,-288.76C338.7,-277.55 400.25,-262.7 446.87,-251.44"/>
<polygon fill="grey" stroke="grey" stroke-width="2" points="447.46,-254.9 456.36,-249.16 445.81,-248.1 447.46,-254.9"/>
</g>
<!-- 23&#45;&gt;22 -->
<g id="edge33" class="edge">
<title>23&#45;&gt;22</title>
<path fill="none" stroke="grey" stroke-width="2" d="M124.56,-431.02C144.18,-406.8 179.28,-363.45 202.36,-334.96"/>
<polygon fill="grey" stroke="grey" stroke-width="2" points="205.07,-337.16 208.65,-327.19 199.63,-332.76 205.07,-337.16"/>
</g>
<!-- 24&#45;&gt;3 -->
<g id="edge10" class="edge">
<title>24&#45;&gt;3</title>
<path fill="none" stroke="grey" stroke-width="2" d="M262.43,-431.25C243.23,-412.51 219.9,-382.62 237,-360 250.13,-342.63 297.55,-329.3 341.35,-320.36"/>
<polygon fill="grey" stroke="grey" stroke-width="2" points="341.77,-323.84 350.91,-318.48 340.42,-316.97 341.77,-323.84"/>
</g>
<!-- 24&#45;&gt;27 -->
<g id="edge40" class="edge">
<title>24&#45;&gt;27</title>
<path fill="none" stroke="grey" stroke-width="2" d="M292.59,-431.34C296.39,-424.34 300.85,-416.12 305.11,-408.28"/>
<polygon fill="grey" stroke="grey" stroke-width="2" points="308.14,-410.02 309.84,-399.56 301.99,-406.68 308.14,-410.02"/>
</g>
<!-- 25&#45;&gt;23 -->
<g id="edge35" class="edge">
<title>25&#45;&gt;23</title>
<path fill="none" stroke="grey" stroke-width="2" d="M187.49,-503.15C175.26,-494.93 160.54,-485.02 147.23,-476.06"/>
<polygon fill="grey" stroke="grey" stroke-width="2" points="149.23,-473.18 138.98,-470.5 145.32,-478.99 149.23,-473.18"/>
</g>
<!-- 25&#45;&gt;24 -->
<g id="edge37" class="edge">
<title>25&#45;&gt;24</title>
<path fill="none" stroke="grey" stroke-width="2" d="M231.41,-503.34C238.95,-495.69 247.95,-486.56 256.31,-478.08"/>
<polygon fill="grey" stroke="grey" stroke-width="2" points="258.7,-480.64 263.23,-471.06 253.72,-475.72 258.7,-480.64"/>
</g>
<!-- 26&#45;&gt;6 -->
<g id="edge15" class="edge">
<title>26&#45;&gt;6</title>
<path fill="none" stroke="grey" stroke-width="2" d="M216,-647.34C216,-640.75 216,-633.08 216,-625.67"/>
<polygon fill="grey" stroke="grey" stroke-width="2" points="219.5,-625.93 216,-615.93 212.5,-625.93 219.5,-625.93"/>
</g>
<!-- 27&#45;&gt;3 -->
<g id="edge9" class="edge">
<title>27&#45;&gt;3</title>
<path fill="none" stroke="grey" stroke-width="2" d="M347.26,-359.15C359.36,-350.93 373.94,-341.02 387.13,-332.06"/>
<polygon fill="grey" stroke="grey" stroke-width="2" points="388.98,-335.03 395.29,-326.51 385.05,-329.24 388.98,-335.03"/>
</g>
<!-- 28&#45;&gt;1 -->
<g id="edge3" class="edge">
<title>28&#45;&gt;1</title>
<path fill="none" stroke="grey" stroke-width="2" d="M552.38,-143.34C547.21,-136.1 541.09,-127.53 535.32,-119.45"/>
<polygon fill="grey" stroke="grey" stroke-width="2" points="538.21,-117.47 529.55,-111.37 532.51,-121.54 538.21,-117.47"/>
</g>
</g>
</svg>
