<?xml version="1.0" encoding="UTF-8" standalone="no"?>
<!DOCTYPE svg PUBLIC "-//W3C//DTD SVG 1.1//EN"
 "http://www.w3.org/Graphics/SVG/1.1/DTD/svg11.dtd">
<!-- Generated by graphviz version 7.1.0 (0)
 -->
<!-- Title: snakemake_dag Pages: 1 -->
<svg width="1139pt" height="764pt"
 viewBox="0.00 0.00 1139.00 764.00" xmlns="http://www.w3.org/2000/svg" xmlns:xlink="http://www.w3.org/1999/xlink">
<g id="graph0" class="graph" transform="scale(1 1) rotate(0) translate(4 760)">
<title>snakemake_dag</title>
<polygon fill="white" stroke="none" points="-4,4 -4,-760 1135,-760 1135,4 -4,4"/>
<!-- 0 -->
<g id="node1" class="node">
<title>0</title>
<path fill="none" stroke="#d8d356" stroke-width="2" d="M527.5,-36C527.5,-36 497.5,-36 497.5,-36 491.5,-36 485.5,-30 485.5,-24 485.5,-24 485.5,-12 485.5,-12 485.5,-6 491.5,0 497.5,0 497.5,0 527.5,0 527.5,0 533.5,0 539.5,-6 539.5,-12 539.5,-12 539.5,-24 539.5,-24 539.5,-30 533.5,-36 527.5,-36"/>
<text text-anchor="middle" x="512.5" y="-15.5" font-family="sans" font-size="10.00">all</text>
</g>
<!-- 1 -->
<g id="node2" class="node">
<title>1</title>
<path fill="none" stroke="#56d8d0" stroke-width="2" d="M560,-108C560,-108 465,-108 465,-108 459,-108 453,-102 453,-96 453,-96 453,-84 453,-84 453,-78 459,-72 465,-72 465,-72 560,-72 560,-72 566,-72 572,-78 572,-84 572,-84 572,-96 572,-96 572,-102 566,-108 560,-108"/>
<text text-anchor="middle" x="512.5" y="-87.5" font-family="sans" font-size="10.00">bracken_count_matrix</text>
</g>
<!-- 1&#45;&gt;0 -->
<g id="edge1" class="edge">
<title>1&#45;&gt;0</title>
<path fill="none" stroke="grey" stroke-width="2" d="M512.5,-71.34C512.5,-64.75 512.5,-57.08 512.5,-49.67"/>
<polygon fill="grey" stroke="grey" stroke-width="2" points="516,-49.93 512.5,-39.93 509,-49.93 516,-49.93"/>
</g>
<!-- 2 -->
<g id="node3" class="node">
<title>2</title>
<path fill="none" stroke="#d87d56" stroke-width="2" d="M480.5,-180C480.5,-180 394.5,-180 394.5,-180 388.5,-180 382.5,-174 382.5,-168 382.5,-168 382.5,-156 382.5,-156 382.5,-150 388.5,-144 394.5,-144 394.5,-144 480.5,-144 480.5,-144 486.5,-144 492.5,-150 492.5,-156 492.5,-156 492.5,-168 492.5,-168 492.5,-174 486.5,-180 480.5,-180"/>
<text text-anchor="middle" x="437.5" y="-159.5" font-family="sans" font-size="10.00">bracken_read_quant</text>
</g>
<!-- 2&#45;&gt;1 -->
<g id="edge2" class="edge">
<title>2&#45;&gt;1</title>
<path fill="none" stroke="grey" stroke-width="2" d="M456.43,-143.34C464.8,-135.52 474.83,-126.16 484.07,-117.53"/>
<polygon fill="grey" stroke="grey" stroke-width="2" points="486.18,-120.35 491.11,-110.97 481.41,-115.23 486.18,-120.35"/>
</g>
<!-- 3 -->
<g id="node4" class="node">
<title>3</title>
<path fill="none" stroke="#a7d856" stroke-width="2" d="M676,-252C676,-252 561,-252 561,-252 555,-252 549,-246 549,-240 549,-240 549,-228 549,-228 549,-222 555,-216 561,-216 561,-216 676,-216 676,-216 682,-216 688,-222 688,-228 688,-228 688,-240 688,-240 688,-246 682,-252 676,-252"/>
<text text-anchor="middle" x="618.5" y="-231.5" font-family="sans" font-size="10.00">kraken2_combined_report</text>
</g>
<!-- 3&#45;&gt;2 -->
<g id="edge6" class="edge">
<title>3&#45;&gt;2</title>
<path fill="none" stroke="grey" stroke-width="2" d="M572.36,-215.15C549.05,-206.14 520.52,-195.11 495.71,-185.51"/>
<polygon fill="grey" stroke="grey" stroke-width="2" points="497.28,-182.37 486.7,-182.03 494.76,-188.9 497.28,-182.37"/>
</g>
<!-- 4 -->
<g id="node5" class="node">
<title>4</title>
<path fill="none" stroke="#59d856" stroke-width="2" d="M885,-396C885,-396 758,-396 758,-396 752,-396 746,-390 746,-384 746,-384 746,-372 746,-372 746,-366 752,-360 758,-360 758,-360 885,-360 885,-360 891,-360 897,-366 897,-372 897,-372 897,-384 897,-384 897,-390 891,-396 885,-396"/>
<text text-anchor="middle" x="821.5" y="-375.5" font-family="sans" font-size="10.00">kraken2_nucl_read_classif_pe</text>
</g>
<!-- 4&#45;&gt;3 -->
<g id="edge9" class="edge">
<title>4&#45;&gt;3</title>
<path fill="none" stroke="grey" stroke-width="2" d="M823.89,-359.29C825.53,-339.45 824.86,-307.52 807.5,-288 780.95,-258.14 739.08,-244.51 701.48,-238.51"/>
<polygon fill="grey" stroke="grey" stroke-width="2" points="702.31,-235.1 691.93,-237.18 701.35,-242.03 702.31,-235.1"/>
</g>
<!-- 18 -->
<g id="node19" class="node">
<title>18</title>
<path fill="none" stroke="#70d856" stroke-width="2" d="M786.5,-324C786.5,-324 658.5,-324 658.5,-324 652.5,-324 646.5,-318 646.5,-312 646.5,-312 646.5,-300 646.5,-300 646.5,-294 652.5,-288 658.5,-288 658.5,-288 786.5,-288 786.5,-288 792.5,-288 798.5,-294 798.5,-300 798.5,-300 798.5,-312 798.5,-312 798.5,-318 792.5,-324 786.5,-324"/>
<text text-anchor="middle" x="722.5" y="-303.5" font-family="sans" font-size="10.00">kraken2_prot_read_classif_pe</text>
</g>
<!-- 4&#45;&gt;18 -->
<g id="edge28" class="edge">
<title>4&#45;&gt;18</title>
<path fill="none" stroke="grey" stroke-width="2" d="M796.26,-359.15C784.74,-351.01 770.89,-341.22 758.32,-332.33"/>
<polygon fill="grey" stroke="grey" stroke-width="2" points="760.35,-329.48 750.16,-326.56 756.31,-335.19 760.35,-329.48"/>
</g>
<!-- 5 -->
<g id="node6" class="node">
<title>5</title>
<path fill="none" stroke="#d87556" stroke-width="2" d="M900,-468C900,-468 805,-468 805,-468 799,-468 793,-462 793,-456 793,-456 793,-444 793,-444 793,-438 799,-432 805,-432 805,-432 900,-432 900,-432 906,-432 912,-438 912,-444 912,-444 912,-456 912,-456 912,-462 906,-468 900,-468"/>
<text text-anchor="middle" x="852.5" y="-447.5" font-family="sans" font-size="10.00">host_filtered_fastq_pe</text>
</g>
<!-- 5&#45;&gt;4 -->
<g id="edge12" class="edge">
<title>5&#45;&gt;4</title>
<path fill="none" stroke="grey" stroke-width="2" d="M844.68,-431.34C841.62,-424.43 838.02,-416.31 834.59,-408.56"/>
<polygon fill="grey" stroke="grey" stroke-width="2" points="837.9,-407.4 830.65,-399.67 831.5,-410.23 837.9,-407.4"/>
</g>
<!-- 6 -->
<g id="node7" class="node">
<title>6</title>
<path fill="none" stroke="#56d89a" stroke-width="2" d="M1119,-540C1119,-540 996,-540 996,-540 990,-540 984,-534 984,-528 984,-528 984,-516 984,-516 984,-510 990,-504 996,-504 996,-504 1119,-504 1119,-504 1125,-504 1131,-510 1131,-516 1131,-516 1131,-528 1131,-528 1131,-534 1125,-540 1119,-540"/>
<text text-anchor="middle" x="1057.5" y="-519.5" font-family="sans" font-size="10.00">gdc_sg_unmapped_fastq_pe</text>
</g>
<!-- 6&#45;&gt;5 -->
<g id="edge13" class="edge">
<title>6&#45;&gt;5</title>
<path fill="none" stroke="grey" stroke-width="2" d="M1004.97,-503.06C978.21,-493.93 945.43,-482.73 917.13,-473.07"/>
<polygon fill="grey" stroke="grey" stroke-width="2" points="918.35,-469.79 907.75,-469.87 916.09,-476.41 918.35,-469.79"/>
</g>
<!-- 7 -->
<g id="node8" class="node">
<title>7</title>
<path fill="none" stroke="#5663d8" stroke-width="2" d="M1019,-612C1019,-612 930,-612 930,-612 924,-612 918,-606 918,-600 918,-600 918,-588 918,-588 918,-582 924,-576 930,-576 930,-576 1019,-576 1019,-576 1025,-576 1031,-582 1031,-588 1031,-588 1031,-600 1031,-600 1031,-606 1025,-612 1019,-612"/>
<text text-anchor="middle" x="974.5" y="-591.5" font-family="sans" font-size="10.00">gdc_unmapped_bam</text>
</g>
<!-- 7&#45;&gt;6 -->
<g id="edge15" class="edge">
<title>7&#45;&gt;6</title>
<path fill="none" stroke="grey" stroke-width="2" d="M995.44,-575.34C1004.81,-567.44 1016.04,-557.96 1026.36,-549.26"/>
<polygon fill="grey" stroke="grey" stroke-width="2" points="1028.57,-551.98 1033.96,-542.85 1024.06,-546.62 1028.57,-551.98"/>
</g>
<!-- 24 -->
<g id="node25" class="node">
<title>24</title>
<path fill="none" stroke="#d8c356" stroke-width="2" d="M953.5,-540C953.5,-540 831.5,-540 831.5,-540 825.5,-540 819.5,-534 819.5,-528 819.5,-528 819.5,-516 819.5,-516 819.5,-510 825.5,-504 831.5,-504 831.5,-504 953.5,-504 953.5,-504 959.5,-504 965.5,-510 965.5,-516 965.5,-516 965.5,-528 965.5,-528 965.5,-534 959.5,-540 953.5,-540"/>
<text text-anchor="middle" x="892.5" y="-519.5" font-family="sans" font-size="10.00">gdc_sg_unmapped_fastq_se</text>
</g>
<!-- 7&#45;&gt;24 -->
<g id="edge36" class="edge">
<title>7&#45;&gt;24</title>
<path fill="none" stroke="grey" stroke-width="2" d="M953.81,-575.34C944.56,-567.44 933.46,-557.96 923.26,-549.26"/>
<polygon fill="grey" stroke="grey" stroke-width="2" points="925.65,-546.7 915.77,-542.87 921.11,-552.02 925.65,-546.7"/>
</g>
<!-- 8 -->
<g id="node9" class="node">
<title>8</title>
<path fill="none" stroke="#568ad8" stroke-width="2" d="M789.5,-540C789.5,-540 703.5,-540 703.5,-540 697.5,-540 691.5,-534 691.5,-528 691.5,-528 691.5,-516 691.5,-516 691.5,-510 697.5,-504 703.5,-504 703.5,-504 789.5,-504 789.5,-504 795.5,-504 801.5,-510 801.5,-516 801.5,-516 801.5,-528 801.5,-528 801.5,-534 795.5,-540 789.5,-540"/>
<text text-anchor="middle" x="746.5" y="-519.5" font-family="sans" font-size="10.00">host_genome_index</text>
</g>
<!-- 8&#45;&gt;5 -->
<g id="edge14" class="edge">
<title>8&#45;&gt;5</title>
<path fill="none" stroke="grey" stroke-width="2" d="M773.52,-503.15C786.11,-494.84 801.29,-484.82 814.96,-475.79"/>
<polygon fill="grey" stroke="grey" stroke-width="2" points="816.58,-478.91 823,-470.48 812.73,-473.07 816.58,-478.91"/>
</g>
<!-- 23 -->
<g id="node24" class="node">
<title>23</title>
<path fill="none" stroke="#8fd856" stroke-width="2" d="M762.5,-468C762.5,-468 668.5,-468 668.5,-468 662.5,-468 656.5,-462 656.5,-456 656.5,-456 656.5,-444 656.5,-444 656.5,-438 662.5,-432 668.5,-432 668.5,-432 762.5,-432 762.5,-432 768.5,-432 774.5,-438 774.5,-444 774.5,-444 774.5,-456 774.5,-456 774.5,-462 768.5,-468 762.5,-468"/>
<text text-anchor="middle" x="715.5" y="-447.5" font-family="sans" font-size="10.00">host_filtered_fastq_se</text>
</g>
<!-- 8&#45;&gt;23 -->
<g id="edge35" class="edge">
<title>8&#45;&gt;23</title>
<path fill="none" stroke="grey" stroke-width="2" d="M738.68,-503.34C735.62,-496.43 732.02,-488.31 728.59,-480.56"/>
<polygon fill="grey" stroke="grey" stroke-width="2" points="731.9,-479.4 724.65,-471.67 725.5,-482.23 731.9,-479.4"/>
</g>
<!-- 9 -->
<g id="node10" class="node">
<title>9</title>
<path fill="none" stroke="#56d873" stroke-width="2" d="M788,-612C788,-612 705,-612 705,-612 699,-612 693,-606 693,-600 693,-600 693,-588 693,-588 693,-582 699,-576 705,-576 705,-576 788,-576 788,-576 794,-576 800,-582 800,-588 800,-588 800,-600 800,-600 800,-606 794,-612 788,-612"/>
<text text-anchor="middle" x="746.5" y="-591.5" font-family="sans" font-size="10.00">host_genome_fasta</text>
</g>
<!-- 9&#45;&gt;8 -->
<g id="edge16" class="edge">
<title>9&#45;&gt;8</title>
<path fill="none" stroke="grey" stroke-width="2" d="M746.5,-575.34C746.5,-568.75 746.5,-561.08 746.5,-553.67"/>
<polygon fill="grey" stroke="grey" stroke-width="2" points="750,-553.93 746.5,-543.93 743,-553.93 750,-553.93"/>
</g>
<!-- 10 -->
<g id="node11" class="node">
<title>10</title>
<path fill="none" stroke="#56d8a9" stroke-width="2" d="M487,-468C487,-468 440,-468 440,-468 434,-468 428,-462 428,-456 428,-456 428,-444 428,-444 428,-438 434,-432 440,-432 440,-432 487,-432 487,-432 493,-432 499,-438 499,-444 499,-444 499,-456 499,-456 499,-462 493,-468 487,-468"/>
<text text-anchor="middle" x="463.5" y="-447.5" font-family="sans" font-size="10.00">kraken2_db</text>
</g>
<!-- 10&#45;&gt;2 -->
<g id="edge5" class="edge">
<title>10&#45;&gt;2</title>
<path fill="none" stroke="grey" stroke-width="2" d="M452.54,-431.34C446.62,-421.26 439.51,-408.23 434.5,-396 409.26,-334.43 402.7,-317.9 393.5,-252 391.29,-236.15 388.07,-231.05 393.5,-216 396.85,-206.72 402.61,-197.92 408.88,-190.25"/>
<polygon fill="grey" stroke="grey" stroke-width="2" points="411.48,-192.59 415.55,-182.81 406.27,-187.92 411.48,-192.59"/>
</g>
<!-- 10&#45;&gt;4 -->
<g id="edge11" class="edge">
<title>10&#45;&gt;4</title>
<path fill="none" stroke="grey" stroke-width="2" d="M499.8,-441.9C553.91,-431.32 657.38,-411.09 732.4,-396.42"/>
<polygon fill="grey" stroke="grey" stroke-width="2" points="733.01,-399.87 742.15,-394.52 731.67,-393 733.01,-399.87"/>
</g>
<!-- 10&#45;&gt;18 -->
<g id="edge27" class="edge">
<title>10&#45;&gt;18</title>
<path fill="none" stroke="grey" stroke-width="2" d="M499.72,-444.39C555.2,-436.68 657.75,-419.64 685.5,-396 702.89,-381.19 712.25,-356.87 717.21,-337.39"/>
<polygon fill="grey" stroke="grey" stroke-width="2" points="720.58,-338.33 719.32,-327.81 713.75,-336.82 720.58,-338.33"/>
</g>
<!-- 21 -->
<g id="node22" class="node">
<title>21</title>
<path fill="none" stroke="#d8b456" stroke-width="2" d="M460.5,-252C460.5,-252 414.5,-252 414.5,-252 408.5,-252 402.5,-246 402.5,-240 402.5,-240 402.5,-228 402.5,-228 402.5,-222 408.5,-216 414.5,-216 414.5,-216 460.5,-216 460.5,-216 466.5,-216 472.5,-222 472.5,-228 472.5,-228 472.5,-240 472.5,-240 472.5,-246 466.5,-252 460.5,-252"/>
<text text-anchor="middle" x="437.5" y="-231.5" font-family="sans" font-size="10.00">bracken_db</text>
</g>
<!-- 10&#45;&gt;21 -->
<g id="edge31" class="edge">
<title>10&#45;&gt;21</title>
<path fill="none" stroke="grey" stroke-width="2" d="M457.39,-431.06C449.55,-407.03 436.4,-362.89 431.5,-324 429.5,-308.13 430.6,-303.97 431.5,-288 431.91,-280.7 432.64,-272.85 433.45,-265.5"/>
<polygon fill="grey" stroke="grey" stroke-width="2" points="436.92,-265.98 434.64,-255.63 429.97,-265.14 436.92,-265.98"/>
</g>
<!-- 22 -->
<g id="node23" class="node">
<title>22</title>
<path fill="none" stroke="#d89c56" stroke-width="2" d="M664,-396C664,-396 539,-396 539,-396 533,-396 527,-390 527,-384 527,-384 527,-372 527,-372 527,-366 533,-360 539,-360 539,-360 664,-360 664,-360 670,-360 676,-366 676,-372 676,-372 676,-384 676,-384 676,-390 670,-396 664,-396"/>
<text text-anchor="middle" x="601.5" y="-375.5" font-family="sans" font-size="10.00">kraken2_nucl_read_classif_se</text>
</g>
<!-- 10&#45;&gt;22 -->
<g id="edge32" class="edge">
<title>10&#45;&gt;22</title>
<path fill="none" stroke="grey" stroke-width="2" d="M498.68,-431.15C515.79,-422.47 536.59,-411.92 555,-402.59"/>
<polygon fill="grey" stroke="grey" stroke-width="2" points="556.35,-405.83 563.68,-398.18 553.18,-399.58 556.35,-405.83"/>
</g>
<!-- 25 -->
<g id="node26" class="node">
<title>25</title>
<path fill="none" stroke="#5682d8" stroke-width="2" d="M578.5,-324C578.5,-324 452.5,-324 452.5,-324 446.5,-324 440.5,-318 440.5,-312 440.5,-312 440.5,-300 440.5,-300 440.5,-294 446.5,-288 452.5,-288 452.5,-288 578.5,-288 578.5,-288 584.5,-288 590.5,-294 590.5,-300 590.5,-300 590.5,-312 590.5,-312 590.5,-318 584.5,-324 578.5,-324"/>
<text text-anchor="middle" x="515.5" y="-303.5" font-family="sans" font-size="10.00">kraken2_prot_read_classif_se</text>
</g>
<!-- 10&#45;&gt;25 -->
<g id="edge38" class="edge">
<title>10&#45;&gt;25</title>
<path fill="none" stroke="grey" stroke-width="2" d="M470.09,-431.02C478.76,-407.33 494.13,-365.35 504.56,-336.86"/>
<polygon fill="grey" stroke="grey" stroke-width="2" points="507.77,-338.27 507.93,-327.68 501.2,-335.87 507.77,-338.27"/>
</g>
<!-- 11 -->
<g id="node12" class="node">
<title>11</title>
<path fill="none" stroke="#b6d856" stroke-width="2" d="M512.5,-612C512.5,-612 414.5,-612 414.5,-612 408.5,-612 402.5,-606 402.5,-600 402.5,-600 402.5,-588 402.5,-588 402.5,-582 408.5,-576 414.5,-576 414.5,-576 512.5,-576 512.5,-576 518.5,-576 524.5,-582 524.5,-588 524.5,-588 524.5,-600 524.5,-600 524.5,-606 518.5,-612 512.5,-612"/>
<text text-anchor="middle" x="463.5" y="-591.5" font-family="sans" font-size="10.00">kraken2_db_taxonomy</text>
</g>
<!-- 11&#45;&gt;10 -->
<g id="edge17" class="edge">
<title>11&#45;&gt;10</title>
<path fill="none" stroke="grey" stroke-width="2" d="M425.83,-575.21C412.11,-566.64 398.11,-554.93 390.5,-540 383.23,-525.75 383.23,-518.25 390.5,-504 396.42,-492.38 406.21,-482.72 416.73,-474.96"/>
<polygon fill="grey" stroke="grey" stroke-width="2" points="418.49,-477.99 424.85,-469.52 414.6,-472.18 418.49,-477.99"/>
</g>
<!-- 12 -->
<g id="node13" class="node">
<title>12</title>
<path fill="none" stroke="#d86656" stroke-width="2" d="M515.5,-540C515.5,-540 411.5,-540 411.5,-540 405.5,-540 399.5,-534 399.5,-528 399.5,-528 399.5,-516 399.5,-516 399.5,-510 405.5,-504 411.5,-504 411.5,-504 515.5,-504 515.5,-504 521.5,-504 527.5,-510 527.5,-516 527.5,-516 527.5,-528 527.5,-528 527.5,-534 521.5,-540 515.5,-540"/>
<text text-anchor="middle" x="463.5" y="-519.5" font-family="sans" font-size="10.00">kraken2_nucl_db_library</text>
</g>
<!-- 11&#45;&gt;12 -->
<g id="edge22" class="edge">
<title>11&#45;&gt;12</title>
<path fill="none" stroke="grey" stroke-width="2" d="M463.5,-575.34C463.5,-568.75 463.5,-561.08 463.5,-553.67"/>
<polygon fill="grey" stroke="grey" stroke-width="2" points="467,-553.93 463.5,-543.93 460,-553.93 467,-553.93"/>
</g>
<!-- 19 -->
<g id="node20" class="node">
<title>19</title>
<path fill="none" stroke="#d85656" stroke-width="2" d="M661.5,-540C661.5,-540 557.5,-540 557.5,-540 551.5,-540 545.5,-534 545.5,-528 545.5,-528 545.5,-516 545.5,-516 545.5,-510 551.5,-504 557.5,-504 557.5,-504 661.5,-504 661.5,-504 667.5,-504 673.5,-510 673.5,-516 673.5,-516 673.5,-528 673.5,-528 673.5,-534 667.5,-540 661.5,-540"/>
<text text-anchor="middle" x="609.5" y="-519.5" font-family="sans" font-size="10.00">kraken2_prot_db_library</text>
</g>
<!-- 11&#45;&gt;19 -->
<g id="edge29" class="edge">
<title>11&#45;&gt;19</title>
<path fill="none" stroke="grey" stroke-width="2" d="M500.72,-575.15C518.84,-566.47 540.87,-555.91 560.35,-546.56"/>
<polygon fill="grey" stroke="grey" stroke-width="2" points="561.86,-549.72 569.37,-542.24 558.83,-543.41 561.86,-549.72"/>
</g>
<!-- 12&#45;&gt;10 -->
<g id="edge18" class="edge">
<title>12&#45;&gt;10</title>
<path fill="none" stroke="grey" stroke-width="2" d="M463.5,-503.34C463.5,-496.75 463.5,-489.08 463.5,-481.67"/>
<polygon fill="grey" stroke="grey" stroke-width="2" points="467,-481.93 463.5,-471.93 460,-481.93 467,-481.93"/>
</g>
<!-- 13 -->
<g id="node14" class="node">
<title>13</title>
<path fill="none" stroke="#61d856" stroke-width="2" d="M152,-540C152,-540 15,-540 15,-540 9,-540 3,-534 3,-528 3,-528 3,-516 3,-516 3,-510 9,-504 15,-504 15,-504 152,-504 152,-504 158,-504 164,-510 164,-516 164,-516 164,-528 164,-528 164,-534 158,-540 152,-540"/>
<text text-anchor="middle" x="83.5" y="-519.5" font-family="sans" font-size="10.00">kraken2_eupathdb_nucl_library</text>
</g>
<!-- 13&#45;&gt;10 -->
<g id="edge21" class="edge">
<title>13&#45;&gt;10</title>
<path fill="none" stroke="grey" stroke-width="2" d="M164.98,-505.41C167.51,-504.93 170.03,-504.46 172.5,-504 257.5,-488.14 356.58,-470.22 414.44,-459.8"/>
<polygon fill="grey" stroke="grey" stroke-width="2" points="414.99,-463.26 424.21,-458.05 413.75,-456.37 414.99,-463.26"/>
</g>
<!-- 14 -->
<g id="node15" class="node">
<title>14</title>
<path fill="none" stroke="#56d8b9" stroke-width="2" d="M155,-612C155,-612 12,-612 12,-612 6,-612 0,-606 0,-600 0,-600 0,-588 0,-588 0,-582 6,-576 12,-576 12,-576 155,-576 155,-576 161,-576 167,-582 167,-588 167,-588 167,-600 167,-600 167,-606 161,-612 155,-612"/>
<text text-anchor="middle" x="83.5" y="-591.5" font-family="sans" font-size="10.00">eupathdb_nucl_seqid2taxid_map</text>
</g>
<!-- 14&#45;&gt;13 -->
<g id="edge23" class="edge">
<title>14&#45;&gt;13</title>
<path fill="none" stroke="grey" stroke-width="2" d="M83.5,-575.34C83.5,-568.75 83.5,-561.08 83.5,-553.67"/>
<polygon fill="grey" stroke="grey" stroke-width="2" points="87,-553.93 83.5,-543.93 80,-553.93 87,-553.93"/>
</g>
<!-- 15 -->
<g id="node16" class="node">
<title>15</title>
<path fill="none" stroke="#56d863" stroke-width="2" d="M309.5,-612C309.5,-612 203.5,-612 203.5,-612 197.5,-612 191.5,-606 191.5,-600 191.5,-600 191.5,-588 191.5,-588 191.5,-582 197.5,-576 203.5,-576 203.5,-576 309.5,-576 309.5,-576 315.5,-576 321.5,-582 321.5,-588 321.5,-588 321.5,-600 321.5,-600 321.5,-606 315.5,-612 309.5,-612"/>
<text text-anchor="middle" x="256.5" y="-591.5" font-family="sans" font-size="10.00">eupathdb_merged_fasta</text>
</g>
<!-- 15&#45;&gt;13 -->
<g id="edge24" class="edge">
<title>15&#45;&gt;13</title>
<path fill="none" stroke="grey" stroke-width="2" d="M212.4,-575.15C190.32,-566.22 163.34,-555.31 139.79,-545.77"/>
<polygon fill="grey" stroke="grey" stroke-width="2" points="141.21,-542.58 130.63,-542.07 138.59,-549.06 141.21,-542.58"/>
</g>
<!-- 20 -->
<g id="node21" class="node">
<title>20</title>
<path fill="none" stroke="#56b9d8" stroke-width="2" d="M331,-540C331,-540 194,-540 194,-540 188,-540 182,-534 182,-528 182,-528 182,-516 182,-516 182,-510 188,-504 194,-504 194,-504 331,-504 331,-504 337,-504 343,-510 343,-516 343,-516 343,-528 343,-528 343,-534 337,-540 331,-540"/>
<text text-anchor="middle" x="262.5" y="-519.5" font-family="sans" font-size="10.00">kraken2_eupathdb_prot_library</text>
</g>
<!-- 15&#45;&gt;20 -->
<g id="edge30" class="edge">
<title>15&#45;&gt;20</title>
<path fill="none" stroke="grey" stroke-width="2" d="M258.01,-575.34C258.58,-568.75 259.24,-561.08 259.87,-553.67"/>
<polygon fill="grey" stroke="grey" stroke-width="2" points="263.34,-554.18 260.71,-543.92 256.37,-553.58 263.34,-554.18"/>
</g>
<!-- 16 -->
<g id="node17" class="node">
<title>16</title>
<path fill="none" stroke="#ced856" stroke-width="2" d="M291,-684C291,-684 222,-684 222,-684 216,-684 210,-678 210,-672 210,-672 210,-660 210,-660 210,-654 216,-648 222,-648 222,-648 291,-648 291,-648 297,-648 303,-654 303,-660 303,-660 303,-672 303,-672 303,-678 297,-684 291,-684"/>
<text text-anchor="middle" x="256.5" y="-663.5" font-family="sans" font-size="10.00">eupathdb_fastas</text>
</g>
<!-- 16&#45;&gt;15 -->
<g id="edge25" class="edge">
<title>16&#45;&gt;15</title>
<path fill="none" stroke="grey" stroke-width="2" d="M256.5,-647.34C256.5,-640.75 256.5,-633.08 256.5,-625.67"/>
<polygon fill="grey" stroke="grey" stroke-width="2" points="260,-625.93 256.5,-615.93 253,-625.93 260,-625.93"/>
</g>
<!-- 17 -->
<g id="node18" class="node">
<title>17</title>
<path fill="none" stroke="#56a9d8" stroke-width="2" d="M307.5,-756C307.5,-756 205.5,-756 205.5,-756 199.5,-756 193.5,-750 193.5,-744 193.5,-744 193.5,-732 193.5,-732 193.5,-726 199.5,-720 205.5,-720 205.5,-720 307.5,-720 307.5,-720 313.5,-720 319.5,-726 319.5,-732 319.5,-732 319.5,-744 319.5,-744 319.5,-750 313.5,-756 307.5,-756"/>
<text text-anchor="middle" x="256.5" y="-735.5" font-family="sans" font-size="10.00">eupathdb_fasta_archive</text>
</g>
<!-- 17&#45;&gt;16 -->
<g id="edge26" class="edge">
<title>17&#45;&gt;16</title>
<path fill="none" stroke="grey" stroke-width="2" d="M256.5,-719.34C256.5,-712.75 256.5,-705.08 256.5,-697.67"/>
<polygon fill="grey" stroke="grey" stroke-width="2" points="260,-697.93 256.5,-687.93 253,-697.93 260,-697.93"/>
</g>
<!-- 18&#45;&gt;3 -->
<g id="edge8" class="edge">
<title>18&#45;&gt;3</title>
<path fill="none" stroke="grey" stroke-width="2" d="M695.99,-287.15C683.76,-278.93 669.04,-269.02 655.73,-260.06"/>
<polygon fill="grey" stroke="grey" stroke-width="2" points="657.73,-257.18 647.48,-254.5 653.82,-262.99 657.73,-257.18"/>
</g>
<!-- 19&#45;&gt;10 -->
<g id="edge19" class="edge">
<title>19&#45;&gt;10</title>
<path fill="none" stroke="grey" stroke-width="2" d="M572.28,-503.15C553.79,-494.29 531.24,-483.48 511.47,-474"/>
<polygon fill="grey" stroke="grey" stroke-width="2" points="513.15,-470.93 502.62,-469.76 510.13,-477.24 513.15,-470.93"/>
</g>
<!-- 20&#45;&gt;10 -->
<g id="edge20" class="edge">
<title>20&#45;&gt;10</title>
<path fill="none" stroke="grey" stroke-width="2" d="M314,-503.06C345.08,-492.24 384.43,-478.54 414.96,-467.9"/>
<polygon fill="grey" stroke="grey" stroke-width="2" points="415.88,-471.29 424.18,-464.69 413.58,-464.68 415.88,-471.29"/>
</g>
<!-- 21&#45;&gt;2 -->
<g id="edge4" class="edge">
<title>21&#45;&gt;2</title>
<path fill="none" stroke="grey" stroke-width="2" d="M437.5,-215.34C437.5,-208.75 437.5,-201.08 437.5,-193.67"/>
<polygon fill="grey" stroke="grey" stroke-width="2" points="441,-193.93 437.5,-183.93 434,-193.93 441,-193.93"/>
</g>
<!-- 22&#45;&gt;3 -->
<g id="edge7" class="edge">
<title>22&#45;&gt;3</title>
<path fill="none" stroke="grey" stroke-width="2" d="M603.65,-359.02C606.46,-335.54 611.42,-294.11 614.83,-265.64"/>
<polygon fill="grey" stroke="grey" stroke-width="2" points="618.29,-266.19 616,-255.84 611.34,-265.36 618.29,-266.19"/>
</g>
<!-- 22&#45;&gt;25 -->
<g id="edge37" class="edge">
<title>22&#45;&gt;25</title>
<path fill="none" stroke="grey" stroke-width="2" d="M579.8,-359.34C569.99,-351.36 558.21,-341.77 547.43,-332.99"/>
<polygon fill="grey" stroke="grey" stroke-width="2" points="549.81,-330.41 539.84,-326.81 545.39,-335.84 549.81,-330.41"/>
</g>
<!-- 23&#45;&gt;22 -->
<g id="edge33" class="edge">
<title>23&#45;&gt;22</title>
<path fill="none" stroke="grey" stroke-width="2" d="M686.44,-431.15C672.77,-422.76 656.26,-412.62 641.44,-403.52"/>
<polygon fill="grey" stroke="grey" stroke-width="2" points="643.44,-400.65 633.09,-398.4 639.78,-406.61 643.44,-400.65"/>
</g>
<!-- 24&#45;&gt;23 -->
<g id="edge34" class="edge">
<title>24&#45;&gt;23</title>
<path fill="none" stroke="grey" stroke-width="2" d="M847.38,-503.15C824.68,-494.18 796.93,-483.21 772.76,-473.64"/>
<polygon fill="grey" stroke="grey" stroke-width="2" points="774.25,-470.47 763.66,-470.05 771.67,-476.98 774.25,-470.47"/>
</g>
<!-- 25&#45;&gt;3 -->
<g id="edge10" class="edge">
<title>25&#45;&gt;3</title>
<path fill="none" stroke="grey" stroke-width="2" d="M541.76,-287.15C553.86,-278.93 568.44,-269.02 581.63,-260.06"/>
<polygon fill="grey" stroke="grey" stroke-width="2" points="583.48,-263.03 589.79,-254.51 579.55,-257.24 583.48,-263.03"/>
</g>
<!-- 26 -->
<g id="node27" class="node">
<title>26</title>
<path fill="none" stroke="#56d0d8" stroke-width="2" d="M652,-180C652,-180 523,-180 523,-180 517,-180 511,-174 511,-168 511,-168 511,-156 511,-156 511,-150 517,-144 523,-144 523,-144 652,-144 652,-144 658,-144 664,-150 664,-156 664,-156 664,-168 664,-168 664,-174 658,-180 652,-180"/>
<text text-anchor="middle" x="587.5" y="-159.5" font-family="sans" font-size="10.00">bracken_combined_rg_counts</text>
</g>
<!-- 26&#45;&gt;1 -->
<g id="edge3" class="edge">
<title>26&#45;&gt;1</title>
<path fill="none" stroke="grey" stroke-width="2" d="M568.57,-143.34C560.2,-135.52 550.17,-126.16 540.93,-117.53"/>
<polygon fill="grey" stroke="grey" stroke-width="2" points="543.59,-115.23 533.89,-110.97 538.82,-120.35 543.59,-115.23"/>
</g>
</g>
</svg>
