<?xml version="1.0" encoding="UTF-8" standalone="no"?>
<!DOCTYPE svg PUBLIC "-//W3C//DTD SVG 1.1//EN"
 "http://www.w3.org/Graphics/SVG/1.1/DTD/svg11.dtd">
<!-- Generated by graphviz version 7.1.0 (0)
 -->
<!-- Title: snakemake_dag Pages: 1 -->
<svg width="934pt" height="836pt"
 viewBox="0.00 0.00 934.00 836.00" xmlns="http://www.w3.org/2000/svg" xmlns:xlink="http://www.w3.org/1999/xlink">
<g id="graph0" class="graph" transform="scale(1 1) rotate(0) translate(4 832)">
<title>snakemake_dag</title>
<polygon fill="white" stroke="none" points="-4,4 -4,-832 930,-832 930,4 -4,4"/>
<!-- 0 -->
<g id="node1" class="node">
<title>0</title>
<path fill="none" stroke="#5692d8" stroke-width="2" d="M272,-36C272,-36 242,-36 242,-36 236,-36 230,-30 230,-24 230,-24 230,-12 230,-12 230,-6 236,0 242,0 242,0 272,0 272,0 278,0 284,-6 284,-12 284,-12 284,-24 284,-24 284,-30 278,-36 272,-36"/>
<text text-anchor="middle" x="257" y="-15.5" font-family="sans" font-size="10.00">all</text>
</g>
<!-- 1 -->
<g id="node2" class="node">
<title>1</title>
<path fill="none" stroke="#56c1d8" stroke-width="2" d="M304.5,-108C304.5,-108 209.5,-108 209.5,-108 203.5,-108 197.5,-102 197.5,-96 197.5,-96 197.5,-84 197.5,-84 197.5,-78 203.5,-72 209.5,-72 209.5,-72 304.5,-72 304.5,-72 310.5,-72 316.5,-78 316.5,-84 316.5,-84 316.5,-96 316.5,-96 316.5,-102 310.5,-108 304.5,-108"/>
<text text-anchor="middle" x="257" y="-87.5" font-family="sans" font-size="10.00">bracken_count_matrix</text>
</g>
<!-- 1&#45;&gt;0 -->
<g id="edge1" class="edge">
<title>1&#45;&gt;0</title>
<path fill="none" stroke="grey" stroke-width="2" d="M257,-71.34C257,-64.75 257,-57.08 257,-49.67"/>
<polygon fill="grey" stroke="grey" stroke-width="2" points="260.5,-49.93 257,-39.93 253.5,-49.93 260.5,-49.93"/>
</g>
<!-- 2 -->
<g id="node3" class="node">
<title>2</title>
<path fill="none" stroke="#bed856" stroke-width="2" d="M300,-252C300,-252 214,-252 214,-252 208,-252 202,-246 202,-240 202,-240 202,-228 202,-228 202,-222 208,-216 214,-216 214,-216 300,-216 300,-216 306,-216 312,-222 312,-228 312,-228 312,-240 312,-240 312,-246 306,-252 300,-252"/>
<text text-anchor="middle" x="257" y="-231.5" font-family="sans" font-size="10.00">bracken_read_quant</text>
</g>
<!-- 2&#45;&gt;1 -->
<g id="edge3" class="edge">
<title>2&#45;&gt;1</title>
<path fill="none" stroke="grey" stroke-width="2" d="M243.53,-215.43C236.84,-205.59 229.46,-192.76 226,-180 221.82,-164.56 221.82,-159.44 226,-144 228.3,-135.53 232.32,-127.02 236.73,-119.38"/>
<polygon fill="grey" stroke="grey" stroke-width="2" points="239.56,-121.46 241.92,-111.13 233.63,-117.73 239.56,-121.46"/>
</g>
<!-- 26 -->
<g id="node27" class="node">
<title>26</title>
<path fill="none" stroke="#d86656" stroke-width="2" d="M367,-180C367,-180 247,-180 247,-180 241,-180 235,-174 235,-168 235,-168 235,-156 235,-156 235,-150 241,-144 247,-144 247,-144 367,-144 367,-144 373,-144 379,-150 379,-156 379,-156 379,-168 379,-168 379,-174 373,-180 367,-180"/>
<text text-anchor="middle" x="307" y="-159.5" font-family="sans" font-size="10.00">bracken_merged_rg_counts</text>
</g>
<!-- 2&#45;&gt;26 -->
<g id="edge38" class="edge">
<title>2&#45;&gt;26</title>
<path fill="none" stroke="grey" stroke-width="2" d="M269.62,-215.34C274.79,-208.1 280.91,-199.53 286.68,-191.45"/>
<polygon fill="grey" stroke="grey" stroke-width="2" points="289.49,-193.54 292.45,-183.37 283.79,-189.47 289.49,-193.54"/>
</g>
<!-- 3 -->
<g id="node4" class="node">
<title>3</title>
<path fill="none" stroke="#5673d8" stroke-width="2" d="M497.5,-324C497.5,-324 382.5,-324 382.5,-324 376.5,-324 370.5,-318 370.5,-312 370.5,-312 370.5,-300 370.5,-300 370.5,-294 376.5,-288 382.5,-288 382.5,-288 497.5,-288 497.5,-288 503.5,-288 509.5,-294 509.5,-300 509.5,-300 509.5,-312 509.5,-312 509.5,-318 503.5,-324 497.5,-324"/>
<text text-anchor="middle" x="440" y="-303.5" font-family="sans" font-size="10.00">kraken2_combined_report</text>
</g>
<!-- 3&#45;&gt;2 -->
<g id="edge6" class="edge">
<title>3&#45;&gt;2</title>
<path fill="none" stroke="grey" stroke-width="2" d="M393.35,-287.15C369.78,-278.14 340.93,-267.11 315.85,-257.51"/>
<polygon fill="grey" stroke="grey" stroke-width="2" points="317.3,-254.32 306.71,-254.02 314.8,-260.86 317.3,-254.32"/>
</g>
<!-- 4 -->
<g id="node5" class="node">
<title>4</title>
<path fill="none" stroke="#ced856" stroke-width="2" d="M469.5,-468C469.5,-468 342.5,-468 342.5,-468 336.5,-468 330.5,-462 330.5,-456 330.5,-456 330.5,-444 330.5,-444 330.5,-438 336.5,-432 342.5,-432 342.5,-432 469.5,-432 469.5,-432 475.5,-432 481.5,-438 481.5,-444 481.5,-444 481.5,-456 481.5,-456 481.5,-462 475.5,-468 469.5,-468"/>
<text text-anchor="middle" x="406" y="-447.5" font-family="sans" font-size="10.00">kraken2_nucl_read_classif_pe</text>
</g>
<!-- 4&#45;&gt;3 -->
<g id="edge7" class="edge">
<title>4&#45;&gt;3</title>
<path fill="none" stroke="grey" stroke-width="2" d="M411.29,-431.41C414.3,-421.13 418.05,-407.88 421,-396 425.8,-376.64 430.49,-354.73 434,-337.49"/>
<polygon fill="grey" stroke="grey" stroke-width="2" points="437.42,-338.27 435.96,-327.78 430.56,-336.89 437.42,-338.27"/>
</g>
<!-- 19 -->
<g id="node20" class="node">
<title>19</title>
<path fill="none" stroke="#88d856" stroke-width="2" d="M400,-396C400,-396 272,-396 272,-396 266,-396 260,-390 260,-384 260,-384 260,-372 260,-372 260,-366 266,-360 272,-360 272,-360 400,-360 400,-360 406,-360 412,-366 412,-372 412,-372 412,-384 412,-384 412,-390 406,-396 400,-396"/>
<text text-anchor="middle" x="336" y="-375.5" font-family="sans" font-size="10.00">kraken2_prot_read_classif_pe</text>
</g>
<!-- 4&#45;&gt;19 -->
<g id="edge28" class="edge">
<title>4&#45;&gt;19</title>
<path fill="none" stroke="grey" stroke-width="2" d="M388.34,-431.34C380.69,-423.69 371.56,-414.56 363.08,-406.08"/>
<polygon fill="grey" stroke="grey" stroke-width="2" points="365.59,-403.64 356.04,-399.04 360.64,-408.59 365.59,-403.64"/>
</g>
<!-- 5 -->
<g id="node6" class="node">
<title>5</title>
<path fill="none" stroke="#d8b456" stroke-width="2" d="M498.5,-540C498.5,-540 385.5,-540 385.5,-540 379.5,-540 373.5,-534 373.5,-528 373.5,-528 373.5,-516 373.5,-516 373.5,-510 379.5,-504 385.5,-504 385.5,-504 498.5,-504 498.5,-504 504.5,-504 510.5,-510 510.5,-516 510.5,-516 510.5,-528 510.5,-528 510.5,-534 504.5,-540 498.5,-540"/>
<text text-anchor="middle" x="442" y="-519.5" font-family="sans" font-size="10.00">bowtie2_filtered_fastq_pe</text>
</g>
<!-- 5&#45;&gt;4 -->
<g id="edge12" class="edge">
<title>5&#45;&gt;4</title>
<path fill="none" stroke="grey" stroke-width="2" d="M432.92,-503.34C429.32,-496.34 425.09,-488.12 421.06,-480.28"/>
<polygon fill="grey" stroke="grey" stroke-width="2" points="424.28,-478.89 416.59,-471.59 418.05,-482.09 424.28,-478.89"/>
</g>
<!-- 6 -->
<g id="node7" class="node">
<title>6</title>
<path fill="none" stroke="#d8c356" stroke-width="2" d="M654,-612C654,-612 572,-612 572,-612 566,-612 560,-606 560,-600 560,-600 560,-588 560,-588 560,-582 566,-576 572,-576 572,-576 654,-576 654,-576 660,-576 666,-582 666,-588 666,-588 666,-600 666,-600 666,-606 660,-612 654,-612"/>
<text text-anchor="middle" x="613" y="-591.5" font-family="sans" font-size="10.00">bowtie2_host_filter</text>
</g>
<!-- 6&#45;&gt;5 -->
<g id="edge13" class="edge">
<title>6&#45;&gt;5</title>
<path fill="none" stroke="grey" stroke-width="2" d="M569.41,-575.15C547.58,-566.22 520.92,-555.31 497.63,-545.77"/>
<polygon fill="grey" stroke="grey" stroke-width="2" points="499.19,-542.63 488.61,-542.08 496.54,-549.11 499.19,-542.63"/>
</g>
<!-- 23 -->
<g id="node24" class="node">
<title>23</title>
<path fill="none" stroke="#56d873" stroke-width="2" d="M668.5,-540C668.5,-540 557.5,-540 557.5,-540 551.5,-540 545.5,-534 545.5,-528 545.5,-528 545.5,-516 545.5,-516 545.5,-510 551.5,-504 557.5,-504 557.5,-504 668.5,-504 668.5,-504 674.5,-504 680.5,-510 680.5,-516 680.5,-516 680.5,-528 680.5,-528 680.5,-534 674.5,-540 668.5,-540"/>
<text text-anchor="middle" x="613" y="-519.5" font-family="sans" font-size="10.00">bowtie2_filtered_fastq_se</text>
</g>
<!-- 6&#45;&gt;23 -->
<g id="edge34" class="edge">
<title>6&#45;&gt;23</title>
<path fill="none" stroke="grey" stroke-width="2" d="M613,-575.34C613,-568.75 613,-561.08 613,-553.67"/>
<polygon fill="grey" stroke="grey" stroke-width="2" points="616.5,-553.93 613,-543.93 609.5,-553.93 616.5,-553.93"/>
</g>
<!-- 7 -->
<g id="node8" class="node">
<title>7</title>
<path fill="none" stroke="#9fd856" stroke-width="2" d="M638,-684C638,-684 530,-684 530,-684 524,-684 518,-678 518,-672 518,-672 518,-660 518,-660 518,-654 524,-648 530,-648 530,-648 638,-648 638,-648 644,-648 650,-654 650,-660 650,-660 650,-672 650,-672 650,-678 644,-684 638,-684"/>
<text text-anchor="middle" x="584" y="-663.5" font-family="sans" font-size="10.00">gdc_unmapped_fastq_pe</text>
</g>
<!-- 7&#45;&gt;6 -->
<g id="edge16" class="edge">
<title>7&#45;&gt;6</title>
<path fill="none" stroke="grey" stroke-width="2" d="M591.32,-647.34C594.15,-640.51 597.46,-632.5 600.64,-624.83"/>
<polygon fill="grey" stroke="grey" stroke-width="2" points="603.83,-626.28 604.42,-615.7 597.36,-623.6 603.83,-626.28"/>
</g>
<!-- 8 -->
<g id="node9" class="node">
<title>8</title>
<path fill="none" stroke="#afd856" stroke-width="2" d="M703.5,-756C703.5,-756 614.5,-756 614.5,-756 608.5,-756 602.5,-750 602.5,-744 602.5,-744 602.5,-732 602.5,-732 602.5,-726 608.5,-720 614.5,-720 614.5,-720 703.5,-720 703.5,-720 709.5,-720 715.5,-726 715.5,-732 715.5,-732 715.5,-744 715.5,-744 715.5,-750 709.5,-756 703.5,-756"/>
<text text-anchor="middle" x="659" y="-735.5" font-family="sans" font-size="10.00">gdc_unmapped_bam</text>
</g>
<!-- 8&#45;&gt;7 -->
<g id="edge17" class="edge">
<title>8&#45;&gt;7</title>
<path fill="none" stroke="grey" stroke-width="2" d="M640.07,-719.34C631.7,-711.52 621.67,-702.16 612.43,-693.53"/>
<polygon fill="grey" stroke="grey" stroke-width="2" points="615.09,-691.23 605.39,-686.97 610.32,-696.35 615.09,-691.23"/>
</g>
<!-- 24 -->
<g id="node25" class="node">
<title>24</title>
<path fill="none" stroke="#d88556" stroke-width="2" d="M787.5,-684C787.5,-684 680.5,-684 680.5,-684 674.5,-684 668.5,-678 668.5,-672 668.5,-672 668.5,-660 668.5,-660 668.5,-654 674.5,-648 680.5,-648 680.5,-648 787.5,-648 787.5,-648 793.5,-648 799.5,-654 799.5,-660 799.5,-660 799.5,-672 799.5,-672 799.5,-678 793.5,-684 787.5,-684"/>
<text text-anchor="middle" x="734" y="-663.5" font-family="sans" font-size="10.00">gdc_unmapped_fastq_se</text>
</g>
<!-- 8&#45;&gt;24 -->
<g id="edge35" class="edge">
<title>8&#45;&gt;24</title>
<path fill="none" stroke="grey" stroke-width="2" d="M677.93,-719.34C686.3,-711.52 696.33,-702.16 705.57,-693.53"/>
<polygon fill="grey" stroke="grey" stroke-width="2" points="707.68,-696.35 712.61,-686.97 702.91,-691.23 707.68,-696.35"/>
</g>
<!-- 9 -->
<g id="node10" class="node">
<title>9</title>
<path fill="none" stroke="#5663d8" stroke-width="2" d="M914,-684C914,-684 830,-684 830,-684 824,-684 818,-678 818,-672 818,-672 818,-660 818,-660 818,-654 824,-648 830,-648 830,-648 914,-648 914,-648 920,-648 926,-654 926,-660 926,-660 926,-672 926,-672 926,-678 920,-684 914,-684"/>
<text text-anchor="middle" x="872" y="-663.5" font-family="sans" font-size="10.00">bowtie2_host_index</text>
</g>
<!-- 9&#45;&gt;6 -->
<g id="edge15" class="edge">
<title>9&#45;&gt;6</title>
<path fill="none" stroke="grey" stroke-width="2" d="M817.07,-650.15C776.88,-639.29 722.16,-624.5 679.5,-612.97"/>
<polygon fill="grey" stroke="grey" stroke-width="2" points="680.45,-609.6 669.88,-610.37 678.62,-616.36 680.45,-609.6"/>
</g>
<!-- 10 -->
<g id="node11" class="node">
<title>10</title>
<path fill="none" stroke="#56d8c1" stroke-width="2" d="M913.5,-756C913.5,-756 830.5,-756 830.5,-756 824.5,-756 818.5,-750 818.5,-744 818.5,-744 818.5,-732 818.5,-732 818.5,-726 824.5,-720 830.5,-720 830.5,-720 913.5,-720 913.5,-720 919.5,-720 925.5,-726 925.5,-732 925.5,-732 925.5,-744 925.5,-744 925.5,-750 919.5,-756 913.5,-756"/>
<text text-anchor="middle" x="872" y="-735.5" font-family="sans" font-size="10.00">host_genome_fasta</text>
</g>
<!-- 10&#45;&gt;9 -->
<g id="edge18" class="edge">
<title>10&#45;&gt;9</title>
<path fill="none" stroke="grey" stroke-width="2" d="M872,-719.34C872,-712.75 872,-705.08 872,-697.67"/>
<polygon fill="grey" stroke="grey" stroke-width="2" points="875.5,-697.93 872,-687.93 868.5,-697.93 875.5,-697.93"/>
</g>
<!-- 11 -->
<g id="node12" class="node">
<title>11</title>
<path fill="none" stroke="#d89556" stroke-width="2" d="M325.5,-540C325.5,-540 278.5,-540 278.5,-540 272.5,-540 266.5,-534 266.5,-528 266.5,-528 266.5,-516 266.5,-516 266.5,-510 272.5,-504 278.5,-504 278.5,-504 325.5,-504 325.5,-504 331.5,-504 337.5,-510 337.5,-516 337.5,-516 337.5,-528 337.5,-528 337.5,-534 331.5,-540 325.5,-540"/>
<text text-anchor="middle" x="302" y="-519.5" font-family="sans" font-size="10.00">kraken2_db</text>
</g>
<!-- 11&#45;&gt;2 -->
<g id="edge4" class="edge">
<title>11&#45;&gt;2</title>
<path fill="none" stroke="grey" stroke-width="2" d="M284.18,-503.17C275.29,-493.46 264.97,-480.82 258,-468 225.98,-409.09 223.12,-390.28 213,-324 210.59,-308.18 207.57,-303.05 213,-288 216.35,-278.72 222.11,-269.92 228.38,-262.25"/>
<polygon fill="grey" stroke="grey" stroke-width="2" points="230.98,-264.59 235.05,-254.81 225.77,-259.92 230.98,-264.59"/>
</g>
<!-- 11&#45;&gt;4 -->
<g id="edge11" class="edge">
<title>11&#45;&gt;4</title>
<path fill="none" stroke="grey" stroke-width="2" d="M328.51,-503.15C340.74,-494.93 355.46,-485.02 368.77,-476.06"/>
<polygon fill="grey" stroke="grey" stroke-width="2" points="370.68,-478.99 377.02,-470.5 366.77,-473.18 370.68,-478.99"/>
</g>
<!-- 11&#45;&gt;19 -->
<g id="edge29" class="edge">
<title>11&#45;&gt;19</title>
<path fill="none" stroke="grey" stroke-width="2" d="M305.79,-503.22C309.68,-485.23 315.99,-456.61 322,-432 323.83,-424.51 325.9,-416.46 327.88,-408.94"/>
<polygon fill="grey" stroke="grey" stroke-width="2" points="331.19,-410.11 330.39,-399.55 324.43,-408.31 331.19,-410.11"/>
</g>
<!-- 21 -->
<g id="node22" class="node">
<title>21</title>
<path fill="none" stroke="#d8a456" stroke-width="2" d="M280,-324C280,-324 234,-324 234,-324 228,-324 222,-318 222,-312 222,-312 222,-300 222,-300 222,-294 228,-288 234,-288 234,-288 280,-288 280,-288 286,-288 292,-294 292,-300 292,-300 292,-312 292,-312 292,-318 286,-324 280,-324"/>
<text text-anchor="middle" x="257" y="-303.5" font-family="sans" font-size="10.00">bracken_db</text>
</g>
<!-- 11&#45;&gt;21 -->
<g id="edge31" class="edge">
<title>11&#45;&gt;21</title>
<path fill="none" stroke="grey" stroke-width="2" d="M292.07,-503.06C279.59,-479.38 258.85,-436.02 251,-396 247.24,-376.81 248.64,-354.91 251.04,-337.63"/>
<polygon fill="grey" stroke="grey" stroke-width="2" points="254.47,-338.32 252.61,-327.89 247.56,-337.21 254.47,-338.32"/>
</g>
<!-- 22 -->
<g id="node23" class="node">
<title>22</title>
<path fill="none" stroke="#56d8b1" stroke-width="2" d="M675.5,-468C675.5,-468 550.5,-468 550.5,-468 544.5,-468 538.5,-462 538.5,-456 538.5,-456 538.5,-444 538.5,-444 538.5,-438 544.5,-432 550.5,-432 550.5,-432 675.5,-432 675.5,-432 681.5,-432 687.5,-438 687.5,-444 687.5,-444 687.5,-456 687.5,-456 687.5,-462 681.5,-468 675.5,-468"/>
<text text-anchor="middle" x="613" y="-447.5" font-family="sans" font-size="10.00">kraken2_nucl_read_classif_se</text>
</g>
<!-- 11&#45;&gt;22 -->
<g id="edge33" class="edge">
<title>11&#45;&gt;22</title>
<path fill="none" stroke="grey" stroke-width="2" d="M338.23,-510.87C346.97,-508.53 356.3,-506.1 365,-504 417.83,-491.24 477.36,-478.46 524.86,-468.65"/>
<polygon fill="grey" stroke="grey" stroke-width="2" points="525.55,-472.08 534.64,-466.64 524.14,-465.23 525.55,-472.08"/>
</g>
<!-- 25 -->
<g id="node26" class="node">
<title>25</title>
<path fill="none" stroke="#d8d356" stroke-width="2" d="M606,-396C606,-396 480,-396 480,-396 474,-396 468,-390 468,-384 468,-384 468,-372 468,-372 468,-366 474,-360 480,-360 480,-360 606,-360 606,-360 612,-360 618,-366 618,-372 618,-372 618,-384 618,-384 618,-390 612,-396 606,-396"/>
<text text-anchor="middle" x="543" y="-375.5" font-family="sans" font-size="10.00">kraken2_prot_read_classif_se</text>
</g>
<!-- 11&#45;&gt;25 -->
<g id="edge37" class="edge">
<title>11&#45;&gt;25</title>
<path fill="none" stroke="grey" stroke-width="2" d="M338.15,-511.23C392.14,-496.58 487.91,-470.39 491,-468 510.52,-452.92 524.09,-428.29 532.46,-408.75"/>
<polygon fill="grey" stroke="grey" stroke-width="2" points="535.65,-410.2 536.1,-399.62 529.15,-407.61 535.65,-410.2"/>
</g>
<!-- 12 -->
<g id="node13" class="node">
<title>12</title>
<path fill="none" stroke="#97d856" stroke-width="2" d="M178,-684C178,-684 80,-684 80,-684 74,-684 68,-678 68,-672 68,-672 68,-660 68,-660 68,-654 74,-648 80,-648 80,-648 178,-648 178,-648 184,-648 190,-654 190,-660 190,-660 190,-672 190,-672 190,-678 184,-684 178,-684"/>
<text text-anchor="middle" x="129" y="-663.5" font-family="sans" font-size="10.00">kraken2_db_taxonomy</text>
</g>
<!-- 12&#45;&gt;11 -->
<g id="edge19" class="edge">
<title>12&#45;&gt;11</title>
<path fill="none" stroke="grey" stroke-width="2" d="M190.31,-647.04C230.35,-634.78 276.39,-619.46 283,-612 296.99,-596.2 301.56,-572.66 302.72,-553.75"/>
<polygon fill="grey" stroke="grey" stroke-width="2" points="306.21,-554.1 302.97,-544.01 299.21,-553.92 306.21,-554.1"/>
</g>
<!-- 13 -->
<g id="node14" class="node">
<title>13</title>
<path fill="none" stroke="#56d882" stroke-width="2" d="M116,-612C116,-612 12,-612 12,-612 6,-612 0,-606 0,-600 0,-600 0,-588 0,-588 0,-582 6,-576 12,-576 12,-576 116,-576 116,-576 122,-576 128,-582 128,-588 128,-588 128,-600 128,-600 128,-606 122,-612 116,-612"/>
<text text-anchor="middle" x="64" y="-591.5" font-family="sans" font-size="10.00">kraken2_nucl_db_library</text>
</g>
<!-- 12&#45;&gt;13 -->
<g id="edge23" class="edge">
<title>12&#45;&gt;13</title>
<path fill="none" stroke="grey" stroke-width="2" d="M112.6,-647.34C105.57,-639.77 97.2,-630.75 89.4,-622.35"/>
<polygon fill="grey" stroke="grey" stroke-width="2" points="92.05,-620.07 82.68,-615.12 86.92,-624.83 92.05,-620.07"/>
</g>
<!-- 20 -->
<g id="node21" class="node">
<title>20</title>
<path fill="none" stroke="#56d0d8" stroke-width="2" d="M262,-612C262,-612 158,-612 158,-612 152,-612 146,-606 146,-600 146,-600 146,-588 146,-588 146,-582 152,-576 158,-576 158,-576 262,-576 262,-576 268,-576 274,-582 274,-588 274,-588 274,-600 274,-600 274,-606 268,-612 262,-612"/>
<text text-anchor="middle" x="210" y="-591.5" font-family="sans" font-size="10.00">kraken2_prot_db_library</text>
</g>
<!-- 12&#45;&gt;20 -->
<g id="edge30" class="edge">
<title>12&#45;&gt;20</title>
<path fill="none" stroke="grey" stroke-width="2" d="M149.44,-647.34C158.58,-639.44 169.54,-629.96 179.61,-621.26"/>
<polygon fill="grey" stroke="grey" stroke-width="2" points="181.72,-624.07 186.99,-614.88 177.14,-618.77 181.72,-624.07"/>
</g>
<!-- 13&#45;&gt;11 -->
<g id="edge20" class="edge">
<title>13&#45;&gt;11</title>
<path fill="none" stroke="grey" stroke-width="2" d="M124.98,-575.06C164.78,-563.36 216.03,-548.29 253.14,-537.37"/>
<polygon fill="grey" stroke="grey" stroke-width="2" points="254.12,-540.73 262.73,-534.55 252.14,-534.02 254.12,-540.73"/>
</g>
<!-- 14 -->
<g id="node15" class="node">
<title>14</title>
<path fill="none" stroke="#5682d8" stroke-width="2" d="M455.5,-612C455.5,-612 342.5,-612 342.5,-612 336.5,-612 330.5,-606 330.5,-600 330.5,-600 330.5,-588 330.5,-588 330.5,-582 336.5,-576 342.5,-576 342.5,-576 455.5,-576 455.5,-576 461.5,-576 467.5,-582 467.5,-588 467.5,-588 467.5,-600 467.5,-600 467.5,-606 461.5,-612 455.5,-612"/>
<text text-anchor="middle" x="399" y="-591.5" font-family="sans" font-size="10.00">kraken2_eupathdb_library</text>
</g>
<!-- 14&#45;&gt;11 -->
<g id="edge21" class="edge">
<title>14&#45;&gt;11</title>
<path fill="none" stroke="grey" stroke-width="2" d="M374.27,-575.15C362.98,-567.01 349.41,-557.22 337.1,-548.33"/>
<polygon fill="grey" stroke="grey" stroke-width="2" points="339.29,-545.6 329.14,-542.58 335.2,-551.27 339.29,-545.6"/>
</g>
<!-- 15 -->
<g id="node16" class="node">
<title>15</title>
<path fill="none" stroke="#56a2d8" stroke-width="2" d="M488,-684C488,-684 368,-684 368,-684 362,-684 356,-678 356,-672 356,-672 356,-660 356,-660 356,-654 362,-648 368,-648 368,-648 488,-648 488,-648 494,-648 500,-654 500,-660 500,-660 500,-672 500,-672 500,-678 494,-684 488,-684"/>
<text text-anchor="middle" x="428" y="-663.5" font-family="sans" font-size="10.00">eupathdb_seqid2taxid_map</text>
</g>
<!-- 15&#45;&gt;14 -->
<g id="edge25" class="edge">
<title>15&#45;&gt;14</title>
<path fill="none" stroke="grey" stroke-width="2" d="M420.68,-647.34C417.85,-640.51 414.54,-632.5 411.36,-624.83"/>
<polygon fill="grey" stroke="grey" stroke-width="2" points="414.64,-623.6 407.58,-615.7 408.17,-626.28 414.64,-623.6"/>
</g>
<!-- 16 -->
<g id="node17" class="node">
<title>16</title>
<path fill="none" stroke="#56d863" stroke-width="2" d="M326,-684C326,-684 220,-684 220,-684 214,-684 208,-678 208,-672 208,-672 208,-660 208,-660 208,-654 214,-648 220,-648 220,-648 326,-648 326,-648 332,-648 338,-654 338,-660 338,-660 338,-672 338,-672 338,-678 332,-684 326,-684"/>
<text text-anchor="middle" x="273" y="-663.5" font-family="sans" font-size="10.00">eupathdb_merged_fasta</text>
</g>
<!-- 16&#45;&gt;14 -->
<g id="edge24" class="edge">
<title>16&#45;&gt;14</title>
<path fill="none" stroke="grey" stroke-width="2" d="M305.12,-647.15C320.52,-638.6 339.2,-628.22 355.82,-618.99"/>
<polygon fill="grey" stroke="grey" stroke-width="2" points="357.25,-622.2 364.29,-614.28 353.85,-616.08 357.25,-622.2"/>
</g>
<!-- 17 -->
<g id="node18" class="node">
<title>17</title>
<path fill="none" stroke="#56d8a2" stroke-width="2" d="M307.5,-756C307.5,-756 238.5,-756 238.5,-756 232.5,-756 226.5,-750 226.5,-744 226.5,-744 226.5,-732 226.5,-732 226.5,-726 232.5,-720 238.5,-720 238.5,-720 307.5,-720 307.5,-720 313.5,-720 319.5,-726 319.5,-732 319.5,-732 319.5,-744 319.5,-744 319.5,-750 313.5,-756 307.5,-756"/>
<text text-anchor="middle" x="273" y="-735.5" font-family="sans" font-size="10.00">eupathdb_fastas</text>
</g>
<!-- 17&#45;&gt;16 -->
<g id="edge26" class="edge">
<title>17&#45;&gt;16</title>
<path fill="none" stroke="grey" stroke-width="2" d="M273,-719.34C273,-712.75 273,-705.08 273,-697.67"/>
<polygon fill="grey" stroke="grey" stroke-width="2" points="276.5,-697.93 273,-687.93 269.5,-697.93 276.5,-697.93"/>
</g>
<!-- 18 -->
<g id="node19" class="node">
<title>18</title>
<path fill="none" stroke="#68d856" stroke-width="2" d="M324,-828C324,-828 222,-828 222,-828 216,-828 210,-822 210,-816 210,-816 210,-804 210,-804 210,-798 216,-792 222,-792 222,-792 324,-792 324,-792 330,-792 336,-798 336,-804 336,-804 336,-816 336,-816 336,-822 330,-828 324,-828"/>
<text text-anchor="middle" x="273" y="-807.5" font-family="sans" font-size="10.00">eupathdb_fasta_archive</text>
</g>
<!-- 18&#45;&gt;17 -->
<g id="edge27" class="edge">
<title>18&#45;&gt;17</title>
<path fill="none" stroke="grey" stroke-width="2" d="M273,-791.34C273,-784.75 273,-777.08 273,-769.67"/>
<polygon fill="grey" stroke="grey" stroke-width="2" points="276.5,-769.93 273,-759.93 269.5,-769.93 276.5,-769.93"/>
</g>
<!-- 19&#45;&gt;3 -->
<g id="edge9" class="edge">
<title>19&#45;&gt;3</title>
<path fill="none" stroke="grey" stroke-width="2" d="M362.51,-359.15C374.74,-350.93 389.46,-341.02 402.77,-332.06"/>
<polygon fill="grey" stroke="grey" stroke-width="2" points="404.68,-334.99 411.02,-326.5 400.77,-329.18 404.68,-334.99"/>
</g>
<!-- 20&#45;&gt;11 -->
<g id="edge22" class="edge">
<title>20&#45;&gt;11</title>
<path fill="none" stroke="grey" stroke-width="2" d="M233.22,-575.34C243.81,-567.27 256.57,-557.57 268.2,-548.72"/>
<polygon fill="grey" stroke="grey" stroke-width="2" points="270.22,-551.58 276.06,-542.73 265.99,-546 270.22,-551.58"/>
</g>
<!-- 21&#45;&gt;2 -->
<g id="edge5" class="edge">
<title>21&#45;&gt;2</title>
<path fill="none" stroke="grey" stroke-width="2" d="M257,-287.34C257,-280.75 257,-273.08 257,-265.67"/>
<polygon fill="grey" stroke="grey" stroke-width="2" points="260.5,-265.93 257,-255.93 253.5,-265.93 260.5,-265.93"/>
</g>
<!-- 22&#45;&gt;3 -->
<g id="edge10" class="edge">
<title>22&#45;&gt;3</title>
<path fill="none" stroke="grey" stroke-width="2" d="M622.95,-431.06C632.25,-411.61 642.56,-380.59 627,-360 613.87,-342.63 566.45,-329.3 522.65,-320.36"/>
<polygon fill="grey" stroke="grey" stroke-width="2" points="523.58,-316.97 513.09,-318.48 522.23,-323.84 523.58,-316.97"/>
</g>
<!-- 22&#45;&gt;25 -->
<g id="edge36" class="edge">
<title>22&#45;&gt;25</title>
<path fill="none" stroke="grey" stroke-width="2" d="M595.34,-431.34C587.69,-423.69 578.56,-414.56 570.08,-406.08"/>
<polygon fill="grey" stroke="grey" stroke-width="2" points="572.59,-403.64 563.04,-399.04 567.64,-408.59 572.59,-403.64"/>
</g>
<!-- 23&#45;&gt;22 -->
<g id="edge32" class="edge">
<title>23&#45;&gt;22</title>
<path fill="none" stroke="grey" stroke-width="2" d="M613,-503.34C613,-496.75 613,-489.08 613,-481.67"/>
<polygon fill="grey" stroke="grey" stroke-width="2" points="616.5,-481.93 613,-471.93 609.5,-481.93 616.5,-481.93"/>
</g>
<!-- 24&#45;&gt;6 -->
<g id="edge14" class="edge">
<title>24&#45;&gt;6</title>
<path fill="none" stroke="grey" stroke-width="2" d="M703.15,-647.15C688.5,-638.68 670.77,-628.42 654.93,-619.25"/>
<polygon fill="grey" stroke="grey" stroke-width="2" points="656.82,-616.31 646.41,-614.33 653.31,-622.37 656.82,-616.31"/>
</g>
<!-- 25&#45;&gt;3 -->
<g id="edge8" class="edge">
<title>25&#45;&gt;3</title>
<path fill="none" stroke="grey" stroke-width="2" d="M516.74,-359.15C504.64,-350.93 490.06,-341.02 476.87,-332.06"/>
<polygon fill="grey" stroke="grey" stroke-width="2" points="478.95,-329.24 468.71,-326.51 475.02,-335.03 478.95,-329.24"/>
</g>
<!-- 26&#45;&gt;1 -->
<g id="edge2" class="edge">
<title>26&#45;&gt;1</title>
<path fill="none" stroke="grey" stroke-width="2" d="M294.38,-143.34C289.21,-136.1 283.09,-127.53 277.32,-119.45"/>
<polygon fill="grey" stroke="grey" stroke-width="2" points="280.21,-117.47 271.55,-111.37 274.51,-121.54 280.21,-117.47"/>
</g>
</g>
</svg>
