<?xml version="1.0" encoding="UTF-8" standalone="no"?>
<!DOCTYPE svg PUBLIC "-//W3C//DTD SVG 1.1//EN"
 "http://www.w3.org/Graphics/SVG/1.1/DTD/svg11.dtd">
<!-- Generated by graphviz version 7.1.0 (0)
 -->
<!-- Title: snakemake_dag Pages: 1 -->
<svg width="1014pt" height="764pt"
 viewBox="0.00 0.00 1014.00 764.00" xmlns="http://www.w3.org/2000/svg" xmlns:xlink="http://www.w3.org/1999/xlink">
<g id="graph0" class="graph" transform="scale(1 1) rotate(0) translate(4 760)">
<title>snakemake_dag</title>
<polygon fill="white" stroke="none" points="-4,4 -4,-760 1010,-760 1010,4 -4,4"/>
<!-- 0 -->
<g id="node1" class="node">
<title>0</title>
<path fill="none" stroke="#56a2d8" stroke-width="2" d="M548,-36C548,-36 518,-36 518,-36 512,-36 506,-30 506,-24 506,-24 506,-12 506,-12 506,-6 512,0 518,0 518,0 548,0 548,0 554,0 560,-6 560,-12 560,-12 560,-24 560,-24 560,-30 554,-36 548,-36"/>
<text text-anchor="middle" x="533" y="-15.5" font-family="sans" font-size="10.00">all</text>
</g>
<!-- 1 -->
<g id="node2" class="node">
<title>1</title>
<path fill="none" stroke="#5663d8" stroke-width="2" d="M580.5,-108C580.5,-108 485.5,-108 485.5,-108 479.5,-108 473.5,-102 473.5,-96 473.5,-96 473.5,-84 473.5,-84 473.5,-78 479.5,-72 485.5,-72 485.5,-72 580.5,-72 580.5,-72 586.5,-72 592.5,-78 592.5,-84 592.5,-84 592.5,-96 592.5,-96 592.5,-102 586.5,-108 580.5,-108"/>
<text text-anchor="middle" x="533" y="-87.5" font-family="sans" font-size="10.00">bracken_count_matrix</text>
</g>
<!-- 1&#45;&gt;0 -->
<g id="edge1" class="edge">
<title>1&#45;&gt;0</title>
<path fill="none" stroke="grey" stroke-width="2" d="M533,-71.34C533,-64.75 533,-57.08 533,-49.67"/>
<polygon fill="grey" stroke="grey" stroke-width="2" points="536.5,-49.93 533,-39.93 529.5,-49.93 536.5,-49.93"/>
</g>
<!-- 2 -->
<g id="node3" class="node">
<title>2</title>
<path fill="none" stroke="#afd856" stroke-width="2" d="M576,-252C576,-252 490,-252 490,-252 484,-252 478,-246 478,-240 478,-240 478,-228 478,-228 478,-222 484,-216 490,-216 490,-216 576,-216 576,-216 582,-216 588,-222 588,-228 588,-228 588,-240 588,-240 588,-246 582,-252 576,-252"/>
<text text-anchor="middle" x="533" y="-231.5" font-family="sans" font-size="10.00">bracken_read_quant</text>
</g>
<!-- 2&#45;&gt;1 -->
<g id="edge2" class="edge">
<title>2&#45;&gt;1</title>
<path fill="none" stroke="grey" stroke-width="2" d="M519.53,-215.43C512.84,-205.59 505.46,-192.76 502,-180 497.82,-164.56 497.82,-159.44 502,-144 504.3,-135.53 508.32,-127.02 512.73,-119.38"/>
<polygon fill="grey" stroke="grey" stroke-width="2" points="515.56,-121.46 517.92,-111.13 509.63,-117.73 515.56,-121.46"/>
</g>
<!-- 26 -->
<g id="node27" class="node">
<title>26</title>
<path fill="none" stroke="#56c1d8" stroke-width="2" d="M643,-180C643,-180 523,-180 523,-180 517,-180 511,-174 511,-168 511,-168 511,-156 511,-156 511,-150 517,-144 523,-144 523,-144 643,-144 643,-144 649,-144 655,-150 655,-156 655,-156 655,-168 655,-168 655,-174 649,-180 643,-180"/>
<text text-anchor="middle" x="583" y="-159.5" font-family="sans" font-size="10.00">bracken_merged_rg_counts</text>
</g>
<!-- 2&#45;&gt;26 -->
<g id="edge37" class="edge">
<title>2&#45;&gt;26</title>
<path fill="none" stroke="grey" stroke-width="2" d="M545.62,-215.34C550.79,-208.1 556.91,-199.53 562.68,-191.45"/>
<polygon fill="grey" stroke="grey" stroke-width="2" points="565.49,-193.54 568.45,-183.37 559.79,-189.47 565.49,-193.54"/>
</g>
<!-- 3 -->
<g id="node4" class="node">
<title>3</title>
<path fill="none" stroke="#5692d8" stroke-width="2" d="M529.5,-324C529.5,-324 414.5,-324 414.5,-324 408.5,-324 402.5,-318 402.5,-312 402.5,-312 402.5,-300 402.5,-300 402.5,-294 408.5,-288 414.5,-288 414.5,-288 529.5,-288 529.5,-288 535.5,-288 541.5,-294 541.5,-300 541.5,-300 541.5,-312 541.5,-312 541.5,-318 535.5,-324 529.5,-324"/>
<text text-anchor="middle" x="472" y="-303.5" font-family="sans" font-size="10.00">kraken2_combined_report</text>
</g>
<!-- 3&#45;&gt;2 -->
<g id="edge4" class="edge">
<title>3&#45;&gt;2</title>
<path fill="none" stroke="grey" stroke-width="2" d="M487.39,-287.34C493.92,-279.85 501.67,-270.95 508.92,-262.63"/>
<polygon fill="grey" stroke="grey" stroke-width="2" points="511.48,-265.02 515.41,-255.18 506.2,-260.42 511.48,-265.02"/>
</g>
<!-- 4 -->
<g id="node5" class="node">
<title>4</title>
<path fill="none" stroke="#97d856" stroke-width="2" d="M328.5,-468C328.5,-468 201.5,-468 201.5,-468 195.5,-468 189.5,-462 189.5,-456 189.5,-456 189.5,-444 189.5,-444 189.5,-438 195.5,-432 201.5,-432 201.5,-432 328.5,-432 328.5,-432 334.5,-432 340.5,-438 340.5,-444 340.5,-444 340.5,-456 340.5,-456 340.5,-462 334.5,-468 328.5,-468"/>
<text text-anchor="middle" x="265" y="-447.5" font-family="sans" font-size="10.00">kraken2_nucl_read_classif_pe</text>
</g>
<!-- 4&#45;&gt;3 -->
<g id="edge7" class="edge">
<title>4&#45;&gt;3</title>
<path fill="none" stroke="grey" stroke-width="2" d="M263.52,-431.2C262.88,-411.29 265.08,-379.29 283,-360 310.09,-330.84 351.8,-317.25 389.15,-311.1"/>
<polygon fill="grey" stroke="grey" stroke-width="2" points="389.24,-314.63 398.63,-309.72 388.23,-307.7 389.24,-314.63"/>
</g>
<!-- 19 -->
<g id="node20" class="node">
<title>19</title>
<path fill="none" stroke="#68d856" stroke-width="2" d="M432,-396C432,-396 304,-396 304,-396 298,-396 292,-390 292,-384 292,-384 292,-372 292,-372 292,-366 298,-360 304,-360 304,-360 432,-360 432,-360 438,-360 444,-366 444,-372 444,-372 444,-384 444,-384 444,-390 438,-396 432,-396"/>
<text text-anchor="middle" x="368" y="-375.5" font-family="sans" font-size="10.00">kraken2_prot_read_classif_pe</text>
</g>
<!-- 4&#45;&gt;19 -->
<g id="edge27" class="edge">
<title>4&#45;&gt;19</title>
<path fill="none" stroke="grey" stroke-width="2" d="M291.26,-431.15C303.36,-422.93 317.94,-413.02 331.13,-404.06"/>
<polygon fill="grey" stroke="grey" stroke-width="2" points="332.98,-407.03 339.29,-398.51 329.05,-401.24 332.98,-407.03"/>
</g>
<!-- 5 -->
<g id="node6" class="node">
<title>5</title>
<path fill="none" stroke="#56d0d8" stroke-width="2" d="M321.5,-540C321.5,-540 208.5,-540 208.5,-540 202.5,-540 196.5,-534 196.5,-528 196.5,-528 196.5,-516 196.5,-516 196.5,-510 202.5,-504 208.5,-504 208.5,-504 321.5,-504 321.5,-504 327.5,-504 333.5,-510 333.5,-516 333.5,-516 333.5,-528 333.5,-528 333.5,-534 327.5,-540 321.5,-540"/>
<text text-anchor="middle" x="265" y="-519.5" font-family="sans" font-size="10.00">bowtie2_filtered_fastq_pe</text>
</g>
<!-- 5&#45;&gt;4 -->
<g id="edge11" class="edge">
<title>5&#45;&gt;4</title>
<path fill="none" stroke="grey" stroke-width="2" d="M265,-503.34C265,-496.75 265,-489.08 265,-481.67"/>
<polygon fill="grey" stroke="grey" stroke-width="2" points="268.5,-481.93 265,-471.93 261.5,-481.93 268.5,-481.93"/>
</g>
<!-- 6 -->
<g id="node7" class="node">
<title>6</title>
<path fill="none" stroke="#d8d356" stroke-width="2" d="M306,-612C306,-612 224,-612 224,-612 218,-612 212,-606 212,-600 212,-600 212,-588 212,-588 212,-582 218,-576 224,-576 224,-576 306,-576 306,-576 312,-576 318,-582 318,-588 318,-588 318,-600 318,-600 318,-606 312,-612 306,-612"/>
<text text-anchor="middle" x="265" y="-591.5" font-family="sans" font-size="10.00">bowtie2_host_filter</text>
</g>
<!-- 6&#45;&gt;5 -->
<g id="edge12" class="edge">
<title>6&#45;&gt;5</title>
<path fill="none" stroke="grey" stroke-width="2" d="M265,-575.34C265,-568.75 265,-561.08 265,-553.67"/>
<polygon fill="grey" stroke="grey" stroke-width="2" points="268.5,-553.93 265,-543.93 261.5,-553.93 268.5,-553.93"/>
</g>
<!-- 23 -->
<g id="node24" class="node">
<title>23</title>
<path fill="none" stroke="#9fd856" stroke-width="2" d="M491.5,-540C491.5,-540 380.5,-540 380.5,-540 374.5,-540 368.5,-534 368.5,-528 368.5,-528 368.5,-516 368.5,-516 368.5,-510 374.5,-504 380.5,-504 380.5,-504 491.5,-504 491.5,-504 497.5,-504 503.5,-510 503.5,-516 503.5,-516 503.5,-528 503.5,-528 503.5,-534 497.5,-540 491.5,-540"/>
<text text-anchor="middle" x="436" y="-519.5" font-family="sans" font-size="10.00">bowtie2_filtered_fastq_se</text>
</g>
<!-- 6&#45;&gt;23 -->
<g id="edge33" class="edge">
<title>6&#45;&gt;23</title>
<path fill="none" stroke="grey" stroke-width="2" d="M308.59,-575.15C330.42,-566.22 357.08,-555.31 380.37,-545.77"/>
<polygon fill="grey" stroke="grey" stroke-width="2" points="381.46,-549.11 389.39,-542.08 378.81,-542.63 381.46,-549.11"/>
</g>
<!-- 7 -->
<g id="node8" class="node">
<title>7</title>
<path fill="none" stroke="#d88556" stroke-width="2" d="M120,-684C120,-684 12,-684 12,-684 6,-684 0,-678 0,-672 0,-672 0,-660 0,-660 0,-654 6,-648 12,-648 12,-648 120,-648 120,-648 126,-648 132,-654 132,-660 132,-660 132,-672 132,-672 132,-678 126,-684 120,-684"/>
<text text-anchor="middle" x="66" y="-663.5" font-family="sans" font-size="10.00">gdc_unmapped_fastq_pe</text>
</g>
<!-- 7&#45;&gt;6 -->
<g id="edge15" class="edge">
<title>7&#45;&gt;6</title>
<path fill="none" stroke="grey" stroke-width="2" d="M116.99,-647.06C142.85,-637.97 174.51,-626.83 201.9,-617.2"/>
<polygon fill="grey" stroke="grey" stroke-width="2" points="203.02,-620.51 211.29,-613.89 200.69,-613.91 203.02,-620.51"/>
</g>
<!-- 8 -->
<g id="node9" class="node">
<title>8</title>
<path fill="none" stroke="#56b1d8" stroke-width="2" d="M185.5,-756C185.5,-756 96.5,-756 96.5,-756 90.5,-756 84.5,-750 84.5,-744 84.5,-744 84.5,-732 84.5,-732 84.5,-726 90.5,-720 96.5,-720 96.5,-720 185.5,-720 185.5,-720 191.5,-720 197.5,-726 197.5,-732 197.5,-732 197.5,-744 197.5,-744 197.5,-750 191.5,-756 185.5,-756"/>
<text text-anchor="middle" x="141" y="-735.5" font-family="sans" font-size="10.00">gdc_unmapped_bam</text>
</g>
<!-- 8&#45;&gt;7 -->
<g id="edge16" class="edge">
<title>8&#45;&gt;7</title>
<path fill="none" stroke="grey" stroke-width="2" d="M122.07,-719.34C113.7,-711.52 103.67,-702.16 94.43,-693.53"/>
<polygon fill="grey" stroke="grey" stroke-width="2" points="97.09,-691.23 87.39,-686.97 92.32,-696.35 97.09,-691.23"/>
</g>
<!-- 24 -->
<g id="node25" class="node">
<title>24</title>
<path fill="none" stroke="#d87556" stroke-width="2" d="M269.5,-684C269.5,-684 162.5,-684 162.5,-684 156.5,-684 150.5,-678 150.5,-672 150.5,-672 150.5,-660 150.5,-660 150.5,-654 156.5,-648 162.5,-648 162.5,-648 269.5,-648 269.5,-648 275.5,-648 281.5,-654 281.5,-660 281.5,-660 281.5,-672 281.5,-672 281.5,-678 275.5,-684 269.5,-684"/>
<text text-anchor="middle" x="216" y="-663.5" font-family="sans" font-size="10.00">gdc_unmapped_fastq_se</text>
</g>
<!-- 8&#45;&gt;24 -->
<g id="edge34" class="edge">
<title>8&#45;&gt;24</title>
<path fill="none" stroke="grey" stroke-width="2" d="M159.93,-719.34C168.3,-711.52 178.33,-702.16 187.57,-693.53"/>
<polygon fill="grey" stroke="grey" stroke-width="2" points="189.68,-696.35 194.61,-686.97 184.91,-691.23 189.68,-696.35"/>
</g>
<!-- 9 -->
<g id="node10" class="node">
<title>9</title>
<path fill="none" stroke="#59d856" stroke-width="2" d="M396,-684C396,-684 312,-684 312,-684 306,-684 300,-678 300,-672 300,-672 300,-660 300,-660 300,-654 306,-648 312,-648 312,-648 396,-648 396,-648 402,-648 408,-654 408,-660 408,-660 408,-672 408,-672 408,-678 402,-684 396,-684"/>
<text text-anchor="middle" x="354" y="-663.5" font-family="sans" font-size="10.00">bowtie2_host_index</text>
</g>
<!-- 9&#45;&gt;6 -->
<g id="edge14" class="edge">
<title>9&#45;&gt;6</title>
<path fill="none" stroke="grey" stroke-width="2" d="M331.54,-647.34C321.29,-639.27 308.95,-629.57 297.7,-620.72"/>
<polygon fill="grey" stroke="grey" stroke-width="2" points="300.16,-618.2 290.14,-614.77 295.84,-623.71 300.16,-618.2"/>
</g>
<!-- 10 -->
<g id="node11" class="node">
<title>10</title>
<path fill="none" stroke="#d89556" stroke-width="2" d="M395.5,-756C395.5,-756 312.5,-756 312.5,-756 306.5,-756 300.5,-750 300.5,-744 300.5,-744 300.5,-732 300.5,-732 300.5,-726 306.5,-720 312.5,-720 312.5,-720 395.5,-720 395.5,-720 401.5,-720 407.5,-726 407.5,-732 407.5,-732 407.5,-744 407.5,-744 407.5,-750 401.5,-756 395.5,-756"/>
<text text-anchor="middle" x="354" y="-735.5" font-family="sans" font-size="10.00">host_genome_fasta</text>
</g>
<!-- 10&#45;&gt;9 -->
<g id="edge17" class="edge">
<title>10&#45;&gt;9</title>
<path fill="none" stroke="grey" stroke-width="2" d="M354,-719.34C354,-712.75 354,-705.08 354,-697.67"/>
<polygon fill="grey" stroke="grey" stroke-width="2" points="357.5,-697.93 354,-687.93 350.5,-697.93 357.5,-697.93"/>
</g>
<!-- 11 -->
<g id="node12" class="node">
<title>11</title>
<path fill="none" stroke="#56d892" stroke-width="2" d="M589.5,-540C589.5,-540 542.5,-540 542.5,-540 536.5,-540 530.5,-534 530.5,-528 530.5,-528 530.5,-516 530.5,-516 530.5,-510 536.5,-504 542.5,-504 542.5,-504 589.5,-504 589.5,-504 595.5,-504 601.5,-510 601.5,-516 601.5,-516 601.5,-528 601.5,-528 601.5,-534 595.5,-540 589.5,-540"/>
<text text-anchor="middle" x="566" y="-519.5" font-family="sans" font-size="10.00">kraken2_db</text>
</g>
<!-- 11&#45;&gt;4 -->
<g id="edge10" class="edge">
<title>11&#45;&gt;4</title>
<path fill="none" stroke="grey" stroke-width="2" d="M529.54,-509.01C523.7,-507.24 517.7,-505.51 512,-504 460.05,-490.28 401.25,-477.55 354.06,-468.01"/>
<polygon fill="grey" stroke="grey" stroke-width="2" points="354.84,-464.6 344.35,-466.06 353.47,-471.46 354.84,-464.6"/>
</g>
<!-- 11&#45;&gt;19 -->
<g id="edge28" class="edge">
<title>11&#45;&gt;19</title>
<path fill="none" stroke="grey" stroke-width="2" d="M529.73,-509.46C523.81,-507.61 517.74,-505.74 512,-504 457.07,-487.38 427.31,-509.81 388,-468 373.42,-452.5 368.64,-428.74 367.38,-409.68"/>
<polygon fill="grey" stroke="grey" stroke-width="2" points="370.88,-409.72 367.09,-399.83 363.89,-409.93 370.88,-409.72"/>
</g>
<!-- 21 -->
<g id="node22" class="node">
<title>21</title>
<path fill="none" stroke="#56d873" stroke-width="2" d="M659,-324C659,-324 613,-324 613,-324 607,-324 601,-318 601,-312 601,-312 601,-300 601,-300 601,-294 607,-288 613,-288 613,-288 659,-288 659,-288 665,-288 671,-294 671,-300 671,-300 671,-312 671,-312 671,-318 665,-324 659,-324"/>
<text text-anchor="middle" x="636" y="-303.5" font-family="sans" font-size="10.00">bracken_db</text>
</g>
<!-- 11&#45;&gt;21 -->
<g id="edge30" class="edge">
<title>11&#45;&gt;21</title>
<path fill="none" stroke="grey" stroke-width="2" d="M585.14,-503.33C607.85,-480.93 644.46,-439.91 659,-396 665.46,-376.49 659.6,-354.1 652.19,-336.65"/>
<polygon fill="grey" stroke="grey" stroke-width="2" points="655.38,-335.23 647.95,-327.67 649.05,-338.21 655.38,-335.23"/>
</g>
<!-- 22 -->
<g id="node23" class="node">
<title>22</title>
<path fill="none" stroke="#d8b456" stroke-width="2" d="M534.5,-468C534.5,-468 409.5,-468 409.5,-468 403.5,-468 397.5,-462 397.5,-456 397.5,-456 397.5,-444 397.5,-444 397.5,-438 403.5,-432 409.5,-432 409.5,-432 534.5,-432 534.5,-432 540.5,-432 546.5,-438 546.5,-444 546.5,-444 546.5,-456 546.5,-456 546.5,-462 540.5,-468 534.5,-468"/>
<text text-anchor="middle" x="472" y="-447.5" font-family="sans" font-size="10.00">kraken2_nucl_read_classif_se</text>
</g>
<!-- 11&#45;&gt;22 -->
<g id="edge31" class="edge">
<title>11&#45;&gt;22</title>
<path fill="none" stroke="grey" stroke-width="2" d="M542.28,-503.34C531.34,-495.19 518.16,-485.37 506.17,-476.45"/>
<polygon fill="grey" stroke="grey" stroke-width="2" points="508.58,-473.88 498.47,-470.71 504.4,-479.49 508.58,-473.88"/>
</g>
<!-- 25 -->
<g id="node26" class="node">
<title>25</title>
<path fill="none" stroke="#56d882" stroke-width="2" d="M638,-396C638,-396 512,-396 512,-396 506,-396 500,-390 500,-384 500,-384 500,-372 500,-372 500,-366 506,-360 512,-360 512,-360 638,-360 638,-360 644,-360 650,-366 650,-372 650,-372 650,-384 650,-384 650,-390 644,-396 638,-396"/>
<text text-anchor="middle" x="575" y="-375.5" font-family="sans" font-size="10.00">kraken2_prot_read_classif_se</text>
</g>
<!-- 11&#45;&gt;25 -->
<g id="edge36" class="edge">
<title>11&#45;&gt;25</title>
<path fill="none" stroke="grey" stroke-width="2" d="M567.14,-503.02C568.63,-479.54 571.25,-438.11 573.06,-409.64"/>
<polygon fill="grey" stroke="grey" stroke-width="2" points="576.54,-410.06 573.68,-399.86 569.55,-409.62 576.54,-410.06"/>
</g>
<!-- 12 -->
<g id="node13" class="node">
<title>12</title>
<path fill="none" stroke="#88d856" stroke-width="2" d="M536,-684C536,-684 438,-684 438,-684 432,-684 426,-678 426,-672 426,-672 426,-660 426,-660 426,-654 432,-648 438,-648 438,-648 536,-648 536,-648 542,-648 548,-654 548,-660 548,-660 548,-672 548,-672 548,-678 542,-684 536,-684"/>
<text text-anchor="middle" x="487" y="-663.5" font-family="sans" font-size="10.00">kraken2_db_taxonomy</text>
</g>
<!-- 12&#45;&gt;11 -->
<g id="edge19" class="edge">
<title>12&#45;&gt;11</title>
<path fill="none" stroke="grey" stroke-width="2" d="M430.38,-647.08C414.16,-639.03 398.36,-627.7 389,-612 380.81,-598.26 379.41,-588.8 389,-576 423.15,-530.42 457.5,-556.55 512,-540 513.79,-539.46 515.62,-538.9 517.46,-538.33"/>
<polygon fill="grey" stroke="grey" stroke-width="2" points="518.32,-541.73 526.83,-535.43 516.24,-535.05 518.32,-541.73"/>
</g>
<!-- 13 -->
<g id="node14" class="node">
<title>13</title>
<path fill="none" stroke="#5682d8" stroke-width="2" d="M514,-612C514,-612 410,-612 410,-612 404,-612 398,-606 398,-600 398,-600 398,-588 398,-588 398,-582 404,-576 410,-576 410,-576 514,-576 514,-576 520,-576 526,-582 526,-588 526,-588 526,-600 526,-600 526,-606 520,-612 514,-612"/>
<text text-anchor="middle" x="462" y="-591.5" font-family="sans" font-size="10.00">kraken2_nucl_db_library</text>
</g>
<!-- 12&#45;&gt;13 -->
<g id="edge23" class="edge">
<title>12&#45;&gt;13</title>
<path fill="none" stroke="grey" stroke-width="2" d="M480.69,-647.34C478.28,-640.59 475.46,-632.69 472.75,-625.11"/>
<polygon fill="grey" stroke="grey" stroke-width="2" points="476.07,-623.99 469.41,-615.75 469.48,-626.35 476.07,-623.99"/>
</g>
<!-- 20 -->
<g id="node21" class="node">
<title>20</title>
<path fill="none" stroke="#d8c356" stroke-width="2" d="M660,-612C660,-612 556,-612 556,-612 550,-612 544,-606 544,-600 544,-600 544,-588 544,-588 544,-582 550,-576 556,-576 556,-576 660,-576 660,-576 666,-576 672,-582 672,-588 672,-588 672,-600 672,-600 672,-606 666,-612 660,-612"/>
<text text-anchor="middle" x="608" y="-591.5" font-family="sans" font-size="10.00">kraken2_prot_db_library</text>
</g>
<!-- 12&#45;&gt;20 -->
<g id="edge29" class="edge">
<title>12&#45;&gt;20</title>
<path fill="none" stroke="grey" stroke-width="2" d="M517.85,-647.15C532.5,-638.68 550.23,-628.42 566.07,-619.25"/>
<polygon fill="grey" stroke="grey" stroke-width="2" points="567.69,-622.37 574.59,-614.33 564.18,-616.31 567.69,-622.37"/>
</g>
<!-- 13&#45;&gt;11 -->
<g id="edge21" class="edge">
<title>13&#45;&gt;11</title>
<path fill="none" stroke="grey" stroke-width="2" d="M488.51,-575.15C500.74,-566.93 515.46,-557.02 528.77,-548.06"/>
<polygon fill="grey" stroke="grey" stroke-width="2" points="530.68,-550.99 537.02,-542.5 526.77,-545.18 530.68,-550.99"/>
</g>
<!-- 14 -->
<g id="node15" class="node">
<title>14</title>
<path fill="none" stroke="#78d856" stroke-width="2" d="M824,-612C824,-612 702,-612 702,-612 696,-612 690,-606 690,-600 690,-600 690,-588 690,-588 690,-582 696,-576 702,-576 702,-576 824,-576 824,-576 830,-576 836,-582 836,-588 836,-588 836,-600 836,-600 836,-606 830,-612 824,-612"/>
<text text-anchor="middle" x="763" y="-591.5" font-family="sans" font-size="10.00">kraken2_eupathdb_lib_fasta</text>
</g>
<!-- 14&#45;&gt;11 -->
<g id="edge20" class="edge">
<title>14&#45;&gt;11</title>
<path fill="none" stroke="grey" stroke-width="2" d="M712.52,-575.06C682.4,-564.36 644.34,-550.84 614.56,-540.26"/>
<polygon fill="grey" stroke="grey" stroke-width="2" points="615.8,-536.98 605.2,-536.93 613.46,-543.58 615.8,-536.98"/>
</g>
<!-- 15 -->
<g id="node16" class="node">
<title>15</title>
<path fill="none" stroke="#56d863" stroke-width="2" d="M797.5,-684C797.5,-684 728.5,-684 728.5,-684 722.5,-684 716.5,-678 716.5,-672 716.5,-672 716.5,-660 716.5,-660 716.5,-654 722.5,-648 728.5,-648 728.5,-648 797.5,-648 797.5,-648 803.5,-648 809.5,-654 809.5,-660 809.5,-660 809.5,-672 809.5,-672 809.5,-678 803.5,-684 797.5,-684"/>
<text text-anchor="middle" x="763" y="-663.5" font-family="sans" font-size="10.00">eupathdb_fastas</text>
</g>
<!-- 15&#45;&gt;14 -->
<g id="edge24" class="edge">
<title>15&#45;&gt;14</title>
<path fill="none" stroke="grey" stroke-width="2" d="M763,-647.34C763,-640.75 763,-633.08 763,-625.67"/>
<polygon fill="grey" stroke="grey" stroke-width="2" points="766.5,-625.93 763,-615.93 759.5,-625.93 766.5,-625.93"/>
</g>
<!-- 16 -->
<g id="node17" class="node">
<title>16</title>
<path fill="none" stroke="#56d8b1" stroke-width="2" d="M814,-756C814,-756 712,-756 712,-756 706,-756 700,-750 700,-744 700,-744 700,-732 700,-732 700,-726 706,-720 712,-720 712,-720 814,-720 814,-720 820,-720 826,-726 826,-732 826,-732 826,-744 826,-744 826,-750 820,-756 814,-756"/>
<text text-anchor="middle" x="763" y="-735.5" font-family="sans" font-size="10.00">eupathdb_fasta_archive</text>
</g>
<!-- 16&#45;&gt;15 -->
<g id="edge25" class="edge">
<title>16&#45;&gt;15</title>
<path fill="none" stroke="grey" stroke-width="2" d="M763,-719.34C763,-712.75 763,-705.08 763,-697.67"/>
<polygon fill="grey" stroke="grey" stroke-width="2" points="766.5,-697.93 763,-687.93 759.5,-697.93 766.5,-697.93"/>
</g>
<!-- 17 -->
<g id="node18" class="node">
<title>17</title>
<path fill="none" stroke="#56d8a2" stroke-width="2" d="M994,-612C994,-612 866,-612 866,-612 860,-612 854,-606 854,-600 854,-600 854,-588 854,-588 854,-582 860,-576 866,-576 866,-576 994,-576 994,-576 1000,-576 1006,-582 1006,-588 1006,-588 1006,-600 1006,-600 1006,-606 1000,-612 994,-612"/>
<text text-anchor="middle" x="930" y="-591.5" font-family="sans" font-size="10.00">kraken2_eupathdb_lib_idmap</text>
</g>
<!-- 17&#45;&gt;11 -->
<g id="edge18" class="edge">
<title>17&#45;&gt;11</title>
<path fill="none" stroke="grey" stroke-width="2" d="M853.1,-577.58C850.36,-577.05 847.66,-576.52 845,-576 764.36,-560.28 670.48,-542.57 614.77,-532.12"/>
<polygon fill="grey" stroke="grey" stroke-width="2" points="615.59,-528.71 605.11,-530.31 614.3,-535.59 615.59,-528.71"/>
</g>
<!-- 18 -->
<g id="node19" class="node">
<title>18</title>
<path fill="none" stroke="#bed856" stroke-width="2" d="M990,-684C990,-684 870,-684 870,-684 864,-684 858,-678 858,-672 858,-672 858,-660 858,-660 858,-654 864,-648 870,-648 870,-648 990,-648 990,-648 996,-648 1002,-654 1002,-660 1002,-660 1002,-672 1002,-672 1002,-678 996,-684 990,-684"/>
<text text-anchor="middle" x="930" y="-663.5" font-family="sans" font-size="10.00">eupathdb_seqid2taxid_map</text>
</g>
<!-- 18&#45;&gt;17 -->
<g id="edge26" class="edge">
<title>18&#45;&gt;17</title>
<path fill="none" stroke="grey" stroke-width="2" d="M930,-647.34C930,-640.75 930,-633.08 930,-625.67"/>
<polygon fill="grey" stroke="grey" stroke-width="2" points="933.5,-625.93 930,-615.93 926.5,-625.93 933.5,-625.93"/>
</g>
<!-- 19&#45;&gt;3 -->
<g id="edge6" class="edge">
<title>19&#45;&gt;3</title>
<path fill="none" stroke="grey" stroke-width="2" d="M394.51,-359.15C406.74,-350.93 421.46,-341.02 434.77,-332.06"/>
<polygon fill="grey" stroke="grey" stroke-width="2" points="436.68,-334.99 443.02,-326.5 432.77,-329.18 436.68,-334.99"/>
</g>
<!-- 20&#45;&gt;11 -->
<g id="edge22" class="edge">
<title>20&#45;&gt;11</title>
<path fill="none" stroke="grey" stroke-width="2" d="M597.4,-575.34C593.16,-568.26 588.15,-559.92 583.4,-552"/>
<polygon fill="grey" stroke="grey" stroke-width="2" points="586.44,-550.27 578.3,-543.5 580.44,-553.87 586.44,-550.27"/>
</g>
<!-- 21&#45;&gt;2 -->
<g id="edge5" class="edge">
<title>21&#45;&gt;2</title>
<path fill="none" stroke="grey" stroke-width="2" d="M609.74,-287.15C597.64,-278.93 583.06,-269.02 569.87,-260.06"/>
<polygon fill="grey" stroke="grey" stroke-width="2" points="571.95,-257.24 561.71,-254.51 568.02,-263.03 571.95,-257.24"/>
</g>
<!-- 22&#45;&gt;3 -->
<g id="edge8" class="edge">
<title>22&#45;&gt;3</title>
<path fill="none" stroke="grey" stroke-width="2" d="M472,-431.02C472,-407.54 472,-366.11 472,-337.64"/>
<polygon fill="grey" stroke="grey" stroke-width="2" points="475.5,-337.87 472,-327.87 468.5,-337.87 475.5,-337.87"/>
</g>
<!-- 22&#45;&gt;25 -->
<g id="edge35" class="edge">
<title>22&#45;&gt;25</title>
<path fill="none" stroke="grey" stroke-width="2" d="M498.26,-431.15C510.36,-422.93 524.94,-413.02 538.13,-404.06"/>
<polygon fill="grey" stroke="grey" stroke-width="2" points="539.98,-407.03 546.29,-398.51 536.05,-401.24 539.98,-407.03"/>
</g>
<!-- 23&#45;&gt;22 -->
<g id="edge32" class="edge">
<title>23&#45;&gt;22</title>
<path fill="none" stroke="grey" stroke-width="2" d="M445.08,-503.34C448.68,-496.34 452.91,-488.12 456.94,-480.28"/>
<polygon fill="grey" stroke="grey" stroke-width="2" points="459.95,-482.09 461.41,-471.59 453.72,-478.89 459.95,-482.09"/>
</g>
<!-- 24&#45;&gt;6 -->
<g id="edge13" class="edge">
<title>24&#45;&gt;6</title>
<path fill="none" stroke="grey" stroke-width="2" d="M228.36,-647.34C233.43,-640.1 239.43,-631.53 245.08,-623.45"/>
<polygon fill="grey" stroke="grey" stroke-width="2" points="247.87,-625.58 250.73,-615.38 242.13,-621.57 247.87,-625.58"/>
</g>
<!-- 25&#45;&gt;3 -->
<g id="edge9" class="edge">
<title>25&#45;&gt;3</title>
<path fill="none" stroke="grey" stroke-width="2" d="M548.74,-359.15C536.64,-350.93 522.06,-341.02 508.87,-332.06"/>
<polygon fill="grey" stroke="grey" stroke-width="2" points="510.95,-329.24 500.71,-326.51 507.02,-335.03 510.95,-329.24"/>
</g>
<!-- 26&#45;&gt;1 -->
<g id="edge3" class="edge">
<title>26&#45;&gt;1</title>
<path fill="none" stroke="grey" stroke-width="2" d="M570.38,-143.34C565.21,-136.1 559.09,-127.53 553.32,-119.45"/>
<polygon fill="grey" stroke="grey" stroke-width="2" points="556.21,-117.47 547.55,-111.37 550.51,-121.54 556.21,-117.47"/>
</g>
</g>
</svg>
