<?xml version="1.0" encoding="UTF-8" standalone="no"?>
<!DOCTYPE svg PUBLIC "-//W3C//DTD SVG 1.1//EN"
 "http://www.w3.org/Graphics/SVG/1.1/DTD/svg11.dtd">
<!-- Generated by graphviz version 7.1.0 (0)
 -->
<!-- Title: snakemake_dag Pages: 1 -->
<svg width="889pt" height="836pt"
 viewBox="0.00 0.00 888.59 836.00" xmlns="http://www.w3.org/2000/svg" xmlns:xlink="http://www.w3.org/1999/xlink">
<g id="graph0" class="graph" transform="scale(1 1) rotate(0) translate(4 832)">
<title>snakemake_dag</title>
<polygon fill="white" stroke="none" points="-4,4 -4,-832 884.59,-832 884.59,4 -4,4"/>
<!-- 0 -->
<g id="node1" class="node">
<title>0</title>
<path fill="none" stroke="#d88556" stroke-width="2" d="M598,-36C598,-36 568,-36 568,-36 562,-36 556,-30 556,-24 556,-24 556,-12 556,-12 556,-6 562,0 568,0 568,0 598,0 598,0 604,0 610,-6 610,-12 610,-12 610,-24 610,-24 610,-30 604,-36 598,-36"/>
<text text-anchor="middle" x="583" y="-15.5" font-family="sans" font-size="10.00">all</text>
</g>
<!-- 1 -->
<g id="node2" class="node">
<title>1</title>
<path fill="none" stroke="#56d89a" stroke-width="2" d="M630.5,-108C630.5,-108 535.5,-108 535.5,-108 529.5,-108 523.5,-102 523.5,-96 523.5,-96 523.5,-84 523.5,-84 523.5,-78 529.5,-72 535.5,-72 535.5,-72 630.5,-72 630.5,-72 636.5,-72 642.5,-78 642.5,-84 642.5,-84 642.5,-96 642.5,-96 642.5,-102 636.5,-108 630.5,-108"/>
<text text-anchor="middle" x="583" y="-87.5" font-family="sans" font-size="10.00">bracken_count_matrix</text>
</g>
<!-- 1&#45;&gt;0 -->
<g id="edge1" class="edge">
<title>1&#45;&gt;0</title>
<path fill="none" stroke="grey" stroke-width="2" d="M583,-71.34C583,-64.75 583,-57.08 583,-49.67"/>
<polygon fill="grey" stroke="grey" stroke-width="2" points="586.5,-49.93 583,-39.93 579.5,-49.93 586.5,-49.93"/>
</g>
<!-- 2 -->
<g id="node3" class="node">
<title>2</title>
<path fill="none" stroke="#70d856" stroke-width="2" d="M626,-252C626,-252 540,-252 540,-252 534,-252 528,-246 528,-240 528,-240 528,-228 528,-228 528,-222 534,-216 540,-216 540,-216 626,-216 626,-216 632,-216 638,-222 638,-228 638,-228 638,-240 638,-240 638,-246 632,-252 626,-252"/>
<text text-anchor="middle" x="583" y="-231.5" font-family="sans" font-size="10.00">bracken_read_quant</text>
</g>
<!-- 2&#45;&gt;1 -->
<g id="edge2" class="edge">
<title>2&#45;&gt;1</title>
<path fill="none" stroke="grey" stroke-width="2" d="M569.53,-215.43C562.84,-205.59 555.46,-192.76 552,-180 547.82,-164.56 547.82,-159.44 552,-144 554.3,-135.53 558.32,-127.02 562.73,-119.38"/>
<polygon fill="grey" stroke="grey" stroke-width="2" points="565.56,-121.46 567.92,-111.13 559.63,-117.73 565.56,-121.46"/>
</g>
<!-- 27 -->
<g id="node28" class="node">
<title>27</title>
<path fill="none" stroke="#5663d8" stroke-width="2" d="M693,-180C693,-180 573,-180 573,-180 567,-180 561,-174 561,-168 561,-168 561,-156 561,-156 561,-150 567,-144 573,-144 573,-144 693,-144 693,-144 699,-144 705,-150 705,-156 705,-156 705,-168 705,-168 705,-174 699,-180 693,-180"/>
<text text-anchor="middle" x="633" y="-159.5" font-family="sans" font-size="10.00">bracken_merged_rg_counts</text>
</g>
<!-- 2&#45;&gt;27 -->
<g id="edge41" class="edge">
<title>2&#45;&gt;27</title>
<path fill="none" stroke="grey" stroke-width="2" d="M595.62,-215.34C600.79,-208.1 606.91,-199.53 612.68,-191.45"/>
<polygon fill="grey" stroke="grey" stroke-width="2" points="615.49,-193.54 618.45,-183.37 609.79,-189.47 615.49,-193.54"/>
</g>
<!-- 3 -->
<g id="node4" class="node">
<title>3</title>
<path fill="none" stroke="#88d856" stroke-width="2" d="M550.5,-324C550.5,-324 435.5,-324 435.5,-324 429.5,-324 423.5,-318 423.5,-312 423.5,-312 423.5,-300 423.5,-300 423.5,-294 429.5,-288 435.5,-288 435.5,-288 550.5,-288 550.5,-288 556.5,-288 562.5,-294 562.5,-300 562.5,-300 562.5,-312 562.5,-312 562.5,-318 556.5,-324 550.5,-324"/>
<text text-anchor="middle" x="493" y="-303.5" font-family="sans" font-size="10.00">kraken2_combined_report</text>
</g>
<!-- 3&#45;&gt;2 -->
<g id="edge6" class="edge">
<title>3&#45;&gt;2</title>
<path fill="none" stroke="grey" stroke-width="2" d="M515.71,-287.34C526.08,-279.27 538.55,-269.57 549.93,-260.72"/>
<polygon fill="grey" stroke="grey" stroke-width="2" points="551.85,-263.66 557.59,-254.76 547.55,-258.14 551.85,-263.66"/>
</g>
<!-- 4 -->
<g id="node5" class="node">
<title>4</title>
<path fill="none" stroke="#d87556" stroke-width="2" d="M414.5,-468C414.5,-468 287.5,-468 287.5,-468 281.5,-468 275.5,-462 275.5,-456 275.5,-456 275.5,-444 275.5,-444 275.5,-438 281.5,-432 287.5,-432 287.5,-432 414.5,-432 414.5,-432 420.5,-432 426.5,-438 426.5,-444 426.5,-444 426.5,-456 426.5,-456 426.5,-462 420.5,-468 414.5,-468"/>
<text text-anchor="middle" x="351" y="-447.5" font-family="sans" font-size="10.00">kraken2_nucl_read_classif_pe</text>
</g>
<!-- 4&#45;&gt;3 -->
<g id="edge10" class="edge">
<title>4&#45;&gt;3</title>
<path fill="none" stroke="grey" stroke-width="2" d="M330.09,-431.28C310.55,-412.57 286.79,-382.7 304,-360 317.33,-342.41 365.55,-329.06 409.95,-320.15"/>
<polygon fill="grey" stroke="grey" stroke-width="2" points="410.51,-323.61 419.67,-318.27 409.18,-316.73 410.51,-323.61"/>
</g>
<!-- 18 -->
<g id="node19" class="node">
<title>18</title>
<path fill="none" stroke="#56d8c9" stroke-width="2" d="M453,-396C453,-396 325,-396 325,-396 319,-396 313,-390 313,-384 313,-384 313,-372 313,-372 313,-366 319,-360 325,-360 325,-360 453,-360 453,-360 459,-360 465,-366 465,-372 465,-372 465,-384 465,-384 465,-390 459,-396 453,-396"/>
<text text-anchor="middle" x="389" y="-375.5" font-family="sans" font-size="10.00">kraken2_prot_read_classif_pe</text>
</g>
<!-- 4&#45;&gt;18 -->
<g id="edge28" class="edge">
<title>4&#45;&gt;18</title>
<path fill="none" stroke="grey" stroke-width="2" d="M360.59,-431.34C364.39,-424.34 368.85,-416.12 373.11,-408.28"/>
<polygon fill="grey" stroke="grey" stroke-width="2" points="376.14,-410.02 377.84,-399.56 369.99,-406.68 376.14,-410.02"/>
</g>
<!-- 5 -->
<g id="node6" class="node">
<title>5</title>
<path fill="none" stroke="#5692d8" stroke-width="2" d="M239.5,-540C239.5,-540 144.5,-540 144.5,-540 138.5,-540 132.5,-534 132.5,-528 132.5,-528 132.5,-516 132.5,-516 132.5,-510 138.5,-504 144.5,-504 144.5,-504 239.5,-504 239.5,-504 245.5,-504 251.5,-510 251.5,-516 251.5,-516 251.5,-528 251.5,-528 251.5,-534 245.5,-540 239.5,-540"/>
<text text-anchor="middle" x="192" y="-519.5" font-family="sans" font-size="10.00">host_filtered_fastq_pe</text>
</g>
<!-- 5&#45;&gt;4 -->
<g id="edge13" class="edge">
<title>5&#45;&gt;4</title>
<path fill="none" stroke="grey" stroke-width="2" d="M232.53,-503.15C252.55,-494.34 276.94,-483.61 298.37,-474.17"/>
<polygon fill="grey" stroke="grey" stroke-width="2" points="299.75,-477.39 307.49,-470.15 296.93,-470.98 299.75,-477.39"/>
</g>
<!-- 22 -->
<g id="node23" class="node">
<title>22</title>
<path fill="none" stroke="#b6d856" stroke-width="2" d="M245,-468C245,-468 109,-468 109,-468 103,-468 97,-462 97,-456 97,-456 97,-444 97,-444 97,-438 103,-432 109,-432 109,-432 245,-432 245,-432 251,-432 257,-438 257,-444 257,-444 257,-456 257,-456 257,-462 251,-468 245,-468"/>
<text text-anchor="middle" x="177" y="-447.5" font-family="sans" font-size="10.00">bbmap_read_length_histogram</text>
</g>
<!-- 5&#45;&gt;22 -->
<g id="edge32" class="edge">
<title>5&#45;&gt;22</title>
<path fill="none" stroke="grey" stroke-width="2" d="M188.21,-503.34C186.79,-496.67 185.12,-488.89 183.51,-481.39"/>
<polygon fill="grey" stroke="grey" stroke-width="2" points="186.99,-480.91 181.47,-471.86 180.14,-482.37 186.99,-480.91"/>
</g>
<!-- 6 -->
<g id="node7" class="node">
<title>6</title>
<path fill="none" stroke="#56d0d8" stroke-width="2" d="M248,-612C248,-612 140,-612 140,-612 134,-612 128,-606 128,-600 128,-600 128,-588 128,-588 128,-582 134,-576 140,-576 140,-576 248,-576 248,-576 254,-576 260,-582 260,-588 260,-588 260,-600 260,-600 260,-606 254,-612 248,-612"/>
<text text-anchor="middle" x="194" y="-591.5" font-family="sans" font-size="10.00">gdc_unmapped_fastq_pe</text>
</g>
<!-- 6&#45;&gt;5 -->
<g id="edge14" class="edge">
<title>6&#45;&gt;5</title>
<path fill="none" stroke="grey" stroke-width="2" d="M193.5,-575.34C193.31,-568.75 193.09,-561.08 192.88,-553.67"/>
<polygon fill="grey" stroke="grey" stroke-width="2" points="196.38,-553.82 192.6,-543.93 189.39,-554.02 196.38,-553.82"/>
</g>
<!-- 7 -->
<g id="node8" class="node">
<title>7</title>
<path fill="none" stroke="#56a2d8" stroke-width="2" d="M242.5,-684C242.5,-684 153.5,-684 153.5,-684 147.5,-684 141.5,-678 141.5,-672 141.5,-672 141.5,-660 141.5,-660 141.5,-654 147.5,-648 153.5,-648 153.5,-648 242.5,-648 242.5,-648 248.5,-648 254.5,-654 254.5,-660 254.5,-660 254.5,-672 254.5,-672 254.5,-678 248.5,-684 242.5,-684"/>
<text text-anchor="middle" x="198" y="-663.5" font-family="sans" font-size="10.00">gdc_unmapped_bam</text>
</g>
<!-- 7&#45;&gt;6 -->
<g id="edge16" class="edge">
<title>7&#45;&gt;6</title>
<path fill="none" stroke="grey" stroke-width="2" d="M196.99,-647.34C196.61,-640.75 196.18,-633.08 195.75,-625.67"/>
<polygon fill="grey" stroke="grey" stroke-width="2" points="199.26,-625.71 195.2,-615.92 192.27,-626.11 199.26,-625.71"/>
</g>
<!-- 25 -->
<g id="node26" class="node">
<title>25</title>
<path fill="none" stroke="#56d88a" stroke-width="2" d="M397.5,-612C397.5,-612 290.5,-612 290.5,-612 284.5,-612 278.5,-606 278.5,-600 278.5,-600 278.5,-588 278.5,-588 278.5,-582 284.5,-576 290.5,-576 290.5,-576 397.5,-576 397.5,-576 403.5,-576 409.5,-582 409.5,-588 409.5,-588 409.5,-600 409.5,-600 409.5,-606 403.5,-612 397.5,-612"/>
<text text-anchor="middle" x="344" y="-591.5" font-family="sans" font-size="10.00">gdc_unmapped_fastq_se</text>
</g>
<!-- 7&#45;&gt;25 -->
<g id="edge38" class="edge">
<title>7&#45;&gt;25</title>
<path fill="none" stroke="grey" stroke-width="2" d="M235.22,-647.15C253.34,-638.47 275.37,-627.91 294.85,-618.56"/>
<polygon fill="grey" stroke="grey" stroke-width="2" points="296.36,-621.72 303.87,-614.24 293.33,-615.41 296.36,-621.72"/>
</g>
<!-- 8 -->
<g id="node9" class="node">
<title>8</title>
<path fill="none" stroke="#56d8b9" stroke-width="2" d="M98,-612C98,-612 12,-612 12,-612 6,-612 0,-606 0,-600 0,-600 0,-588 0,-588 0,-582 6,-576 12,-576 12,-576 98,-576 98,-576 104,-576 110,-582 110,-588 110,-588 110,-600 110,-600 110,-606 104,-612 98,-612"/>
<text text-anchor="middle" x="55" y="-591.5" font-family="sans" font-size="10.00">host_genome_index</text>
</g>
<!-- 8&#45;&gt;5 -->
<g id="edge15" class="edge">
<title>8&#45;&gt;5</title>
<path fill="none" stroke="grey" stroke-width="2" d="M89.93,-575.15C106.83,-566.52 127.37,-556.02 145.57,-546.72"/>
<polygon fill="grey" stroke="grey" stroke-width="2" points="147.13,-549.86 154.44,-542.19 143.95,-543.62 147.13,-549.86"/>
</g>
<!-- 24 -->
<g id="node25" class="node">
<title>24</title>
<path fill="none" stroke="#56d87b" stroke-width="2" d="M385,-540C385,-540 291,-540 291,-540 285,-540 279,-534 279,-528 279,-528 279,-516 279,-516 279,-510 285,-504 291,-504 291,-504 385,-504 385,-504 391,-504 397,-510 397,-516 397,-516 397,-528 397,-528 397,-534 391,-540 385,-540"/>
<text text-anchor="middle" x="338" y="-519.5" font-family="sans" font-size="10.00">host_filtered_fastq_se</text>
</g>
<!-- 8&#45;&gt;24 -->
<g id="edge37" class="edge">
<title>8&#45;&gt;24</title>
<path fill="none" stroke="grey" stroke-width="2" d="M110.83,-578.09C113.59,-577.38 116.33,-576.68 119,-576 167.9,-563.59 223.11,-550.23 265.86,-540.03"/>
<polygon fill="grey" stroke="grey" stroke-width="2" points="266.56,-543.46 275.48,-537.74 264.94,-536.65 266.56,-543.46"/>
</g>
<!-- 9 -->
<g id="node10" class="node">
<title>9</title>
<path fill="none" stroke="#61d856" stroke-width="2" d="M96.5,-684C96.5,-684 13.5,-684 13.5,-684 7.5,-684 1.5,-678 1.5,-672 1.5,-672 1.5,-660 1.5,-660 1.5,-654 7.5,-648 13.5,-648 13.5,-648 96.5,-648 96.5,-648 102.5,-648 108.5,-654 108.5,-660 108.5,-660 108.5,-672 108.5,-672 108.5,-678 102.5,-684 96.5,-684"/>
<text text-anchor="middle" x="55" y="-663.5" font-family="sans" font-size="10.00">host_genome_fasta</text>
</g>
<!-- 9&#45;&gt;8 -->
<g id="edge17" class="edge">
<title>9&#45;&gt;8</title>
<path fill="none" stroke="grey" stroke-width="2" d="M55,-647.34C55,-640.75 55,-633.08 55,-625.67"/>
<polygon fill="grey" stroke="grey" stroke-width="2" points="58.5,-625.93 55,-615.93 51.5,-625.93 58.5,-625.93"/>
</g>
<!-- 10 -->
<g id="node11" class="node">
<title>10</title>
<path fill="none" stroke="#d8bc56" stroke-width="2" d="M682.5,-540C682.5,-540 635.5,-540 635.5,-540 629.5,-540 623.5,-534 623.5,-528 623.5,-528 623.5,-516 623.5,-516 623.5,-510 629.5,-504 635.5,-504 635.5,-504 682.5,-504 682.5,-504 688.5,-504 694.5,-510 694.5,-516 694.5,-516 694.5,-528 694.5,-528 694.5,-534 688.5,-540 682.5,-540"/>
<text text-anchor="middle" x="659" y="-519.5" font-family="sans" font-size="10.00">kraken2_db</text>
</g>
<!-- 10&#45;&gt;2 -->
<g id="edge4" class="edge">
<title>10&#45;&gt;2</title>
<path fill="none" stroke="grey" stroke-width="2" d="M674.4,-503.18C681.81,-493.47 689.95,-480.83 694,-468 718.09,-391.68 734.32,-353.96 689,-288 679.48,-274.15 665.25,-263.74 650.27,-255.99"/>
<polygon fill="grey" stroke="grey" stroke-width="2" points="652.02,-252.94 641.49,-251.86 649.04,-259.28 652.02,-252.94"/>
</g>
<!-- 10&#45;&gt;4 -->
<g id="edge12" class="edge">
<title>10&#45;&gt;4</title>
<path fill="none" stroke="grey" stroke-width="2" d="M622.76,-512.76C578.15,-502.63 500.83,-485.05 440.05,-471.24"/>
<polygon fill="grey" stroke="grey" stroke-width="2" points="440.82,-467.83 430.3,-469.02 439.27,-474.65 440.82,-467.83"/>
</g>
<!-- 10&#45;&gt;18 -->
<g id="edge27" class="edge">
<title>10&#45;&gt;18</title>
<path fill="none" stroke="grey" stroke-width="2" d="M622.66,-516.37C583.63,-510.12 520.89,-496.34 474,-468 459.98,-459.53 432.27,-429.28 412.29,-406.38"/>
<polygon fill="grey" stroke="grey" stroke-width="2" points="415.17,-404.36 405.98,-399.08 409.87,-408.94 415.17,-404.36"/>
</g>
<!-- 20 -->
<g id="node21" class="node">
<title>20</title>
<path fill="none" stroke="#56d85b" stroke-width="2" d="M668,-324C668,-324 622,-324 622,-324 616,-324 610,-318 610,-312 610,-312 610,-300 610,-300 610,-294 616,-288 622,-288 622,-288 668,-288 668,-288 674,-288 680,-294 680,-300 680,-300 680,-312 680,-312 680,-318 674,-324 668,-324"/>
<text text-anchor="middle" x="645" y="-303.5" font-family="sans" font-size="10.00">bracken_db</text>
</g>
<!-- 10&#45;&gt;20 -->
<g id="edge30" class="edge">
<title>10&#45;&gt;20</title>
<path fill="none" stroke="grey" stroke-width="2" d="M666.06,-503.22C676.97,-473.12 695.16,-410.48 680,-360 677.4,-351.34 672.88,-342.8 667.93,-335.18"/>
<polygon fill="grey" stroke="grey" stroke-width="2" points="670.94,-333.37 662.3,-327.24 665.23,-337.42 670.94,-333.37"/>
</g>
<!-- 23 -->
<g id="node24" class="node">
<title>23</title>
<path fill="none" stroke="#c6d856" stroke-width="2" d="M620.5,-468C620.5,-468 495.5,-468 495.5,-468 489.5,-468 483.5,-462 483.5,-456 483.5,-456 483.5,-444 483.5,-444 483.5,-438 489.5,-432 495.5,-432 495.5,-432 620.5,-432 620.5,-432 626.5,-432 632.5,-438 632.5,-444 632.5,-444 632.5,-456 632.5,-456 632.5,-462 626.5,-468 620.5,-468"/>
<text text-anchor="middle" x="558" y="-447.5" font-family="sans" font-size="10.00">kraken2_nucl_read_classif_se</text>
</g>
<!-- 10&#45;&gt;23 -->
<g id="edge34" class="edge">
<title>10&#45;&gt;23</title>
<path fill="none" stroke="grey" stroke-width="2" d="M633.25,-503.15C621.38,-494.93 607.08,-485.02 594.16,-476.06"/>
<polygon fill="grey" stroke="grey" stroke-width="2" points="596.4,-473.36 586.19,-470.54 592.41,-479.11 596.4,-473.36"/>
</g>
<!-- 26 -->
<g id="node27" class="node">
<title>26</title>
<path fill="none" stroke="#56d86b" stroke-width="2" d="M659,-396C659,-396 533,-396 533,-396 527,-396 521,-390 521,-384 521,-384 521,-372 521,-372 521,-366 527,-360 533,-360 533,-360 659,-360 659,-360 665,-360 671,-366 671,-372 671,-372 671,-384 671,-384 671,-390 665,-396 659,-396"/>
<text text-anchor="middle" x="596" y="-375.5" font-family="sans" font-size="10.00">kraken2_prot_read_classif_se</text>
</g>
<!-- 10&#45;&gt;26 -->
<g id="edge39" class="edge">
<title>10&#45;&gt;26</title>
<path fill="none" stroke="grey" stroke-width="2" d="M658.31,-503.09C656.98,-484.48 653.13,-454.93 642,-432 637.56,-422.85 631.13,-414.04 624.48,-406.31"/>
<polygon fill="grey" stroke="grey" stroke-width="2" points="627.15,-404.05 617.8,-399.07 622,-408.8 627.15,-404.05"/>
</g>
<!-- 11 -->
<g id="node12" class="node">
<title>11</title>
<path fill="none" stroke="#5673d8" stroke-width="2" d="M850,-684C850,-684 752,-684 752,-684 746,-684 740,-678 740,-672 740,-672 740,-660 740,-660 740,-654 746,-648 752,-648 752,-648 850,-648 850,-648 856,-648 862,-654 862,-660 862,-660 862,-672 862,-672 862,-678 856,-684 850,-684"/>
<text text-anchor="middle" x="801" y="-663.5" font-family="sans" font-size="10.00">kraken2_db_taxonomy</text>
</g>
<!-- 11&#45;&gt;10 -->
<g id="edge19" class="edge">
<title>11&#45;&gt;10</title>
<path fill="none" stroke="grey" stroke-width="2" d="M838.67,-647.21C852.39,-638.64 866.39,-626.93 874,-612 881.27,-597.75 883.87,-588.6 874,-576 853.76,-550.17 764.92,-535.22 707.96,-528.13"/>
<polygon fill="grey" stroke="grey" stroke-width="2" points="708.63,-524.68 698.28,-526.97 707.8,-531.63 708.63,-524.68"/>
</g>
<!-- 12 -->
<g id="node13" class="node">
<title>12</title>
<path fill="none" stroke="#56d8d8" stroke-width="2" d="M707,-612C707,-612 603,-612 603,-612 597,-612 591,-606 591,-600 591,-600 591,-588 591,-588 591,-582 597,-576 603,-576 603,-576 707,-576 707,-576 713,-576 719,-582 719,-588 719,-588 719,-600 719,-600 719,-606 713,-612 707,-612"/>
<text text-anchor="middle" x="655" y="-591.5" font-family="sans" font-size="10.00">kraken2_nucl_db_library</text>
</g>
<!-- 11&#45;&gt;12 -->
<g id="edge22" class="edge">
<title>11&#45;&gt;12</title>
<path fill="none" stroke="grey" stroke-width="2" d="M763.78,-647.15C745.66,-638.47 723.63,-627.91 704.15,-618.56"/>
<polygon fill="grey" stroke="grey" stroke-width="2" points="705.67,-615.41 695.13,-614.24 702.64,-621.72 705.67,-615.41"/>
</g>
<!-- 19 -->
<g id="node20" class="node">
<title>19</title>
<path fill="none" stroke="#d86656" stroke-width="2" d="M853,-612C853,-612 749,-612 749,-612 743,-612 737,-606 737,-600 737,-600 737,-588 737,-588 737,-582 743,-576 749,-576 749,-576 853,-576 853,-576 859,-576 865,-582 865,-588 865,-588 865,-600 865,-600 865,-606 859,-612 853,-612"/>
<text text-anchor="middle" x="801" y="-591.5" font-family="sans" font-size="10.00">kraken2_prot_db_library</text>
</g>
<!-- 11&#45;&gt;19 -->
<g id="edge29" class="edge">
<title>11&#45;&gt;19</title>
<path fill="none" stroke="grey" stroke-width="2" d="M801,-647.34C801,-640.75 801,-633.08 801,-625.67"/>
<polygon fill="grey" stroke="grey" stroke-width="2" points="804.5,-625.93 801,-615.93 797.5,-625.93 804.5,-625.93"/>
</g>
<!-- 12&#45;&gt;10 -->
<g id="edge21" class="edge">
<title>12&#45;&gt;10</title>
<path fill="none" stroke="grey" stroke-width="2" d="M656.01,-575.34C656.39,-568.75 656.82,-561.08 657.25,-553.67"/>
<polygon fill="grey" stroke="grey" stroke-width="2" points="660.73,-554.11 657.8,-543.92 653.74,-553.71 660.73,-554.11"/>
</g>
<!-- 13 -->
<g id="node14" class="node">
<title>13</title>
<path fill="none" stroke="#d8ac56" stroke-width="2" d="M560.5,-612C560.5,-612 447.5,-612 447.5,-612 441.5,-612 435.5,-606 435.5,-600 435.5,-600 435.5,-588 435.5,-588 435.5,-582 441.5,-576 447.5,-576 447.5,-576 560.5,-576 560.5,-576 566.5,-576 572.5,-582 572.5,-588 572.5,-588 572.5,-600 572.5,-600 572.5,-606 566.5,-612 560.5,-612"/>
<text text-anchor="middle" x="504" y="-591.5" font-family="sans" font-size="10.00">kraken2_eupathdb_library</text>
</g>
<!-- 13&#45;&gt;10 -->
<g id="edge20" class="edge">
<title>13&#45;&gt;10</title>
<path fill="none" stroke="grey" stroke-width="2" d="M543.51,-575.15C564.1,-565.86 589.43,-554.42 611.12,-544.62"/>
<polygon fill="grey" stroke="grey" stroke-width="2" points="612.31,-547.92 619.99,-540.62 609.43,-541.55 612.31,-547.92"/>
</g>
<!-- 14 -->
<g id="node15" class="node">
<title>14</title>
<path fill="none" stroke="#d6d856" stroke-width="2" d="M485,-684C485,-684 365,-684 365,-684 359,-684 353,-678 353,-672 353,-672 353,-660 353,-660 353,-654 359,-648 365,-648 365,-648 485,-648 485,-648 491,-648 497,-654 497,-660 497,-660 497,-672 497,-672 497,-678 491,-684 485,-684"/>
<text text-anchor="middle" x="425" y="-663.5" font-family="sans" font-size="10.00">eupathdb_seqid2taxid_map</text>
</g>
<!-- 14&#45;&gt;13 -->
<g id="edge24" class="edge">
<title>14&#45;&gt;13</title>
<path fill="none" stroke="grey" stroke-width="2" d="M444.94,-647.34C453.76,-639.52 464.32,-630.16 474.05,-621.53"/>
<polygon fill="grey" stroke="grey" stroke-width="2" points="476.37,-624.16 481.53,-614.91 471.73,-618.92 476.37,-624.16"/>
</g>
<!-- 15 -->
<g id="node16" class="node">
<title>15</title>
<path fill="none" stroke="#d85656" stroke-width="2" d="M633,-684C633,-684 527,-684 527,-684 521,-684 515,-678 515,-672 515,-672 515,-660 515,-660 515,-654 521,-648 527,-648 527,-648 633,-648 633,-648 639,-648 645,-654 645,-660 645,-660 645,-672 645,-672 645,-678 639,-684 633,-684"/>
<text text-anchor="middle" x="580" y="-663.5" font-family="sans" font-size="10.00">eupathdb_merged_fasta</text>
</g>
<!-- 15&#45;&gt;13 -->
<g id="edge23" class="edge">
<title>15&#45;&gt;13</title>
<path fill="none" stroke="grey" stroke-width="2" d="M560.82,-647.34C552.34,-639.52 542.18,-630.16 532.81,-621.53"/>
<polygon fill="grey" stroke="grey" stroke-width="2" points="535.39,-619.15 525.66,-614.95 530.65,-624.3 535.39,-619.15"/>
</g>
<!-- 16 -->
<g id="node17" class="node">
<title>16</title>
<path fill="none" stroke="#97d856" stroke-width="2" d="M614.5,-756C614.5,-756 545.5,-756 545.5,-756 539.5,-756 533.5,-750 533.5,-744 533.5,-744 533.5,-732 533.5,-732 533.5,-726 539.5,-720 545.5,-720 545.5,-720 614.5,-720 614.5,-720 620.5,-720 626.5,-726 626.5,-732 626.5,-732 626.5,-744 626.5,-744 626.5,-750 620.5,-756 614.5,-756"/>
<text text-anchor="middle" x="580" y="-735.5" font-family="sans" font-size="10.00">eupathdb_fastas</text>
</g>
<!-- 16&#45;&gt;15 -->
<g id="edge25" class="edge">
<title>16&#45;&gt;15</title>
<path fill="none" stroke="grey" stroke-width="2" d="M580,-719.34C580,-712.75 580,-705.08 580,-697.67"/>
<polygon fill="grey" stroke="grey" stroke-width="2" points="583.5,-697.93 580,-687.93 576.5,-697.93 583.5,-697.93"/>
</g>
<!-- 17 -->
<g id="node18" class="node">
<title>17</title>
<path fill="none" stroke="#56c1d8" stroke-width="2" d="M631,-828C631,-828 529,-828 529,-828 523,-828 517,-822 517,-816 517,-816 517,-804 517,-804 517,-798 523,-792 529,-792 529,-792 631,-792 631,-792 637,-792 643,-798 643,-804 643,-804 643,-816 643,-816 643,-822 637,-828 631,-828"/>
<text text-anchor="middle" x="580" y="-807.5" font-family="sans" font-size="10.00">eupathdb_fasta_archive</text>
</g>
<!-- 17&#45;&gt;16 -->
<g id="edge26" class="edge">
<title>17&#45;&gt;16</title>
<path fill="none" stroke="grey" stroke-width="2" d="M580,-791.34C580,-784.75 580,-777.08 580,-769.67"/>
<polygon fill="grey" stroke="grey" stroke-width="2" points="583.5,-769.93 580,-759.93 576.5,-769.93 583.5,-769.93"/>
</g>
<!-- 18&#45;&gt;3 -->
<g id="edge11" class="edge">
<title>18&#45;&gt;3</title>
<path fill="none" stroke="grey" stroke-width="2" d="M415.51,-359.15C427.74,-350.93 442.46,-341.02 455.77,-332.06"/>
<polygon fill="grey" stroke="grey" stroke-width="2" points="457.68,-334.99 464.02,-326.5 453.77,-329.18 457.68,-334.99"/>
</g>
<!-- 19&#45;&gt;10 -->
<g id="edge18" class="edge">
<title>19&#45;&gt;10</title>
<path fill="none" stroke="grey" stroke-width="2" d="M764.8,-575.15C747.11,-566.43 725.59,-555.82 706.58,-546.46"/>
<polygon fill="grey" stroke="grey" stroke-width="2" points="708.37,-543.43 697.85,-542.15 705.27,-549.71 708.37,-543.43"/>
</g>
<!-- 20&#45;&gt;2 -->
<g id="edge7" class="edge">
<title>20&#45;&gt;2</title>
<path fill="none" stroke="grey" stroke-width="2" d="M629.35,-287.34C622.72,-279.85 614.84,-270.95 607.47,-262.63"/>
<polygon fill="grey" stroke="grey" stroke-width="2" points="610.11,-260.33 600.86,-255.17 604.87,-264.97 610.11,-260.33"/>
</g>
<!-- 21 -->
<g id="node22" class="node">
<title>21</title>
<path fill="none" stroke="#5682d8" stroke-width="2" d="M347.5,-324C347.5,-324 238.5,-324 238.5,-324 232.5,-324 226.5,-318 226.5,-312 226.5,-312 226.5,-300 226.5,-300 226.5,-294 232.5,-288 238.5,-288 238.5,-288 347.5,-288 347.5,-288 353.5,-288 359.5,-294 359.5,-300 359.5,-300 359.5,-312 359.5,-312 359.5,-318 353.5,-324 347.5,-324"/>
<text text-anchor="middle" x="293" y="-303.5" font-family="sans" font-size="10.00">bbmap_max_read_length</text>
</g>
<!-- 21&#45;&gt;2 -->
<g id="edge5" class="edge">
<title>21&#45;&gt;2</title>
<path fill="none" stroke="grey" stroke-width="2" d="M360.26,-288.76C406.7,-277.55 468.25,-262.7 514.87,-251.44"/>
<polygon fill="grey" stroke="grey" stroke-width="2" points="515.46,-254.9 524.36,-249.16 513.81,-248.1 515.46,-254.9"/>
</g>
<!-- 22&#45;&gt;21 -->
<g id="edge31" class="edge">
<title>22&#45;&gt;21</title>
<path fill="none" stroke="grey" stroke-width="2" d="M191.69,-431.02C211.56,-406.69 247.2,-363.07 270.47,-334.58"/>
<polygon fill="grey" stroke="grey" stroke-width="2" points="272.9,-337.14 276.51,-327.18 267.48,-332.71 272.9,-337.14"/>
</g>
<!-- 23&#45;&gt;3 -->
<g id="edge9" class="edge">
<title>23&#45;&gt;3</title>
<path fill="none" stroke="grey" stroke-width="2" d="M538.37,-431.1C529.04,-421.55 518.52,-409.08 512,-396 502.94,-377.84 498.19,-355.49 495.7,-337.74"/>
<polygon fill="grey" stroke="grey" stroke-width="2" points="499.19,-337.45 494.54,-327.93 492.24,-338.27 499.19,-337.45"/>
</g>
<!-- 23&#45;&gt;26 -->
<g id="edge40" class="edge">
<title>23&#45;&gt;26</title>
<path fill="none" stroke="grey" stroke-width="2" d="M567.59,-431.34C571.39,-424.34 575.85,-416.12 580.11,-408.28"/>
<polygon fill="grey" stroke="grey" stroke-width="2" points="583.14,-410.02 584.84,-399.56 576.99,-406.68 583.14,-410.02"/>
</g>
<!-- 24&#45;&gt;22 -->
<g id="edge33" class="edge">
<title>24&#45;&gt;22</title>
<path fill="none" stroke="grey" stroke-width="2" d="M296.96,-503.15C276.6,-494.3 251.76,-483.51 229.99,-474.04"/>
<polygon fill="grey" stroke="grey" stroke-width="2" points="231.59,-470.92 221.02,-470.14 228.8,-477.34 231.59,-470.92"/>
</g>
<!-- 24&#45;&gt;23 -->
<g id="edge35" class="edge">
<title>24&#45;&gt;23</title>
<path fill="none" stroke="grey" stroke-width="2" d="M394.37,-503.06C423.35,-493.84 458.91,-482.53 489.46,-472.81"/>
<polygon fill="grey" stroke="grey" stroke-width="2" points="490.42,-476.17 498.89,-469.81 488.3,-469.5 490.42,-476.17"/>
</g>
<!-- 25&#45;&gt;24 -->
<g id="edge36" class="edge">
<title>25&#45;&gt;24</title>
<path fill="none" stroke="grey" stroke-width="2" d="M342.49,-575.34C341.92,-568.75 341.26,-561.08 340.63,-553.67"/>
<polygon fill="grey" stroke="grey" stroke-width="2" points="344.13,-553.58 339.79,-543.92 337.16,-554.18 344.13,-553.58"/>
</g>
<!-- 26&#45;&gt;3 -->
<g id="edge8" class="edge">
<title>26&#45;&gt;3</title>
<path fill="none" stroke="grey" stroke-width="2" d="M569.74,-359.15C557.64,-350.93 543.06,-341.02 529.87,-332.06"/>
<polygon fill="grey" stroke="grey" stroke-width="2" points="531.95,-329.24 521.71,-326.51 528.02,-335.03 531.95,-329.24"/>
</g>
<!-- 27&#45;&gt;1 -->
<g id="edge3" class="edge">
<title>27&#45;&gt;1</title>
<path fill="none" stroke="grey" stroke-width="2" d="M620.38,-143.34C615.21,-136.1 609.09,-127.53 603.32,-119.45"/>
<polygon fill="grey" stroke="grey" stroke-width="2" points="606.21,-117.47 597.55,-111.37 600.51,-121.54 606.21,-117.47"/>
</g>
</g>
</svg>
