<?xml version="1.0" encoding="UTF-8" standalone="no"?>
<!DOCTYPE svg PUBLIC "-//W3C//DTD SVG 1.1//EN"
 "http://www.w3.org/Graphics/SVG/1.1/DTD/svg11.dtd">
<!-- Generated by graphviz version 7.1.0 (0)
 -->
<!-- Title: snakemake_dag Pages: 1 -->
<svg width="688pt" height="764pt"
 viewBox="0.00 0.00 687.50 764.00" xmlns="http://www.w3.org/2000/svg" xmlns:xlink="http://www.w3.org/1999/xlink">
<g id="graph0" class="graph" transform="scale(1 1) rotate(0) translate(4 760)">
<title>snakemake_dag</title>
<polygon fill="white" stroke="none" points="-4,4 -4,-760 683.5,-760 683.5,4 -4,4"/>
<!-- 0 -->
<g id="node1" class="node">
<title>0</title>
<path fill="none" stroke="#56d8c9" stroke-width="2" d="M494.5,-36C494.5,-36 464.5,-36 464.5,-36 458.5,-36 452.5,-30 452.5,-24 452.5,-24 452.5,-12 452.5,-12 452.5,-6 458.5,0 464.5,0 464.5,0 494.5,0 494.5,0 500.5,0 506.5,-6 506.5,-12 506.5,-12 506.5,-24 506.5,-24 506.5,-30 500.5,-36 494.5,-36"/>
<text text-anchor="middle" x="479.5" y="-15.5" font-family="sans" font-size="10.00">all</text>
</g>
<!-- 1 -->
<g id="node2" class="node">
<title>1</title>
<path fill="none" stroke="#d88d56" stroke-width="2" d="M527,-108C527,-108 432,-108 432,-108 426,-108 420,-102 420,-96 420,-96 420,-84 420,-84 420,-78 426,-72 432,-72 432,-72 527,-72 527,-72 533,-72 539,-78 539,-84 539,-84 539,-96 539,-96 539,-102 533,-108 527,-108"/>
<text text-anchor="middle" x="479.5" y="-87.5" font-family="sans" font-size="10.00">bracken_count_matrix</text>
</g>
<!-- 1&#45;&gt;0 -->
<g id="edge1" class="edge">
<title>1&#45;&gt;0</title>
<path fill="none" stroke="grey" stroke-width="2" d="M479.5,-71.34C479.5,-64.75 479.5,-57.08 479.5,-49.67"/>
<polygon fill="grey" stroke="grey" stroke-width="2" points="483,-49.93 479.5,-39.93 476,-49.93 483,-49.93"/>
</g>
<!-- 2 -->
<g id="node3" class="node">
<title>2</title>
<path fill="none" stroke="#56d873" stroke-width="2" d="M522.5,-252C522.5,-252 436.5,-252 436.5,-252 430.5,-252 424.5,-246 424.5,-240 424.5,-240 424.5,-228 424.5,-228 424.5,-222 430.5,-216 436.5,-216 436.5,-216 522.5,-216 522.5,-216 528.5,-216 534.5,-222 534.5,-228 534.5,-228 534.5,-240 534.5,-240 534.5,-246 528.5,-252 522.5,-252"/>
<text text-anchor="middle" x="479.5" y="-231.5" font-family="sans" font-size="10.00">bracken_read_quant</text>
</g>
<!-- 2&#45;&gt;1 -->
<g id="edge2" class="edge">
<title>2&#45;&gt;1</title>
<path fill="none" stroke="grey" stroke-width="2" d="M466.03,-215.43C459.34,-205.59 451.96,-192.76 448.5,-180 444.32,-164.56 444.32,-159.44 448.5,-144 450.8,-135.53 454.82,-127.02 459.23,-119.38"/>
<polygon fill="grey" stroke="grey" stroke-width="2" points="462.06,-121.46 464.42,-111.13 456.13,-117.73 462.06,-121.46"/>
</g>
<!-- 21 -->
<g id="node22" class="node">
<title>21</title>
<path fill="none" stroke="#d8d356" stroke-width="2" d="M589.5,-180C589.5,-180 469.5,-180 469.5,-180 463.5,-180 457.5,-174 457.5,-168 457.5,-168 457.5,-156 457.5,-156 457.5,-150 463.5,-144 469.5,-144 469.5,-144 589.5,-144 589.5,-144 595.5,-144 601.5,-150 601.5,-156 601.5,-156 601.5,-168 601.5,-168 601.5,-174 595.5,-180 589.5,-180"/>
<text text-anchor="middle" x="529.5" y="-159.5" font-family="sans" font-size="10.00">bracken_merged_rg_counts</text>
</g>
<!-- 2&#45;&gt;21 -->
<g id="edge30" class="edge">
<title>2&#45;&gt;21</title>
<path fill="none" stroke="grey" stroke-width="2" d="M492.12,-215.34C497.29,-208.1 503.41,-199.53 509.18,-191.45"/>
<polygon fill="grey" stroke="grey" stroke-width="2" points="511.99,-193.54 514.95,-183.37 506.29,-189.47 511.99,-193.54"/>
</g>
<!-- 3 -->
<g id="node4" class="node">
<title>3</title>
<path fill="none" stroke="#d86656" stroke-width="2" d="M469,-324C469,-324 354,-324 354,-324 348,-324 342,-318 342,-312 342,-312 342,-300 342,-300 342,-294 348,-288 354,-288 354,-288 469,-288 469,-288 475,-288 481,-294 481,-300 481,-300 481,-312 481,-312 481,-318 475,-324 469,-324"/>
<text text-anchor="middle" x="411.5" y="-303.5" font-family="sans" font-size="10.00">kraken2_combined_report</text>
</g>
<!-- 3&#45;&gt;2 -->
<g id="edge5" class="edge">
<title>3&#45;&gt;2</title>
<path fill="none" stroke="grey" stroke-width="2" d="M428.66,-287.34C436.09,-279.69 444.96,-270.56 453.19,-262.08"/>
<polygon fill="grey" stroke="grey" stroke-width="2" points="455.54,-264.68 460,-255.07 450.52,-259.81 455.54,-264.68"/>
</g>
<!-- 4 -->
<g id="node5" class="node">
<title>4</title>
<path fill="none" stroke="#80d856" stroke-width="2" d="M268,-468C268,-468 141,-468 141,-468 135,-468 129,-462 129,-456 129,-456 129,-444 129,-444 129,-438 135,-432 141,-432 141,-432 268,-432 268,-432 274,-432 280,-438 280,-444 280,-444 280,-456 280,-456 280,-462 274,-468 268,-468"/>
<text text-anchor="middle" x="204.5" y="-447.5" font-family="sans" font-size="10.00">kraken2_nucl_read_classif_pe</text>
</g>
<!-- 4&#45;&gt;3 -->
<g id="edge6" class="edge">
<title>4&#45;&gt;3</title>
<path fill="none" stroke="grey" stroke-width="2" d="M203.02,-431.2C202.38,-411.29 204.58,-379.29 222.5,-360 249.59,-330.84 291.3,-317.25 328.65,-311.1"/>
<polygon fill="grey" stroke="grey" stroke-width="2" points="328.74,-314.63 338.13,-309.72 327.73,-307.7 328.74,-314.63"/>
</g>
<!-- 14 -->
<g id="node15" class="node">
<title>14</title>
<path fill="none" stroke="#56c1d8" stroke-width="2" d="M371.5,-396C371.5,-396 243.5,-396 243.5,-396 237.5,-396 231.5,-390 231.5,-384 231.5,-384 231.5,-372 231.5,-372 231.5,-366 237.5,-360 243.5,-360 243.5,-360 371.5,-360 371.5,-360 377.5,-360 383.5,-366 383.5,-372 383.5,-372 383.5,-384 383.5,-384 383.5,-390 377.5,-396 371.5,-396"/>
<text text-anchor="middle" x="307.5" y="-375.5" font-family="sans" font-size="10.00">kraken2_prot_read_classif_pe</text>
</g>
<!-- 4&#45;&gt;14 -->
<g id="edge21" class="edge">
<title>4&#45;&gt;14</title>
<path fill="none" stroke="grey" stroke-width="2" d="M230.76,-431.15C242.86,-422.93 257.44,-413.02 270.63,-404.06"/>
<polygon fill="grey" stroke="grey" stroke-width="2" points="272.48,-407.03 278.79,-398.51 268.55,-401.24 272.48,-407.03"/>
</g>
<!-- 5 -->
<g id="node6" class="node">
<title>5</title>
<path fill="none" stroke="#568ad8" stroke-width="2" d="M261,-540C261,-540 148,-540 148,-540 142,-540 136,-534 136,-528 136,-528 136,-516 136,-516 136,-510 142,-504 148,-504 148,-504 261,-504 261,-504 267,-504 273,-510 273,-516 273,-516 273,-528 273,-528 273,-534 267,-540 261,-540"/>
<text text-anchor="middle" x="204.5" y="-519.5" font-family="sans" font-size="10.00">bowtie2_filtered_fastq_pe</text>
</g>
<!-- 5&#45;&gt;4 -->
<g id="edge10" class="edge">
<title>5&#45;&gt;4</title>
<path fill="none" stroke="grey" stroke-width="2" d="M204.5,-503.34C204.5,-496.75 204.5,-489.08 204.5,-481.67"/>
<polygon fill="grey" stroke="grey" stroke-width="2" points="208,-481.93 204.5,-471.93 201,-481.93 208,-481.93"/>
</g>
<!-- 6 -->
<g id="node7" class="node">
<title>6</title>
<path fill="none" stroke="#d89c56" stroke-width="2" d="M256.5,-612C256.5,-612 174.5,-612 174.5,-612 168.5,-612 162.5,-606 162.5,-600 162.5,-600 162.5,-588 162.5,-588 162.5,-582 168.5,-576 174.5,-576 174.5,-576 256.5,-576 256.5,-576 262.5,-576 268.5,-582 268.5,-588 268.5,-588 268.5,-600 268.5,-600 268.5,-606 262.5,-612 256.5,-612"/>
<text text-anchor="middle" x="215.5" y="-591.5" font-family="sans" font-size="10.00">bowtie2_host_filter</text>
</g>
<!-- 6&#45;&gt;5 -->
<g id="edge12" class="edge">
<title>6&#45;&gt;5</title>
<path fill="none" stroke="grey" stroke-width="2" d="M212.72,-575.34C211.69,-568.75 210.48,-561.08 209.32,-553.67"/>
<polygon fill="grey" stroke="grey" stroke-width="2" points="212.79,-553.23 207.78,-543.89 205.88,-554.31 212.79,-553.23"/>
</g>
<!-- 18 -->
<g id="node19" class="node">
<title>18</title>
<path fill="none" stroke="#566bd8" stroke-width="2" d="M414,-540C414,-540 303,-540 303,-540 297,-540 291,-534 291,-528 291,-528 291,-516 291,-516 291,-510 297,-504 303,-504 303,-504 414,-504 414,-504 420,-504 426,-510 426,-516 426,-516 426,-528 426,-528 426,-534 420,-540 414,-540"/>
<text text-anchor="middle" x="358.5" y="-519.5" font-family="sans" font-size="10.00">bowtie2_filtered_fastq_se</text>
</g>
<!-- 6&#45;&gt;18 -->
<g id="edge26" class="edge">
<title>6&#45;&gt;18</title>
<path fill="none" stroke="grey" stroke-width="2" d="M251.95,-575.15C269.77,-566.43 291.45,-555.82 310.58,-546.46"/>
<polygon fill="grey" stroke="grey" stroke-width="2" points="311.95,-549.68 319.39,-542.14 308.87,-543.4 311.95,-549.68"/>
</g>
<!-- 7 -->
<g id="node8" class="node">
<title>7</title>
<path fill="none" stroke="#56d0d8" stroke-width="2" d="M269.5,-684C269.5,-684 161.5,-684 161.5,-684 155.5,-684 149.5,-678 149.5,-672 149.5,-672 149.5,-660 149.5,-660 149.5,-654 155.5,-648 161.5,-648 161.5,-648 269.5,-648 269.5,-648 275.5,-648 281.5,-654 281.5,-660 281.5,-660 281.5,-672 281.5,-672 281.5,-678 275.5,-684 269.5,-684"/>
<text text-anchor="middle" x="215.5" y="-663.5" font-family="sans" font-size="10.00">gdc_unmapped_fastq_pe</text>
</g>
<!-- 7&#45;&gt;6 -->
<g id="edge15" class="edge">
<title>7&#45;&gt;6</title>
<path fill="none" stroke="grey" stroke-width="2" d="M215.5,-647.34C215.5,-640.75 215.5,-633.08 215.5,-625.67"/>
<polygon fill="grey" stroke="grey" stroke-width="2" points="219,-625.93 215.5,-615.93 212,-625.93 219,-625.93"/>
</g>
<!-- 8 -->
<g id="node9" class="node">
<title>8</title>
<path fill="none" stroke="#d85656" stroke-width="2" d="M185,-756C185,-756 96,-756 96,-756 90,-756 84,-750 84,-744 84,-744 84,-732 84,-732 84,-726 90,-720 96,-720 96,-720 185,-720 185,-720 191,-720 197,-726 197,-732 197,-732 197,-744 197,-744 197,-750 191,-756 185,-756"/>
<text text-anchor="middle" x="140.5" y="-735.5" font-family="sans" font-size="10.00">gdc_unmapped_bam</text>
</g>
<!-- 8&#45;&gt;7 -->
<g id="edge16" class="edge">
<title>8&#45;&gt;7</title>
<path fill="none" stroke="grey" stroke-width="2" d="M159.43,-719.34C167.8,-711.52 177.83,-702.16 187.07,-693.53"/>
<polygon fill="grey" stroke="grey" stroke-width="2" points="189.18,-696.35 194.11,-686.97 184.41,-691.23 189.18,-696.35"/>
</g>
<!-- 19 -->
<g id="node20" class="node">
<title>19</title>
<path fill="none" stroke="#56d882" stroke-width="2" d="M119,-684C119,-684 12,-684 12,-684 6,-684 0,-678 0,-672 0,-672 0,-660 0,-660 0,-654 6,-648 12,-648 12,-648 119,-648 119,-648 125,-648 131,-654 131,-660 131,-660 131,-672 131,-672 131,-678 125,-684 119,-684"/>
<text text-anchor="middle" x="65.5" y="-663.5" font-family="sans" font-size="10.00">gdc_unmapped_fastq_se</text>
</g>
<!-- 8&#45;&gt;19 -->
<g id="edge27" class="edge">
<title>8&#45;&gt;19</title>
<path fill="none" stroke="grey" stroke-width="2" d="M121.57,-719.34C113.2,-711.52 103.17,-702.16 93.93,-693.53"/>
<polygon fill="grey" stroke="grey" stroke-width="2" points="96.59,-691.23 86.89,-686.97 91.82,-696.35 96.59,-691.23"/>
</g>
<!-- 9 -->
<g id="node10" class="node">
<title>9</title>
<path fill="none" stroke="#97d856" stroke-width="2" d="M395.5,-684C395.5,-684 311.5,-684 311.5,-684 305.5,-684 299.5,-678 299.5,-672 299.5,-672 299.5,-660 299.5,-660 299.5,-654 305.5,-648 311.5,-648 311.5,-648 395.5,-648 395.5,-648 401.5,-648 407.5,-654 407.5,-660 407.5,-660 407.5,-672 407.5,-672 407.5,-678 401.5,-684 395.5,-684"/>
<text text-anchor="middle" x="353.5" y="-663.5" font-family="sans" font-size="10.00">bowtie2_host_index</text>
</g>
<!-- 9&#45;&gt;6 -->
<g id="edge14" class="edge">
<title>9&#45;&gt;6</title>
<path fill="none" stroke="grey" stroke-width="2" d="M318.32,-647.15C301.21,-638.47 280.41,-627.92 262,-618.59"/>
<polygon fill="grey" stroke="grey" stroke-width="2" points="263.82,-615.58 253.32,-614.18 260.65,-621.83 263.82,-615.58"/>
</g>
<!-- 10 -->
<g id="node11" class="node">
<title>10</title>
<path fill="none" stroke="#56d85b" stroke-width="2" d="M395,-756C395,-756 312,-756 312,-756 306,-756 300,-750 300,-744 300,-744 300,-732 300,-732 300,-726 306,-720 312,-720 312,-720 395,-720 395,-720 401,-720 407,-726 407,-732 407,-732 407,-744 407,-744 407,-750 401,-756 395,-756"/>
<text text-anchor="middle" x="353.5" y="-735.5" font-family="sans" font-size="10.00">host_genome_fasta</text>
</g>
<!-- 10&#45;&gt;9 -->
<g id="edge17" class="edge">
<title>10&#45;&gt;9</title>
<path fill="none" stroke="grey" stroke-width="2" d="M353.5,-719.34C353.5,-712.75 353.5,-705.08 353.5,-697.67"/>
<polygon fill="grey" stroke="grey" stroke-width="2" points="357,-697.93 353.5,-687.93 350,-697.93 357,-697.93"/>
</g>
<!-- 11 -->
<g id="node12" class="node">
<title>11</title>
<path fill="none" stroke="#56d892" stroke-width="2" d="M530.5,-540C530.5,-540 456.5,-540 456.5,-540 450.5,-540 444.5,-534 444.5,-528 444.5,-528 444.5,-516 444.5,-516 444.5,-510 450.5,-504 456.5,-504 456.5,-504 530.5,-504 530.5,-504 536.5,-504 542.5,-510 542.5,-516 542.5,-516 542.5,-528 542.5,-528 542.5,-534 536.5,-540 530.5,-540"/>
<text text-anchor="middle" x="493.5" y="-519.5" font-family="sans" font-size="10.00">kraken2_db_build</text>
</g>
<!-- 11&#45;&gt;4 -->
<g id="edge11" class="edge">
<title>11&#45;&gt;4</title>
<path fill="none" stroke="grey" stroke-width="2" d="M443.66,-506.43C440.56,-505.59 437.49,-504.78 434.5,-504 388.21,-492.01 336.32,-479.93 293.57,-470.35"/>
<polygon fill="grey" stroke="grey" stroke-width="2" points="294.37,-466.94 283.85,-468.18 292.85,-473.77 294.37,-466.94"/>
</g>
<!-- 11&#45;&gt;14 -->
<g id="edge22" class="edge">
<title>11&#45;&gt;14</title>
<path fill="none" stroke="grey" stroke-width="2" d="M443.59,-506.38C396.21,-492.3 331.61,-472.49 327.5,-468 313.13,-452.3 308.33,-428.56 307.02,-409.55"/>
<polygon fill="grey" stroke="grey" stroke-width="2" points="310.53,-409.62 306.7,-399.74 303.53,-409.86 310.53,-409.62"/>
</g>
<!-- 16 -->
<g id="node17" class="node">
<title>16</title>
<path fill="none" stroke="#a7d856" stroke-width="2" d="M619,-324C619,-324 546,-324 546,-324 540,-324 534,-318 534,-312 534,-312 534,-300 534,-300 534,-294 540,-288 546,-288 546,-288 619,-288 619,-288 625,-288 631,-294 631,-300 631,-300 631,-312 631,-312 631,-318 625,-324 619,-324"/>
<text text-anchor="middle" x="582.5" y="-303.5" font-family="sans" font-size="10.00">bracken_db_build</text>
</g>
<!-- 11&#45;&gt;16 -->
<g id="edge23" class="edge">
<title>11&#45;&gt;16</title>
<path fill="none" stroke="grey" stroke-width="2" d="M515.96,-503.1C541.6,-481.06 582.11,-441 598.5,-396 605.43,-376.98 601.32,-354.55 595.53,-336.96"/>
<polygon fill="grey" stroke="grey" stroke-width="2" points="598.86,-335.86 592.1,-327.7 592.3,-338.29 598.86,-335.86"/>
</g>
<!-- 17 -->
<g id="node18" class="node">
<title>17</title>
<path fill="none" stroke="#56d8a9" stroke-width="2" d="M474,-468C474,-468 349,-468 349,-468 343,-468 337,-462 337,-456 337,-456 337,-444 337,-444 337,-438 343,-432 349,-432 349,-432 474,-432 474,-432 480,-432 486,-438 486,-444 486,-444 486,-456 486,-456 486,-462 480,-468 474,-468"/>
<text text-anchor="middle" x="411.5" y="-447.5" font-family="sans" font-size="10.00">kraken2_nucl_read_classif_se</text>
</g>
<!-- 11&#45;&gt;17 -->
<g id="edge25" class="edge">
<title>11&#45;&gt;17</title>
<path fill="none" stroke="grey" stroke-width="2" d="M472.81,-503.34C463.56,-495.44 452.46,-485.96 442.26,-477.26"/>
<polygon fill="grey" stroke="grey" stroke-width="2" points="444.65,-474.7 434.77,-470.87 440.11,-480.02 444.65,-474.7"/>
</g>
<!-- 20 -->
<g id="node21" class="node">
<title>20</title>
<path fill="none" stroke="#70d856" stroke-width="2" d="M577.5,-396C577.5,-396 451.5,-396 451.5,-396 445.5,-396 439.5,-390 439.5,-384 439.5,-384 439.5,-372 439.5,-372 439.5,-366 445.5,-360 451.5,-360 451.5,-360 577.5,-360 577.5,-360 583.5,-360 589.5,-366 589.5,-372 589.5,-372 589.5,-384 589.5,-384 589.5,-390 583.5,-396 577.5,-396"/>
<text text-anchor="middle" x="514.5" y="-375.5" font-family="sans" font-size="10.00">kraken2_prot_read_classif_se</text>
</g>
<!-- 11&#45;&gt;20 -->
<g id="edge29" class="edge">
<title>11&#45;&gt;20</title>
<path fill="none" stroke="grey" stroke-width="2" d="M496.16,-503.02C499.63,-479.54 505.76,-438.11 509.97,-409.64"/>
<polygon fill="grey" stroke="grey" stroke-width="2" points="513.42,-410.24 511.42,-399.83 506.49,-409.21 513.42,-410.24"/>
</g>
<!-- 12 -->
<g id="node13" class="node">
<title>12</title>
<path fill="none" stroke="#56b1d8" stroke-width="2" d="M407.5,-612C407.5,-612 309.5,-612 309.5,-612 303.5,-612 297.5,-606 297.5,-600 297.5,-600 297.5,-588 297.5,-588 297.5,-582 303.5,-576 309.5,-576 309.5,-576 407.5,-576 407.5,-576 413.5,-576 419.5,-582 419.5,-588 419.5,-588 419.5,-600 419.5,-600 419.5,-606 413.5,-612 407.5,-612"/>
<text text-anchor="middle" x="358.5" y="-591.5" font-family="sans" font-size="10.00">kraken2_db_taxonomy</text>
</g>
<!-- 12&#45;&gt;11 -->
<g id="edge20" class="edge">
<title>12&#45;&gt;11</title>
<path fill="none" stroke="grey" stroke-width="2" d="M392.92,-575.15C409.58,-566.52 429.81,-556.02 447.75,-546.72"/>
<polygon fill="grey" stroke="grey" stroke-width="2" points="449.19,-549.92 456.46,-542.21 445.97,-543.7 449.19,-549.92"/>
</g>
<!-- 13 -->
<g id="node14" class="node">
<title>13</title>
<path fill="none" stroke="#56d8b9" stroke-width="2" d="M537,-612C537,-612 450,-612 450,-612 444,-612 438,-606 438,-600 438,-600 438,-588 438,-588 438,-582 444,-576 450,-576 450,-576 537,-576 537,-576 543,-576 549,-582 549,-588 549,-588 549,-600 549,-600 549,-606 543,-612 537,-612"/>
<text text-anchor="middle" x="493.5" y="-591.5" font-family="sans" font-size="10.00">kraken2_nucl_library</text>
</g>
<!-- 13&#45;&gt;11 -->
<g id="edge19" class="edge">
<title>13&#45;&gt;11</title>
<path fill="none" stroke="grey" stroke-width="2" d="M493.5,-575.34C493.5,-568.75 493.5,-561.08 493.5,-553.67"/>
<polygon fill="grey" stroke="grey" stroke-width="2" points="497,-553.93 493.5,-543.93 490,-553.93 497,-553.93"/>
</g>
<!-- 14&#45;&gt;3 -->
<g id="edge9" class="edge">
<title>14&#45;&gt;3</title>
<path fill="none" stroke="grey" stroke-width="2" d="M334.01,-359.15C346.24,-350.93 360.96,-341.02 374.27,-332.06"/>
<polygon fill="grey" stroke="grey" stroke-width="2" points="376.18,-334.99 382.52,-326.5 372.27,-329.18 376.18,-334.99"/>
</g>
<!-- 15 -->
<g id="node16" class="node">
<title>15</title>
<path fill="none" stroke="#567bd8" stroke-width="2" d="M667.5,-612C667.5,-612 579.5,-612 579.5,-612 573.5,-612 567.5,-606 567.5,-600 567.5,-600 567.5,-588 567.5,-588 567.5,-582 573.5,-576 579.5,-576 579.5,-576 667.5,-576 667.5,-576 673.5,-576 679.5,-582 679.5,-588 679.5,-588 679.5,-600 679.5,-600 679.5,-606 673.5,-612 667.5,-612"/>
<text text-anchor="middle" x="623.5" y="-591.5" font-family="sans" font-size="10.00">kraken2_prot_library</text>
</g>
<!-- 15&#45;&gt;11 -->
<g id="edge18" class="edge">
<title>15&#45;&gt;11</title>
<path fill="none" stroke="grey" stroke-width="2" d="M590.36,-575.15C574.47,-566.6 555.2,-556.22 538.05,-546.99"/>
<polygon fill="grey" stroke="grey" stroke-width="2" points="539.71,-543.91 529.25,-542.25 536.39,-550.07 539.71,-543.91"/>
</g>
<!-- 16&#45;&gt;2 -->
<g id="edge4" class="edge">
<title>16&#45;&gt;2</title>
<path fill="none" stroke="grey" stroke-width="2" d="M556.24,-287.15C544.14,-278.93 529.56,-269.02 516.37,-260.06"/>
<polygon fill="grey" stroke="grey" stroke-width="2" points="518.45,-257.24 508.21,-254.51 514.52,-263.03 518.45,-257.24"/>
</g>
<!-- 17&#45;&gt;3 -->
<g id="edge8" class="edge">
<title>17&#45;&gt;3</title>
<path fill="none" stroke="grey" stroke-width="2" d="M411.5,-431.02C411.5,-407.54 411.5,-366.11 411.5,-337.64"/>
<polygon fill="grey" stroke="grey" stroke-width="2" points="415,-337.87 411.5,-327.87 408,-337.87 415,-337.87"/>
</g>
<!-- 17&#45;&gt;20 -->
<g id="edge28" class="edge">
<title>17&#45;&gt;20</title>
<path fill="none" stroke="grey" stroke-width="2" d="M437.76,-431.15C449.86,-422.93 464.44,-413.02 477.63,-404.06"/>
<polygon fill="grey" stroke="grey" stroke-width="2" points="479.48,-407.03 485.79,-398.51 475.55,-401.24 479.48,-407.03"/>
</g>
<!-- 18&#45;&gt;17 -->
<g id="edge24" class="edge">
<title>18&#45;&gt;17</title>
<path fill="none" stroke="grey" stroke-width="2" d="M371.87,-503.34C377.42,-496.01 383.99,-487.34 390.17,-479.18"/>
<polygon fill="grey" stroke="grey" stroke-width="2" points="392.87,-481.4 396.12,-471.32 387.29,-477.18 392.87,-481.4"/>
</g>
<!-- 19&#45;&gt;6 -->
<g id="edge13" class="edge">
<title>19&#45;&gt;6</title>
<path fill="none" stroke="grey" stroke-width="2" d="M103.74,-647.15C122.44,-638.43 145.2,-627.81 165.29,-618.43"/>
<polygon fill="grey" stroke="grey" stroke-width="2" points="166.75,-621.61 174.33,-614.21 163.78,-615.27 166.75,-621.61"/>
</g>
<!-- 20&#45;&gt;3 -->
<g id="edge7" class="edge">
<title>20&#45;&gt;3</title>
<path fill="none" stroke="grey" stroke-width="2" d="M488.24,-359.15C476.14,-350.93 461.56,-341.02 448.37,-332.06"/>
<polygon fill="grey" stroke="grey" stroke-width="2" points="450.45,-329.24 440.21,-326.51 446.52,-335.03 450.45,-329.24"/>
</g>
<!-- 21&#45;&gt;1 -->
<g id="edge3" class="edge">
<title>21&#45;&gt;1</title>
<path fill="none" stroke="grey" stroke-width="2" d="M516.88,-143.34C511.71,-136.1 505.59,-127.53 499.82,-119.45"/>
<polygon fill="grey" stroke="grey" stroke-width="2" points="502.71,-117.47 494.05,-111.37 497.01,-121.54 502.71,-117.47"/>
</g>
</g>
</svg>
