<?xml version="1.0" encoding="UTF-8" standalone="no"?>
<!DOCTYPE svg PUBLIC "-//W3C//DTD SVG 1.1//EN"
 "http://www.w3.org/Graphics/SVG/1.1/DTD/svg11.dtd">
<!-- Generated by graphviz version 7.1.0 (0)
 -->
<!-- Title: snakemake_dag Pages: 1 -->
<svg width="416pt" height="692pt"
 viewBox="0.00 0.00 415.50 692.00" xmlns="http://www.w3.org/2000/svg" xmlns:xlink="http://www.w3.org/1999/xlink">
<g id="graph0" class="graph" transform="scale(1 1) rotate(0) translate(4 688)">
<title>snakemake_dag</title>
<polygon fill="white" stroke="none" points="-4,4 -4,-688 411.5,-688 411.5,4 -4,4"/>
<!-- 0 -->
<g id="node1" class="node">
<title>0</title>
<path fill="none" stroke="#d87556" stroke-width="2" d="M229.5,-36C229.5,-36 199.5,-36 199.5,-36 193.5,-36 187.5,-30 187.5,-24 187.5,-24 187.5,-12 187.5,-12 187.5,-6 193.5,0 199.5,0 199.5,0 229.5,0 229.5,0 235.5,0 241.5,-6 241.5,-12 241.5,-12 241.5,-24 241.5,-24 241.5,-30 235.5,-36 229.5,-36"/>
<text text-anchor="middle" x="214.5" y="-15.5" font-family="sans" font-size="10.00">all</text>
</g>
<!-- 1 -->
<g id="node2" class="node">
<title>1</title>
<path fill="none" stroke="#d85656" stroke-width="2" d="M262,-108C262,-108 167,-108 167,-108 161,-108 155,-102 155,-96 155,-96 155,-84 155,-84 155,-78 161,-72 167,-72 167,-72 262,-72 262,-72 268,-72 274,-78 274,-84 274,-84 274,-96 274,-96 274,-102 268,-108 262,-108"/>
<text text-anchor="middle" x="214.5" y="-87.5" font-family="sans" font-size="10.00">bracken_count_matrix</text>
</g>
<!-- 1&#45;&gt;0 -->
<g id="edge1" class="edge">
<title>1&#45;&gt;0</title>
<path fill="none" stroke="grey" stroke-width="2" d="M214.5,-71.34C214.5,-64.75 214.5,-57.08 214.5,-49.67"/>
<polygon fill="grey" stroke="grey" stroke-width="2" points="218,-49.93 214.5,-39.93 211,-49.93 218,-49.93"/>
</g>
<!-- 2 -->
<g id="node3" class="node">
<title>2</title>
<path fill="none" stroke="#d8d356" stroke-width="2" d="M265.5,-252C265.5,-252 163.5,-252 163.5,-252 157.5,-252 151.5,-246 151.5,-240 151.5,-240 151.5,-228 151.5,-228 151.5,-222 157.5,-216 163.5,-216 163.5,-216 265.5,-216 265.5,-216 271.5,-216 277.5,-222 277.5,-228 277.5,-228 277.5,-240 277.5,-240 277.5,-246 271.5,-252 265.5,-252"/>
<text text-anchor="middle" x="214.5" y="-231.5" font-family="sans" font-size="10.00">bracken_quantify_reads</text>
</g>
<!-- 2&#45;&gt;1 -->
<g id="edge2" class="edge">
<title>2&#45;&gt;1</title>
<path fill="none" stroke="grey" stroke-width="2" d="M201.03,-215.43C194.34,-205.59 186.96,-192.76 183.5,-180 179.32,-164.56 179.32,-159.44 183.5,-144 185.8,-135.53 189.82,-127.02 194.23,-119.38"/>
<polygon fill="grey" stroke="grey" stroke-width="2" points="197.06,-121.46 199.42,-111.13 191.13,-117.73 197.06,-121.46"/>
</g>
<!-- 14 -->
<g id="node15" class="node">
<title>14</title>
<path fill="none" stroke="#5673d8" stroke-width="2" d="M324.5,-180C324.5,-180 204.5,-180 204.5,-180 198.5,-180 192.5,-174 192.5,-168 192.5,-168 192.5,-156 192.5,-156 192.5,-150 198.5,-144 204.5,-144 204.5,-144 324.5,-144 324.5,-144 330.5,-144 336.5,-150 336.5,-156 336.5,-156 336.5,-168 336.5,-168 336.5,-174 330.5,-180 324.5,-180"/>
<text text-anchor="middle" x="264.5" y="-159.5" font-family="sans" font-size="10.00">bracken_merged_rg_counts</text>
</g>
<!-- 2&#45;&gt;14 -->
<g id="edge19" class="edge">
<title>2&#45;&gt;14</title>
<path fill="none" stroke="grey" stroke-width="2" d="M227.12,-215.34C232.29,-208.1 238.41,-199.53 244.18,-191.45"/>
<polygon fill="grey" stroke="grey" stroke-width="2" points="246.99,-193.54 249.95,-183.37 241.29,-189.47 246.99,-193.54"/>
</g>
<!-- 3 -->
<g id="node4" class="node">
<title>3</title>
<path fill="none" stroke="#56d0d8" stroke-width="2" d="M188,-396C188,-396 77,-396 77,-396 71,-396 65,-390 65,-384 65,-384 65,-372 65,-372 65,-366 71,-360 77,-360 77,-360 188,-360 188,-360 194,-360 200,-366 200,-372 200,-372 200,-384 200,-384 200,-390 194,-396 188,-396"/>
<text text-anchor="middle" x="132.5" y="-375.5" font-family="sans" font-size="10.00">krakenuniq_classify_reads</text>
</g>
<!-- 3&#45;&gt;2 -->
<g id="edge5" class="edge">
<title>3&#45;&gt;2</title>
<path fill="none" stroke="grey" stroke-width="2" d="M142.89,-359.02C156.69,-335.12 181.24,-292.59 197.7,-264.1"/>
<polygon fill="grey" stroke="grey" stroke-width="2" points="200.72,-265.87 202.69,-255.46 194.65,-262.37 200.72,-265.87"/>
</g>
<!-- 4 -->
<g id="node5" class="node">
<title>4</title>
<path fill="none" stroke="#d89556" stroke-width="2" d="M195,-468C195,-468 82,-468 82,-468 76,-468 70,-462 70,-456 70,-456 70,-444 70,-444 70,-438 76,-432 82,-432 82,-432 195,-432 195,-432 201,-432 207,-438 207,-444 207,-444 207,-456 207,-456 207,-462 201,-468 195,-468"/>
<text text-anchor="middle" x="138.5" y="-447.5" font-family="sans" font-size="10.00">bowtie2_filtered_fastq_pe</text>
</g>
<!-- 4&#45;&gt;3 -->
<g id="edge7" class="edge">
<title>4&#45;&gt;3</title>
<path fill="none" stroke="grey" stroke-width="2" d="M136.99,-431.34C136.42,-424.75 135.76,-417.08 135.13,-409.67"/>
<polygon fill="grey" stroke="grey" stroke-width="2" points="138.63,-409.58 134.29,-399.92 131.66,-410.18 138.63,-409.58"/>
</g>
<!-- 11 -->
<g id="node12" class="node">
<title>11</title>
<path fill="none" stroke="#9fd856" stroke-width="2" d="M366.5,-396C366.5,-396 230.5,-396 230.5,-396 224.5,-396 218.5,-390 218.5,-384 218.5,-384 218.5,-372 218.5,-372 218.5,-366 224.5,-360 230.5,-360 230.5,-360 366.5,-360 366.5,-360 372.5,-360 378.5,-366 378.5,-372 378.5,-372 378.5,-384 378.5,-384 378.5,-390 372.5,-396 366.5,-396"/>
<text text-anchor="middle" x="298.5" y="-375.5" font-family="sans" font-size="10.00">bbmap_read_length_histogram</text>
</g>
<!-- 4&#45;&gt;11 -->
<g id="edge16" class="edge">
<title>4&#45;&gt;11</title>
<path fill="none" stroke="grey" stroke-width="2" d="M179.29,-431.15C199.52,-422.3 224.2,-411.51 245.84,-402.04"/>
<polygon fill="grey" stroke="grey" stroke-width="2" points="246.98,-405.36 254.73,-398.15 244.17,-398.95 246.98,-405.36"/>
</g>
<!-- 5 -->
<g id="node6" class="node">
<title>5</title>
<path fill="none" stroke="#56d882" stroke-width="2" d="M256.5,-540C256.5,-540 174.5,-540 174.5,-540 168.5,-540 162.5,-534 162.5,-528 162.5,-528 162.5,-516 162.5,-516 162.5,-510 168.5,-504 174.5,-504 174.5,-504 256.5,-504 256.5,-504 262.5,-504 268.5,-510 268.5,-516 268.5,-516 268.5,-528 268.5,-528 268.5,-534 262.5,-540 256.5,-540"/>
<text text-anchor="middle" x="215.5" y="-519.5" font-family="sans" font-size="10.00">bowtie2_filter_host</text>
</g>
<!-- 5&#45;&gt;4 -->
<g id="edge8" class="edge">
<title>5&#45;&gt;4</title>
<path fill="none" stroke="grey" stroke-width="2" d="M196.07,-503.34C187.47,-495.52 177.18,-486.16 167.69,-477.53"/>
<polygon fill="grey" stroke="grey" stroke-width="2" points="170.19,-475.07 160.43,-470.94 165.48,-480.25 170.19,-475.07"/>
</g>
<!-- 12 -->
<g id="node13" class="node">
<title>12</title>
<path fill="none" stroke="#bed856" stroke-width="2" d="M348,-468C348,-468 237,-468 237,-468 231,-468 225,-462 225,-456 225,-456 225,-444 225,-444 225,-438 231,-432 237,-432 237,-432 348,-432 348,-432 354,-432 360,-438 360,-444 360,-444 360,-456 360,-456 360,-462 354,-468 348,-468"/>
<text text-anchor="middle" x="292.5" y="-447.5" font-family="sans" font-size="10.00">bowtie2_filtered_fastq_se</text>
</g>
<!-- 5&#45;&gt;12 -->
<g id="edge17" class="edge">
<title>5&#45;&gt;12</title>
<path fill="none" stroke="grey" stroke-width="2" d="M234.93,-503.34C243.53,-495.52 253.82,-486.16 263.31,-477.53"/>
<polygon fill="grey" stroke="grey" stroke-width="2" points="265.52,-480.25 270.57,-470.94 260.81,-475.07 265.52,-480.25"/>
</g>
<!-- 6 -->
<g id="node7" class="node">
<title>6</title>
<path fill="none" stroke="#5692d8" stroke-width="2" d="M269.5,-612C269.5,-612 161.5,-612 161.5,-612 155.5,-612 149.5,-606 149.5,-600 149.5,-600 149.5,-588 149.5,-588 149.5,-582 155.5,-576 161.5,-576 161.5,-576 269.5,-576 269.5,-576 275.5,-576 281.5,-582 281.5,-588 281.5,-588 281.5,-600 281.5,-600 281.5,-606 275.5,-612 269.5,-612"/>
<text text-anchor="middle" x="215.5" y="-591.5" font-family="sans" font-size="10.00">gdc_unmapped_fastq_pe</text>
</g>
<!-- 6&#45;&gt;5 -->
<g id="edge11" class="edge">
<title>6&#45;&gt;5</title>
<path fill="none" stroke="grey" stroke-width="2" d="M215.5,-575.34C215.5,-568.75 215.5,-561.08 215.5,-553.67"/>
<polygon fill="grey" stroke="grey" stroke-width="2" points="219,-553.93 215.5,-543.93 212,-553.93 219,-553.93"/>
</g>
<!-- 7 -->
<g id="node8" class="node">
<title>7</title>
<path fill="none" stroke="#56d8a2" stroke-width="2" d="M185,-684C185,-684 96,-684 96,-684 90,-684 84,-678 84,-672 84,-672 84,-660 84,-660 84,-654 90,-648 96,-648 96,-648 185,-648 185,-648 191,-648 197,-654 197,-660 197,-660 197,-672 197,-672 197,-678 191,-684 185,-684"/>
<text text-anchor="middle" x="140.5" y="-663.5" font-family="sans" font-size="10.00">gdc_unmapped_bam</text>
</g>
<!-- 7&#45;&gt;6 -->
<g id="edge12" class="edge">
<title>7&#45;&gt;6</title>
<path fill="none" stroke="grey" stroke-width="2" d="M159.43,-647.34C167.8,-639.52 177.83,-630.16 187.07,-621.53"/>
<polygon fill="grey" stroke="grey" stroke-width="2" points="189.18,-624.35 194.11,-614.97 184.41,-619.23 189.18,-624.35"/>
</g>
<!-- 13 -->
<g id="node14" class="node">
<title>13</title>
<path fill="none" stroke="#68d856" stroke-width="2" d="M119,-612C119,-612 12,-612 12,-612 6,-612 0,-606 0,-600 0,-600 0,-588 0,-588 0,-582 6,-576 12,-576 12,-576 119,-576 119,-576 125,-576 131,-582 131,-588 131,-588 131,-600 131,-600 131,-606 125,-612 119,-612"/>
<text text-anchor="middle" x="65.5" y="-591.5" font-family="sans" font-size="10.00">gdc_unmapped_fastq_se</text>
</g>
<!-- 7&#45;&gt;13 -->
<g id="edge18" class="edge">
<title>7&#45;&gt;13</title>
<path fill="none" stroke="grey" stroke-width="2" d="M121.57,-647.34C113.2,-639.52 103.17,-630.16 93.93,-621.53"/>
<polygon fill="grey" stroke="grey" stroke-width="2" points="96.59,-619.23 86.89,-614.97 91.82,-624.35 96.59,-619.23"/>
</g>
<!-- 8 -->
<g id="node9" class="node">
<title>8</title>
<path fill="none" stroke="#56d863" stroke-width="2" d="M395.5,-612C395.5,-612 311.5,-612 311.5,-612 305.5,-612 299.5,-606 299.5,-600 299.5,-600 299.5,-588 299.5,-588 299.5,-582 305.5,-576 311.5,-576 311.5,-576 395.5,-576 395.5,-576 401.5,-576 407.5,-582 407.5,-588 407.5,-588 407.5,-600 407.5,-600 407.5,-606 401.5,-612 395.5,-612"/>
<text text-anchor="middle" x="353.5" y="-591.5" font-family="sans" font-size="10.00">bowtie2_host_index</text>
</g>
<!-- 8&#45;&gt;5 -->
<g id="edge10" class="edge">
<title>8&#45;&gt;5</title>
<path fill="none" stroke="grey" stroke-width="2" d="M318.32,-575.15C301.21,-566.47 280.41,-555.92 262,-546.59"/>
<polygon fill="grey" stroke="grey" stroke-width="2" points="263.82,-543.58 253.32,-542.18 260.65,-549.83 263.82,-543.58"/>
</g>
<!-- 9 -->
<g id="node10" class="node">
<title>9</title>
<path fill="none" stroke="#88d856" stroke-width="2" d="M395,-684C395,-684 312,-684 312,-684 306,-684 300,-678 300,-672 300,-672 300,-660 300,-660 300,-654 306,-648 312,-648 312,-648 395,-648 395,-648 401,-648 407,-654 407,-660 407,-660 407,-672 407,-672 407,-678 401,-684 395,-684"/>
<text text-anchor="middle" x="353.5" y="-663.5" font-family="sans" font-size="10.00">host_genome_fasta</text>
</g>
<!-- 9&#45;&gt;8 -->
<g id="edge13" class="edge">
<title>9&#45;&gt;8</title>
<path fill="none" stroke="grey" stroke-width="2" d="M353.5,-647.34C353.5,-640.75 353.5,-633.08 353.5,-625.67"/>
<polygon fill="grey" stroke="grey" stroke-width="2" points="357,-625.93 353.5,-615.93 350,-625.93 357,-625.93"/>
</g>
<!-- 10 -->
<g id="node11" class="node">
<title>10</title>
<path fill="none" stroke="#56d8c1" stroke-width="2" d="M335,-324C335,-324 226,-324 226,-324 220,-324 214,-318 214,-312 214,-312 214,-300 214,-300 214,-294 220,-288 226,-288 226,-288 335,-288 335,-288 341,-288 347,-294 347,-300 347,-300 347,-312 347,-312 347,-318 341,-324 335,-324"/>
<text text-anchor="middle" x="280.5" y="-303.5" font-family="sans" font-size="10.00">bbmap_max_read_length</text>
</g>
<!-- 10&#45;&gt;2 -->
<g id="edge4" class="edge">
<title>10&#45;&gt;2</title>
<path fill="none" stroke="grey" stroke-width="2" d="M263.85,-287.34C256.71,-279.77 248.21,-270.75 240.29,-262.35"/>
<polygon fill="grey" stroke="grey" stroke-width="2" points="242.86,-259.98 233.46,-255.1 237.77,-264.78 242.86,-259.98"/>
</g>
<!-- 11&#45;&gt;10 -->
<g id="edge14" class="edge">
<title>11&#45;&gt;10</title>
<path fill="none" stroke="grey" stroke-width="2" d="M293.96,-359.34C292.24,-352.67 290.24,-344.89 288.31,-337.39"/>
<polygon fill="grey" stroke="grey" stroke-width="2" points="291.74,-336.65 285.86,-327.83 284.96,-338.39 291.74,-336.65"/>
</g>
<!-- 12&#45;&gt;3 -->
<g id="edge6" class="edge">
<title>12&#45;&gt;3</title>
<path fill="none" stroke="grey" stroke-width="2" d="M251.71,-431.15C231.48,-422.3 206.8,-411.51 185.16,-402.04"/>
<polygon fill="grey" stroke="grey" stroke-width="2" points="186.83,-398.95 176.27,-398.15 184.02,-405.36 186.83,-398.95"/>
</g>
<!-- 12&#45;&gt;11 -->
<g id="edge15" class="edge">
<title>12&#45;&gt;11</title>
<path fill="none" stroke="grey" stroke-width="2" d="M294.01,-431.34C294.58,-424.75 295.24,-417.08 295.87,-409.67"/>
<polygon fill="grey" stroke="grey" stroke-width="2" points="299.34,-410.18 296.71,-399.92 292.37,-409.58 299.34,-410.18"/>
</g>
<!-- 13&#45;&gt;5 -->
<g id="edge9" class="edge">
<title>13&#45;&gt;5</title>
<path fill="none" stroke="grey" stroke-width="2" d="M103.74,-575.15C122.44,-566.43 145.2,-555.81 165.29,-546.43"/>
<polygon fill="grey" stroke="grey" stroke-width="2" points="166.75,-549.61 174.33,-542.21 163.78,-543.27 166.75,-549.61"/>
</g>
<!-- 14&#45;&gt;1 -->
<g id="edge3" class="edge">
<title>14&#45;&gt;1</title>
<path fill="none" stroke="grey" stroke-width="2" d="M251.88,-143.34C246.71,-136.1 240.59,-127.53 234.82,-119.45"/>
<polygon fill="grey" stroke="grey" stroke-width="2" points="237.71,-117.47 229.05,-111.37 232.01,-121.54 237.71,-117.47"/>
</g>
</g>
</svg>
