<?xml version="1.0" encoding="UTF-8" standalone="no"?>
<!DOCTYPE svg PUBLIC "-//W3C//DTD SVG 1.1//EN"
 "http://www.w3.org/Graphics/SVG/1.1/DTD/svg11.dtd">
<!-- Generated by graphviz version 7.1.0 (0)
 -->
<!-- Title: snakemake_dag Pages: 1 -->
<svg width="880pt" height="836pt"
 viewBox="0.00 0.00 879.52 836.00" xmlns="http://www.w3.org/2000/svg" xmlns:xlink="http://www.w3.org/1999/xlink">
<g id="graph0" class="graph" transform="scale(1 1) rotate(0) translate(4 832)">
<title>snakemake_dag</title>
<polygon fill="white" stroke="none" points="-4,4 -4,-832 875.52,-832 875.52,4 -4,4"/>
<!-- 0 -->
<g id="node1" class="node">
<title>0</title>
<path fill="none" stroke="#d89556" stroke-width="2" d="M195.52,-36C195.52,-36 165.52,-36 165.52,-36 159.52,-36 153.52,-30 153.52,-24 153.52,-24 153.52,-12 153.52,-12 153.52,-6 159.52,0 165.52,0 165.52,0 195.52,0 195.52,0 201.52,0 207.52,-6 207.52,-12 207.52,-12 207.52,-24 207.52,-24 207.52,-30 201.52,-36 195.52,-36"/>
<text text-anchor="middle" x="180.52" y="-15.5" font-family="sans" font-size="10.00">all</text>
</g>
<!-- 1 -->
<g id="node2" class="node">
<title>1</title>
<path fill="none" stroke="#56d8c1" stroke-width="2" d="M228.02,-108C228.02,-108 133.02,-108 133.02,-108 127.02,-108 121.02,-102 121.02,-96 121.02,-96 121.02,-84 121.02,-84 121.02,-78 127.02,-72 133.02,-72 133.02,-72 228.02,-72 228.02,-72 234.02,-72 240.02,-78 240.02,-84 240.02,-84 240.02,-96 240.02,-96 240.02,-102 234.02,-108 228.02,-108"/>
<text text-anchor="middle" x="180.52" y="-87.5" font-family="sans" font-size="10.00">bracken_count_matrix</text>
</g>
<!-- 1&#45;&gt;0 -->
<g id="edge1" class="edge">
<title>1&#45;&gt;0</title>
<path fill="none" stroke="grey" stroke-width="2" d="M180.52,-71.34C180.52,-64.75 180.52,-57.08 180.52,-49.67"/>
<polygon fill="grey" stroke="grey" stroke-width="2" points="184.02,-49.93 180.52,-39.93 177.02,-49.93 184.02,-49.93"/>
</g>
<!-- 2 -->
<g id="node3" class="node">
<title>2</title>
<path fill="none" stroke="#56d8b1" stroke-width="2" d="M223.52,-252C223.52,-252 137.52,-252 137.52,-252 131.52,-252 125.52,-246 125.52,-240 125.52,-240 125.52,-228 125.52,-228 125.52,-222 131.52,-216 137.52,-216 137.52,-216 223.52,-216 223.52,-216 229.52,-216 235.52,-222 235.52,-228 235.52,-228 235.52,-240 235.52,-240 235.52,-246 229.52,-252 223.52,-252"/>
<text text-anchor="middle" x="180.52" y="-231.5" font-family="sans" font-size="10.00">bracken_read_quant</text>
</g>
<!-- 2&#45;&gt;1 -->
<g id="edge3" class="edge">
<title>2&#45;&gt;1</title>
<path fill="none" stroke="grey" stroke-width="2" d="M167.05,-215.43C160.36,-205.59 152.98,-192.76 149.52,-180 145.34,-164.56 145.34,-159.44 149.52,-144 151.82,-135.53 155.85,-127.02 160.25,-119.38"/>
<polygon fill="grey" stroke="grey" stroke-width="2" points="163.08,-121.46 165.44,-111.13 157.16,-117.73 163.08,-121.46"/>
</g>
<!-- 26 -->
<g id="node27" class="node">
<title>26</title>
<path fill="none" stroke="#97d856" stroke-width="2" d="M290.52,-180C290.52,-180 170.52,-180 170.52,-180 164.52,-180 158.52,-174 158.52,-168 158.52,-168 158.52,-156 158.52,-156 158.52,-150 164.52,-144 170.52,-144 170.52,-144 290.52,-144 290.52,-144 296.52,-144 302.52,-150 302.52,-156 302.52,-156 302.52,-168 302.52,-168 302.52,-174 296.52,-180 290.52,-180"/>
<text text-anchor="middle" x="230.52" y="-159.5" font-family="sans" font-size="10.00">bracken_merged_rg_counts</text>
</g>
<!-- 2&#45;&gt;26 -->
<g id="edge38" class="edge">
<title>2&#45;&gt;26</title>
<path fill="none" stroke="grey" stroke-width="2" d="M193.14,-215.34C198.31,-208.1 204.43,-199.53 210.2,-191.45"/>
<polygon fill="grey" stroke="grey" stroke-width="2" points="213.01,-193.54 215.98,-183.37 207.32,-189.47 213.01,-193.54"/>
</g>
<!-- 3 -->
<g id="node4" class="node">
<title>3</title>
<path fill="none" stroke="#78d856" stroke-width="2" d="M249.02,-540C249.02,-540 202.02,-540 202.02,-540 196.02,-540 190.02,-534 190.02,-528 190.02,-528 190.02,-516 190.02,-516 190.02,-510 196.02,-504 202.02,-504 202.02,-504 249.02,-504 249.02,-504 255.02,-504 261.02,-510 261.02,-516 261.02,-516 261.02,-528 261.02,-528 261.02,-534 255.02,-540 249.02,-540"/>
<text text-anchor="middle" x="225.52" y="-519.5" font-family="sans" font-size="10.00">kraken2_db</text>
</g>
<!-- 3&#45;&gt;2 -->
<g id="edge4" class="edge">
<title>3&#45;&gt;2</title>
<path fill="none" stroke="grey" stroke-width="2" d="M207.7,-503.17C198.81,-493.46 188.49,-480.82 181.52,-468 149.5,-409.09 146.64,-390.28 136.52,-324 134.11,-308.18 131.09,-303.05 136.52,-288 139.87,-278.72 145.63,-269.92 151.9,-262.25"/>
<polygon fill="grey" stroke="grey" stroke-width="2" points="154.5,-264.59 158.57,-254.81 149.29,-259.92 154.5,-264.59"/>
</g>
<!-- 12 -->
<g id="node13" class="node">
<title>12</title>
<path fill="none" stroke="#afd856" stroke-width="2" d="M599.02,-468C599.02,-468 472.02,-468 472.02,-468 466.02,-468 460.02,-462 460.02,-456 460.02,-456 460.02,-444 460.02,-444 460.02,-438 466.02,-432 472.02,-432 472.02,-432 599.02,-432 599.02,-432 605.02,-432 611.02,-438 611.02,-444 611.02,-444 611.02,-456 611.02,-456 611.02,-462 605.02,-468 599.02,-468"/>
<text text-anchor="middle" x="535.52" y="-447.5" font-family="sans" font-size="10.00">kraken2_nucl_read_classif_pe</text>
</g>
<!-- 3&#45;&gt;12 -->
<g id="edge20" class="edge">
<title>3&#45;&gt;12</title>
<path fill="none" stroke="grey" stroke-width="2" d="M261.88,-510.47C269.96,-508.24 278.52,-505.97 286.52,-504 339.42,-491.01 399.09,-478.25 446.76,-468.5"/>
<polygon fill="grey" stroke="grey" stroke-width="2" points="447.17,-471.99 456.27,-466.56 445.77,-465.13 447.17,-471.99"/>
</g>
<!-- 19 -->
<g id="node20" class="node">
<title>19</title>
<path fill="none" stroke="#d88556" stroke-width="2" d="M529.52,-396C529.52,-396 401.52,-396 401.52,-396 395.52,-396 389.52,-390 389.52,-384 389.52,-384 389.52,-372 389.52,-372 389.52,-366 395.52,-360 401.52,-360 401.52,-360 529.52,-360 529.52,-360 535.52,-360 541.52,-366 541.52,-372 541.52,-372 541.52,-384 541.52,-384 541.52,-390 535.52,-396 529.52,-396"/>
<text text-anchor="middle" x="465.52" y="-375.5" font-family="sans" font-size="10.00">kraken2_prot_read_classif_pe</text>
</g>
<!-- 3&#45;&gt;19 -->
<g id="edge29" class="edge">
<title>3&#45;&gt;19</title>
<path fill="none" stroke="grey" stroke-width="2" d="M261.65,-510.94C315.57,-495.9 410.99,-469.18 412.52,-468 432.18,-452.9 446.03,-428.27 454.63,-408.74"/>
<polygon fill="grey" stroke="grey" stroke-width="2" points="457.83,-410.18 458.39,-399.6 451.35,-407.52 457.83,-410.18"/>
</g>
<!-- 21 -->
<g id="node22" class="node">
<title>21</title>
<path fill="none" stroke="#d8b456" stroke-width="2" d="M203.52,-324C203.52,-324 157.52,-324 157.52,-324 151.52,-324 145.52,-318 145.52,-312 145.52,-312 145.52,-300 145.52,-300 145.52,-294 151.52,-288 157.52,-288 157.52,-288 203.52,-288 203.52,-288 209.52,-288 215.52,-294 215.52,-300 215.52,-300 215.52,-312 215.52,-312 215.52,-318 209.52,-324 203.52,-324"/>
<text text-anchor="middle" x="180.52" y="-303.5" font-family="sans" font-size="10.00">bracken_db</text>
</g>
<!-- 3&#45;&gt;21 -->
<g id="edge31" class="edge">
<title>3&#45;&gt;21</title>
<path fill="none" stroke="grey" stroke-width="2" d="M215.59,-503.06C203.11,-479.38 182.37,-436.02 174.52,-396 170.76,-376.81 172.17,-354.91 174.56,-337.63"/>
<polygon fill="grey" stroke="grey" stroke-width="2" points="177.99,-338.32 176.13,-327.89 171.08,-337.21 177.99,-338.32"/>
</g>
<!-- 22 -->
<g id="node23" class="node">
<title>22</title>
<path fill="none" stroke="#d86656" stroke-width="2" d="M391.02,-468C391.02,-468 266.02,-468 266.02,-468 260.02,-468 254.02,-462 254.02,-456 254.02,-456 254.02,-444 254.02,-444 254.02,-438 260.02,-432 266.02,-432 266.02,-432 391.02,-432 391.02,-432 397.02,-432 403.02,-438 403.02,-444 403.02,-444 403.02,-456 403.02,-456 403.02,-462 397.02,-468 391.02,-468"/>
<text text-anchor="middle" x="328.52" y="-447.5" font-family="sans" font-size="10.00">kraken2_nucl_read_classif_se</text>
</g>
<!-- 3&#45;&gt;22 -->
<g id="edge32" class="edge">
<title>3&#45;&gt;22</title>
<path fill="none" stroke="grey" stroke-width="2" d="M251.78,-503.15C263.89,-494.93 278.47,-485.02 291.65,-476.06"/>
<polygon fill="grey" stroke="grey" stroke-width="2" points="293.51,-479.03 299.81,-470.51 289.57,-473.24 293.51,-479.03"/>
</g>
<!-- 25 -->
<g id="node26" class="node">
<title>25</title>
<path fill="none" stroke="#5682d8" stroke-width="2" d="M321.52,-396C321.52,-396 195.52,-396 195.52,-396 189.52,-396 183.52,-390 183.52,-384 183.52,-384 183.52,-372 183.52,-372 183.52,-366 189.52,-360 195.52,-360 195.52,-360 321.52,-360 321.52,-360 327.52,-360 333.52,-366 333.52,-372 333.52,-372 333.52,-384 333.52,-384 333.52,-390 327.52,-396 321.52,-396"/>
<text text-anchor="middle" x="258.52" y="-375.5" font-family="sans" font-size="10.00">kraken2_prot_read_classif_se</text>
</g>
<!-- 3&#45;&gt;25 -->
<g id="edge36" class="edge">
<title>3&#45;&gt;25</title>
<path fill="none" stroke="grey" stroke-width="2" d="M229.06,-503.21C232.7,-485.21 238.65,-456.59 244.52,-432 246.31,-424.5 248.37,-416.44 250.35,-408.93"/>
<polygon fill="grey" stroke="grey" stroke-width="2" points="253.66,-410.1 252.86,-399.54 246.9,-408.29 253.66,-410.1"/>
</g>
<!-- 4 -->
<g id="node5" class="node">
<title>4</title>
<path fill="none" stroke="#56d892" stroke-width="2" d="M123.52,-684C123.52,-684 25.52,-684 25.52,-684 19.52,-684 13.52,-678 13.52,-672 13.52,-672 13.52,-660 13.52,-660 13.52,-654 19.52,-648 25.52,-648 25.52,-648 123.52,-648 123.52,-648 129.52,-648 135.52,-654 135.52,-660 135.52,-660 135.52,-672 135.52,-672 135.52,-678 129.52,-684 123.52,-684"/>
<text text-anchor="middle" x="74.52" y="-663.5" font-family="sans" font-size="10.00">kraken2_db_taxonomy</text>
</g>
<!-- 4&#45;&gt;3 -->
<g id="edge10" class="edge">
<title>4&#45;&gt;3</title>
<path fill="none" stroke="grey" stroke-width="2" d="M40.09,-647.14C27.07,-638.44 13.68,-626.66 6.52,-612 -0.5,-597.62 -3.37,-588.57 6.52,-576 27.23,-549.69 118.15,-534.87 176.14,-527.94"/>
<polygon fill="grey" stroke="grey" stroke-width="2" points="176.49,-531.42 186.03,-526.8 175.7,-524.46 176.49,-531.42"/>
</g>
<!-- 5 -->
<g id="node6" class="node">
<title>5</title>
<path fill="none" stroke="#d8a456" stroke-width="2" d="M131.52,-612C131.52,-612 27.52,-612 27.52,-612 21.52,-612 15.52,-606 15.52,-600 15.52,-600 15.52,-588 15.52,-588 15.52,-582 21.52,-576 27.52,-576 27.52,-576 131.52,-576 131.52,-576 137.52,-576 143.52,-582 143.52,-588 143.52,-588 143.52,-600 143.52,-600 143.52,-606 137.52,-612 131.52,-612"/>
<text text-anchor="middle" x="79.52" y="-591.5" font-family="sans" font-size="10.00">kraken2_nucl_db_library</text>
</g>
<!-- 4&#45;&gt;5 -->
<g id="edge11" class="edge">
<title>4&#45;&gt;5</title>
<path fill="none" stroke="grey" stroke-width="2" d="M75.78,-647.34C76.25,-640.75 76.8,-633.08 77.33,-625.67"/>
<polygon fill="grey" stroke="grey" stroke-width="2" points="80.81,-626.15 78.03,-615.92 73.83,-625.65 80.81,-626.15"/>
</g>
<!-- 20 -->
<g id="node21" class="node">
<title>20</title>
<path fill="none" stroke="#56d882" stroke-width="2" d="M277.52,-612C277.52,-612 173.52,-612 173.52,-612 167.52,-612 161.52,-606 161.52,-600 161.52,-600 161.52,-588 161.52,-588 161.52,-582 167.52,-576 173.52,-576 173.52,-576 277.52,-576 277.52,-576 283.52,-576 289.52,-582 289.52,-588 289.52,-588 289.52,-600 289.52,-600 289.52,-606 283.52,-612 277.52,-612"/>
<text text-anchor="middle" x="225.52" y="-591.5" font-family="sans" font-size="10.00">kraken2_prot_db_library</text>
</g>
<!-- 4&#45;&gt;20 -->
<g id="edge30" class="edge">
<title>4&#45;&gt;20</title>
<path fill="none" stroke="grey" stroke-width="2" d="M113.02,-647.15C131.94,-638.38 154.97,-627.71 175.26,-618.3"/>
<polygon fill="grey" stroke="grey" stroke-width="2" points="176.49,-621.59 184.09,-614.21 173.55,-615.24 176.49,-621.59"/>
</g>
<!-- 5&#45;&gt;3 -->
<g id="edge8" class="edge">
<title>5&#45;&gt;3</title>
<path fill="none" stroke="grey" stroke-width="2" d="M116.74,-575.15C135.23,-566.29 157.78,-555.48 177.55,-546"/>
<polygon fill="grey" stroke="grey" stroke-width="2" points="178.9,-549.24 186.4,-541.76 175.87,-542.93 178.9,-549.24"/>
</g>
<!-- 6 -->
<g id="node7" class="node">
<title>6</title>
<path fill="none" stroke="#56d863" stroke-width="2" d="M433.02,-612C433.02,-612 320.02,-612 320.02,-612 314.02,-612 308.02,-606 308.02,-600 308.02,-600 308.02,-588 308.02,-588 308.02,-582 314.02,-576 320.02,-576 320.02,-576 433.02,-576 433.02,-576 439.02,-576 445.02,-582 445.02,-588 445.02,-588 445.02,-600 445.02,-600 445.02,-606 439.02,-612 433.02,-612"/>
<text text-anchor="middle" x="376.52" y="-591.5" font-family="sans" font-size="10.00">kraken2_eupathdb_library</text>
</g>
<!-- 6&#45;&gt;3 -->
<g id="edge9" class="edge">
<title>6&#45;&gt;3</title>
<path fill="none" stroke="grey" stroke-width="2" d="M338.03,-575.15C318.45,-566.08 294.47,-554.96 273.68,-545.32"/>
<polygon fill="grey" stroke="grey" stroke-width="2" points="275.16,-542.15 264.61,-541.12 272.22,-548.5 275.16,-542.15"/>
</g>
<!-- 7 -->
<g id="node8" class="node">
<title>7</title>
<path fill="none" stroke="#5673d8" stroke-width="2" d="M285.52,-684C285.52,-684 165.52,-684 165.52,-684 159.52,-684 153.52,-678 153.52,-672 153.52,-672 153.52,-660 153.52,-660 153.52,-654 159.52,-648 165.52,-648 165.52,-648 285.52,-648 285.52,-648 291.52,-648 297.52,-654 297.52,-660 297.52,-660 297.52,-672 297.52,-672 297.52,-678 291.52,-684 285.52,-684"/>
<text text-anchor="middle" x="225.52" y="-663.5" font-family="sans" font-size="10.00">eupathdb_seqid2taxid_map</text>
</g>
<!-- 7&#45;&gt;6 -->
<g id="edge13" class="edge">
<title>7&#45;&gt;6</title>
<path fill="none" stroke="grey" stroke-width="2" d="M264.02,-647.15C282.94,-638.38 305.97,-627.71 326.26,-618.3"/>
<polygon fill="grey" stroke="grey" stroke-width="2" points="327.49,-621.59 335.09,-614.21 324.55,-615.24 327.49,-621.59"/>
</g>
<!-- 8 -->
<g id="node9" class="node">
<title>8</title>
<path fill="none" stroke="#56d8d0" stroke-width="2" d="M433.52,-684C433.52,-684 327.52,-684 327.52,-684 321.52,-684 315.52,-678 315.52,-672 315.52,-672 315.52,-660 315.52,-660 315.52,-654 321.52,-648 327.52,-648 327.52,-648 433.52,-648 433.52,-648 439.52,-648 445.52,-654 445.52,-660 445.52,-660 445.52,-672 445.52,-672 445.52,-678 439.52,-684 433.52,-684"/>
<text text-anchor="middle" x="380.52" y="-663.5" font-family="sans" font-size="10.00">eupathdb_merged_fasta</text>
</g>
<!-- 8&#45;&gt;6 -->
<g id="edge12" class="edge">
<title>8&#45;&gt;6</title>
<path fill="none" stroke="grey" stroke-width="2" d="M379.51,-647.34C379.14,-640.75 378.7,-633.08 378.28,-625.67"/>
<polygon fill="grey" stroke="grey" stroke-width="2" points="381.78,-625.71 377.72,-615.92 374.8,-626.11 381.78,-625.71"/>
</g>
<!-- 9 -->
<g id="node10" class="node">
<title>9</title>
<path fill="none" stroke="#bed856" stroke-width="2" d="M415.02,-756C415.02,-756 346.02,-756 346.02,-756 340.02,-756 334.02,-750 334.02,-744 334.02,-744 334.02,-732 334.02,-732 334.02,-726 340.02,-720 346.02,-720 346.02,-720 415.02,-720 415.02,-720 421.02,-720 427.02,-726 427.02,-732 427.02,-732 427.02,-744 427.02,-744 427.02,-750 421.02,-756 415.02,-756"/>
<text text-anchor="middle" x="380.52" y="-735.5" font-family="sans" font-size="10.00">eupathdb_fastas</text>
</g>
<!-- 9&#45;&gt;8 -->
<g id="edge14" class="edge">
<title>9&#45;&gt;8</title>
<path fill="none" stroke="grey" stroke-width="2" d="M380.52,-719.34C380.52,-712.75 380.52,-705.08 380.52,-697.67"/>
<polygon fill="grey" stroke="grey" stroke-width="2" points="384.02,-697.93 380.52,-687.93 377.02,-697.93 384.02,-697.93"/>
</g>
<!-- 10 -->
<g id="node11" class="node">
<title>10</title>
<path fill="none" stroke="#d87556" stroke-width="2" d="M431.52,-828C431.52,-828 329.52,-828 329.52,-828 323.52,-828 317.52,-822 317.52,-816 317.52,-816 317.52,-804 317.52,-804 317.52,-798 323.52,-792 329.52,-792 329.52,-792 431.52,-792 431.52,-792 437.52,-792 443.52,-798 443.52,-804 443.52,-804 443.52,-816 443.52,-816 443.52,-822 437.52,-828 431.52,-828"/>
<text text-anchor="middle" x="380.52" y="-807.5" font-family="sans" font-size="10.00">eupathdb_fasta_archive</text>
</g>
<!-- 10&#45;&gt;9 -->
<g id="edge15" class="edge">
<title>10&#45;&gt;9</title>
<path fill="none" stroke="grey" stroke-width="2" d="M380.52,-791.34C380.52,-784.75 380.52,-777.08 380.52,-769.67"/>
<polygon fill="grey" stroke="grey" stroke-width="2" points="384.02,-769.93 380.52,-759.93 377.02,-769.93 384.02,-769.93"/>
</g>
<!-- 11 -->
<g id="node12" class="node">
<title>11</title>
<path fill="none" stroke="#d8d356" stroke-width="2" d="M419.02,-324C419.02,-324 304.02,-324 304.02,-324 298.02,-324 292.02,-318 292.02,-312 292.02,-312 292.02,-300 292.02,-300 292.02,-294 298.02,-288 304.02,-288 304.02,-288 419.02,-288 419.02,-288 425.02,-288 431.02,-294 431.02,-300 431.02,-300 431.02,-312 431.02,-312 431.02,-318 425.02,-324 419.02,-324"/>
<text text-anchor="middle" x="361.52" y="-303.5" font-family="sans" font-size="10.00">kraken2_combined_report</text>
</g>
<!-- 11&#45;&gt;2 -->
<g id="edge6" class="edge">
<title>11&#45;&gt;2</title>
<path fill="none" stroke="grey" stroke-width="2" d="M315.38,-287.15C292.07,-278.14 263.54,-267.11 238.73,-257.51"/>
<polygon fill="grey" stroke="grey" stroke-width="2" points="240.31,-254.37 229.72,-254.03 237.78,-260.9 240.31,-254.37"/>
</g>
<!-- 12&#45;&gt;11 -->
<g id="edge16" class="edge">
<title>12&#45;&gt;11</title>
<path fill="none" stroke="grey" stroke-width="2" d="M545.78,-431.07C555.4,-411.62 566.14,-380.6 550.52,-360 537.19,-342.41 488.97,-329.06 444.58,-320.15"/>
<polygon fill="grey" stroke="grey" stroke-width="2" points="445.34,-316.73 434.86,-318.27 444.01,-323.61 445.34,-316.73"/>
</g>
<!-- 12&#45;&gt;19 -->
<g id="edge28" class="edge">
<title>12&#45;&gt;19</title>
<path fill="none" stroke="grey" stroke-width="2" d="M517.86,-431.34C510.21,-423.69 501.08,-414.56 492.6,-406.08"/>
<polygon fill="grey" stroke="grey" stroke-width="2" points="495.11,-403.64 485.57,-399.04 490.16,-408.59 495.11,-403.64"/>
</g>
<!-- 13 -->
<g id="node14" class="node">
<title>13</title>
<path fill="none" stroke="#68d856" stroke-width="2" d="M592.02,-540C592.02,-540 479.02,-540 479.02,-540 473.02,-540 467.02,-534 467.02,-528 467.02,-528 467.02,-516 467.02,-516 467.02,-510 473.02,-504 479.02,-504 479.02,-504 592.02,-504 592.02,-504 598.02,-504 604.02,-510 604.02,-516 604.02,-516 604.02,-528 604.02,-528 604.02,-534 598.02,-540 592.02,-540"/>
<text text-anchor="middle" x="535.52" y="-519.5" font-family="sans" font-size="10.00">bowtie2_filtered_fastq_pe</text>
</g>
<!-- 13&#45;&gt;12 -->
<g id="edge21" class="edge">
<title>13&#45;&gt;12</title>
<path fill="none" stroke="grey" stroke-width="2" d="M535.52,-503.34C535.52,-496.75 535.52,-489.08 535.52,-481.67"/>
<polygon fill="grey" stroke="grey" stroke-width="2" points="539.02,-481.93 535.52,-471.93 532.02,-481.93 539.02,-481.93"/>
</g>
<!-- 14 -->
<g id="node15" class="node">
<title>14</title>
<path fill="none" stroke="#56d873" stroke-width="2" d="M576.52,-612C576.52,-612 494.52,-612 494.52,-612 488.52,-612 482.52,-606 482.52,-600 482.52,-600 482.52,-588 482.52,-588 482.52,-582 488.52,-576 494.52,-576 494.52,-576 576.52,-576 576.52,-576 582.52,-576 588.52,-582 588.52,-588 588.52,-588 588.52,-600 588.52,-600 588.52,-606 582.52,-612 576.52,-612"/>
<text text-anchor="middle" x="535.52" y="-591.5" font-family="sans" font-size="10.00">bowtie2_host_filter</text>
</g>
<!-- 14&#45;&gt;13 -->
<g id="edge22" class="edge">
<title>14&#45;&gt;13</title>
<path fill="none" stroke="grey" stroke-width="2" d="M535.52,-575.34C535.52,-568.75 535.52,-561.08 535.52,-553.67"/>
<polygon fill="grey" stroke="grey" stroke-width="2" points="539.02,-553.93 535.52,-543.93 532.02,-553.93 539.02,-553.93"/>
</g>
<!-- 23 -->
<g id="node24" class="node">
<title>23</title>
<path fill="none" stroke="#5663d8" stroke-width="2" d="M419.02,-540C419.02,-540 308.02,-540 308.02,-540 302.02,-540 296.02,-534 296.02,-528 296.02,-528 296.02,-516 296.02,-516 296.02,-510 302.02,-504 308.02,-504 308.02,-504 419.02,-504 419.02,-504 425.02,-504 431.02,-510 431.02,-516 431.02,-516 431.02,-528 431.02,-528 431.02,-534 425.02,-540 419.02,-540"/>
<text text-anchor="middle" x="363.52" y="-519.5" font-family="sans" font-size="10.00">bowtie2_filtered_fastq_se</text>
</g>
<!-- 14&#45;&gt;23 -->
<g id="edge34" class="edge">
<title>14&#45;&gt;23</title>
<path fill="none" stroke="grey" stroke-width="2" d="M491.68,-575.15C469.72,-566.22 442.9,-555.31 419.48,-545.77"/>
<polygon fill="grey" stroke="grey" stroke-width="2" points="420.98,-542.6 410.39,-542.08 418.34,-549.09 420.98,-542.6"/>
</g>
<!-- 15 -->
<g id="node16" class="node">
<title>15</title>
<path fill="none" stroke="#56b1d8" stroke-width="2" d="M583.52,-684C583.52,-684 475.52,-684 475.52,-684 469.52,-684 463.52,-678 463.52,-672 463.52,-672 463.52,-660 463.52,-660 463.52,-654 469.52,-648 475.52,-648 475.52,-648 583.52,-648 583.52,-648 589.52,-648 595.52,-654 595.52,-660 595.52,-660 595.52,-672 595.52,-672 595.52,-678 589.52,-684 583.52,-684"/>
<text text-anchor="middle" x="529.52" y="-663.5" font-family="sans" font-size="10.00">gdc_unmapped_fastq_pe</text>
</g>
<!-- 15&#45;&gt;14 -->
<g id="edge23" class="edge">
<title>15&#45;&gt;14</title>
<path fill="none" stroke="grey" stroke-width="2" d="M531.04,-647.34C531.6,-640.75 532.26,-633.08 532.89,-625.67"/>
<polygon fill="grey" stroke="grey" stroke-width="2" points="536.36,-626.18 533.73,-615.92 529.39,-625.58 536.36,-626.18"/>
</g>
<!-- 16 -->
<g id="node17" class="node">
<title>16</title>
<path fill="none" stroke="#d8c356" stroke-width="2" d="M649.02,-756C649.02,-756 560.02,-756 560.02,-756 554.02,-756 548.02,-750 548.02,-744 548.02,-744 548.02,-732 548.02,-732 548.02,-726 554.02,-720 560.02,-720 560.02,-720 649.02,-720 649.02,-720 655.02,-720 661.02,-726 661.02,-732 661.02,-732 661.02,-744 661.02,-744 661.02,-750 655.02,-756 649.02,-756"/>
<text text-anchor="middle" x="604.52" y="-735.5" font-family="sans" font-size="10.00">gdc_unmapped_bam</text>
</g>
<!-- 16&#45;&gt;15 -->
<g id="edge26" class="edge">
<title>16&#45;&gt;15</title>
<path fill="none" stroke="grey" stroke-width="2" d="M585.6,-719.34C577.22,-711.52 567.2,-702.16 557.95,-693.53"/>
<polygon fill="grey" stroke="grey" stroke-width="2" points="560.62,-691.23 550.92,-686.97 555.84,-696.35 560.62,-691.23"/>
</g>
<!-- 24 -->
<g id="node25" class="node">
<title>24</title>
<path fill="none" stroke="#9fd856" stroke-width="2" d="M733.02,-684C733.02,-684 626.02,-684 626.02,-684 620.02,-684 614.02,-678 614.02,-672 614.02,-672 614.02,-660 614.02,-660 614.02,-654 620.02,-648 626.02,-648 626.02,-648 733.02,-648 733.02,-648 739.02,-648 745.02,-654 745.02,-660 745.02,-660 745.02,-672 745.02,-672 745.02,-678 739.02,-684 733.02,-684"/>
<text text-anchor="middle" x="679.52" y="-663.5" font-family="sans" font-size="10.00">gdc_unmapped_fastq_se</text>
</g>
<!-- 16&#45;&gt;24 -->
<g id="edge35" class="edge">
<title>16&#45;&gt;24</title>
<path fill="none" stroke="grey" stroke-width="2" d="M623.45,-719.34C631.82,-711.52 641.85,-702.16 651.09,-693.53"/>
<polygon fill="grey" stroke="grey" stroke-width="2" points="653.21,-696.35 658.13,-686.97 648.43,-691.23 653.21,-696.35"/>
</g>
<!-- 17 -->
<g id="node18" class="node">
<title>17</title>
<path fill="none" stroke="#56d0d8" stroke-width="2" d="M859.52,-684C859.52,-684 775.52,-684 775.52,-684 769.52,-684 763.52,-678 763.52,-672 763.52,-672 763.52,-660 763.52,-660 763.52,-654 769.52,-648 775.52,-648 775.52,-648 859.52,-648 859.52,-648 865.52,-648 871.52,-654 871.52,-660 871.52,-660 871.52,-672 871.52,-672 871.52,-678 865.52,-684 859.52,-684"/>
<text text-anchor="middle" x="817.52" y="-663.5" font-family="sans" font-size="10.00">bowtie2_host_index</text>
</g>
<!-- 17&#45;&gt;14 -->
<g id="edge24" class="edge">
<title>17&#45;&gt;14</title>
<path fill="none" stroke="grey" stroke-width="2" d="M762.57,-650.08C759.85,-649.37 757.16,-648.67 754.52,-648 703.3,-634.89 645.12,-620.85 601.61,-610.52"/>
<polygon fill="grey" stroke="grey" stroke-width="2" points="602.65,-607.17 592.12,-608.27 601.04,-613.98 602.65,-607.17"/>
</g>
<!-- 18 -->
<g id="node19" class="node">
<title>18</title>
<path fill="none" stroke="#5692d8" stroke-width="2" d="M859.02,-756C859.02,-756 776.02,-756 776.02,-756 770.02,-756 764.02,-750 764.02,-744 764.02,-744 764.02,-732 764.02,-732 764.02,-726 770.02,-720 776.02,-720 776.02,-720 859.02,-720 859.02,-720 865.02,-720 871.02,-726 871.02,-732 871.02,-732 871.02,-744 871.02,-744 871.02,-750 865.02,-756 859.02,-756"/>
<text text-anchor="middle" x="817.52" y="-735.5" font-family="sans" font-size="10.00">host_genome_fasta</text>
</g>
<!-- 18&#45;&gt;17 -->
<g id="edge27" class="edge">
<title>18&#45;&gt;17</title>
<path fill="none" stroke="grey" stroke-width="2" d="M817.52,-719.34C817.52,-712.75 817.52,-705.08 817.52,-697.67"/>
<polygon fill="grey" stroke="grey" stroke-width="2" points="821.02,-697.93 817.52,-687.93 814.02,-697.93 821.02,-697.93"/>
</g>
<!-- 19&#45;&gt;11 -->
<g id="edge19" class="edge">
<title>19&#45;&gt;11</title>
<path fill="none" stroke="grey" stroke-width="2" d="M439.01,-359.15C426.79,-350.93 412.07,-341.02 398.75,-332.06"/>
<polygon fill="grey" stroke="grey" stroke-width="2" points="400.75,-329.18 390.5,-326.5 396.84,-334.99 400.75,-329.18"/>
</g>
<!-- 20&#45;&gt;3 -->
<g id="edge7" class="edge">
<title>20&#45;&gt;3</title>
<path fill="none" stroke="grey" stroke-width="2" d="M225.52,-575.34C225.52,-568.75 225.52,-561.08 225.52,-553.67"/>
<polygon fill="grey" stroke="grey" stroke-width="2" points="229.02,-553.93 225.52,-543.93 222.02,-553.93 229.02,-553.93"/>
</g>
<!-- 21&#45;&gt;2 -->
<g id="edge5" class="edge">
<title>21&#45;&gt;2</title>
<path fill="none" stroke="grey" stroke-width="2" d="M180.52,-287.34C180.52,-280.75 180.52,-273.08 180.52,-265.67"/>
<polygon fill="grey" stroke="grey" stroke-width="2" points="184.02,-265.93 180.52,-255.93 177.02,-265.93 184.02,-265.93"/>
</g>
<!-- 22&#45;&gt;11 -->
<g id="edge17" class="edge">
<title>22&#45;&gt;11</title>
<path fill="none" stroke="grey" stroke-width="2" d="M333.4,-431.39C336.2,-421.1 339.7,-407.85 342.52,-396 347.15,-376.6 351.84,-354.69 355.4,-337.46"/>
<polygon fill="grey" stroke="grey" stroke-width="2" points="358.81,-338.25 357.38,-327.75 351.95,-336.85 358.81,-338.25"/>
</g>
<!-- 22&#45;&gt;25 -->
<g id="edge37" class="edge">
<title>22&#45;&gt;25</title>
<path fill="none" stroke="grey" stroke-width="2" d="M310.86,-431.34C303.21,-423.69 294.08,-414.56 285.6,-406.08"/>
<polygon fill="grey" stroke="grey" stroke-width="2" points="288.11,-403.64 278.57,-399.04 283.16,-408.59 288.11,-403.64"/>
</g>
<!-- 23&#45;&gt;22 -->
<g id="edge33" class="edge">
<title>23&#45;&gt;22</title>
<path fill="none" stroke="grey" stroke-width="2" d="M354.69,-503.34C351.19,-496.34 347.08,-488.12 343.16,-480.28"/>
<polygon fill="grey" stroke="grey" stroke-width="2" points="346.43,-478.99 338.83,-471.61 340.17,-482.12 346.43,-478.99"/>
</g>
<!-- 24&#45;&gt;14 -->
<g id="edge25" class="edge">
<title>24&#45;&gt;14</title>
<path fill="none" stroke="grey" stroke-width="2" d="M642.81,-647.15C624.94,-638.47 603.21,-627.91 584,-618.56"/>
<polygon fill="grey" stroke="grey" stroke-width="2" points="585.66,-615.48 575.14,-614.26 582.6,-621.78 585.66,-615.48"/>
</g>
<!-- 25&#45;&gt;11 -->
<g id="edge18" class="edge">
<title>25&#45;&gt;11</title>
<path fill="none" stroke="grey" stroke-width="2" d="M284.78,-359.15C296.89,-350.93 311.47,-341.02 324.65,-332.06"/>
<polygon fill="grey" stroke="grey" stroke-width="2" points="326.51,-335.03 332.81,-326.51 322.57,-329.24 326.51,-335.03"/>
</g>
<!-- 26&#45;&gt;1 -->
<g id="edge2" class="edge">
<title>26&#45;&gt;1</title>
<path fill="none" stroke="grey" stroke-width="2" d="M217.91,-143.34C212.73,-136.1 206.62,-127.53 200.85,-119.45"/>
<polygon fill="grey" stroke="grey" stroke-width="2" points="203.73,-117.47 195.07,-111.37 198.03,-121.54 203.73,-117.47"/>
</g>
</g>
</svg>
