<?xml version="1.0" encoding="UTF-8" standalone="no"?>
<!DOCTYPE svg PUBLIC "-//W3C//DTD SVG 1.1//EN"
 "http://www.w3.org/Graphics/SVG/1.1/DTD/svg11.dtd">
<!-- Generated by graphviz version 7.1.0 (0)
 -->
<!-- Title: snakemake_dag Pages: 1 -->
<svg width="882pt" height="836pt"
 viewBox="0.00 0.00 881.61 836.00" xmlns="http://www.w3.org/2000/svg" xmlns:xlink="http://www.w3.org/1999/xlink">
<g id="graph0" class="graph" transform="scale(1 1) rotate(0) translate(4 832)">
<title>snakemake_dag</title>
<polygon fill="white" stroke="none" points="-4,4 -4,-832 877.61,-832 877.61,4 -4,4"/>
<!-- 0 -->
<g id="node1" class="node">
<title>0</title>
<path fill="none" stroke="#b6d856" stroke-width="2" d="M689,-36C689,-36 659,-36 659,-36 653,-36 647,-30 647,-24 647,-24 647,-12 647,-12 647,-6 653,0 659,0 659,0 689,0 689,0 695,0 701,-6 701,-12 701,-12 701,-24 701,-24 701,-30 695,-36 689,-36"/>
<text text-anchor="middle" x="674" y="-15.5" font-family="sans" font-size="10.00">all</text>
</g>
<!-- 1 -->
<g id="node2" class="node">
<title>1</title>
<path fill="none" stroke="#d8ac56" stroke-width="2" d="M721.5,-108C721.5,-108 626.5,-108 626.5,-108 620.5,-108 614.5,-102 614.5,-96 614.5,-96 614.5,-84 614.5,-84 614.5,-78 620.5,-72 626.5,-72 626.5,-72 721.5,-72 721.5,-72 727.5,-72 733.5,-78 733.5,-84 733.5,-84 733.5,-96 733.5,-96 733.5,-102 727.5,-108 721.5,-108"/>
<text text-anchor="middle" x="674" y="-87.5" font-family="sans" font-size="10.00">bracken_count_matrix</text>
</g>
<!-- 1&#45;&gt;0 -->
<g id="edge1" class="edge">
<title>1&#45;&gt;0</title>
<path fill="none" stroke="grey" stroke-width="2" d="M674,-71.34C674,-64.75 674,-57.08 674,-49.67"/>
<polygon fill="grey" stroke="grey" stroke-width="2" points="677.5,-49.93 674,-39.93 670.5,-49.93 677.5,-49.93"/>
</g>
<!-- 2 -->
<g id="node3" class="node">
<title>2</title>
<path fill="none" stroke="#5692d8" stroke-width="2" d="M717,-252C717,-252 631,-252 631,-252 625,-252 619,-246 619,-240 619,-240 619,-228 619,-228 619,-222 625,-216 631,-216 631,-216 717,-216 717,-216 723,-216 729,-222 729,-228 729,-228 729,-240 729,-240 729,-246 723,-252 717,-252"/>
<text text-anchor="middle" x="674" y="-231.5" font-family="sans" font-size="10.00">bracken_read_quant</text>
</g>
<!-- 2&#45;&gt;1 -->
<g id="edge3" class="edge">
<title>2&#45;&gt;1</title>
<path fill="none" stroke="grey" stroke-width="2" d="M660.53,-215.43C653.84,-205.59 646.46,-192.76 643,-180 638.82,-164.56 638.82,-159.44 643,-144 645.3,-135.53 649.32,-127.02 653.73,-119.38"/>
<polygon fill="grey" stroke="grey" stroke-width="2" points="656.56,-121.46 658.92,-111.13 650.63,-117.73 656.56,-121.46"/>
</g>
<!-- 25 -->
<g id="node26" class="node">
<title>25</title>
<path fill="none" stroke="#56a2d8" stroke-width="2" d="M784,-180C784,-180 664,-180 664,-180 658,-180 652,-174 652,-168 652,-168 652,-156 652,-156 652,-150 658,-144 664,-144 664,-144 784,-144 784,-144 790,-144 796,-150 796,-156 796,-156 796,-168 796,-168 796,-174 790,-180 784,-180"/>
<text text-anchor="middle" x="724" y="-159.5" font-family="sans" font-size="10.00">bracken_merged_counts</text>
</g>
<!-- 2&#45;&gt;25 -->
<g id="edge37" class="edge">
<title>2&#45;&gt;25</title>
<path fill="none" stroke="grey" stroke-width="2" d="M686.62,-215.34C691.79,-208.1 697.91,-199.53 703.68,-191.45"/>
<polygon fill="grey" stroke="grey" stroke-width="2" points="706.49,-193.54 709.45,-183.37 700.79,-189.47 706.49,-193.54"/>
</g>
<!-- 3 -->
<g id="node4" class="node">
<title>3</title>
<path fill="none" stroke="#d8cb56" stroke-width="2" d="M525.5,-324C525.5,-324 410.5,-324 410.5,-324 404.5,-324 398.5,-318 398.5,-312 398.5,-312 398.5,-300 398.5,-300 398.5,-294 404.5,-288 410.5,-288 410.5,-288 525.5,-288 525.5,-288 531.5,-288 537.5,-294 537.5,-300 537.5,-300 537.5,-312 537.5,-312 537.5,-318 531.5,-324 525.5,-324"/>
<text text-anchor="middle" x="468" y="-303.5" font-family="sans" font-size="10.00">kraken2_combined_report</text>
</g>
<!-- 3&#45;&gt;2 -->
<g id="edge5" class="edge">
<title>3&#45;&gt;2</title>
<path fill="none" stroke="grey" stroke-width="2" d="M520.78,-287.06C547.68,-277.93 580.62,-266.73 609.06,-257.07"/>
<polygon fill="grey" stroke="grey" stroke-width="2" points="610.15,-260.39 618.49,-253.86 607.89,-253.77 610.15,-260.39"/>
</g>
<!-- 4 -->
<g id="node5" class="node">
<title>4</title>
<path fill="none" stroke="#56d87b" stroke-width="2" d="M356.5,-468C356.5,-468 229.5,-468 229.5,-468 223.5,-468 217.5,-462 217.5,-456 217.5,-456 217.5,-444 217.5,-444 217.5,-438 223.5,-432 229.5,-432 229.5,-432 356.5,-432 356.5,-432 362.5,-432 368.5,-438 368.5,-444 368.5,-444 368.5,-456 368.5,-456 368.5,-462 362.5,-468 356.5,-468"/>
<text text-anchor="middle" x="293" y="-447.5" font-family="sans" font-size="10.00">kraken2_nucl_read_classif_pe</text>
</g>
<!-- 4&#45;&gt;3 -->
<g id="edge10" class="edge">
<title>4&#45;&gt;3</title>
<path fill="none" stroke="grey" stroke-width="2" d="M283.04,-431.05C273.73,-411.59 263.41,-380.57 279,-360 292.33,-342.41 340.55,-329.06 384.95,-320.15"/>
<polygon fill="grey" stroke="grey" stroke-width="2" points="385.51,-323.61 394.67,-318.27 384.18,-316.73 385.51,-323.61"/>
</g>
<!-- 18 -->
<g id="node19" class="node">
<title>18</title>
<path fill="none" stroke="#78d856" stroke-width="2" d="M428,-396C428,-396 300,-396 300,-396 294,-396 288,-390 288,-384 288,-384 288,-372 288,-372 288,-366 294,-360 300,-360 300,-360 428,-360 428,-360 434,-360 440,-366 440,-372 440,-372 440,-384 440,-384 440,-390 434,-396 428,-396"/>
<text text-anchor="middle" x="364" y="-375.5" font-family="sans" font-size="10.00">kraken2_prot_read_classif_pe</text>
</g>
<!-- 4&#45;&gt;18 -->
<g id="edge27" class="edge">
<title>4&#45;&gt;18</title>
<path fill="none" stroke="grey" stroke-width="2" d="M310.92,-431.34C318.76,-423.6 328.14,-414.36 336.81,-405.81"/>
<polygon fill="grey" stroke="grey" stroke-width="2" points="339.02,-408.54 343.69,-399.03 334.11,-403.56 339.02,-408.54"/>
</g>
<!-- 5 -->
<g id="node6" class="node">
<title>5</title>
<path fill="none" stroke="#56d0d8" stroke-width="2" d="M280.5,-540C280.5,-540 185.5,-540 185.5,-540 179.5,-540 173.5,-534 173.5,-528 173.5,-528 173.5,-516 173.5,-516 173.5,-510 179.5,-504 185.5,-504 185.5,-504 280.5,-504 280.5,-504 286.5,-504 292.5,-510 292.5,-516 292.5,-516 292.5,-528 292.5,-528 292.5,-534 286.5,-540 280.5,-540"/>
<text text-anchor="middle" x="233" y="-519.5" font-family="sans" font-size="10.00">host_filtered_fastq_pe</text>
</g>
<!-- 5&#45;&gt;4 -->
<g id="edge12" class="edge">
<title>5&#45;&gt;4</title>
<path fill="none" stroke="grey" stroke-width="2" d="M248.14,-503.34C254.56,-495.85 262.19,-486.95 269.32,-478.63"/>
<polygon fill="grey" stroke="grey" stroke-width="2" points="271.84,-481.07 275.69,-471.2 266.52,-476.51 271.84,-481.07"/>
</g>
<!-- 6 -->
<g id="node7" class="node">
<title>6</title>
<path fill="none" stroke="#d8bc56" stroke-width="2" d="M120,-612C120,-612 12,-612 12,-612 6,-612 0,-606 0,-600 0,-600 0,-588 0,-588 0,-582 6,-576 12,-576 12,-576 120,-576 120,-576 126,-576 132,-582 132,-588 132,-588 132,-600 132,-600 132,-606 126,-612 120,-612"/>
<text text-anchor="middle" x="66" y="-591.5" font-family="sans" font-size="10.00">gdc_unmapped_fastq_pe</text>
</g>
<!-- 6&#45;&gt;5 -->
<g id="edge14" class="edge">
<title>6&#45;&gt;5</title>
<path fill="none" stroke="grey" stroke-width="2" d="M108.57,-575.15C129.79,-566.26 155.69,-555.41 178.35,-545.91"/>
<polygon fill="grey" stroke="grey" stroke-width="2" points="179.55,-549.2 187.42,-542.1 176.85,-542.74 179.55,-549.2"/>
</g>
<!-- 7 -->
<g id="node8" class="node">
<title>7</title>
<path fill="none" stroke="#88d856" stroke-width="2" d="M185.5,-684C185.5,-684 96.5,-684 96.5,-684 90.5,-684 84.5,-678 84.5,-672 84.5,-672 84.5,-660 84.5,-660 84.5,-654 90.5,-648 96.5,-648 96.5,-648 185.5,-648 185.5,-648 191.5,-648 197.5,-654 197.5,-660 197.5,-660 197.5,-672 197.5,-672 197.5,-678 191.5,-684 185.5,-684"/>
<text text-anchor="middle" x="141" y="-663.5" font-family="sans" font-size="10.00">gdc_unmapped_bam</text>
</g>
<!-- 7&#45;&gt;6 -->
<g id="edge15" class="edge">
<title>7&#45;&gt;6</title>
<path fill="none" stroke="grey" stroke-width="2" d="M122.07,-647.34C113.7,-639.52 103.67,-630.16 94.43,-621.53"/>
<polygon fill="grey" stroke="grey" stroke-width="2" points="97.09,-619.23 87.39,-614.97 92.32,-624.35 97.09,-619.23"/>
</g>
<!-- 23 -->
<g id="node24" class="node">
<title>23</title>
<path fill="none" stroke="#c6d856" stroke-width="2" d="M269.5,-612C269.5,-612 162.5,-612 162.5,-612 156.5,-612 150.5,-606 150.5,-600 150.5,-600 150.5,-588 150.5,-588 150.5,-582 156.5,-576 162.5,-576 162.5,-576 269.5,-576 269.5,-576 275.5,-576 281.5,-582 281.5,-588 281.5,-588 281.5,-600 281.5,-600 281.5,-606 275.5,-612 269.5,-612"/>
<text text-anchor="middle" x="216" y="-591.5" font-family="sans" font-size="10.00">gdc_unmapped_fastq_se</text>
</g>
<!-- 7&#45;&gt;23 -->
<g id="edge34" class="edge">
<title>7&#45;&gt;23</title>
<path fill="none" stroke="grey" stroke-width="2" d="M159.93,-647.34C168.3,-639.52 178.33,-630.16 187.57,-621.53"/>
<polygon fill="grey" stroke="grey" stroke-width="2" points="189.68,-624.35 194.61,-614.97 184.91,-619.23 189.68,-624.35"/>
</g>
<!-- 8 -->
<g id="node9" class="node">
<title>8</title>
<path fill="none" stroke="#5673d8" stroke-width="2" d="M398,-612C398,-612 312,-612 312,-612 306,-612 300,-606 300,-600 300,-600 300,-588 300,-588 300,-582 306,-576 312,-576 312,-576 398,-576 398,-576 404,-576 410,-582 410,-588 410,-588 410,-600 410,-600 410,-606 404,-612 398,-612"/>
<text text-anchor="middle" x="355" y="-591.5" font-family="sans" font-size="10.00">host_genome_index</text>
</g>
<!-- 8&#45;&gt;5 -->
<g id="edge13" class="edge">
<title>8&#45;&gt;5</title>
<path fill="none" stroke="grey" stroke-width="2" d="M323.9,-575.15C309.13,-566.68 291.25,-556.42 275.27,-547.25"/>
<polygon fill="grey" stroke="grey" stroke-width="2" points="277.09,-544.26 266.67,-542.32 273.6,-550.33 277.09,-544.26"/>
</g>
<!-- 22 -->
<g id="node23" class="node">
<title>22</title>
<path fill="none" stroke="#d8a456" stroke-width="2" d="M417,-540C417,-540 323,-540 323,-540 317,-540 311,-534 311,-528 311,-528 311,-516 311,-516 311,-510 317,-504 323,-504 323,-504 417,-504 417,-504 423,-504 429,-510 429,-516 429,-516 429,-528 429,-528 429,-534 423,-540 417,-540"/>
<text text-anchor="middle" x="370" y="-519.5" font-family="sans" font-size="10.00">host_filtered_fastq_se</text>
</g>
<!-- 8&#45;&gt;22 -->
<g id="edge32" class="edge">
<title>8&#45;&gt;22</title>
<path fill="none" stroke="grey" stroke-width="2" d="M358.79,-575.34C360.21,-568.67 361.88,-560.89 363.49,-553.39"/>
<polygon fill="grey" stroke="grey" stroke-width="2" points="366.86,-554.37 365.53,-543.86 360.01,-552.91 366.86,-554.37"/>
</g>
<!-- 9 -->
<g id="node10" class="node">
<title>9</title>
<path fill="none" stroke="#d85656" stroke-width="2" d="M394.5,-684C394.5,-684 311.5,-684 311.5,-684 305.5,-684 299.5,-678 299.5,-672 299.5,-672 299.5,-660 299.5,-660 299.5,-654 305.5,-648 311.5,-648 311.5,-648 394.5,-648 394.5,-648 400.5,-648 406.5,-654 406.5,-660 406.5,-660 406.5,-672 406.5,-672 406.5,-678 400.5,-684 394.5,-684"/>
<text text-anchor="middle" x="353" y="-663.5" font-family="sans" font-size="10.00">host_genome_fasta</text>
</g>
<!-- 9&#45;&gt;8 -->
<g id="edge16" class="edge">
<title>9&#45;&gt;8</title>
<path fill="none" stroke="grey" stroke-width="2" d="M353.5,-647.34C353.69,-640.75 353.91,-633.08 354.12,-625.67"/>
<polygon fill="grey" stroke="grey" stroke-width="2" points="357.61,-626.02 354.4,-615.93 350.62,-625.82 357.61,-626.02"/>
</g>
<!-- 10 -->
<g id="node11" class="node">
<title>10</title>
<path fill="none" stroke="#d86656" stroke-width="2" d="M656.5,-540C656.5,-540 609.5,-540 609.5,-540 603.5,-540 597.5,-534 597.5,-528 597.5,-528 597.5,-516 597.5,-516 597.5,-510 603.5,-504 609.5,-504 609.5,-504 656.5,-504 656.5,-504 662.5,-504 668.5,-510 668.5,-516 668.5,-516 668.5,-528 668.5,-528 668.5,-534 662.5,-540 656.5,-540"/>
<text text-anchor="middle" x="633" y="-519.5" font-family="sans" font-size="10.00">kraken2_db</text>
</g>
<!-- 10&#45;&gt;2 -->
<g id="edge6" class="edge">
<title>10&#45;&gt;2</title>
<path fill="none" stroke="grey" stroke-width="2" d="M636.45,-503.25C641.08,-479.06 649.36,-434.37 655,-396 661.66,-350.68 667.53,-297.91 670.92,-265.48"/>
<polygon fill="grey" stroke="grey" stroke-width="2" points="674.36,-266.23 671.91,-255.92 667.4,-265.51 674.36,-266.23"/>
</g>
<!-- 10&#45;&gt;4 -->
<g id="edge11" class="edge">
<title>10&#45;&gt;4</title>
<path fill="none" stroke="grey" stroke-width="2" d="M596.61,-513.51C545.71,-503.03 451.62,-483.66 381.62,-469.25"/>
<polygon fill="grey" stroke="grey" stroke-width="2" points="382.75,-465.91 372.25,-467.32 381.34,-472.76 382.75,-465.91"/>
</g>
<!-- 10&#45;&gt;18 -->
<g id="edge26" class="edge">
<title>10&#45;&gt;18</title>
<path fill="none" stroke="grey" stroke-width="2" d="M596.72,-520.57C550.44,-518.27 469.94,-508.22 416,-468 396.23,-453.26 382.68,-428.59 374.37,-408.97"/>
<polygon fill="grey" stroke="grey" stroke-width="2" points="377.68,-407.8 370.77,-399.77 371.16,-410.35 377.68,-407.8"/>
</g>
<!-- 20 -->
<g id="node21" class="node">
<title>20</title>
<path fill="none" stroke="#56d85b" stroke-width="2" d="M760,-324C760,-324 714,-324 714,-324 708,-324 702,-318 702,-312 702,-312 702,-300 702,-300 702,-294 708,-288 714,-288 714,-288 760,-288 760,-288 766,-288 772,-294 772,-300 772,-300 772,-312 772,-312 772,-318 766,-324 760,-324"/>
<text text-anchor="middle" x="737" y="-303.5" font-family="sans" font-size="10.00">bracken_db</text>
</g>
<!-- 10&#45;&gt;20 -->
<g id="edge29" class="edge">
<title>10&#45;&gt;20</title>
<path fill="none" stroke="grey" stroke-width="2" d="M656.59,-503.03C667.5,-493.65 679.83,-481.34 688,-468 713.35,-426.62 726.44,-371.15 732.5,-337.3"/>
<polygon fill="grey" stroke="grey" stroke-width="2" points="735.92,-338.06 734.12,-327.62 729.01,-336.91 735.92,-338.06"/>
</g>
<!-- 21 -->
<g id="node22" class="node">
<title>21</title>
<path fill="none" stroke="#d6d856" stroke-width="2" d="M562.5,-468C562.5,-468 437.5,-468 437.5,-468 431.5,-468 425.5,-462 425.5,-456 425.5,-456 425.5,-444 425.5,-444 425.5,-438 431.5,-432 437.5,-432 437.5,-432 562.5,-432 562.5,-432 568.5,-432 574.5,-438 574.5,-444 574.5,-444 574.5,-456 574.5,-456 574.5,-462 568.5,-468 562.5,-468"/>
<text text-anchor="middle" x="500" y="-447.5" font-family="sans" font-size="10.00">kraken2_nucl_read_classif_se</text>
</g>
<!-- 10&#45;&gt;21 -->
<g id="edge31" class="edge">
<title>10&#45;&gt;21</title>
<path fill="none" stroke="grey" stroke-width="2" d="M599.09,-503.15C582.76,-494.56 562.93,-484.12 545.32,-474.85"/>
<polygon fill="grey" stroke="grey" stroke-width="2" points="547,-471.78 536.52,-470.22 543.74,-477.98 547,-471.78"/>
</g>
<!-- 24 -->
<g id="node25" class="node">
<title>24</title>
<path fill="none" stroke="#56b1d8" stroke-width="2" d="M634,-396C634,-396 508,-396 508,-396 502,-396 496,-390 496,-384 496,-384 496,-372 496,-372 496,-366 502,-360 508,-360 508,-360 634,-360 634,-360 640,-360 646,-366 646,-372 646,-372 646,-384 646,-384 646,-390 640,-396 634,-396"/>
<text text-anchor="middle" x="571" y="-375.5" font-family="sans" font-size="10.00">kraken2_prot_read_classif_se</text>
</g>
<!-- 10&#45;&gt;24 -->
<g id="edge36" class="edge">
<title>10&#45;&gt;24</title>
<path fill="none" stroke="grey" stroke-width="2" d="M625.15,-503.02C614.76,-479.22 596.31,-436.97 583.87,-408.48"/>
<polygon fill="grey" stroke="grey" stroke-width="2" points="587.21,-407.38 580,-399.61 580.79,-410.18 587.21,-407.38"/>
</g>
<!-- 11 -->
<g id="node12" class="node">
<title>11</title>
<path fill="none" stroke="#a7d856" stroke-width="2" d="M845,-684C845,-684 747,-684 747,-684 741,-684 735,-678 735,-672 735,-672 735,-660 735,-660 735,-654 741,-648 747,-648 747,-648 845,-648 845,-648 851,-648 857,-654 857,-660 857,-660 857,-672 857,-672 857,-678 851,-684 845,-684"/>
<text text-anchor="middle" x="796" y="-663.5" font-family="sans" font-size="10.00">kraken2_db_taxonomy</text>
</g>
<!-- 11&#45;&gt;10 -->
<g id="edge20" class="edge">
<title>11&#45;&gt;10</title>
<path fill="none" stroke="grey" stroke-width="2" d="M832.29,-647.23C845.75,-638.6 859.55,-626.85 867,-612 874.17,-597.7 876.99,-588.5 867,-576 844.29,-547.57 743.62,-533.26 681.96,-527.04"/>
<polygon fill="grey" stroke="grey" stroke-width="2" points="682.36,-523.56 672.07,-526.09 681.69,-530.53 682.36,-523.56"/>
</g>
<!-- 12 -->
<g id="node13" class="node">
<title>12</title>
<path fill="none" stroke="#56d8b9" stroke-width="2" d="M700,-612C700,-612 596,-612 596,-612 590,-612 584,-606 584,-600 584,-600 584,-588 584,-588 584,-582 590,-576 596,-576 596,-576 700,-576 700,-576 706,-576 712,-582 712,-588 712,-588 712,-600 712,-600 712,-606 706,-612 700,-612"/>
<text text-anchor="middle" x="648" y="-591.5" font-family="sans" font-size="10.00">kraken2_nucl_db_library</text>
</g>
<!-- 11&#45;&gt;12 -->
<g id="edge21" class="edge">
<title>11&#45;&gt;12</title>
<path fill="none" stroke="grey" stroke-width="2" d="M758.27,-647.15C739.81,-638.43 717.36,-627.81 697.54,-618.43"/>
<polygon fill="grey" stroke="grey" stroke-width="2" points="699.19,-615.34 688.65,-614.23 696.2,-621.67 699.19,-615.34"/>
</g>
<!-- 19 -->
<g id="node20" class="node">
<title>19</title>
<path fill="none" stroke="#56c1d8" stroke-width="2" d="M846,-612C846,-612 742,-612 742,-612 736,-612 730,-606 730,-600 730,-600 730,-588 730,-588 730,-582 736,-576 742,-576 742,-576 846,-576 846,-576 852,-576 858,-582 858,-588 858,-588 858,-600 858,-600 858,-606 852,-612 846,-612"/>
<text text-anchor="middle" x="794" y="-591.5" font-family="sans" font-size="10.00">kraken2_prot_db_library</text>
</g>
<!-- 11&#45;&gt;19 -->
<g id="edge28" class="edge">
<title>11&#45;&gt;19</title>
<path fill="none" stroke="grey" stroke-width="2" d="M795.5,-647.34C795.31,-640.75 795.09,-633.08 794.88,-625.67"/>
<polygon fill="grey" stroke="grey" stroke-width="2" points="798.38,-625.82 794.6,-615.93 791.39,-626.02 798.38,-625.82"/>
</g>
<!-- 12&#45;&gt;10 -->
<g id="edge19" class="edge">
<title>12&#45;&gt;10</title>
<path fill="none" stroke="grey" stroke-width="2" d="M644.21,-575.34C642.79,-568.67 641.12,-560.89 639.51,-553.39"/>
<polygon fill="grey" stroke="grey" stroke-width="2" points="642.99,-552.91 637.47,-543.86 636.14,-554.37 642.99,-552.91"/>
</g>
<!-- 13 -->
<g id="node14" class="node">
<title>13</title>
<path fill="none" stroke="#56d89a" stroke-width="2" d="M553.5,-612C553.5,-612 440.5,-612 440.5,-612 434.5,-612 428.5,-606 428.5,-600 428.5,-600 428.5,-588 428.5,-588 428.5,-582 434.5,-576 440.5,-576 440.5,-576 553.5,-576 553.5,-576 559.5,-576 565.5,-582 565.5,-588 565.5,-588 565.5,-600 565.5,-600 565.5,-606 559.5,-612 553.5,-612"/>
<text text-anchor="middle" x="497" y="-591.5" font-family="sans" font-size="10.00">kraken2_eupathdb_library</text>
</g>
<!-- 13&#45;&gt;10 -->
<g id="edge18" class="edge">
<title>13&#45;&gt;10</title>
<path fill="none" stroke="grey" stroke-width="2" d="M531.67,-575.15C548.46,-566.52 568.84,-556.02 586.91,-546.72"/>
<polygon fill="grey" stroke="grey" stroke-width="2" points="588.41,-549.89 595.7,-542.2 585.21,-543.66 588.41,-549.89"/>
</g>
<!-- 14 -->
<g id="node15" class="node">
<title>14</title>
<path fill="none" stroke="#56d8c9" stroke-width="2" d="M705,-684C705,-684 585,-684 585,-684 579,-684 573,-678 573,-672 573,-672 573,-660 573,-660 573,-654 579,-648 585,-648 585,-648 705,-648 705,-648 711,-648 717,-654 717,-660 717,-660 717,-672 717,-672 717,-678 711,-684 705,-684"/>
<text text-anchor="middle" x="645" y="-663.5" font-family="sans" font-size="10.00">eupathdb_seqid2taxid_map</text>
</g>
<!-- 14&#45;&gt;13 -->
<g id="edge22" class="edge">
<title>14&#45;&gt;13</title>
<path fill="none" stroke="grey" stroke-width="2" d="M607.27,-647.15C588.81,-638.43 566.36,-627.81 546.54,-618.43"/>
<polygon fill="grey" stroke="grey" stroke-width="2" points="548.19,-615.34 537.65,-614.23 545.2,-621.67 548.19,-615.34"/>
</g>
<!-- 15 -->
<g id="node16" class="node">
<title>15</title>
<path fill="none" stroke="#56d8a9" stroke-width="2" d="M543,-684C543,-684 437,-684 437,-684 431,-684 425,-678 425,-672 425,-672 425,-660 425,-660 425,-654 431,-648 437,-648 437,-648 543,-648 543,-648 549,-648 555,-654 555,-660 555,-660 555,-672 555,-672 555,-678 549,-684 543,-684"/>
<text text-anchor="middle" x="490" y="-663.5" font-family="sans" font-size="10.00">eupathdb_merged_fasta</text>
</g>
<!-- 15&#45;&gt;13 -->
<g id="edge23" class="edge">
<title>15&#45;&gt;13</title>
<path fill="none" stroke="grey" stroke-width="2" d="M491.77,-647.34C492.42,-640.75 493.19,-633.08 493.93,-625.67"/>
<polygon fill="grey" stroke="grey" stroke-width="2" points="497.4,-626.21 494.91,-615.91 490.43,-625.52 497.4,-626.21"/>
</g>
<!-- 16 -->
<g id="node17" class="node">
<title>16</title>
<path fill="none" stroke="#97d856" stroke-width="2" d="M524.5,-756C524.5,-756 455.5,-756 455.5,-756 449.5,-756 443.5,-750 443.5,-744 443.5,-744 443.5,-732 443.5,-732 443.5,-726 449.5,-720 455.5,-720 455.5,-720 524.5,-720 524.5,-720 530.5,-720 536.5,-726 536.5,-732 536.5,-732 536.5,-744 536.5,-744 536.5,-750 530.5,-756 524.5,-756"/>
<text text-anchor="middle" x="490" y="-735.5" font-family="sans" font-size="10.00">eupathdb_fastas</text>
</g>
<!-- 16&#45;&gt;15 -->
<g id="edge24" class="edge">
<title>16&#45;&gt;15</title>
<path fill="none" stroke="grey" stroke-width="2" d="M490,-719.34C490,-712.75 490,-705.08 490,-697.67"/>
<polygon fill="grey" stroke="grey" stroke-width="2" points="493.5,-697.93 490,-687.93 486.5,-697.93 493.5,-697.93"/>
</g>
<!-- 17 -->
<g id="node18" class="node">
<title>17</title>
<path fill="none" stroke="#d89556" stroke-width="2" d="M541,-828C541,-828 439,-828 439,-828 433,-828 427,-822 427,-816 427,-816 427,-804 427,-804 427,-798 433,-792 439,-792 439,-792 541,-792 541,-792 547,-792 553,-798 553,-804 553,-804 553,-816 553,-816 553,-822 547,-828 541,-828"/>
<text text-anchor="middle" x="490" y="-807.5" font-family="sans" font-size="10.00">eupathdb_fasta_archive</text>
</g>
<!-- 17&#45;&gt;16 -->
<g id="edge25" class="edge">
<title>17&#45;&gt;16</title>
<path fill="none" stroke="grey" stroke-width="2" d="M490,-791.34C490,-784.75 490,-777.08 490,-769.67"/>
<polygon fill="grey" stroke="grey" stroke-width="2" points="493.5,-769.93 490,-759.93 486.5,-769.93 493.5,-769.93"/>
</g>
<!-- 18&#45;&gt;3 -->
<g id="edge7" class="edge">
<title>18&#45;&gt;3</title>
<path fill="none" stroke="grey" stroke-width="2" d="M390.51,-359.15C402.74,-350.93 417.46,-341.02 430.77,-332.06"/>
<polygon fill="grey" stroke="grey" stroke-width="2" points="432.68,-334.99 439.02,-326.5 428.77,-329.18 432.68,-334.99"/>
</g>
<!-- 19&#45;&gt;10 -->
<g id="edge17" class="edge">
<title>19&#45;&gt;10</title>
<path fill="none" stroke="grey" stroke-width="2" d="M752.96,-575.15C731.08,-565.64 704.04,-553.89 681.18,-543.95"/>
<polygon fill="grey" stroke="grey" stroke-width="2" points="682.65,-540.77 672.08,-539.99 679.86,-547.19 682.65,-540.77"/>
</g>
<!-- 20&#45;&gt;2 -->
<g id="edge4" class="edge">
<title>20&#45;&gt;2</title>
<path fill="none" stroke="grey" stroke-width="2" d="M721.1,-287.34C714.29,-279.77 706.18,-270.75 698.62,-262.35"/>
<polygon fill="grey" stroke="grey" stroke-width="2" points="701.43,-260.24 692.14,-255.15 696.22,-264.93 701.43,-260.24"/>
</g>
<!-- 21&#45;&gt;3 -->
<g id="edge9" class="edge">
<title>21&#45;&gt;3</title>
<path fill="none" stroke="grey" stroke-width="2" d="M495.53,-431.37C492.96,-421.07 489.71,-407.82 487,-396 482.54,-376.56 477.86,-354.65 474.26,-337.43"/>
<polygon fill="grey" stroke="grey" stroke-width="2" points="477.7,-336.81 472.24,-327.73 470.85,-338.23 477.7,-336.81"/>
</g>
<!-- 21&#45;&gt;24 -->
<g id="edge35" class="edge">
<title>21&#45;&gt;24</title>
<path fill="none" stroke="grey" stroke-width="2" d="M517.92,-431.34C525.76,-423.6 535.14,-414.36 543.81,-405.81"/>
<polygon fill="grey" stroke="grey" stroke-width="2" points="546.02,-408.54 550.69,-399.03 541.11,-403.56 546.02,-408.54"/>
</g>
<!-- 22&#45;&gt;21 -->
<g id="edge30" class="edge">
<title>22&#45;&gt;21</title>
<path fill="none" stroke="grey" stroke-width="2" d="M403.14,-503.15C419.03,-494.6 438.3,-484.22 455.45,-474.99"/>
<polygon fill="grey" stroke="grey" stroke-width="2" points="457.11,-478.07 464.25,-470.25 453.79,-471.91 457.11,-478.07"/>
</g>
<!-- 23&#45;&gt;22 -->
<g id="edge33" class="edge">
<title>23&#45;&gt;22</title>
<path fill="none" stroke="grey" stroke-width="2" d="M255.26,-575.15C274.55,-566.38 298.05,-555.71 318.74,-546.3"/>
<polygon fill="grey" stroke="grey" stroke-width="2" points="320.13,-549.51 327.79,-542.19 317.24,-543.14 320.13,-549.51"/>
</g>
<!-- 24&#45;&gt;3 -->
<g id="edge8" class="edge">
<title>24&#45;&gt;3</title>
<path fill="none" stroke="grey" stroke-width="2" d="M544.74,-359.15C532.64,-350.93 518.06,-341.02 504.87,-332.06"/>
<polygon fill="grey" stroke="grey" stroke-width="2" points="506.95,-329.24 496.71,-326.51 503.02,-335.03 506.95,-329.24"/>
</g>
<!-- 25&#45;&gt;1 -->
<g id="edge2" class="edge">
<title>25&#45;&gt;1</title>
<path fill="none" stroke="grey" stroke-width="2" d="M711.38,-143.34C706.21,-136.1 700.09,-127.53 694.32,-119.45"/>
<polygon fill="grey" stroke="grey" stroke-width="2" points="697.21,-117.47 688.55,-111.37 691.51,-121.54 697.21,-117.47"/>
</g>
</g>
</svg>
