<?xml version="1.0" encoding="UTF-8" standalone="no"?>
<!DOCTYPE svg PUBLIC "-//W3C//DTD SVG 1.1//EN"
 "http://www.w3.org/Graphics/SVG/1.1/DTD/svg11.dtd">
<!-- Generated by graphviz version 7.1.0 (0)
 -->
<!-- Title: snakemake_dag Pages: 1 -->
<svg width="522pt" height="692pt"
 viewBox="0.00 0.00 522.00 692.00" xmlns="http://www.w3.org/2000/svg" xmlns:xlink="http://www.w3.org/1999/xlink">
<g id="graph0" class="graph" transform="scale(1 1) rotate(0) translate(4 688)">
<title>snakemake_dag</title>
<polygon fill="white" stroke="none" points="-4,4 -4,-688 518,-688 518,4 -4,4"/>
<!-- 0 -->
<g id="node1" class="node">
<title>0</title>
<path fill="none" stroke="#56a9d8" stroke-width="2" d="M207,-36C207,-36 177,-36 177,-36 171,-36 165,-30 165,-24 165,-24 165,-12 165,-12 165,-6 171,0 177,0 177,0 207,0 207,0 213,0 219,-6 219,-12 219,-12 219,-24 219,-24 219,-30 213,-36 207,-36"/>
<text text-anchor="middle" x="192" y="-15.5" font-family="sans" font-size="10.00">all</text>
</g>
<!-- 1 -->
<g id="node2" class="node">
<title>1</title>
<path fill="none" stroke="#d87556" stroke-width="2" d="M110,-108C110,-108 12,-108 12,-108 6,-108 0,-102 0,-96 0,-96 0,-84 0,-84 0,-78 6,-72 12,-72 12,-72 110,-72 110,-72 116,-72 122,-78 122,-84 122,-84 122,-96 122,-96 122,-102 116,-108 110,-108"/>
<text text-anchor="middle" x="61" y="-87.5" font-family="sans" font-size="10.00">kraken2_db_taxonomy</text>
</g>
<!-- 1&#45;&gt;0 -->
<g id="edge3" class="edge">
<title>1&#45;&gt;0</title>
<path fill="none" stroke="grey" stroke-width="2" d="M94.4,-71.15C112.26,-61.61 134.37,-49.79 153.02,-39.83"/>
<polygon fill="grey" stroke="grey" stroke-width="2" points="154.57,-42.97 161.74,-35.17 151.27,-36.8 154.57,-42.97"/>
</g>
<!-- 2 -->
<g id="node3" class="node">
<title>2</title>
<path fill="none" stroke="#80d856" stroke-width="2" d="M232,-108C232,-108 152,-108 152,-108 146,-108 140,-102 140,-96 140,-96 140,-84 140,-84 140,-78 146,-72 152,-72 152,-72 232,-72 232,-72 238,-72 244,-78 244,-84 244,-84 244,-96 244,-96 244,-102 238,-108 232,-108"/>
<text text-anchor="middle" x="192" y="-87.5" font-family="sans" font-size="10.00">kraken2_db_library</text>
</g>
<!-- 2&#45;&gt;0 -->
<g id="edge2" class="edge">
<title>2&#45;&gt;0</title>
<path fill="none" stroke="grey" stroke-width="2" d="M192,-71.34C192,-64.75 192,-57.08 192,-49.67"/>
<polygon fill="grey" stroke="grey" stroke-width="2" points="195.5,-49.93 192,-39.93 188.5,-49.93 195.5,-49.93"/>
</g>
<!-- 3 -->
<g id="node4" class="node">
<title>3</title>
<path fill="none" stroke="#56d8d0" stroke-width="2" d="M369.5,-108C369.5,-108 274.5,-108 274.5,-108 268.5,-108 262.5,-102 262.5,-96 262.5,-96 262.5,-84 262.5,-84 262.5,-78 268.5,-72 274.5,-72 274.5,-72 369.5,-72 369.5,-72 375.5,-72 381.5,-78 381.5,-84 381.5,-84 381.5,-96 381.5,-96 381.5,-102 375.5,-108 369.5,-108"/>
<text text-anchor="middle" x="322" y="-87.5" font-family="sans" font-size="10.00">bracken_count_matrix</text>
</g>
<!-- 3&#45;&gt;0 -->
<g id="edge1" class="edge">
<title>3&#45;&gt;0</title>
<path fill="none" stroke="grey" stroke-width="2" d="M288.86,-71.15C271.25,-61.67 249.5,-49.96 231.07,-40.04"/>
<polygon fill="grey" stroke="grey" stroke-width="2" points="232.94,-37.07 222.47,-35.41 229.62,-43.23 232.94,-37.07"/>
</g>
<!-- 4 -->
<g id="node5" class="node">
<title>4</title>
<path fill="none" stroke="#56c1d8" stroke-width="2" d="M365,-252C365,-252 279,-252 279,-252 273,-252 267,-246 267,-240 267,-240 267,-228 267,-228 267,-222 273,-216 279,-216 279,-216 365,-216 365,-216 371,-216 377,-222 377,-228 377,-228 377,-240 377,-240 377,-246 371,-252 365,-252"/>
<text text-anchor="middle" x="322" y="-231.5" font-family="sans" font-size="10.00">bracken_read_quant</text>
</g>
<!-- 4&#45;&gt;3 -->
<g id="edge4" class="edge">
<title>4&#45;&gt;3</title>
<path fill="none" stroke="grey" stroke-width="2" d="M308.53,-215.43C301.84,-205.59 294.46,-192.76 291,-180 286.82,-164.56 286.82,-159.44 291,-144 293.3,-135.53 297.32,-127.02 301.73,-119.38"/>
<polygon fill="grey" stroke="grey" stroke-width="2" points="304.56,-121.46 306.92,-111.13 298.63,-117.73 304.56,-121.46"/>
</g>
<!-- 16 -->
<g id="node17" class="node">
<title>16</title>
<path fill="none" stroke="#568ad8" stroke-width="2" d="M432,-180C432,-180 312,-180 312,-180 306,-180 300,-174 300,-168 300,-168 300,-156 300,-156 300,-150 306,-144 312,-144 312,-144 432,-144 432,-144 438,-144 444,-150 444,-156 444,-156 444,-168 444,-168 444,-174 438,-180 432,-180"/>
<text text-anchor="middle" x="372" y="-159.5" font-family="sans" font-size="10.00">bracken_merged_rg_counts</text>
</g>
<!-- 4&#45;&gt;16 -->
<g id="edge21" class="edge">
<title>4&#45;&gt;16</title>
<path fill="none" stroke="grey" stroke-width="2" d="M334.62,-215.34C339.79,-208.1 345.91,-199.53 351.68,-191.45"/>
<polygon fill="grey" stroke="grey" stroke-width="2" points="354.49,-193.54 357.45,-183.37 348.79,-189.47 354.49,-193.54"/>
</g>
<!-- 5 -->
<g id="node6" class="node">
<title>5</title>
<path fill="none" stroke="#d8c356" stroke-width="2" d="M292.5,-396C292.5,-396 191.5,-396 191.5,-396 185.5,-396 179.5,-390 179.5,-384 179.5,-384 179.5,-372 179.5,-372 179.5,-366 185.5,-360 191.5,-360 191.5,-360 292.5,-360 292.5,-360 298.5,-360 304.5,-366 304.5,-372 304.5,-372 304.5,-384 304.5,-384 304.5,-390 298.5,-396 292.5,-396"/>
<text text-anchor="middle" x="242" y="-375.5" font-family="sans" font-size="10.00">krakenuniq_read_classif</text>
</g>
<!-- 5&#45;&gt;4 -->
<g id="edge7" class="edge">
<title>5&#45;&gt;4</title>
<path fill="none" stroke="grey" stroke-width="2" d="M252.13,-359.02C265.6,-335.12 289.55,-292.59 305.61,-264.1"/>
<polygon fill="grey" stroke="grey" stroke-width="2" points="308.61,-265.91 310.46,-255.48 302.51,-262.47 308.61,-265.91"/>
</g>
<!-- 6 -->
<g id="node7" class="node">
<title>6</title>
<path fill="none" stroke="#5673d8" stroke-width="2" d="M301.5,-468C301.5,-468 188.5,-468 188.5,-468 182.5,-468 176.5,-462 176.5,-456 176.5,-456 176.5,-444 176.5,-444 176.5,-438 182.5,-432 188.5,-432 188.5,-432 301.5,-432 301.5,-432 307.5,-432 313.5,-438 313.5,-444 313.5,-444 313.5,-456 313.5,-456 313.5,-462 307.5,-468 301.5,-468"/>
<text text-anchor="middle" x="245" y="-447.5" font-family="sans" font-size="10.00">bowtie2_filtered_fastq_pe</text>
</g>
<!-- 6&#45;&gt;5 -->
<g id="edge9" class="edge">
<title>6&#45;&gt;5</title>
<path fill="none" stroke="grey" stroke-width="2" d="M244.24,-431.34C243.96,-424.75 243.63,-417.08 243.31,-409.67"/>
<polygon fill="grey" stroke="grey" stroke-width="2" points="246.82,-409.77 242.9,-399.93 239.83,-410.07 246.82,-409.77"/>
</g>
<!-- 13 -->
<g id="node14" class="node">
<title>13</title>
<path fill="none" stroke="#56d8b9" stroke-width="2" d="M471,-396C471,-396 335,-396 335,-396 329,-396 323,-390 323,-384 323,-384 323,-372 323,-372 323,-366 329,-360 335,-360 335,-360 471,-360 471,-360 477,-360 483,-366 483,-372 483,-372 483,-384 483,-384 483,-390 477,-396 471,-396"/>
<text text-anchor="middle" x="403" y="-375.5" font-family="sans" font-size="10.00">bbmap_read_length_histogram</text>
</g>
<!-- 6&#45;&gt;13 -->
<g id="edge18" class="edge">
<title>6&#45;&gt;13</title>
<path fill="none" stroke="grey" stroke-width="2" d="M285.28,-431.15C305.17,-422.34 329.4,-411.61 350.7,-402.17"/>
<polygon fill="grey" stroke="grey" stroke-width="2" points="352.03,-405.41 359.75,-398.16 349.19,-399.01 352.03,-405.41"/>
</g>
<!-- 7 -->
<g id="node8" class="node">
<title>7</title>
<path fill="none" stroke="#56d863" stroke-width="2" d="M363,-540C363,-540 281,-540 281,-540 275,-540 269,-534 269,-528 269,-528 269,-516 269,-516 269,-510 275,-504 281,-504 281,-504 363,-504 363,-504 369,-504 375,-510 375,-516 375,-516 375,-528 375,-528 375,-534 369,-540 363,-540"/>
<text text-anchor="middle" x="322" y="-519.5" font-family="sans" font-size="10.00">bowtie2_filter_host</text>
</g>
<!-- 7&#45;&gt;6 -->
<g id="edge10" class="edge">
<title>7&#45;&gt;6</title>
<path fill="none" stroke="grey" stroke-width="2" d="M302.57,-503.34C293.97,-495.52 283.68,-486.16 274.19,-477.53"/>
<polygon fill="grey" stroke="grey" stroke-width="2" points="276.69,-475.07 266.93,-470.94 271.98,-480.25 276.69,-475.07"/>
</g>
<!-- 14 -->
<g id="node15" class="node">
<title>14</title>
<path fill="none" stroke="#d85656" stroke-width="2" d="M454.5,-468C454.5,-468 343.5,-468 343.5,-468 337.5,-468 331.5,-462 331.5,-456 331.5,-456 331.5,-444 331.5,-444 331.5,-438 337.5,-432 343.5,-432 343.5,-432 454.5,-432 454.5,-432 460.5,-432 466.5,-438 466.5,-444 466.5,-444 466.5,-456 466.5,-456 466.5,-462 460.5,-468 454.5,-468"/>
<text text-anchor="middle" x="399" y="-447.5" font-family="sans" font-size="10.00">bowtie2_filtered_fastq_se</text>
</g>
<!-- 7&#45;&gt;14 -->
<g id="edge19" class="edge">
<title>7&#45;&gt;14</title>
<path fill="none" stroke="grey" stroke-width="2" d="M341.43,-503.34C350.03,-495.52 360.32,-486.16 369.81,-477.53"/>
<polygon fill="grey" stroke="grey" stroke-width="2" points="372.02,-480.25 377.07,-470.94 367.31,-475.07 372.02,-480.25"/>
</g>
<!-- 8 -->
<g id="node9" class="node">
<title>8</title>
<path fill="none" stroke="#ced856" stroke-width="2" d="M376,-612C376,-612 268,-612 268,-612 262,-612 256,-606 256,-600 256,-600 256,-588 256,-588 256,-582 262,-576 268,-576 268,-576 376,-576 376,-576 382,-576 388,-582 388,-588 388,-588 388,-600 388,-600 388,-606 382,-612 376,-612"/>
<text text-anchor="middle" x="322" y="-591.5" font-family="sans" font-size="10.00">gdc_unmapped_fastq_pe</text>
</g>
<!-- 8&#45;&gt;7 -->
<g id="edge13" class="edge">
<title>8&#45;&gt;7</title>
<path fill="none" stroke="grey" stroke-width="2" d="M322,-575.34C322,-568.75 322,-561.08 322,-553.67"/>
<polygon fill="grey" stroke="grey" stroke-width="2" points="325.5,-553.93 322,-543.93 318.5,-553.93 325.5,-553.93"/>
</g>
<!-- 9 -->
<g id="node10" class="node">
<title>9</title>
<path fill="none" stroke="#d8ac56" stroke-width="2" d="M291.5,-684C291.5,-684 202.5,-684 202.5,-684 196.5,-684 190.5,-678 190.5,-672 190.5,-672 190.5,-660 190.5,-660 190.5,-654 196.5,-648 202.5,-648 202.5,-648 291.5,-648 291.5,-648 297.5,-648 303.5,-654 303.5,-660 303.5,-660 303.5,-672 303.5,-672 303.5,-678 297.5,-684 291.5,-684"/>
<text text-anchor="middle" x="247" y="-663.5" font-family="sans" font-size="10.00">gdc_unmapped_bam</text>
</g>
<!-- 9&#45;&gt;8 -->
<g id="edge14" class="edge">
<title>9&#45;&gt;8</title>
<path fill="none" stroke="grey" stroke-width="2" d="M265.93,-647.34C274.3,-639.52 284.33,-630.16 293.57,-621.53"/>
<polygon fill="grey" stroke="grey" stroke-width="2" points="295.68,-624.35 300.61,-614.97 290.91,-619.23 295.68,-624.35"/>
</g>
<!-- 15 -->
<g id="node16" class="node">
<title>15</title>
<path fill="none" stroke="#56d89a" stroke-width="2" d="M225.5,-612C225.5,-612 118.5,-612 118.5,-612 112.5,-612 106.5,-606 106.5,-600 106.5,-600 106.5,-588 106.5,-588 106.5,-582 112.5,-576 118.5,-576 118.5,-576 225.5,-576 225.5,-576 231.5,-576 237.5,-582 237.5,-588 237.5,-588 237.5,-600 237.5,-600 237.5,-606 231.5,-612 225.5,-612"/>
<text text-anchor="middle" x="172" y="-591.5" font-family="sans" font-size="10.00">gdc_unmapped_fastq_se</text>
</g>
<!-- 9&#45;&gt;15 -->
<g id="edge20" class="edge">
<title>9&#45;&gt;15</title>
<path fill="none" stroke="grey" stroke-width="2" d="M228.07,-647.34C219.7,-639.52 209.67,-630.16 200.43,-621.53"/>
<polygon fill="grey" stroke="grey" stroke-width="2" points="203.09,-619.23 193.39,-614.97 198.32,-624.35 203.09,-619.23"/>
</g>
<!-- 10 -->
<g id="node11" class="node">
<title>10</title>
<path fill="none" stroke="#d88d56" stroke-width="2" d="M502,-612C502,-612 418,-612 418,-612 412,-612 406,-606 406,-600 406,-600 406,-588 406,-588 406,-582 412,-576 418,-576 418,-576 502,-576 502,-576 508,-576 514,-582 514,-588 514,-588 514,-600 514,-600 514,-606 508,-612 502,-612"/>
<text text-anchor="middle" x="460" y="-591.5" font-family="sans" font-size="10.00">bowtie2_host_index</text>
</g>
<!-- 10&#45;&gt;7 -->
<g id="edge12" class="edge">
<title>10&#45;&gt;7</title>
<path fill="none" stroke="grey" stroke-width="2" d="M424.82,-575.15C407.71,-566.47 386.91,-555.92 368.5,-546.59"/>
<polygon fill="grey" stroke="grey" stroke-width="2" points="370.32,-543.58 359.82,-542.18 367.15,-549.83 370.32,-543.58"/>
</g>
<!-- 11 -->
<g id="node12" class="node">
<title>11</title>
<path fill="none" stroke="#61d856" stroke-width="2" d="M501.5,-684C501.5,-684 418.5,-684 418.5,-684 412.5,-684 406.5,-678 406.5,-672 406.5,-672 406.5,-660 406.5,-660 406.5,-654 412.5,-648 418.5,-648 418.5,-648 501.5,-648 501.5,-648 507.5,-648 513.5,-654 513.5,-660 513.5,-660 513.5,-672 513.5,-672 513.5,-678 507.5,-684 501.5,-684"/>
<text text-anchor="middle" x="460" y="-663.5" font-family="sans" font-size="10.00">host_genome_fasta</text>
</g>
<!-- 11&#45;&gt;10 -->
<g id="edge15" class="edge">
<title>11&#45;&gt;10</title>
<path fill="none" stroke="grey" stroke-width="2" d="M460,-647.34C460,-640.75 460,-633.08 460,-625.67"/>
<polygon fill="grey" stroke="grey" stroke-width="2" points="463.5,-625.93 460,-615.93 456.5,-625.93 463.5,-625.93"/>
</g>
<!-- 12 -->
<g id="node13" class="node">
<title>12</title>
<path fill="none" stroke="#97d856" stroke-width="2" d="M440.5,-324C440.5,-324 331.5,-324 331.5,-324 325.5,-324 319.5,-318 319.5,-312 319.5,-312 319.5,-300 319.5,-300 319.5,-294 325.5,-288 331.5,-288 331.5,-288 440.5,-288 440.5,-288 446.5,-288 452.5,-294 452.5,-300 452.5,-300 452.5,-312 452.5,-312 452.5,-318 446.5,-324 440.5,-324"/>
<text text-anchor="middle" x="386" y="-303.5" font-family="sans" font-size="10.00">bbmap_max_read_length</text>
</g>
<!-- 12&#45;&gt;4 -->
<g id="edge6" class="edge">
<title>12&#45;&gt;4</title>
<path fill="none" stroke="grey" stroke-width="2" d="M369.85,-287.34C362.93,-279.77 354.69,-270.75 347.01,-262.35"/>
<polygon fill="grey" stroke="grey" stroke-width="2" points="349.74,-260.15 340.41,-255.14 344.57,-264.88 349.74,-260.15"/>
</g>
<!-- 13&#45;&gt;12 -->
<g id="edge16" class="edge">
<title>13&#45;&gt;12</title>
<path fill="none" stroke="grey" stroke-width="2" d="M398.71,-359.34C397.09,-352.67 395.2,-344.89 393.38,-337.39"/>
<polygon fill="grey" stroke="grey" stroke-width="2" points="396.82,-336.73 391.06,-327.84 390.02,-338.39 396.82,-336.73"/>
</g>
<!-- 14&#45;&gt;5 -->
<g id="edge8" class="edge">
<title>14&#45;&gt;5</title>
<path fill="none" stroke="grey" stroke-width="2" d="M358.98,-431.15C339.21,-422.34 315.13,-411.61 293.96,-402.17"/>
<polygon fill="grey" stroke="grey" stroke-width="2" points="295.55,-399.04 284.99,-398.17 292.7,-405.44 295.55,-399.04"/>
</g>
<!-- 14&#45;&gt;13 -->
<g id="edge17" class="edge">
<title>14&#45;&gt;13</title>
<path fill="none" stroke="grey" stroke-width="2" d="M400.01,-431.34C400.39,-424.75 400.82,-417.08 401.25,-409.67"/>
<polygon fill="grey" stroke="grey" stroke-width="2" points="404.73,-410.11 401.8,-399.92 397.74,-409.71 404.73,-410.11"/>
</g>
<!-- 15&#45;&gt;7 -->
<g id="edge11" class="edge">
<title>15&#45;&gt;7</title>
<path fill="none" stroke="grey" stroke-width="2" d="M210.24,-575.15C228.94,-566.43 251.7,-555.81 271.79,-546.43"/>
<polygon fill="grey" stroke="grey" stroke-width="2" points="273.25,-549.61 280.83,-542.21 270.28,-543.27 273.25,-549.61"/>
</g>
<!-- 16&#45;&gt;3 -->
<g id="edge5" class="edge">
<title>16&#45;&gt;3</title>
<path fill="none" stroke="grey" stroke-width="2" d="M359.38,-143.34C354.21,-136.1 348.09,-127.53 342.32,-119.45"/>
<polygon fill="grey" stroke="grey" stroke-width="2" points="345.21,-117.47 336.55,-111.37 339.51,-121.54 345.21,-117.47"/>
</g>
</g>
</svg>
